<?xml version="1.0" encoding="utf-8" standalone="no"?>
<!DOCTYPE svg PUBLIC "-//W3C//DTD SVG 1.1//EN"
  "http://www.w3.org/Graphics/SVG/1.1/DTD/svg11.dtd">
<svg xmlns:xlink="http://www.w3.org/1999/xlink" width="1072.8pt" height="640.8pt" viewBox="0 0 1072.8 640.8" xmlns="http://www.w3.org/2000/svg" version="1.1">
 <metadata>
  <rdf:RDF xmlns:dc="http://purl.org/dc/elements/1.1/" xmlns:cc="http://creativecommons.org/ns#" xmlns:rdf="http://www.w3.org/1999/02/22-rdf-syntax-ns#">
   <cc:Work>
    <dc:type rdf:resource="http://purl.org/dc/dcmitype/StillImage"/>
    <dc:date>2026-06-15T15:19:14.001001</dc:date>
    <dc:format>image/svg+xml</dc:format>
    <dc:creator>
     <cc:Agent>
      <dc:title>Matplotlib v3.10.8, https://matplotlib.org/</dc:title>
     </cc:Agent>
    </dc:creator>
   </cc:Work>
  </rdf:RDF>
 </metadata>
 <defs>
  <style type="text/css">*{stroke-linejoin: round; stroke-linecap: butt}</style>
 </defs>
 <g id="figure_1">
  <g id="patch_1">
   <path d="M 0 640.8 
L 1072.8 640.8 
L 1072.8 0 
L 0 0 
z
" style="fill: #ffffff"/>
  </g>
  <g id="axes_1">
   <g id="patch_2">
    <path d="M 82.6992 339.54 
L 228.0528 339.54 
Q 233.6976 339.54 233.6976 333.972 
L 233.6976 292.908 
Q 233.6976 287.34 228.0528 287.34 
L 82.6992 287.34 
Q 77.0544 287.34 77.0544 292.908 
L 77.0544 333.972 
Q 77.0544 339.54 82.6992 339.54 
z
" clip-path="url(#p4e9bb1f635)" style="fill: #f3f6fa; stroke: #2f3a4a; stroke-width: 1.25; stroke-linejoin: miter"/>
   </g>
   <g id="patch_3">
    <path d="M 334.9512 179.46 
L 476.7768 179.46 
Q 482.4216 179.46 482.4216 173.892 
L 482.4216 139.788 
Q 482.4216 134.22 476.7768 134.22 
L 334.9512 134.22 
Q 329.3064 134.22 329.3064 139.788 
L 329.3064 173.892 
Q 329.3064 179.46 334.9512 179.46 
z
" clip-path="url(#p4e9bb1f635)" style="fill: #f7f8fa; stroke: #2f3a4a; stroke-width: 1.25; stroke-linejoin: miter"/>
   </g>
   <g id="patch_4">
    <path d="M 562.5072 116.472 
L 729.0288 116.472 
Q 734.6736 116.472 734.6736 110.904 
L 734.6736 87.936 
Q 734.6736 82.368 729.0288 82.368 
L 562.5072 82.368 
Q 556.8624 82.368 556.8624 87.936 
L 556.8624 110.904 
Q 556.8624 116.472 562.5072 116.472 
z
" clip-path="url(#p4e9bb1f635)" style="fill: #ffffff; stroke: #7a869a; stroke-width: 1.25; stroke-linejoin: miter"/>
   </g>
   <g id="patch_5">
    <path d="M 562.5072 154.752 
L 729.0288 154.752 
Q 734.6736 154.752 734.6736 149.184 
L 734.6736 126.216 
Q 734.6736 120.648 729.0288 120.648 
L 562.5072 120.648 
Q 556.8624 120.648 556.8624 126.216 
L 556.8624 149.184 
Q 556.8624 154.752 562.5072 154.752 
z
" clip-path="url(#p4e9bb1f635)" style="fill: #ffffff; stroke: #7a869a; stroke-width: 1.25; stroke-linejoin: miter"/>
   </g>
   <g id="patch_6">
    <path d="M 562.5072 193.032 
L 729.0288 193.032 
Q 734.6736 193.032 734.6736 187.464 
L 734.6736 164.496 
Q 734.6736 158.928 729.0288 158.928 
L 562.5072 158.928 
Q 556.8624 158.928 556.8624 164.496 
L 556.8624 187.464 
Q 556.8624 193.032 562.5072 193.032 
z
" clip-path="url(#p4e9bb1f635)" style="fill: #ffffff; stroke: #7a869a; stroke-width: 1.25; stroke-linejoin: miter"/>
   </g>
   <g id="patch_7">
    <path d="M 562.5072 231.312 
L 729.0288 231.312 
Q 734.6736 231.312 734.6736 225.744 
L 734.6736 202.776 
Q 734.6736 197.208 729.0288 197.208 
L 562.5072 197.208 
Q 556.8624 197.208 556.8624 202.776 
L 556.8624 225.744 
Q 556.8624 231.312 562.5072 231.312 
z
" clip-path="url(#p4e9bb1f635)" style="fill: #ffffff; stroke: #7a869a; stroke-width: 1.25; stroke-linejoin: miter"/>
   </g>
   <g id="patch_8">
    <path d="M 334.9512 276.9 
L 476.7768 276.9 
Q 482.4216 276.9 482.4216 271.332 
L 482.4216 237.228 
Q 482.4216 231.66 476.7768 231.66 
L 334.9512 231.66 
Q 329.3064 231.66 329.3064 237.228 
L 329.3064 271.332 
Q 329.3064 276.9 334.9512 276.9 
z
" clip-path="url(#p4e9bb1f635)" style="fill: #f7f8fa; stroke: #2f3a4a; stroke-width: 1.25; stroke-linejoin: miter"/>
   </g>
   <g id="patch_9">
    <path d="M 562.5072 271.332 
L 729.0288 271.332 
Q 734.6736 271.332 734.6736 265.764 
L 734.6736 242.796 
Q 734.6736 237.228 729.0288 237.228 
L 562.5072 237.228 
Q 556.8624 237.228 556.8624 242.796 
L 556.8624 265.764 
Q 556.8624 271.332 562.5072 271.332 
z
" clip-path="url(#p4e9bb1f635)" style="fill: #ffffff; stroke: #7a869a; stroke-width: 1.25; stroke-linejoin: miter"/>
   </g>
   <g id="patch_10">
    <path d="M 334.9512 346.5 
L 476.7768 346.5 
Q 482.4216 346.5 482.4216 340.932 
L 482.4216 306.828 
Q 482.4216 301.26 476.7768 301.26 
L 334.9512 301.26 
Q 329.3064 301.26 329.3064 306.828 
L 329.3064 340.932 
Q 329.3064 346.5 334.9512 346.5 
z
" clip-path="url(#p4e9bb1f635)" style="fill: #f7f8fa; stroke: #2f3a4a; stroke-width: 1.25; stroke-linejoin: miter"/>
   </g>
   <g id="patch_11">
    <path d="M 562.5072 340.932 
L 729.0288 340.932 
Q 734.6736 340.932 734.6736 335.364 
L 734.6736 312.396 
Q 734.6736 306.828 729.0288 306.828 
L 562.5072 306.828 
Q 556.8624 306.828 556.8624 312.396 
L 556.8624 335.364 
Q 556.8624 340.932 562.5072 340.932 
z
" clip-path="url(#p4e9bb1f635)" style="fill: #ffffff; stroke: #7a869a; stroke-width: 1.25; stroke-linejoin: miter"/>
   </g>
   <g id="patch_12">
    <path d="M 334.9512 416.1 
L 476.7768 416.1 
Q 482.4216 416.1 482.4216 410.532 
L 482.4216 376.428 
Q 482.4216 370.86 476.7768 370.86 
L 334.9512 370.86 
Q 329.3064 370.86 329.3064 376.428 
L 329.3064 410.532 
Q 329.3064 416.1 334.9512 416.1 
z
" clip-path="url(#p4e9bb1f635)" style="fill: #f7f8fa; stroke: #2f3a4a; stroke-width: 1.25; stroke-linejoin: miter"/>
   </g>
   <g id="patch_13">
    <path d="M 562.5072 410.532 
L 729.0288 410.532 
Q 734.6736 410.532 734.6736 404.964 
L 734.6736 381.996 
Q 734.6736 376.428 729.0288 376.428 
L 562.5072 376.428 
Q 556.8624 376.428 556.8624 381.996 
L 556.8624 404.964 
Q 556.8624 410.532 562.5072 410.532 
z
" clip-path="url(#p4e9bb1f635)" style="fill: #ffffff; stroke: #7a869a; stroke-width: 1.25; stroke-linejoin: miter"/>
   </g>
   <g id="patch_14">
    <path d="M 334.9512 530.94 
L 476.7768 530.94 
Q 482.4216 530.94 482.4216 525.372 
L 482.4216 491.268 
Q 482.4216 485.7 476.7768 485.7 
L 334.9512 485.7 
Q 329.3064 485.7 329.3064 491.268 
L 329.3064 525.372 
Q 329.3064 530.94 334.9512 530.94 
z
" clip-path="url(#p4e9bb1f635)" style="fill: #f7f8fa; stroke: #2f3a4a; stroke-width: 1.25; stroke-linejoin: miter"/>
   </g>
   <g id="patch_15">
    <path d="M 562.5072 506.232 
L 729.0288 506.232 
Q 734.6736 506.232 734.6736 500.664 
L 734.6736 477.696 
Q 734.6736 472.128 729.0288 472.128 
L 562.5072 472.128 
Q 556.8624 472.128 556.8624 477.696 
L 556.8624 500.664 
Q 556.8624 506.232 562.5072 506.232 
z
" clip-path="url(#p4e9bb1f635)" style="fill: #ffffff; stroke: #7a869a; stroke-width: 1.25; stroke-linejoin: miter"/>
   </g>
   <g id="patch_16">
    <path d="M 562.5072 544.512 
L 729.0288 544.512 
Q 734.6736 544.512 734.6736 538.944 
L 734.6736 515.976 
Q 734.6736 510.408 729.0288 510.408 
L 562.5072 510.408 
Q 556.8624 510.408 556.8624 515.976 
L 556.8624 538.944 
Q 556.8624 544.512 562.5072 544.512 
z
" clip-path="url(#p4e9bb1f635)" style="fill: #ffffff; stroke: #7a869a; stroke-width: 1.25; stroke-linejoin: miter"/>
   </g>
   <g id="line2d_1">
    <path d="M 231.5808 313.44 
L 292.968 313.44 
" clip-path="url(#p4e9bb1f635)" style="fill: none; stroke: #5b677a; stroke-width: 1.45; stroke-linecap: square"/>
   </g>
   <g id="line2d_2">
    <path d="M 292.968 508.32 
L 292.968 156.84 
" clip-path="url(#p4e9bb1f635)" style="fill: none; stroke: #5b677a; stroke-width: 1.45; stroke-linecap: square"/>
   </g>
   <g id="line2d_3">
    <path d="M 292.968 156.84 
L 331.776 156.84 
" clip-path="url(#p4e9bb1f635)" style="fill: none; stroke: #5b677a; stroke-width: 1.45; stroke-linecap: square"/>
   </g>
   <g id="line2d_4">
    <path d="M 479.952 156.84 
L 550.512 156.84 
" clip-path="url(#p4e9bb1f635)" style="fill: none; stroke: #5b677a; stroke-width: 1.45; stroke-linecap: square"/>
   </g>
   <g id="line2d_5">
    <path d="M 550.512 214.26 
L 550.512 99.42 
" clip-path="url(#p4e9bb1f635)" style="fill: none; stroke: #5b677a; stroke-width: 1.45; stroke-linecap: square"/>
   </g>
   <g id="line2d_6">
    <path d="M 550.512 99.42 
L 559.6848 99.42 
" clip-path="url(#p4e9bb1f635)" style="fill: none; stroke: #5b677a; stroke-width: 1.45; stroke-linecap: square"/>
   </g>
   <g id="line2d_7">
    <path d="M 550.512 137.7 
L 559.6848 137.7 
" clip-path="url(#p4e9bb1f635)" style="fill: none; stroke: #5b677a; stroke-width: 1.45; stroke-linecap: square"/>
   </g>
   <g id="line2d_8">
    <path d="M 550.512 175.98 
L 559.6848 175.98 
" clip-path="url(#p4e9bb1f635)" style="fill: none; stroke: #5b677a; stroke-width: 1.45; stroke-linecap: square"/>
   </g>
   <g id="line2d_9">
    <path d="M 550.512 214.26 
L 559.6848 214.26 
" clip-path="url(#p4e9bb1f635)" style="fill: none; stroke: #5b677a; stroke-width: 1.45; stroke-linecap: square"/>
   </g>
   <g id="line2d_10">
    <path d="M 292.968 254.28 
L 331.776 254.28 
" clip-path="url(#p4e9bb1f635)" style="fill: none; stroke: #5b677a; stroke-width: 1.45; stroke-linecap: square"/>
   </g>
   <g id="line2d_11">
    <path d="M 479.952 254.28 
L 550.512 254.28 
" clip-path="url(#p4e9bb1f635)" style="fill: none; stroke: #5b677a; stroke-width: 1.45; stroke-linecap: square"/>
   </g>
   <g id="line2d_12">
    <path d="M 292.968 323.88 
L 331.776 323.88 
" clip-path="url(#p4e9bb1f635)" style="fill: none; stroke: #5b677a; stroke-width: 1.45; stroke-linecap: square"/>
   </g>
   <g id="line2d_13">
    <path d="M 479.952 323.88 
L 550.512 323.88 
" clip-path="url(#p4e9bb1f635)" style="fill: none; stroke: #5b677a; stroke-width: 1.45; stroke-linecap: square"/>
   </g>
   <g id="line2d_14">
    <path d="M 292.968 393.48 
L 331.776 393.48 
" clip-path="url(#p4e9bb1f635)" style="fill: none; stroke: #5b677a; stroke-width: 1.45; stroke-linecap: square"/>
   </g>
   <g id="line2d_15">
    <path d="M 479.952 393.48 
L 550.512 393.48 
" clip-path="url(#p4e9bb1f635)" style="fill: none; stroke: #5b677a; stroke-width: 1.45; stroke-linecap: square"/>
   </g>
   <g id="line2d_16">
    <path d="M 292.968 508.32 
L 331.776 508.32 
" clip-path="url(#p4e9bb1f635)" style="fill: none; stroke: #5b677a; stroke-width: 1.45; stroke-linecap: square"/>
   </g>
   <g id="line2d_17">
    <path d="M 479.952 508.32 
L 550.512 508.32 
" clip-path="url(#p4e9bb1f635)" style="fill: none; stroke: #5b677a; stroke-width: 1.45; stroke-linecap: square"/>
   </g>
   <g id="line2d_18">
    <path d="M 550.512 527.46 
L 550.512 489.18 
" clip-path="url(#p4e9bb1f635)" style="fill: none; stroke: #5b677a; stroke-width: 1.45; stroke-linecap: square"/>
   </g>
   <g id="line2d_19">
    <path d="M 550.512 489.18 
L 559.6848 489.18 
" clip-path="url(#p4e9bb1f635)" style="fill: none; stroke: #5b677a; stroke-width: 1.45; stroke-linecap: square"/>
   </g>
   <g id="line2d_20">
    <path d="M 550.512 527.46 
L 559.6848 527.46 
" clip-path="url(#p4e9bb1f635)" style="fill: none; stroke: #5b677a; stroke-width: 1.45; stroke-linecap: square"/>
   </g>
   <g id="text_1">
    <!-- Arquitectura modular del repositorio -->
    <g transform="translate(318.070547 47.794687) scale(0.21 -0.21)">
     <defs>
      <path id="DejaVuSans-Bold-41" d="M 3419 850 
L 1538 850 
L 1241 0 
L 31 0 
L 1759 4666 
L 3194 4666 
L 4922 0 
L 3713 0 
L 3419 850 
z
M 1838 1716 
L 3116 1716 
L 2478 3572 
L 1838 1716 
z
" transform="scale(0.015625)"/>
      <path id="DejaVuSans-Bold-72" d="M 3138 2547 
Q 2991 2616 2845 2648 
Q 2700 2681 2553 2681 
Q 2122 2681 1889 2404 
Q 1656 2128 1656 1613 
L 1656 0 
L 538 0 
L 538 3500 
L 1656 3500 
L 1656 2925 
Q 1872 3269 2151 3426 
Q 2431 3584 2822 3584 
Q 2878 3584 2943 3579 
Q 3009 3575 3134 3559 
L 3138 2547 
z
" transform="scale(0.015625)"/>
      <path id="DejaVuSans-Bold-71" d="M 2181 2772 
Q 1825 2772 1636 2509 
Q 1447 2247 1447 1747 
Q 1447 1247 1636 984 
Q 1825 722 2181 722 
Q 2541 722 2730 984 
Q 2919 1247 2919 1747 
Q 2919 2247 2730 2509 
Q 2541 2772 2181 2772 
z
M 2919 506 
Q 2688 197 2409 53 
Q 2131 -91 1766 -91 
Q 1119 -91 703 423 
Q 288 938 288 1747 
Q 288 2556 703 3067 
Q 1119 3578 1766 3578 
Q 2131 3578 2409 3434 
Q 2688 3291 2919 2981 
L 2919 3500 
L 4044 3500 
L 4044 -1331 
L 2919 -1331 
L 2919 506 
z
" transform="scale(0.015625)"/>
      <path id="DejaVuSans-Bold-75" d="M 500 1363 
L 500 3500 
L 1625 3500 
L 1625 3150 
Q 1625 2866 1622 2436 
Q 1619 2006 1619 1863 
Q 1619 1441 1641 1255 
Q 1663 1069 1716 984 
Q 1784 875 1895 815 
Q 2006 756 2150 756 
Q 2500 756 2700 1025 
Q 2900 1294 2900 1772 
L 2900 3500 
L 4019 3500 
L 4019 0 
L 2900 0 
L 2900 506 
Q 2647 200 2364 54 
Q 2081 -91 1741 -91 
Q 1134 -91 817 281 
Q 500 653 500 1363 
z
" transform="scale(0.015625)"/>
      <path id="DejaVuSans-Bold-69" d="M 538 3500 
L 1656 3500 
L 1656 0 
L 538 0 
L 538 3500 
z
M 538 4863 
L 1656 4863 
L 1656 3950 
L 538 3950 
L 538 4863 
z
" transform="scale(0.015625)"/>
      <path id="DejaVuSans-Bold-74" d="M 1759 4494 
L 1759 3500 
L 2913 3500 
L 2913 2700 
L 1759 2700 
L 1759 1216 
Q 1759 972 1856 886 
Q 1953 800 2241 800 
L 2816 800 
L 2816 0 
L 1856 0 
Q 1194 0 917 276 
Q 641 553 641 1216 
L 641 2700 
L 84 2700 
L 84 3500 
L 641 3500 
L 641 4494 
L 1759 4494 
z
" transform="scale(0.015625)"/>
      <path id="DejaVuSans-Bold-65" d="M 4031 1759 
L 4031 1441 
L 1416 1441 
Q 1456 1047 1700 850 
Q 1944 653 2381 653 
Q 2734 653 3104 758 
Q 3475 863 3866 1075 
L 3866 213 
Q 3469 63 3072 -14 
Q 2675 -91 2278 -91 
Q 1328 -91 801 392 
Q 275 875 275 1747 
Q 275 2603 792 3093 
Q 1309 3584 2216 3584 
Q 3041 3584 3536 3087 
Q 4031 2591 4031 1759 
z
M 2881 2131 
Q 2881 2450 2695 2645 
Q 2509 2841 2209 2841 
Q 1884 2841 1681 2658 
Q 1478 2475 1428 2131 
L 2881 2131 
z
" transform="scale(0.015625)"/>
      <path id="DejaVuSans-Bold-63" d="M 3366 3391 
L 3366 2478 
Q 3138 2634 2908 2709 
Q 2678 2784 2431 2784 
Q 1963 2784 1702 2511 
Q 1441 2238 1441 1747 
Q 1441 1256 1702 982 
Q 1963 709 2431 709 
Q 2694 709 2930 787 
Q 3166 866 3366 1019 
L 3366 103 
Q 3103 6 2833 -42 
Q 2563 -91 2291 -91 
Q 1344 -91 809 395 
Q 275 881 275 1747 
Q 275 2613 809 3098 
Q 1344 3584 2291 3584 
Q 2566 3584 2833 3536 
Q 3100 3488 3366 3391 
z
" transform="scale(0.015625)"/>
      <path id="DejaVuSans-Bold-61" d="M 2106 1575 
Q 1756 1575 1579 1456 
Q 1403 1338 1403 1106 
Q 1403 894 1545 773 
Q 1688 653 1941 653 
Q 2256 653 2472 879 
Q 2688 1106 2688 1447 
L 2688 1575 
L 2106 1575 
z
M 3816 1997 
L 3816 0 
L 2688 0 
L 2688 519 
Q 2463 200 2181 54 
Q 1900 -91 1497 -91 
Q 953 -91 614 226 
Q 275 544 275 1050 
Q 275 1666 698 1953 
Q 1122 2241 2028 2241 
L 2688 2241 
L 2688 2328 
Q 2688 2594 2478 2717 
Q 2269 2841 1825 2841 
Q 1466 2841 1156 2769 
Q 847 2697 581 2553 
L 581 3406 
Q 941 3494 1303 3539 
Q 1666 3584 2028 3584 
Q 2975 3584 3395 3211 
Q 3816 2838 3816 1997 
z
" transform="scale(0.015625)"/>
      <path id="DejaVuSans-Bold-20" transform="scale(0.015625)"/>
      <path id="DejaVuSans-Bold-6d" d="M 3781 2919 
Q 3994 3244 4286 3414 
Q 4578 3584 4928 3584 
Q 5531 3584 5847 3212 
Q 6163 2841 6163 2131 
L 6163 0 
L 5038 0 
L 5038 1825 
Q 5041 1866 5042 1909 
Q 5044 1953 5044 2034 
Q 5044 2406 4934 2573 
Q 4825 2741 4581 2741 
Q 4263 2741 4089 2478 
Q 3916 2216 3909 1719 
L 3909 0 
L 2784 0 
L 2784 1825 
Q 2784 2406 2684 2573 
Q 2584 2741 2328 2741 
Q 2006 2741 1831 2477 
Q 1656 2213 1656 1722 
L 1656 0 
L 531 0 
L 531 3500 
L 1656 3500 
L 1656 2988 
Q 1863 3284 2130 3434 
Q 2397 3584 2719 3584 
Q 3081 3584 3359 3409 
Q 3638 3234 3781 2919 
z
" transform="scale(0.015625)"/>
      <path id="DejaVuSans-Bold-6f" d="M 2203 2784 
Q 1831 2784 1636 2517 
Q 1441 2250 1441 1747 
Q 1441 1244 1636 976 
Q 1831 709 2203 709 
Q 2569 709 2762 976 
Q 2956 1244 2956 1747 
Q 2956 2250 2762 2517 
Q 2569 2784 2203 2784 
z
M 2203 3584 
Q 3106 3584 3614 3096 
Q 4122 2609 4122 1747 
Q 4122 884 3614 396 
Q 3106 -91 2203 -91 
Q 1297 -91 786 396 
Q 275 884 275 1747 
Q 275 2609 786 3096 
Q 1297 3584 2203 3584 
z
" transform="scale(0.015625)"/>
      <path id="DejaVuSans-Bold-64" d="M 2919 2988 
L 2919 4863 
L 4044 4863 
L 4044 0 
L 2919 0 
L 2919 506 
Q 2688 197 2409 53 
Q 2131 -91 1766 -91 
Q 1119 -91 703 423 
Q 288 938 288 1747 
Q 288 2556 703 3070 
Q 1119 3584 1766 3584 
Q 2128 3584 2408 3439 
Q 2688 3294 2919 2988 
z
M 2181 722 
Q 2541 722 2730 984 
Q 2919 1247 2919 1747 
Q 2919 2247 2730 2509 
Q 2541 2772 2181 2772 
Q 1825 2772 1636 2509 
Q 1447 2247 1447 1747 
Q 1447 1247 1636 984 
Q 1825 722 2181 722 
z
" transform="scale(0.015625)"/>
      <path id="DejaVuSans-Bold-6c" d="M 538 4863 
L 1656 4863 
L 1656 0 
L 538 0 
L 538 4863 
z
" transform="scale(0.015625)"/>
      <path id="DejaVuSans-Bold-70" d="M 1656 506 
L 1656 -1331 
L 538 -1331 
L 538 3500 
L 1656 3500 
L 1656 2988 
Q 1888 3294 2169 3439 
Q 2450 3584 2816 3584 
Q 3463 3584 3878 3070 
Q 4294 2556 4294 1747 
Q 4294 938 3878 423 
Q 3463 -91 2816 -91 
Q 2450 -91 2169 54 
Q 1888 200 1656 506 
z
M 2400 2772 
Q 2041 2772 1848 2508 
Q 1656 2244 1656 1747 
Q 1656 1250 1848 986 
Q 2041 722 2400 722 
Q 2759 722 2948 984 
Q 3138 1247 3138 1747 
Q 3138 2247 2948 2509 
Q 2759 2772 2400 2772 
z
" transform="scale(0.015625)"/>
      <path id="DejaVuSans-Bold-73" d="M 3272 3391 
L 3272 2541 
Q 2913 2691 2578 2766 
Q 2244 2841 1947 2841 
Q 1628 2841 1473 2761 
Q 1319 2681 1319 2516 
Q 1319 2381 1436 2309 
Q 1553 2238 1856 2203 
L 2053 2175 
Q 2913 2066 3209 1816 
Q 3506 1566 3506 1031 
Q 3506 472 3093 190 
Q 2681 -91 1863 -91 
Q 1516 -91 1145 -36 
Q 775 19 384 128 
L 384 978 
Q 719 816 1070 734 
Q 1422 653 1784 653 
Q 2113 653 2278 743 
Q 2444 834 2444 1013 
Q 2444 1163 2330 1236 
Q 2216 1309 1875 1350 
L 1678 1375 
Q 931 1469 631 1722 
Q 331 1975 331 2491 
Q 331 3047 712 3315 
Q 1094 3584 1881 3584 
Q 2191 3584 2531 3537 
Q 2872 3491 3272 3391 
z
" transform="scale(0.015625)"/>
     </defs>
     <use xlink:href="#DejaVuSans-Bold-41"/>
     <use xlink:href="#DejaVuSans-Bold-72" transform="translate(77.392578 0)"/>
     <use xlink:href="#DejaVuSans-Bold-71" transform="translate(126.708984 0)"/>
     <use xlink:href="#DejaVuSans-Bold-75" transform="translate(198.291016 0)"/>
     <use xlink:href="#DejaVuSans-Bold-69" transform="translate(269.482422 0)"/>
     <use xlink:href="#DejaVuSans-Bold-74" transform="translate(303.759766 0)"/>
     <use xlink:href="#DejaVuSans-Bold-65" transform="translate(351.5625 0)"/>
     <use xlink:href="#DejaVuSans-Bold-63" transform="translate(419.384766 0)"/>
     <use xlink:href="#DejaVuSans-Bold-74" transform="translate(478.662109 0)"/>
     <use xlink:href="#DejaVuSans-Bold-75" transform="translate(526.464844 0)"/>
     <use xlink:href="#DejaVuSans-Bold-72" transform="translate(597.65625 0)"/>
     <use xlink:href="#DejaVuSans-Bold-61" transform="translate(646.972656 0)"/>
     <use xlink:href="#DejaVuSans-Bold-20" transform="translate(714.453125 0)"/>
     <use xlink:href="#DejaVuSans-Bold-6d" transform="translate(749.267578 0)"/>
     <use xlink:href="#DejaVuSans-Bold-6f" transform="translate(853.466797 0)"/>
     <use xlink:href="#DejaVuSans-Bold-64" transform="translate(922.167969 0)"/>
     <use xlink:href="#DejaVuSans-Bold-75" transform="translate(993.75 0)"/>
     <use xlink:href="#DejaVuSans-Bold-6c" transform="translate(1064.941406 0)"/>
     <use xlink:href="#DejaVuSans-Bold-61" transform="translate(1099.21875 0)"/>
     <use xlink:href="#DejaVuSans-Bold-72" transform="translate(1166.699219 0)"/>
     <use xlink:href="#DejaVuSans-Bold-20" transform="translate(1216.015625 0)"/>
     <use xlink:href="#DejaVuSans-Bold-64" transform="translate(1250.830078 0)"/>
     <use xlink:href="#DejaVuSans-Bold-65" transform="translate(1322.412109 0)"/>
     <use xlink:href="#DejaVuSans-Bold-6c" transform="translate(1390.234375 0)"/>
     <use xlink:href="#DejaVuSans-Bold-20" transform="translate(1424.511719 0)"/>
     <use xlink:href="#DejaVuSans-Bold-72" transform="translate(1459.326172 0)"/>
     <use xlink:href="#DejaVuSans-Bold-65" transform="translate(1508.642578 0)"/>
     <use xlink:href="#DejaVuSans-Bold-70" transform="translate(1576.464844 0)"/>
     <use xlink:href="#DejaVuSans-Bold-6f" transform="translate(1648.046875 0)"/>
     <use xlink:href="#DejaVuSans-Bold-73" transform="translate(1716.748047 0)"/>
     <use xlink:href="#DejaVuSans-Bold-69" transform="translate(1776.269531 0)"/>
     <use xlink:href="#DejaVuSans-Bold-74" transform="translate(1810.546875 0)"/>
     <use xlink:href="#DejaVuSans-Bold-6f" transform="translate(1858.349609 0)"/>
     <use xlink:href="#DejaVuSans-Bold-72" transform="translate(1927.050781 0)"/>
     <use xlink:href="#DejaVuSans-Bold-69" transform="translate(1976.367188 0)"/>
     <use xlink:href="#DejaVuSans-Bold-6f" transform="translate(2010.644531 0)"/>
    </g>
   </g>
   <g id="text_2">
    <!-- main.py -->
    <g style="fill: #1f2937" transform="translate(123.742563 317.248437) scale(0.14 -0.14)">
     <defs>
      <path id="DejaVuSans-Bold-6e" d="M 4056 2131 
L 4056 0 
L 2931 0 
L 2931 347 
L 2931 1631 
Q 2931 2084 2911 2256 
Q 2891 2428 2841 2509 
Q 2775 2619 2662 2680 
Q 2550 2741 2406 2741 
Q 2056 2741 1856 2470 
Q 1656 2200 1656 1722 
L 1656 0 
L 538 0 
L 538 3500 
L 1656 3500 
L 1656 2988 
Q 1909 3294 2193 3439 
Q 2478 3584 2822 3584 
Q 3428 3584 3742 3212 
Q 4056 2841 4056 2131 
z
" transform="scale(0.015625)"/>
      <path id="DejaVuSans-Bold-2e" d="M 653 1209 
L 1778 1209 
L 1778 0 
L 653 0 
L 653 1209 
z
" transform="scale(0.015625)"/>
      <path id="DejaVuSans-Bold-79" d="M 78 3500 
L 1197 3500 
L 2138 1125 
L 2938 3500 
L 4056 3500 
L 2584 -331 
Q 2363 -916 2067 -1148 
Q 1772 -1381 1288 -1381 
L 641 -1381 
L 641 -647 
L 991 -647 
Q 1275 -647 1404 -556 
Q 1534 -466 1606 -231 
L 1638 -134 
L 78 3500 
z
" transform="scale(0.015625)"/>
     </defs>
     <use xlink:href="#DejaVuSans-Bold-6d"/>
     <use xlink:href="#DejaVuSans-Bold-61" transform="translate(104.199219 0)"/>
     <use xlink:href="#DejaVuSans-Bold-69" transform="translate(171.679688 0)"/>
     <use xlink:href="#DejaVuSans-Bold-6e" transform="translate(205.957031 0)"/>
     <use xlink:href="#DejaVuSans-Bold-2e" transform="translate(277.148438 0)"/>
     <use xlink:href="#DejaVuSans-Bold-70" transform="translate(315.136719 0)"/>
     <use xlink:href="#DejaVuSans-Bold-79" transform="translate(386.71875 0)"/>
    </g>
   </g>
   <g id="text_3">
    <!-- core/ -->
    <g style="fill: #1f2937" transform="translate(388.260484 160.289219) scale(0.125 -0.125)">
     <defs>
      <path id="DejaVuSans-Bold-2f" d="M 1644 4666 
L 2338 4666 
L 691 -594 
L 0 -594 
L 1644 4666 
z
" transform="scale(0.015625)"/>
     </defs>
     <use xlink:href="#DejaVuSans-Bold-63"/>
     <use xlink:href="#DejaVuSans-Bold-6f" transform="translate(59.277344 0)"/>
     <use xlink:href="#DejaVuSans-Bold-72" transform="translate(127.978516 0)"/>
     <use xlink:href="#DejaVuSans-Bold-65" transform="translate(177.294922 0)"/>
     <use xlink:href="#DejaVuSans-Bold-2f" transform="translate(245.117188 0)"/>
    </g>
   </g>
   <g id="text_4">
    <!-- ai_generator.py -->
    <g style="fill: #1f2937" transform="translate(604.912336 102.171328) scale(0.105 -0.105)">
     <defs>
      <path id="DejaVuSans-61" d="M 2194 1759 
Q 1497 1759 1228 1600 
Q 959 1441 959 1056 
Q 959 750 1161 570 
Q 1363 391 1709 391 
Q 2188 391 2477 730 
Q 2766 1069 2766 1631 
L 2766 1759 
L 2194 1759 
z
M 3341 1997 
L 3341 0 
L 2766 0 
L 2766 531 
Q 2569 213 2275 61 
Q 1981 -91 1556 -91 
Q 1019 -91 701 211 
Q 384 513 384 1019 
Q 384 1609 779 1909 
Q 1175 2209 1959 2209 
L 2766 2209 
L 2766 2266 
Q 2766 2663 2505 2880 
Q 2244 3097 1772 3097 
Q 1472 3097 1187 3025 
Q 903 2953 641 2809 
L 641 3341 
Q 956 3463 1253 3523 
Q 1550 3584 1831 3584 
Q 2591 3584 2966 3190 
Q 3341 2797 3341 1997 
z
" transform="scale(0.015625)"/>
      <path id="DejaVuSans-69" d="M 603 3500 
L 1178 3500 
L 1178 0 
L 603 0 
L 603 3500 
z
M 603 4863 
L 1178 4863 
L 1178 4134 
L 603 4134 
L 603 4863 
z
" transform="scale(0.015625)"/>
      <path id="DejaVuSans-5f" d="M 3263 -1063 
L 3263 -1509 
L -63 -1509 
L -63 -1063 
L 3263 -1063 
z
" transform="scale(0.015625)"/>
      <path id="DejaVuSans-67" d="M 2906 1791 
Q 2906 2416 2648 2759 
Q 2391 3103 1925 3103 
Q 1463 3103 1205 2759 
Q 947 2416 947 1791 
Q 947 1169 1205 825 
Q 1463 481 1925 481 
Q 2391 481 2648 825 
Q 2906 1169 2906 1791 
z
M 3481 434 
Q 3481 -459 3084 -895 
Q 2688 -1331 1869 -1331 
Q 1566 -1331 1297 -1286 
Q 1028 -1241 775 -1147 
L 775 -588 
Q 1028 -725 1275 -790 
Q 1522 -856 1778 -856 
Q 2344 -856 2625 -561 
Q 2906 -266 2906 331 
L 2906 616 
Q 2728 306 2450 153 
Q 2172 0 1784 0 
Q 1141 0 747 490 
Q 353 981 353 1791 
Q 353 2603 747 3093 
Q 1141 3584 1784 3584 
Q 2172 3584 2450 3431 
Q 2728 3278 2906 2969 
L 2906 3500 
L 3481 3500 
L 3481 434 
z
" transform="scale(0.015625)"/>
      <path id="DejaVuSans-65" d="M 3597 1894 
L 3597 1613 
L 953 1613 
Q 991 1019 1311 708 
Q 1631 397 2203 397 
Q 2534 397 2845 478 
Q 3156 559 3463 722 
L 3463 178 
Q 3153 47 2828 -22 
Q 2503 -91 2169 -91 
Q 1331 -91 842 396 
Q 353 884 353 1716 
Q 353 2575 817 3079 
Q 1281 3584 2069 3584 
Q 2775 3584 3186 3129 
Q 3597 2675 3597 1894 
z
M 3022 2063 
Q 3016 2534 2758 2815 
Q 2500 3097 2075 3097 
Q 1594 3097 1305 2825 
Q 1016 2553 972 2059 
L 3022 2063 
z
" transform="scale(0.015625)"/>
      <path id="DejaVuSans-6e" d="M 3513 2113 
L 3513 0 
L 2938 0 
L 2938 2094 
Q 2938 2591 2744 2837 
Q 2550 3084 2163 3084 
Q 1697 3084 1428 2787 
Q 1159 2491 1159 1978 
L 1159 0 
L 581 0 
L 581 3500 
L 1159 3500 
L 1159 2956 
Q 1366 3272 1645 3428 
Q 1925 3584 2291 3584 
Q 2894 3584 3203 3211 
Q 3513 2838 3513 2113 
z
" transform="scale(0.015625)"/>
      <path id="DejaVuSans-72" d="M 2631 2963 
Q 2534 3019 2420 3045 
Q 2306 3072 2169 3072 
Q 1681 3072 1420 2755 
Q 1159 2438 1159 1844 
L 1159 0 
L 581 0 
L 581 3500 
L 1159 3500 
L 1159 2956 
Q 1341 3275 1631 3429 
Q 1922 3584 2338 3584 
Q 2397 3584 2469 3576 
Q 2541 3569 2628 3553 
L 2631 2963 
z
" transform="scale(0.015625)"/>
      <path id="DejaVuSans-74" d="M 1172 4494 
L 1172 3500 
L 2356 3500 
L 2356 3053 
L 1172 3053 
L 1172 1153 
Q 1172 725 1289 603 
Q 1406 481 1766 481 
L 2356 481 
L 2356 0 
L 1766 0 
Q 1100 0 847 248 
Q 594 497 594 1153 
L 594 3053 
L 172 3053 
L 172 3500 
L 594 3500 
L 594 4494 
L 1172 4494 
z
" transform="scale(0.015625)"/>
      <path id="DejaVuSans-6f" d="M 1959 3097 
Q 1497 3097 1228 2736 
Q 959 2375 959 1747 
Q 959 1119 1226 758 
Q 1494 397 1959 397 
Q 2419 397 2687 759 
Q 2956 1122 2956 1747 
Q 2956 2369 2687 2733 
Q 2419 3097 1959 3097 
z
M 1959 3584 
Q 2709 3584 3137 3096 
Q 3566 2609 3566 1747 
Q 3566 888 3137 398 
Q 2709 -91 1959 -91 
Q 1206 -91 779 398 
Q 353 888 353 1747 
Q 353 2609 779 3096 
Q 1206 3584 1959 3584 
z
" transform="scale(0.015625)"/>
      <path id="DejaVuSans-2e" d="M 684 794 
L 1344 794 
L 1344 0 
L 684 0 
L 684 794 
z
" transform="scale(0.015625)"/>
      <path id="DejaVuSans-70" d="M 1159 525 
L 1159 -1331 
L 581 -1331 
L 581 3500 
L 1159 3500 
L 1159 2969 
Q 1341 3281 1617 3432 
Q 1894 3584 2278 3584 
Q 2916 3584 3314 3078 
Q 3713 2572 3713 1747 
Q 3713 922 3314 415 
Q 2916 -91 2278 -91 
Q 1894 -91 1617 61 
Q 1341 213 1159 525 
z
M 3116 1747 
Q 3116 2381 2855 2742 
Q 2594 3103 2138 3103 
Q 1681 3103 1420 2742 
Q 1159 2381 1159 1747 
Q 1159 1113 1420 752 
Q 1681 391 2138 391 
Q 2594 391 2855 752 
Q 3116 1113 3116 1747 
z
" transform="scale(0.015625)"/>
      <path id="DejaVuSans-79" d="M 2059 -325 
Q 1816 -950 1584 -1140 
Q 1353 -1331 966 -1331 
L 506 -1331 
L 506 -850 
L 844 -850 
Q 1081 -850 1212 -737 
Q 1344 -625 1503 -206 
L 1606 56 
L 191 3500 
L 800 3500 
L 1894 763 
L 2988 3500 
L 3597 3500 
L 2059 -325 
z
" transform="scale(0.015625)"/>
     </defs>
     <use xlink:href="#DejaVuSans-61"/>
     <use xlink:href="#DejaVuSans-69" transform="translate(61.279297 0)"/>
     <use xlink:href="#DejaVuSans-5f" transform="translate(89.0625 0)"/>
     <use xlink:href="#DejaVuSans-67" transform="translate(139.0625 0)"/>
     <use xlink:href="#DejaVuSans-65" transform="translate(202.539062 0)"/>
     <use xlink:href="#DejaVuSans-6e" transform="translate(264.0625 0)"/>
     <use xlink:href="#DejaVuSans-65" transform="translate(327.441406 0)"/>
     <use xlink:href="#DejaVuSans-72" transform="translate(388.964844 0)"/>
     <use xlink:href="#DejaVuSans-61" transform="translate(430.078125 0)"/>
     <use xlink:href="#DejaVuSans-74" transform="translate(491.357422 0)"/>
     <use xlink:href="#DejaVuSans-6f" transform="translate(530.566406 0)"/>
     <use xlink:href="#DejaVuSans-72" transform="translate(591.748047 0)"/>
     <use xlink:href="#DejaVuSans-2e" transform="translate(623.736328 0)"/>
     <use xlink:href="#DejaVuSans-70" transform="translate(655.523438 0)"/>
     <use xlink:href="#DejaVuSans-79" transform="translate(719 0)"/>
    </g>
   </g>
   <g id="text_5">
    <!-- pdf_processor.py -->
    <g style="fill: #1f2937" transform="translate(601.456359 140.451328) scale(0.105 -0.105)">
     <defs>
      <path id="DejaVuSans-64" d="M 2906 2969 
L 2906 4863 
L 3481 4863 
L 3481 0 
L 2906 0 
L 2906 525 
Q 2725 213 2448 61 
Q 2172 -91 1784 -91 
Q 1150 -91 751 415 
Q 353 922 353 1747 
Q 353 2572 751 3078 
Q 1150 3584 1784 3584 
Q 2172 3584 2448 3432 
Q 2725 3281 2906 2969 
z
M 947 1747 
Q 947 1113 1208 752 
Q 1469 391 1925 391 
Q 2381 391 2643 752 
Q 2906 1113 2906 1747 
Q 2906 2381 2643 2742 
Q 2381 3103 1925 3103 
Q 1469 3103 1208 2742 
Q 947 2381 947 1747 
z
" transform="scale(0.015625)"/>
      <path id="DejaVuSans-66" d="M 2375 4863 
L 2375 4384 
L 1825 4384 
Q 1516 4384 1395 4259 
Q 1275 4134 1275 3809 
L 1275 3500 
L 2222 3500 
L 2222 3053 
L 1275 3053 
L 1275 0 
L 697 0 
L 697 3053 
L 147 3053 
L 147 3500 
L 697 3500 
L 697 3744 
Q 697 4328 969 4595 
Q 1241 4863 1831 4863 
L 2375 4863 
z
" transform="scale(0.015625)"/>
      <path id="DejaVuSans-63" d="M 3122 3366 
L 3122 2828 
Q 2878 2963 2633 3030 
Q 2388 3097 2138 3097 
Q 1578 3097 1268 2742 
Q 959 2388 959 1747 
Q 959 1106 1268 751 
Q 1578 397 2138 397 
Q 2388 397 2633 464 
Q 2878 531 3122 666 
L 3122 134 
Q 2881 22 2623 -34 
Q 2366 -91 2075 -91 
Q 1284 -91 818 406 
Q 353 903 353 1747 
Q 353 2603 823 3093 
Q 1294 3584 2113 3584 
Q 2378 3584 2631 3529 
Q 2884 3475 3122 3366 
z
" transform="scale(0.015625)"/>
      <path id="DejaVuSans-73" d="M 2834 3397 
L 2834 2853 
Q 2591 2978 2328 3040 
Q 2066 3103 1784 3103 
Q 1356 3103 1142 2972 
Q 928 2841 928 2578 
Q 928 2378 1081 2264 
Q 1234 2150 1697 2047 
L 1894 2003 
Q 2506 1872 2764 1633 
Q 3022 1394 3022 966 
Q 3022 478 2636 193 
Q 2250 -91 1575 -91 
Q 1294 -91 989 -36 
Q 684 19 347 128 
L 347 722 
Q 666 556 975 473 
Q 1284 391 1588 391 
Q 1994 391 2212 530 
Q 2431 669 2431 922 
Q 2431 1156 2273 1281 
Q 2116 1406 1581 1522 
L 1381 1569 
Q 847 1681 609 1914 
Q 372 2147 372 2553 
Q 372 3047 722 3315 
Q 1072 3584 1716 3584 
Q 2034 3584 2315 3537 
Q 2597 3491 2834 3397 
z
" transform="scale(0.015625)"/>
     </defs>
     <use xlink:href="#DejaVuSans-70"/>
     <use xlink:href="#DejaVuSans-64" transform="translate(63.476562 0)"/>
     <use xlink:href="#DejaVuSans-66" transform="translate(126.953125 0)"/>
     <use xlink:href="#DejaVuSans-5f" transform="translate(162.158203 0)"/>
     <use xlink:href="#DejaVuSans-70" transform="translate(212.158203 0)"/>
     <use xlink:href="#DejaVuSans-72" transform="translate(275.634766 0)"/>
     <use xlink:href="#DejaVuSans-6f" transform="translate(314.498047 0)"/>
     <use xlink:href="#DejaVuSans-63" transform="translate(375.679688 0)"/>
     <use xlink:href="#DejaVuSans-65" transform="translate(430.660156 0)"/>
     <use xlink:href="#DejaVuSans-73" transform="translate(492.183594 0)"/>
     <use xlink:href="#DejaVuSans-73" transform="translate(544.283203 0)"/>
     <use xlink:href="#DejaVuSans-6f" transform="translate(596.382812 0)"/>
     <use xlink:href="#DejaVuSans-72" transform="translate(657.564453 0)"/>
     <use xlink:href="#DejaVuSans-2e" transform="translate(689.552734 0)"/>
     <use xlink:href="#DejaVuSans-70" transform="translate(721.339844 0)"/>
     <use xlink:href="#DejaVuSans-79" transform="translate(784.816406 0)"/>
    </g>
   </g>
   <g id="text_6">
    <!-- file_writer.py -->
    <g style="fill: #1f2937" transform="translate(612.160617 178.731328) scale(0.105 -0.105)">
     <defs>
      <path id="DejaVuSans-6c" d="M 603 4863 
L 1178 4863 
L 1178 0 
L 603 0 
L 603 4863 
z
" transform="scale(0.015625)"/>
      <path id="DejaVuSans-77" d="M 269 3500 
L 844 3500 
L 1563 769 
L 2278 3500 
L 2956 3500 
L 3675 769 
L 4391 3500 
L 4966 3500 
L 4050 0 
L 3372 0 
L 2619 2869 
L 1863 0 
L 1184 0 
L 269 3500 
z
" transform="scale(0.015625)"/>
     </defs>
     <use xlink:href="#DejaVuSans-66"/>
     <use xlink:href="#DejaVuSans-69" transform="translate(35.205078 0)"/>
     <use xlink:href="#DejaVuSans-6c" transform="translate(62.988281 0)"/>
     <use xlink:href="#DejaVuSans-65" transform="translate(90.771484 0)"/>
     <use xlink:href="#DejaVuSans-5f" transform="translate(152.294922 0)"/>
     <use xlink:href="#DejaVuSans-77" transform="translate(202.294922 0)"/>
     <use xlink:href="#DejaVuSans-72" transform="translate(284.082031 0)"/>
     <use xlink:href="#DejaVuSans-69" transform="translate(325.195312 0)"/>
     <use xlink:href="#DejaVuSans-74" transform="translate(352.978516 0)"/>
     <use xlink:href="#DejaVuSans-65" transform="translate(392.1875 0)"/>
     <use xlink:href="#DejaVuSans-72" transform="translate(453.710938 0)"/>
     <use xlink:href="#DejaVuSans-2e" transform="translate(485.699219 0)"/>
     <use xlink:href="#DejaVuSans-70" transform="translate(517.486328 0)"/>
     <use xlink:href="#DejaVuSans-79" transform="translate(580.962891 0)"/>
    </g>
   </g>
   <g id="text_7">
    <!-- xml_corrector.py -->
    <g style="fill: #1f2937" transform="translate(602.082258 217.011328) scale(0.105 -0.105)">
     <defs>
      <path id="DejaVuSans-78" d="M 3513 3500 
L 2247 1797 
L 3578 0 
L 2900 0 
L 1881 1375 
L 863 0 
L 184 0 
L 1544 1831 
L 300 3500 
L 978 3500 
L 1906 2253 
L 2834 3500 
L 3513 3500 
z
" transform="scale(0.015625)"/>
      <path id="DejaVuSans-6d" d="M 3328 2828 
Q 3544 3216 3844 3400 
Q 4144 3584 4550 3584 
Q 5097 3584 5394 3201 
Q 5691 2819 5691 2113 
L 5691 0 
L 5113 0 
L 5113 2094 
Q 5113 2597 4934 2840 
Q 4756 3084 4391 3084 
Q 3944 3084 3684 2787 
Q 3425 2491 3425 1978 
L 3425 0 
L 2847 0 
L 2847 2094 
Q 2847 2600 2669 2842 
Q 2491 3084 2119 3084 
Q 1678 3084 1418 2786 
Q 1159 2488 1159 1978 
L 1159 0 
L 581 0 
L 581 3500 
L 1159 3500 
L 1159 2956 
Q 1356 3278 1631 3431 
Q 1906 3584 2284 3584 
Q 2666 3584 2933 3390 
Q 3200 3197 3328 2828 
z
" transform="scale(0.015625)"/>
     </defs>
     <use xlink:href="#DejaVuSans-78"/>
     <use xlink:href="#DejaVuSans-6d" transform="translate(59.179688 0)"/>
     <use xlink:href="#DejaVuSans-6c" transform="translate(156.591797 0)"/>
     <use xlink:href="#DejaVuSans-5f" transform="translate(184.375 0)"/>
     <use xlink:href="#DejaVuSans-63" transform="translate(234.375 0)"/>
     <use xlink:href="#DejaVuSans-6f" transform="translate(289.355469 0)"/>
     <use xlink:href="#DejaVuSans-72" transform="translate(350.537109 0)"/>
     <use xlink:href="#DejaVuSans-72" transform="translate(389.900391 0)"/>
     <use xlink:href="#DejaVuSans-65" transform="translate(428.763672 0)"/>
     <use xlink:href="#DejaVuSans-63" transform="translate(490.287109 0)"/>
     <use xlink:href="#DejaVuSans-74" transform="translate(545.267578 0)"/>
     <use xlink:href="#DejaVuSans-6f" transform="translate(584.476562 0)"/>
     <use xlink:href="#DejaVuSans-72" transform="translate(645.658203 0)"/>
     <use xlink:href="#DejaVuSans-2e" transform="translate(677.646484 0)"/>
     <use xlink:href="#DejaVuSans-70" transform="translate(709.433594 0)"/>
     <use xlink:href="#DejaVuSans-79" transform="translate(772.910156 0)"/>
    </g>
   </g>
   <g id="text_8">
    <!-- validator/ -->
    <g style="fill: #1f2937" transform="translate(371.948961 257.729219) scale(0.125 -0.125)">
     <defs>
      <path id="DejaVuSans-Bold-76" d="M 97 3500 
L 1216 3500 
L 2088 1081 
L 2956 3500 
L 4078 3500 
L 2700 0 
L 1472 0 
L 97 3500 
z
" transform="scale(0.015625)"/>
     </defs>
     <use xlink:href="#DejaVuSans-Bold-76"/>
     <use xlink:href="#DejaVuSans-Bold-61" transform="translate(65.185547 0)"/>
     <use xlink:href="#DejaVuSans-Bold-6c" transform="translate(132.666016 0)"/>
     <use xlink:href="#DejaVuSans-Bold-69" transform="translate(166.943359 0)"/>
     <use xlink:href="#DejaVuSans-Bold-64" transform="translate(201.220703 0)"/>
     <use xlink:href="#DejaVuSans-Bold-61" transform="translate(272.802734 0)"/>
     <use xlink:href="#DejaVuSans-Bold-74" transform="translate(340.283203 0)"/>
     <use xlink:href="#DejaVuSans-Bold-6f" transform="translate(388.085938 0)"/>
     <use xlink:href="#DejaVuSans-Bold-72" transform="translate(456.787109 0)"/>
     <use xlink:href="#DejaVuSans-Bold-2f" transform="translate(506.103516 0)"/>
    </g>
   </g>
   <g id="text_9">
    <!-- xml_validator.py -->
    <g style="fill: #1f2937" transform="translate(602.613 257.031328) scale(0.105 -0.105)">
     <defs>
      <path id="DejaVuSans-76" d="M 191 3500 
L 800 3500 
L 1894 563 
L 2988 3500 
L 3597 3500 
L 2284 0 
L 1503 0 
L 191 3500 
z
" transform="scale(0.015625)"/>
     </defs>
     <use xlink:href="#DejaVuSans-78"/>
     <use xlink:href="#DejaVuSans-6d" transform="translate(59.179688 0)"/>
     <use xlink:href="#DejaVuSans-6c" transform="translate(156.591797 0)"/>
     <use xlink:href="#DejaVuSans-5f" transform="translate(184.375 0)"/>
     <use xlink:href="#DejaVuSans-76" transform="translate(234.375 0)"/>
     <use xlink:href="#DejaVuSans-61" transform="translate(293.554688 0)"/>
     <use xlink:href="#DejaVuSans-6c" transform="translate(354.833984 0)"/>
     <use xlink:href="#DejaVuSans-69" transform="translate(382.617188 0)"/>
     <use xlink:href="#DejaVuSans-64" transform="translate(410.400391 0)"/>
     <use xlink:href="#DejaVuSans-61" transform="translate(473.876953 0)"/>
     <use xlink:href="#DejaVuSans-74" transform="translate(535.15625 0)"/>
     <use xlink:href="#DejaVuSans-6f" transform="translate(574.365234 0)"/>
     <use xlink:href="#DejaVuSans-72" transform="translate(635.546875 0)"/>
     <use xlink:href="#DejaVuSans-2e" transform="translate(667.535156 0)"/>
     <use xlink:href="#DejaVuSans-70" transform="translate(699.322266 0)"/>
     <use xlink:href="#DejaVuSans-79" transform="translate(762.798828 0)"/>
    </g>
   </g>
   <g id="text_10">
    <!-- latex_generator/ -->
    <g style="fill: #1f2937" transform="translate(347.77318 327.155391) scale(0.125 -0.125)">
     <defs>
      <path id="DejaVuSans-Bold-78" d="M 1422 1791 
L 159 3500 
L 1344 3500 
L 2059 2463 
L 2784 3500 
L 3969 3500 
L 2706 1797 
L 4031 0 
L 2847 0 
L 2059 1106 
L 1281 0 
L 97 0 
L 1422 1791 
z
" transform="scale(0.015625)"/>
      <path id="DejaVuSans-Bold-5f" d="M 3200 -916 
L 3200 -1509 
L 0 -1509 
L 0 -916 
L 3200 -916 
z
" transform="scale(0.015625)"/>
      <path id="DejaVuSans-Bold-67" d="M 2919 594 
Q 2688 288 2409 144 
Q 2131 0 1766 0 
Q 1125 0 706 504 
Q 288 1009 288 1791 
Q 288 2575 706 3076 
Q 1125 3578 1766 3578 
Q 2131 3578 2409 3434 
Q 2688 3291 2919 2981 
L 2919 3500 
L 4044 3500 
L 4044 353 
Q 4044 -491 3511 -936 
Q 2978 -1381 1966 -1381 
Q 1638 -1381 1331 -1331 
Q 1025 -1281 716 -1178 
L 716 -306 
Q 1009 -475 1290 -558 
Q 1572 -641 1856 -641 
Q 2406 -641 2662 -400 
Q 2919 -159 2919 353 
L 2919 594 
z
M 2181 2772 
Q 1834 2772 1640 2515 
Q 1447 2259 1447 1791 
Q 1447 1309 1634 1061 
Q 1822 813 2181 813 
Q 2531 813 2725 1069 
Q 2919 1325 2919 1791 
Q 2919 2259 2725 2515 
Q 2531 2772 2181 2772 
z
" transform="scale(0.015625)"/>
     </defs>
     <use xlink:href="#DejaVuSans-Bold-6c"/>
     <use xlink:href="#DejaVuSans-Bold-61" transform="translate(34.277344 0)"/>
     <use xlink:href="#DejaVuSans-Bold-74" transform="translate(101.757812 0)"/>
     <use xlink:href="#DejaVuSans-Bold-65" transform="translate(149.560547 0)"/>
     <use xlink:href="#DejaVuSans-Bold-78" transform="translate(217.382812 0)"/>
     <use xlink:href="#DejaVuSans-Bold-5f" transform="translate(281.884766 0)"/>
     <use xlink:href="#DejaVuSans-Bold-67" transform="translate(331.884766 0)"/>
     <use xlink:href="#DejaVuSans-Bold-65" transform="translate(403.466797 0)"/>
     <use xlink:href="#DejaVuSans-Bold-6e" transform="translate(471.289062 0)"/>
     <use xlink:href="#DejaVuSans-Bold-65" transform="translate(542.480469 0)"/>
     <use xlink:href="#DejaVuSans-Bold-72" transform="translate(610.302734 0)"/>
     <use xlink:href="#DejaVuSans-Bold-61" transform="translate(659.619141 0)"/>
     <use xlink:href="#DejaVuSans-Bold-74" transform="translate(727.099609 0)"/>
     <use xlink:href="#DejaVuSans-Bold-6f" transform="translate(774.902344 0)"/>
     <use xlink:href="#DejaVuSans-Bold-72" transform="translate(843.603516 0)"/>
     <use xlink:href="#DejaVuSans-Bold-2f" transform="translate(892.919922 0)"/>
    </g>
   </g>
   <g id="text_11">
    <!-- converter.py -->
    <g style="fill: #1f2937" transform="translate(612.769289 326.777344) scale(0.105 -0.105)">
     <use xlink:href="#DejaVuSans-63"/>
     <use xlink:href="#DejaVuSans-6f" transform="translate(54.980469 0)"/>
     <use xlink:href="#DejaVuSans-6e" transform="translate(116.162109 0)"/>
     <use xlink:href="#DejaVuSans-76" transform="translate(179.541016 0)"/>
     <use xlink:href="#DejaVuSans-65" transform="translate(238.720703 0)"/>
     <use xlink:href="#DejaVuSans-72" transform="translate(300.244141 0)"/>
     <use xlink:href="#DejaVuSans-74" transform="translate(341.357422 0)"/>
     <use xlink:href="#DejaVuSans-65" transform="translate(380.566406 0)"/>
     <use xlink:href="#DejaVuSans-72" transform="translate(442.089844 0)"/>
     <use xlink:href="#DejaVuSans-2e" transform="translate(474.078125 0)"/>
     <use xlink:href="#DejaVuSans-70" transform="translate(505.865234 0)"/>
     <use xlink:href="#DejaVuSans-79" transform="translate(569.341797 0)"/>
    </g>
   </g>
   <g id="text_12">
    <!-- pdf_generator/ -->
    <g style="fill: #1f2937" transform="translate(353.725328 396.755391) scale(0.125 -0.125)">
     <defs>
      <path id="DejaVuSans-Bold-66" d="M 2841 4863 
L 2841 4128 
L 2222 4128 
Q 1984 4128 1890 4042 
Q 1797 3956 1797 3744 
L 1797 3500 
L 2753 3500 
L 2753 2700 
L 1797 2700 
L 1797 0 
L 678 0 
L 678 2700 
L 122 2700 
L 122 3500 
L 678 3500 
L 678 3744 
Q 678 4316 997 4589 
Q 1316 4863 1984 4863 
L 2841 4863 
z
" transform="scale(0.015625)"/>
     </defs>
     <use xlink:href="#DejaVuSans-Bold-70"/>
     <use xlink:href="#DejaVuSans-Bold-64" transform="translate(71.582031 0)"/>
     <use xlink:href="#DejaVuSans-Bold-66" transform="translate(143.164062 0)"/>
     <use xlink:href="#DejaVuSans-Bold-5f" transform="translate(186.669922 0)"/>
     <use xlink:href="#DejaVuSans-Bold-67" transform="translate(236.669922 0)"/>
     <use xlink:href="#DejaVuSans-Bold-65" transform="translate(308.251953 0)"/>
     <use xlink:href="#DejaVuSans-Bold-6e" transform="translate(376.074219 0)"/>
     <use xlink:href="#DejaVuSans-Bold-65" transform="translate(447.265625 0)"/>
     <use xlink:href="#DejaVuSans-Bold-72" transform="translate(515.087891 0)"/>
     <use xlink:href="#DejaVuSans-Bold-61" transform="translate(564.404297 0)"/>
     <use xlink:href="#DejaVuSans-Bold-74" transform="translate(631.884766 0)"/>
     <use xlink:href="#DejaVuSans-Bold-6f" transform="translate(679.6875 0)"/>
     <use xlink:href="#DejaVuSans-Bold-72" transform="translate(748.388672 0)"/>
     <use xlink:href="#DejaVuSans-Bold-2f" transform="translate(797.705078 0)"/>
    </g>
   </g>
   <g id="text_13">
    <!-- compiler.py -->
    <g style="fill: #1f2937" transform="translate(615.286828 396.377344) scale(0.105 -0.105)">
     <use xlink:href="#DejaVuSans-63"/>
     <use xlink:href="#DejaVuSans-6f" transform="translate(54.980469 0)"/>
     <use xlink:href="#DejaVuSans-6d" transform="translate(116.162109 0)"/>
     <use xlink:href="#DejaVuSans-70" transform="translate(213.574219 0)"/>
     <use xlink:href="#DejaVuSans-69" transform="translate(277.050781 0)"/>
     <use xlink:href="#DejaVuSans-6c" transform="translate(304.833984 0)"/>
     <use xlink:href="#DejaVuSans-65" transform="translate(332.617188 0)"/>
     <use xlink:href="#DejaVuSans-72" transform="translate(394.140625 0)"/>
     <use xlink:href="#DejaVuSans-2e" transform="translate(426.128906 0)"/>
     <use xlink:href="#DejaVuSans-70" transform="translate(457.916016 0)"/>
     <use xlink:href="#DejaVuSans-79" transform="translate(521.392578 0)"/>
    </g>
   </g>
   <g id="text_14">
    <!-- evaluator/ -->
    <g style="fill: #1f2937" transform="translate(369.876695 511.769219) scale(0.125 -0.125)">
     <use xlink:href="#DejaVuSans-Bold-65"/>
     <use xlink:href="#DejaVuSans-Bold-76" transform="translate(67.822266 0)"/>
     <use xlink:href="#DejaVuSans-Bold-61" transform="translate(133.007812 0)"/>
     <use xlink:href="#DejaVuSans-Bold-6c" transform="translate(200.488281 0)"/>
     <use xlink:href="#DejaVuSans-Bold-75" transform="translate(234.765625 0)"/>
     <use xlink:href="#DejaVuSans-Bold-61" transform="translate(305.957031 0)"/>
     <use xlink:href="#DejaVuSans-Bold-74" transform="translate(373.4375 0)"/>
     <use xlink:href="#DejaVuSans-Bold-6f" transform="translate(421.240234 0)"/>
     <use xlink:href="#DejaVuSans-Bold-72" transform="translate(489.941406 0)"/>
     <use xlink:href="#DejaVuSans-Bold-2f" transform="translate(539.257812 0)"/>
    </g>
   </g>
   <g id="text_15">
    <!-- single_evaluator.py -->
    <g style="fill: #1f2937" transform="translate(594.984094 491.931328) scale(0.105 -0.105)">
     <defs>
      <path id="DejaVuSans-75" d="M 544 1381 
L 544 3500 
L 1119 3500 
L 1119 1403 
Q 1119 906 1312 657 
Q 1506 409 1894 409 
Q 2359 409 2629 706 
Q 2900 1003 2900 1516 
L 2900 3500 
L 3475 3500 
L 3475 0 
L 2900 0 
L 2900 538 
Q 2691 219 2414 64 
Q 2138 -91 1772 -91 
Q 1169 -91 856 284 
Q 544 659 544 1381 
z
M 1991 3584 
L 1991 3584 
z
" transform="scale(0.015625)"/>
     </defs>
     <use xlink:href="#DejaVuSans-73"/>
     <use xlink:href="#DejaVuSans-69" transform="translate(52.099609 0)"/>
     <use xlink:href="#DejaVuSans-6e" transform="translate(79.882812 0)"/>
     <use xlink:href="#DejaVuSans-67" transform="translate(143.261719 0)"/>
     <use xlink:href="#DejaVuSans-6c" transform="translate(206.738281 0)"/>
     <use xlink:href="#DejaVuSans-65" transform="translate(234.521484 0)"/>
     <use xlink:href="#DejaVuSans-5f" transform="translate(296.044922 0)"/>
     <use xlink:href="#DejaVuSans-65" transform="translate(346.044922 0)"/>
     <use xlink:href="#DejaVuSans-76" transform="translate(407.568359 0)"/>
     <use xlink:href="#DejaVuSans-61" transform="translate(466.748047 0)"/>
     <use xlink:href="#DejaVuSans-6c" transform="translate(528.027344 0)"/>
     <use xlink:href="#DejaVuSans-75" transform="translate(555.810547 0)"/>
     <use xlink:href="#DejaVuSans-61" transform="translate(619.189453 0)"/>
     <use xlink:href="#DejaVuSans-74" transform="translate(680.46875 0)"/>
     <use xlink:href="#DejaVuSans-6f" transform="translate(719.677734 0)"/>
     <use xlink:href="#DejaVuSans-72" transform="translate(780.859375 0)"/>
     <use xlink:href="#DejaVuSans-2e" transform="translate(812.847656 0)"/>
     <use xlink:href="#DejaVuSans-70" transform="translate(844.634766 0)"/>
     <use xlink:href="#DejaVuSans-79" transform="translate(908.111328 0)"/>
    </g>
   </g>
   <g id="text_16">
    <!-- xml_evaluator.py -->
    <g style="fill: #1f2937" transform="translate(600.846867 530.211328) scale(0.105 -0.105)">
     <use xlink:href="#DejaVuSans-78"/>
     <use xlink:href="#DejaVuSans-6d" transform="translate(59.179688 0)"/>
     <use xlink:href="#DejaVuSans-6c" transform="translate(156.591797 0)"/>
     <use xlink:href="#DejaVuSans-5f" transform="translate(184.375 0)"/>
     <use xlink:href="#DejaVuSans-65" transform="translate(234.375 0)"/>
     <use xlink:href="#DejaVuSans-76" transform="translate(295.898438 0)"/>
     <use xlink:href="#DejaVuSans-61" transform="translate(355.078125 0)"/>
     <use xlink:href="#DejaVuSans-6c" transform="translate(416.357422 0)"/>
     <use xlink:href="#DejaVuSans-75" transform="translate(444.140625 0)"/>
     <use xlink:href="#DejaVuSans-61" transform="translate(507.519531 0)"/>
     <use xlink:href="#DejaVuSans-74" transform="translate(568.798828 0)"/>
     <use xlink:href="#DejaVuSans-6f" transform="translate(608.007812 0)"/>
     <use xlink:href="#DejaVuSans-72" transform="translate(669.189453 0)"/>
     <use xlink:href="#DejaVuSans-2e" transform="translate(701.177734 0)"/>
     <use xlink:href="#DejaVuSans-70" transform="translate(732.964844 0)"/>
     <use xlink:href="#DejaVuSans-79" transform="translate(796.441406 0)"/>
    </g>
   </g>
   <g id="text_17">
    <!-- orquestador -->
    <g style="fill: #5b677a" transform="translate(128.047641 590.843437) scale(0.09 -0.09)">
     <defs>
      <path id="DejaVuSans-71" d="M 947 1747 
Q 947 1113 1208 752 
Q 1469 391 1925 391 
Q 2381 391 2643 752 
Q 2906 1113 2906 1747 
Q 2906 2381 2643 2742 
Q 2381 3103 1925 3103 
Q 1469 3103 1208 2742 
Q 947 2381 947 1747 
z
M 2906 525 
Q 2725 213 2448 61 
Q 2172 -91 1784 -91 
Q 1150 -91 751 415 
Q 353 922 353 1747 
Q 353 2572 751 3078 
Q 1150 3584 1784 3584 
Q 2172 3584 2448 3432 
Q 2725 3281 2906 2969 
L 2906 3500 
L 3481 3500 
L 3481 -1331 
L 2906 -1331 
L 2906 525 
z
" transform="scale(0.015625)"/>
     </defs>
     <use xlink:href="#DejaVuSans-6f"/>
     <use xlink:href="#DejaVuSans-72" transform="translate(61.181641 0)"/>
     <use xlink:href="#DejaVuSans-71" transform="translate(100.544922 0)"/>
     <use xlink:href="#DejaVuSans-75" transform="translate(164.021484 0)"/>
     <use xlink:href="#DejaVuSans-65" transform="translate(227.400391 0)"/>
     <use xlink:href="#DejaVuSans-73" transform="translate(288.923828 0)"/>
     <use xlink:href="#DejaVuSans-74" transform="translate(341.023438 0)"/>
     <use xlink:href="#DejaVuSans-61" transform="translate(380.232422 0)"/>
     <use xlink:href="#DejaVuSans-64" transform="translate(441.511719 0)"/>
     <use xlink:href="#DejaVuSans-6f" transform="translate(504.988281 0)"/>
     <use xlink:href="#DejaVuSans-72" transform="translate(566.169922 0)"/>
    </g>
   </g>
   <g id="text_18">
    <!-- paquetes -->
    <g style="fill: #5b677a" transform="translate(384.894703 590.843437) scale(0.09 -0.09)">
     <use xlink:href="#DejaVuSans-70"/>
     <use xlink:href="#DejaVuSans-61" transform="translate(63.476562 0)"/>
     <use xlink:href="#DejaVuSans-71" transform="translate(124.755859 0)"/>
     <use xlink:href="#DejaVuSans-75" transform="translate(188.232422 0)"/>
     <use xlink:href="#DejaVuSans-65" transform="translate(251.611328 0)"/>
     <use xlink:href="#DejaVuSans-74" transform="translate(313.134766 0)"/>
     <use xlink:href="#DejaVuSans-65" transform="translate(352.34375 0)"/>
     <use xlink:href="#DejaVuSans-73" transform="translate(413.867188 0)"/>
    </g>
   </g>
   <g id="text_19">
    <!-- módulos Python -->
    <g style="fill: #5b677a" transform="translate(609.546516 591.023437) scale(0.09 -0.09)">
     <defs>
      <path id="DejaVuSans-f3" d="M 1959 3097 
Q 1497 3097 1228 2736 
Q 959 2375 959 1747 
Q 959 1119 1226 758 
Q 1494 397 1959 397 
Q 2419 397 2687 759 
Q 2956 1122 2956 1747 
Q 2956 2369 2687 2733 
Q 2419 3097 1959 3097 
z
M 1959 3584 
Q 2709 3584 3137 3096 
Q 3566 2609 3566 1747 
Q 3566 888 3137 398 
Q 2709 -91 1959 -91 
Q 1206 -91 779 398 
Q 353 888 353 1747 
Q 353 2609 779 3096 
Q 1206 3584 1959 3584 
z
M 2394 5119 
L 3016 5119 
L 1998 3944 
L 1519 3944 
L 2394 5119 
z
" transform="scale(0.015625)"/>
      <path id="DejaVuSans-20" transform="scale(0.015625)"/>
      <path id="DejaVuSans-50" d="M 1259 4147 
L 1259 2394 
L 2053 2394 
Q 2494 2394 2734 2622 
Q 2975 2850 2975 3272 
Q 2975 3691 2734 3919 
Q 2494 4147 2053 4147 
L 1259 4147 
z
M 628 4666 
L 2053 4666 
Q 2838 4666 3239 4311 
Q 3641 3956 3641 3272 
Q 3641 2581 3239 2228 
Q 2838 1875 2053 1875 
L 1259 1875 
L 1259 0 
L 628 0 
L 628 4666 
z
" transform="scale(0.015625)"/>
      <path id="DejaVuSans-68" d="M 3513 2113 
L 3513 0 
L 2938 0 
L 2938 2094 
Q 2938 2591 2744 2837 
Q 2550 3084 2163 3084 
Q 1697 3084 1428 2787 
Q 1159 2491 1159 1978 
L 1159 0 
L 581 0 
L 581 4863 
L 1159 4863 
L 1159 2956 
Q 1366 3272 1645 3428 
Q 1925 3584 2291 3584 
Q 2894 3584 3203 3211 
Q 3513 2838 3513 2113 
z
" transform="scale(0.015625)"/>
     </defs>
     <use xlink:href="#DejaVuSans-6d"/>
     <use xlink:href="#DejaVuSans-f3" transform="translate(97.412109 0)"/>
     <use xlink:href="#DejaVuSans-64" transform="translate(158.59375 0)"/>
     <use xlink:href="#DejaVuSans-75" transform="translate(222.070312 0)"/>
     <use xlink:href="#DejaVuSans-6c" transform="translate(285.449219 0)"/>
     <use xlink:href="#DejaVuSans-6f" transform="translate(313.232422 0)"/>
     <use xlink:href="#DejaVuSans-73" transform="translate(374.414062 0)"/>
     <use xlink:href="#DejaVuSans-20" transform="translate(426.513672 0)"/>
     <use xlink:href="#DejaVuSans-50" transform="translate(458.300781 0)"/>
     <use xlink:href="#DejaVuSans-79" transform="translate(518.603516 0)"/>
     <use xlink:href="#DejaVuSans-74" transform="translate(577.783203 0)"/>
     <use xlink:href="#DejaVuSans-68" transform="translate(616.992188 0)"/>
     <use xlink:href="#DejaVuSans-6f" transform="translate(680.371094 0)"/>
     <use xlink:href="#DejaVuSans-6e" transform="translate(741.552734 0)"/>
    </g>
   </g>
  </g>
 </g>
 <defs>
  <clipPath id="p4e9bb1f635">
   <rect x="7.2" y="7.2" width="1058.4" height="626.4"/>
  </clipPath>
 </defs>
</svg>
