<?xml version="1.0" encoding="utf-8" standalone="no"?>
<!DOCTYPE svg PUBLIC "-//W3C//DTD SVG 1.1//EN"
  "http://www.w3.org/Graphics/SVG/1.1/DTD/svg11.dtd">
<svg xmlns:xlink="http://www.w3.org/1999/xlink" width="1072.8pt" height="604.8pt" viewBox="0 0 1072.8 604.8" xmlns="http://www.w3.org/2000/svg" version="1.1">
 <metadata>
  <rdf:RDF xmlns:dc="http://purl.org/dc/elements/1.1/" xmlns:cc="http://creativecommons.org/ns#" xmlns:rdf="http://www.w3.org/1999/02/22-rdf-syntax-ns#">
   <cc:Work>
    <dc:type rdf:resource="http://purl.org/dc/dcmitype/StillImage"/>
    <dc:date>2026-06-15T13:52:48.033477</dc:date>
    <dc:format>image/svg+xml</dc:format>
    <dc:creator>
     <cc:Agent>
      <dc:title>Matplotlib v3.10.8, https://matplotlib.org/</dc:title>
     </cc:Agent>
    </dc:creator>
   </cc:Work>
  </rdf:RDF>
 </metadata>
 <defs>
  <style type="text/css">*{stroke-linejoin: round; stroke-linecap: butt}</style>
 </defs>
 <g id="figure_1">
  <g id="patch_1">
   <path d="M 0 604.8 
L 1072.8 604.8 
L 1072.8 0 
L 0 0 
z
" style="fill: #ffffff"/>
  </g>
  <g id="axes_1">
   <g id="patch_2">
    <path d="M 57.334737 104.590769 
L 179.886316 104.590769 
Q 185.456842 104.590769 185.456842 102.572308 
L 185.456842 73.304615 
Q 185.456842 71.286154 179.886316 71.286154 
L 57.334737 71.286154 
Q 51.764211 71.286154 51.764211 73.304615 
L 51.764211 102.572308 
Q 51.764211 104.590769 57.334737 104.590769 
z
" clip-path="url(#p2eacd8a828)" style="fill: #f7f8fa; stroke: #2f3a4a; stroke-width: 1.3; stroke-linejoin: miter"/>
   </g>
   <g id="patch_3">
    <path d="M 196.597895 104.590769 
L 319.149474 104.590769 
Q 324.72 104.590769 324.72 102.572308 
L 324.72 73.304615 
Q 324.72 71.286154 319.149474 71.286154 
L 196.597895 71.286154 
Q 191.027368 71.286154 191.027368 73.304615 
L 191.027368 102.572308 
Q 191.027368 104.590769 196.597895 104.590769 
z
" clip-path="url(#p2eacd8a828)" style="fill: #f7f8fa; stroke: #2f3a4a; stroke-width: 1.3; stroke-linejoin: miter"/>
   </g>
   <g id="patch_4">
    <path d="M 335.861053 104.590769 
L 458.412632 104.590769 
Q 463.983158 104.590769 463.983158 102.572308 
L 463.983158 73.304615 
Q 463.983158 71.286154 458.412632 71.286154 
L 335.861053 71.286154 
Q 330.290526 71.286154 330.290526 73.304615 
L 330.290526 102.572308 
Q 330.290526 104.590769 335.861053 104.590769 
z
" clip-path="url(#p2eacd8a828)" style="fill: #f7f8fa; stroke: #2f3a4a; stroke-width: 1.3; stroke-linejoin: miter"/>
   </g>
   <g id="patch_5">
    <path d="M 475.124211 104.590769 
L 597.675789 104.590769 
Q 603.246316 104.590769 603.246316 102.572308 
L 603.246316 73.304615 
Q 603.246316 71.286154 597.675789 71.286154 
L 475.124211 71.286154 
Q 469.553684 71.286154 469.553684 73.304615 
L 469.553684 102.572308 
Q 469.553684 104.590769 475.124211 104.590769 
z
" clip-path="url(#p2eacd8a828)" style="fill: #f7f8fa; stroke: #2f3a4a; stroke-width: 1.3; stroke-linejoin: miter"/>
   </g>
   <g id="patch_6">
    <path d="M 614.387368 104.590769 
L 736.938947 104.590769 
Q 742.509474 104.590769 742.509474 102.572308 
L 742.509474 73.304615 
Q 742.509474 71.286154 736.938947 71.286154 
L 614.387368 71.286154 
Q 608.816842 71.286154 608.816842 73.304615 
L 608.816842 102.572308 
Q 608.816842 104.590769 614.387368 104.590769 
z
" clip-path="url(#p2eacd8a828)" style="fill: #f7f8fa; stroke: #2f3a4a; stroke-width: 1.3; stroke-linejoin: miter"/>
   </g>
   <g id="patch_7">
    <path d="M 753.650526 104.590769 
L 876.202105 104.590769 
Q 881.772632 104.590769 881.772632 102.572308 
L 881.772632 73.304615 
Q 881.772632 71.286154 876.202105 71.286154 
L 753.650526 71.286154 
Q 748.08 71.286154 748.08 73.304615 
L 748.08 102.572308 
Q 748.08 104.590769 753.650526 104.590769 
z
" clip-path="url(#p2eacd8a828)" style="fill: #f7f8fa; stroke: #2f3a4a; stroke-width: 1.3; stroke-linejoin: miter"/>
   </g>
   <g id="patch_8">
    <path d="M 892.913684 104.590769 
L 1015.465263 104.590769 
Q 1021.035789 104.590769 1021.035789 102.572308 
L 1021.035789 73.304615 
Q 1021.035789 71.286154 1015.465263 71.286154 
L 892.913684 71.286154 
Q 887.343158 71.286154 887.343158 73.304615 
L 887.343158 102.572308 
Q 887.343158 104.590769 892.913684 104.590769 
z
" clip-path="url(#p2eacd8a828)" style="fill: #f7f8fa; stroke: #2f3a4a; stroke-width: 1.3; stroke-linejoin: miter"/>
   </g>
   <g id="patch_9">
    <path d="M 251.606842 529.476923 
L 264.140526 529.476923 
L 264.140526 125.784615 
L 251.606842 125.784615 
z
" clip-path="url(#p2eacd8a828)" style="fill: #dde3ea; stroke: #2f3a4a; stroke-width: 0.8; stroke-linejoin: miter"/>
   </g>
   <g id="patch_10">
    <path d="M 195.205263 514.338462 
L 1016.857895 514.338462 
L 1016.857895 151.015385 
L 195.205263 151.015385 
L 195.205263 514.338462 
z
" clip-path="url(#p2eacd8a828)" style="fill: none; stroke: #5b677a; stroke-width: 1.1; stroke-linejoin: miter"/>
   </g>
   <g id="patch_11">
    <path d="M 195.205263 168.172308 
L 411.063158 168.172308 
L 411.063158 151.015385 
L 195.205263 151.015385 
z
" clip-path="url(#p2eacd8a828)" style="fill: #eef2f7; stroke: #5b677a; stroke-width: 1.1; stroke-linejoin: miter"/>
   </g>
   <g id="patch_12">
    <path d="M 390.87 221.661538 
L 403.403684 221.661538 
L 403.403684 186.338462 
L 390.87 186.338462 
z
" clip-path="url(#p2eacd8a828)" style="fill: #dde3ea; stroke: #2f3a4a; stroke-width: 0.8; stroke-linejoin: miter"/>
   </g>
   <g id="patch_13">
    <path d="M 530.133158 473.969231 
L 542.666842 473.969231 
L 542.666842 249.415385 
L 530.133158 249.415385 
z
" clip-path="url(#p2eacd8a828)" style="fill: #dde3ea; stroke: #2f3a4a; stroke-width: 0.8; stroke-linejoin: miter"/>
   </g>
   <g id="line2d_1">
    <path d="M 118.610526 105.6 
L 118.610526 567.323077 
" clip-path="url(#p2eacd8a828)" style="fill: none; stroke-dasharray: 4,4; stroke-dashoffset: 0; stroke: #7a869a"/>
   </g>
   <g id="line2d_2">
    <path d="M 257.873684 105.6 
L 257.873684 567.323077 
" clip-path="url(#p2eacd8a828)" style="fill: none; stroke-dasharray: 4,4; stroke-dashoffset: 0; stroke: #7a869a"/>
   </g>
   <g id="line2d_3">
    <path d="M 397.136842 105.6 
L 397.136842 567.323077 
" clip-path="url(#p2eacd8a828)" style="fill: none; stroke-dasharray: 4,4; stroke-dashoffset: 0; stroke: #7a869a"/>
   </g>
   <g id="line2d_4">
    <path d="M 536.4 105.6 
L 536.4 567.323077 
" clip-path="url(#p2eacd8a828)" style="fill: none; stroke-dasharray: 4,4; stroke-dashoffset: 0; stroke: #7a869a"/>
   </g>
   <g id="line2d_5">
    <path d="M 675.663158 105.6 
L 675.663158 567.323077 
" clip-path="url(#p2eacd8a828)" style="fill: none; stroke-dasharray: 4,4; stroke-dashoffset: 0; stroke: #7a869a"/>
   </g>
   <g id="line2d_6">
    <path d="M 814.926316 105.6 
L 814.926316 567.323077 
" clip-path="url(#p2eacd8a828)" style="fill: none; stroke-dasharray: 4,4; stroke-dashoffset: 0; stroke: #7a869a"/>
   </g>
   <g id="line2d_7">
    <path d="M 954.189474 105.6 
L 954.189474 567.323077 
" clip-path="url(#p2eacd8a828)" style="fill: none; stroke-dasharray: 4,4; stroke-dashoffset: 0; stroke: #7a869a"/>
   </g>
   <g id="text_1">
    <!-- Diagrama UML de secuencia — Evaluación de experimentos -->
    <g transform="translate(201.239062 35.748317) scale(0.2 -0.2)">
     <defs>
      <path id="DejaVuSans-Bold-44" d="M 1791 3756 
L 1791 909 
L 2222 909 
Q 2959 909 3348 1275 
Q 3738 1641 3738 2338 
Q 3738 3031 3350 3393 
Q 2963 3756 2222 3756 
L 1791 3756 
z
M 588 4666 
L 1856 4666 
Q 2919 4666 3439 4514 
Q 3959 4363 4331 4000 
Q 4659 3684 4818 3271 
Q 4978 2859 4978 2338 
Q 4978 1809 4818 1395 
Q 4659 981 4331 666 
Q 3956 303 3431 151 
Q 2906 0 1856 0 
L 588 0 
L 588 4666 
z
" transform="scale(0.015625)"/>
      <path id="DejaVuSans-Bold-69" d="M 538 3500 
L 1656 3500 
L 1656 0 
L 538 0 
L 538 3500 
z
M 538 4863 
L 1656 4863 
L 1656 3950 
L 538 3950 
L 538 4863 
z
" transform="scale(0.015625)"/>
      <path id="DejaVuSans-Bold-61" d="M 2106 1575 
Q 1756 1575 1579 1456 
Q 1403 1338 1403 1106 
Q 1403 894 1545 773 
Q 1688 653 1941 653 
Q 2256 653 2472 879 
Q 2688 1106 2688 1447 
L 2688 1575 
L 2106 1575 
z
M 3816 1997 
L 3816 0 
L 2688 0 
L 2688 519 
Q 2463 200 2181 54 
Q 1900 -91 1497 -91 
Q 953 -91 614 226 
Q 275 544 275 1050 
Q 275 1666 698 1953 
Q 1122 2241 2028 2241 
L 2688 2241 
L 2688 2328 
Q 2688 2594 2478 2717 
Q 2269 2841 1825 2841 
Q 1466 2841 1156 2769 
Q 847 2697 581 2553 
L 581 3406 
Q 941 3494 1303 3539 
Q 1666 3584 2028 3584 
Q 2975 3584 3395 3211 
Q 3816 2838 3816 1997 
z
" transform="scale(0.015625)"/>
      <path id="DejaVuSans-Bold-67" d="M 2919 594 
Q 2688 288 2409 144 
Q 2131 0 1766 0 
Q 1125 0 706 504 
Q 288 1009 288 1791 
Q 288 2575 706 3076 
Q 1125 3578 1766 3578 
Q 2131 3578 2409 3434 
Q 2688 3291 2919 2981 
L 2919 3500 
L 4044 3500 
L 4044 353 
Q 4044 -491 3511 -936 
Q 2978 -1381 1966 -1381 
Q 1638 -1381 1331 -1331 
Q 1025 -1281 716 -1178 
L 716 -306 
Q 1009 -475 1290 -558 
Q 1572 -641 1856 -641 
Q 2406 -641 2662 -400 
Q 2919 -159 2919 353 
L 2919 594 
z
M 2181 2772 
Q 1834 2772 1640 2515 
Q 1447 2259 1447 1791 
Q 1447 1309 1634 1061 
Q 1822 813 2181 813 
Q 2531 813 2725 1069 
Q 2919 1325 2919 1791 
Q 2919 2259 2725 2515 
Q 2531 2772 2181 2772 
z
" transform="scale(0.015625)"/>
      <path id="DejaVuSans-Bold-72" d="M 3138 2547 
Q 2991 2616 2845 2648 
Q 2700 2681 2553 2681 
Q 2122 2681 1889 2404 
Q 1656 2128 1656 1613 
L 1656 0 
L 538 0 
L 538 3500 
L 1656 3500 
L 1656 2925 
Q 1872 3269 2151 3426 
Q 2431 3584 2822 3584 
Q 2878 3584 2943 3579 
Q 3009 3575 3134 3559 
L 3138 2547 
z
" transform="scale(0.015625)"/>
      <path id="DejaVuSans-Bold-6d" d="M 3781 2919 
Q 3994 3244 4286 3414 
Q 4578 3584 4928 3584 
Q 5531 3584 5847 3212 
Q 6163 2841 6163 2131 
L 6163 0 
L 5038 0 
L 5038 1825 
Q 5041 1866 5042 1909 
Q 5044 1953 5044 2034 
Q 5044 2406 4934 2573 
Q 4825 2741 4581 2741 
Q 4263 2741 4089 2478 
Q 3916 2216 3909 1719 
L 3909 0 
L 2784 0 
L 2784 1825 
Q 2784 2406 2684 2573 
Q 2584 2741 2328 2741 
Q 2006 2741 1831 2477 
Q 1656 2213 1656 1722 
L 1656 0 
L 531 0 
L 531 3500 
L 1656 3500 
L 1656 2988 
Q 1863 3284 2130 3434 
Q 2397 3584 2719 3584 
Q 3081 3584 3359 3409 
Q 3638 3234 3781 2919 
z
" transform="scale(0.015625)"/>
      <path id="DejaVuSans-Bold-20" transform="scale(0.015625)"/>
      <path id="DejaVuSans-Bold-55" d="M 588 4666 
L 1791 4666 
L 1791 1869 
Q 1791 1291 1980 1042 
Q 2169 794 2597 794 
Q 3028 794 3217 1042 
Q 3406 1291 3406 1869 
L 3406 4666 
L 4609 4666 
L 4609 1869 
Q 4609 878 4112 393 
Q 3616 -91 2597 -91 
Q 1581 -91 1084 393 
Q 588 878 588 1869 
L 588 4666 
z
" transform="scale(0.015625)"/>
      <path id="DejaVuSans-Bold-4d" d="M 588 4666 
L 2119 4666 
L 3181 2169 
L 4250 4666 
L 5778 4666 
L 5778 0 
L 4641 0 
L 4641 3413 
L 3566 897 
L 2803 897 
L 1728 3413 
L 1728 0 
L 588 0 
L 588 4666 
z
" transform="scale(0.015625)"/>
      <path id="DejaVuSans-Bold-4c" d="M 588 4666 
L 1791 4666 
L 1791 909 
L 3903 909 
L 3903 0 
L 588 0 
L 588 4666 
z
" transform="scale(0.015625)"/>
      <path id="DejaVuSans-Bold-64" d="M 2919 2988 
L 2919 4863 
L 4044 4863 
L 4044 0 
L 2919 0 
L 2919 506 
Q 2688 197 2409 53 
Q 2131 -91 1766 -91 
Q 1119 -91 703 423 
Q 288 938 288 1747 
Q 288 2556 703 3070 
Q 1119 3584 1766 3584 
Q 2128 3584 2408 3439 
Q 2688 3294 2919 2988 
z
M 2181 722 
Q 2541 722 2730 984 
Q 2919 1247 2919 1747 
Q 2919 2247 2730 2509 
Q 2541 2772 2181 2772 
Q 1825 2772 1636 2509 
Q 1447 2247 1447 1747 
Q 1447 1247 1636 984 
Q 1825 722 2181 722 
z
" transform="scale(0.015625)"/>
      <path id="DejaVuSans-Bold-65" d="M 4031 1759 
L 4031 1441 
L 1416 1441 
Q 1456 1047 1700 850 
Q 1944 653 2381 653 
Q 2734 653 3104 758 
Q 3475 863 3866 1075 
L 3866 213 
Q 3469 63 3072 -14 
Q 2675 -91 2278 -91 
Q 1328 -91 801 392 
Q 275 875 275 1747 
Q 275 2603 792 3093 
Q 1309 3584 2216 3584 
Q 3041 3584 3536 3087 
Q 4031 2591 4031 1759 
z
M 2881 2131 
Q 2881 2450 2695 2645 
Q 2509 2841 2209 2841 
Q 1884 2841 1681 2658 
Q 1478 2475 1428 2131 
L 2881 2131 
z
" transform="scale(0.015625)"/>
      <path id="DejaVuSans-Bold-73" d="M 3272 3391 
L 3272 2541 
Q 2913 2691 2578 2766 
Q 2244 2841 1947 2841 
Q 1628 2841 1473 2761 
Q 1319 2681 1319 2516 
Q 1319 2381 1436 2309 
Q 1553 2238 1856 2203 
L 2053 2175 
Q 2913 2066 3209 1816 
Q 3506 1566 3506 1031 
Q 3506 472 3093 190 
Q 2681 -91 1863 -91 
Q 1516 -91 1145 -36 
Q 775 19 384 128 
L 384 978 
Q 719 816 1070 734 
Q 1422 653 1784 653 
Q 2113 653 2278 743 
Q 2444 834 2444 1013 
Q 2444 1163 2330 1236 
Q 2216 1309 1875 1350 
L 1678 1375 
Q 931 1469 631 1722 
Q 331 1975 331 2491 
Q 331 3047 712 3315 
Q 1094 3584 1881 3584 
Q 2191 3584 2531 3537 
Q 2872 3491 3272 3391 
z
" transform="scale(0.015625)"/>
      <path id="DejaVuSans-Bold-63" d="M 3366 3391 
L 3366 2478 
Q 3138 2634 2908 2709 
Q 2678 2784 2431 2784 
Q 1963 2784 1702 2511 
Q 1441 2238 1441 1747 
Q 1441 1256 1702 982 
Q 1963 709 2431 709 
Q 2694 709 2930 787 
Q 3166 866 3366 1019 
L 3366 103 
Q 3103 6 2833 -42 
Q 2563 -91 2291 -91 
Q 1344 -91 809 395 
Q 275 881 275 1747 
Q 275 2613 809 3098 
Q 1344 3584 2291 3584 
Q 2566 3584 2833 3536 
Q 3100 3488 3366 3391 
z
" transform="scale(0.015625)"/>
      <path id="DejaVuSans-Bold-75" d="M 500 1363 
L 500 3500 
L 1625 3500 
L 1625 3150 
Q 1625 2866 1622 2436 
Q 1619 2006 1619 1863 
Q 1619 1441 1641 1255 
Q 1663 1069 1716 984 
Q 1784 875 1895 815 
Q 2006 756 2150 756 
Q 2500 756 2700 1025 
Q 2900 1294 2900 1772 
L 2900 3500 
L 4019 3500 
L 4019 0 
L 2900 0 
L 2900 506 
Q 2647 200 2364 54 
Q 2081 -91 1741 -91 
Q 1134 -91 817 281 
Q 500 653 500 1363 
z
" transform="scale(0.015625)"/>
      <path id="DejaVuSans-Bold-6e" d="M 4056 2131 
L 4056 0 
L 2931 0 
L 2931 347 
L 2931 1631 
Q 2931 2084 2911 2256 
Q 2891 2428 2841 2509 
Q 2775 2619 2662 2680 
Q 2550 2741 2406 2741 
Q 2056 2741 1856 2470 
Q 1656 2200 1656 1722 
L 1656 0 
L 538 0 
L 538 3500 
L 1656 3500 
L 1656 2988 
Q 1909 3294 2193 3439 
Q 2478 3584 2822 3584 
Q 3428 3584 3742 3212 
Q 4056 2841 4056 2131 
z
" transform="scale(0.015625)"/>
      <path id="DejaVuSans-Bold-2014" d="M 344 2156 
L 6056 2156 
L 6056 1350 
L 344 1350 
L 344 2156 
z
" transform="scale(0.015625)"/>
      <path id="DejaVuSans-Bold-45" d="M 588 4666 
L 3834 4666 
L 3834 3756 
L 1791 3756 
L 1791 2888 
L 3713 2888 
L 3713 1978 
L 1791 1978 
L 1791 909 
L 3903 909 
L 3903 0 
L 588 0 
L 588 4666 
z
" transform="scale(0.015625)"/>
      <path id="DejaVuSans-Bold-76" d="M 97 3500 
L 1216 3500 
L 2088 1081 
L 2956 3500 
L 4078 3500 
L 2700 0 
L 1472 0 
L 97 3500 
z
" transform="scale(0.015625)"/>
      <path id="DejaVuSans-Bold-6c" d="M 538 4863 
L 1656 4863 
L 1656 0 
L 538 0 
L 538 4863 
z
" transform="scale(0.015625)"/>
      <path id="DejaVuSans-Bold-f3" d="M 2203 2784 
Q 1831 2784 1636 2517 
Q 1441 2250 1441 1747 
Q 1441 1244 1636 976 
Q 1831 709 2203 709 
Q 2569 709 2762 976 
Q 2956 1244 2956 1747 
Q 2956 2250 2762 2517 
Q 2569 2784 2203 2784 
z
M 2203 3584 
Q 3106 3584 3614 3096 
Q 4122 2609 4122 1747 
Q 4122 884 3614 396 
Q 3106 -91 2203 -91 
Q 1297 -91 786 396 
Q 275 884 275 1747 
Q 275 2609 786 3096 
Q 1297 3584 2203 3584 
z
M 2694 5119 
L 3578 5119 
L 2425 3944 
L 1813 3944 
L 2694 5119 
z
" transform="scale(0.015625)"/>
      <path id="DejaVuSans-Bold-78" d="M 1422 1791 
L 159 3500 
L 1344 3500 
L 2059 2463 
L 2784 3500 
L 3969 3500 
L 2706 1797 
L 4031 0 
L 2847 0 
L 2059 1106 
L 1281 0 
L 97 0 
L 1422 1791 
z
" transform="scale(0.015625)"/>
      <path id="DejaVuSans-Bold-70" d="M 1656 506 
L 1656 -1331 
L 538 -1331 
L 538 3500 
L 1656 3500 
L 1656 2988 
Q 1888 3294 2169 3439 
Q 2450 3584 2816 3584 
Q 3463 3584 3878 3070 
Q 4294 2556 4294 1747 
Q 4294 938 3878 423 
Q 3463 -91 2816 -91 
Q 2450 -91 2169 54 
Q 1888 200 1656 506 
z
M 2400 2772 
Q 2041 2772 1848 2508 
Q 1656 2244 1656 1747 
Q 1656 1250 1848 986 
Q 2041 722 2400 722 
Q 2759 722 2948 984 
Q 3138 1247 3138 1747 
Q 3138 2247 2948 2509 
Q 2759 2772 2400 2772 
z
" transform="scale(0.015625)"/>
      <path id="DejaVuSans-Bold-74" d="M 1759 4494 
L 1759 3500 
L 2913 3500 
L 2913 2700 
L 1759 2700 
L 1759 1216 
Q 1759 972 1856 886 
Q 1953 800 2241 800 
L 2816 800 
L 2816 0 
L 1856 0 
Q 1194 0 917 276 
Q 641 553 641 1216 
L 641 2700 
L 84 2700 
L 84 3500 
L 641 3500 
L 641 4494 
L 1759 4494 
z
" transform="scale(0.015625)"/>
      <path id="DejaVuSans-Bold-6f" d="M 2203 2784 
Q 1831 2784 1636 2517 
Q 1441 2250 1441 1747 
Q 1441 1244 1636 976 
Q 1831 709 2203 709 
Q 2569 709 2762 976 
Q 2956 1244 2956 1747 
Q 2956 2250 2762 2517 
Q 2569 2784 2203 2784 
z
M 2203 3584 
Q 3106 3584 3614 3096 
Q 4122 2609 4122 1747 
Q 4122 884 3614 396 
Q 3106 -91 2203 -91 
Q 1297 -91 786 396 
Q 275 884 275 1747 
Q 275 2609 786 3096 
Q 1297 3584 2203 3584 
z
" transform="scale(0.015625)"/>
     </defs>
     <use xlink:href="#DejaVuSans-Bold-44"/>
     <use xlink:href="#DejaVuSans-Bold-69" transform="translate(83.007812 0)"/>
     <use xlink:href="#DejaVuSans-Bold-61" transform="translate(117.285156 0)"/>
     <use xlink:href="#DejaVuSans-Bold-67" transform="translate(184.765625 0)"/>
     <use xlink:href="#DejaVuSans-Bold-72" transform="translate(256.347656 0)"/>
     <use xlink:href="#DejaVuSans-Bold-61" transform="translate(305.664062 0)"/>
     <use xlink:href="#DejaVuSans-Bold-6d" transform="translate(373.144531 0)"/>
     <use xlink:href="#DejaVuSans-Bold-61" transform="translate(477.34375 0)"/>
     <use xlink:href="#DejaVuSans-Bold-20" transform="translate(544.824219 0)"/>
     <use xlink:href="#DejaVuSans-Bold-55" transform="translate(579.638672 0)"/>
     <use xlink:href="#DejaVuSans-Bold-4d" transform="translate(660.839844 0)"/>
     <use xlink:href="#DejaVuSans-Bold-4c" transform="translate(760.351562 0)"/>
     <use xlink:href="#DejaVuSans-Bold-20" transform="translate(824.072266 0)"/>
     <use xlink:href="#DejaVuSans-Bold-64" transform="translate(858.886719 0)"/>
     <use xlink:href="#DejaVuSans-Bold-65" transform="translate(930.46875 0)"/>
     <use xlink:href="#DejaVuSans-Bold-20" transform="translate(998.291016 0)"/>
     <use xlink:href="#DejaVuSans-Bold-73" transform="translate(1033.105469 0)"/>
     <use xlink:href="#DejaVuSans-Bold-65" transform="translate(1092.626953 0)"/>
     <use xlink:href="#DejaVuSans-Bold-63" transform="translate(1160.449219 0)"/>
     <use xlink:href="#DejaVuSans-Bold-75" transform="translate(1219.726562 0)"/>
     <use xlink:href="#DejaVuSans-Bold-65" transform="translate(1290.917969 0)"/>
     <use xlink:href="#DejaVuSans-Bold-6e" transform="translate(1358.740234 0)"/>
     <use xlink:href="#DejaVuSans-Bold-63" transform="translate(1429.931641 0)"/>
     <use xlink:href="#DejaVuSans-Bold-69" transform="translate(1489.208984 0)"/>
     <use xlink:href="#DejaVuSans-Bold-61" transform="translate(1523.486328 0)"/>
     <use xlink:href="#DejaVuSans-Bold-20" transform="translate(1590.966797 0)"/>
     <use xlink:href="#DejaVuSans-Bold-2014" transform="translate(1625.78125 0)"/>
     <use xlink:href="#DejaVuSans-Bold-20" transform="translate(1725.78125 0)"/>
     <use xlink:href="#DejaVuSans-Bold-45" transform="translate(1760.595703 0)"/>
     <use xlink:href="#DejaVuSans-Bold-76" transform="translate(1828.90625 0)"/>
     <use xlink:href="#DejaVuSans-Bold-61" transform="translate(1894.091797 0)"/>
     <use xlink:href="#DejaVuSans-Bold-6c" transform="translate(1961.572266 0)"/>
     <use xlink:href="#DejaVuSans-Bold-75" transform="translate(1995.849609 0)"/>
     <use xlink:href="#DejaVuSans-Bold-61" transform="translate(2067.041016 0)"/>
     <use xlink:href="#DejaVuSans-Bold-63" transform="translate(2134.521484 0)"/>
     <use xlink:href="#DejaVuSans-Bold-69" transform="translate(2193.798828 0)"/>
     <use xlink:href="#DejaVuSans-Bold-f3" transform="translate(2228.076172 0)"/>
     <use xlink:href="#DejaVuSans-Bold-6e" transform="translate(2296.777344 0)"/>
     <use xlink:href="#DejaVuSans-Bold-20" transform="translate(2367.96875 0)"/>
     <use xlink:href="#DejaVuSans-Bold-64" transform="translate(2402.783203 0)"/>
     <use xlink:href="#DejaVuSans-Bold-65" transform="translate(2474.365234 0)"/>
     <use xlink:href="#DejaVuSans-Bold-20" transform="translate(2542.1875 0)"/>
     <use xlink:href="#DejaVuSans-Bold-65" transform="translate(2577.001953 0)"/>
     <use xlink:href="#DejaVuSans-Bold-78" transform="translate(2644.824219 0)"/>
     <use xlink:href="#DejaVuSans-Bold-70" transform="translate(2709.326172 0)"/>
     <use xlink:href="#DejaVuSans-Bold-65" transform="translate(2780.908203 0)"/>
     <use xlink:href="#DejaVuSans-Bold-72" transform="translate(2848.730469 0)"/>
     <use xlink:href="#DejaVuSans-Bold-69" transform="translate(2898.046875 0)"/>
     <use xlink:href="#DejaVuSans-Bold-6d" transform="translate(2932.324219 0)"/>
     <use xlink:href="#DejaVuSans-Bold-65" transform="translate(3036.523438 0)"/>
     <use xlink:href="#DejaVuSans-Bold-6e" transform="translate(3104.345703 0)"/>
     <use xlink:href="#DejaVuSans-Bold-74" transform="translate(3175.537109 0)"/>
     <use xlink:href="#DejaVuSans-Bold-6f" transform="translate(3223.339844 0)"/>
     <use xlink:href="#DejaVuSans-Bold-73" transform="translate(3292.041016 0)"/>
    </g>
   </g>
   <g id="text_2">
    <!-- Usuario -->
    <g transform="translate(99.184589 90.926514) scale(0.09 -0.09)">
     <use xlink:href="#DejaVuSans-Bold-55"/>
     <use xlink:href="#DejaVuSans-Bold-73" transform="translate(81.201172 0)"/>
     <use xlink:href="#DejaVuSans-Bold-75" transform="translate(140.722656 0)"/>
     <use xlink:href="#DejaVuSans-Bold-61" transform="translate(211.914062 0)"/>
     <use xlink:href="#DejaVuSans-Bold-72" transform="translate(279.394531 0)"/>
     <use xlink:href="#DejaVuSans-Bold-69" transform="translate(328.710938 0)"/>
     <use xlink:href="#DejaVuSans-Bold-6f" transform="translate(362.988281 0)"/>
    </g>
   </g>
   <g id="text_3">
    <!-- experiment -->
    <g transform="translate(228.788215 85.887499) scale(0.09 -0.09)">
     <use xlink:href="#DejaVuSans-Bold-65"/>
     <use xlink:href="#DejaVuSans-Bold-78" transform="translate(67.822266 0)"/>
     <use xlink:href="#DejaVuSans-Bold-70" transform="translate(132.324219 0)"/>
     <use xlink:href="#DejaVuSans-Bold-65" transform="translate(203.90625 0)"/>
     <use xlink:href="#DejaVuSans-Bold-72" transform="translate(271.728516 0)"/>
     <use xlink:href="#DejaVuSans-Bold-69" transform="translate(321.044922 0)"/>
     <use xlink:href="#DejaVuSans-Bold-6d" transform="translate(355.322266 0)"/>
     <use xlink:href="#DejaVuSans-Bold-65" transform="translate(459.521484 0)"/>
     <use xlink:href="#DejaVuSans-Bold-6e" transform="translate(527.34375 0)"/>
     <use xlink:href="#DejaVuSans-Bold-74" transform="translate(598.535156 0)"/>
    </g>
    <!-- runner -->
    <g transform="translate(240.772981 95.96553) scale(0.09 -0.09)">
     <use xlink:href="#DejaVuSans-Bold-72"/>
     <use xlink:href="#DejaVuSans-Bold-75" transform="translate(49.316406 0)"/>
     <use xlink:href="#DejaVuSans-Bold-6e" transform="translate(120.507812 0)"/>
     <use xlink:href="#DejaVuSans-Bold-6e" transform="translate(191.699219 0)"/>
     <use xlink:href="#DejaVuSans-Bold-65" transform="translate(262.890625 0)"/>
     <use xlink:href="#DejaVuSans-Bold-72" transform="translate(330.712891 0)"/>
    </g>
   </g>
   <g id="text_4">
    <!-- Document -->
    <g transform="translate(371.342701 85.887499) scale(0.09 -0.09)">
     <use xlink:href="#DejaVuSans-Bold-44"/>
     <use xlink:href="#DejaVuSans-Bold-6f" transform="translate(83.007812 0)"/>
     <use xlink:href="#DejaVuSans-Bold-63" transform="translate(151.708984 0)"/>
     <use xlink:href="#DejaVuSans-Bold-75" transform="translate(210.986328 0)"/>
     <use xlink:href="#DejaVuSans-Bold-6d" transform="translate(282.177734 0)"/>
     <use xlink:href="#DejaVuSans-Bold-65" transform="translate(386.376953 0)"/>
     <use xlink:href="#DejaVuSans-Bold-6e" transform="translate(454.199219 0)"/>
     <use xlink:href="#DejaVuSans-Bold-74" transform="translate(525.390625 0)"/>
    </g>
    <!-- Processor -->
    <g transform="translate(372.140748 95.96553) scale(0.09 -0.09)">
     <defs>
      <path id="DejaVuSans-Bold-50" d="M 588 4666 
L 2584 4666 
Q 3475 4666 3951 4270 
Q 4428 3875 4428 3144 
Q 4428 2409 3951 2014 
Q 3475 1619 2584 1619 
L 1791 1619 
L 1791 0 
L 588 0 
L 588 4666 
z
M 1791 3794 
L 1791 2491 
L 2456 2491 
Q 2806 2491 2997 2661 
Q 3188 2831 3188 3144 
Q 3188 3456 2997 3625 
Q 2806 3794 2456 3794 
L 1791 3794 
z
" transform="scale(0.015625)"/>
     </defs>
     <use xlink:href="#DejaVuSans-Bold-50"/>
     <use xlink:href="#DejaVuSans-Bold-72" transform="translate(73.291016 0)"/>
     <use xlink:href="#DejaVuSans-Bold-6f" transform="translate(122.607422 0)"/>
     <use xlink:href="#DejaVuSans-Bold-63" transform="translate(191.308594 0)"/>
     <use xlink:href="#DejaVuSans-Bold-65" transform="translate(250.585938 0)"/>
     <use xlink:href="#DejaVuSans-Bold-73" transform="translate(318.408203 0)"/>
     <use xlink:href="#DejaVuSans-Bold-73" transform="translate(377.929688 0)"/>
     <use xlink:href="#DejaVuSans-Bold-6f" transform="translate(437.451172 0)"/>
     <use xlink:href="#DejaVuSans-Bold-72" transform="translate(506.152344 0)"/>
    </g>
   </g>
   <g id="text_5">
    <!-- single -->
    <g transform="translate(521.159766 85.852343) scale(0.09 -0.09)">
     <use xlink:href="#DejaVuSans-Bold-73"/>
     <use xlink:href="#DejaVuSans-Bold-69" transform="translate(59.521484 0)"/>
     <use xlink:href="#DejaVuSans-Bold-6e" transform="translate(93.798828 0)"/>
     <use xlink:href="#DejaVuSans-Bold-67" transform="translate(164.990234 0)"/>
     <use xlink:href="#DejaVuSans-Bold-6c" transform="translate(236.572266 0)"/>
     <use xlink:href="#DejaVuSans-Bold-65" transform="translate(270.849609 0)"/>
    </g>
    <!-- Evaluator -->
    <g transform="translate(512.11125 96.000686) scale(0.09 -0.09)">
     <use xlink:href="#DejaVuSans-Bold-45"/>
     <use xlink:href="#DejaVuSans-Bold-76" transform="translate(68.310547 0)"/>
     <use xlink:href="#DejaVuSans-Bold-61" transform="translate(133.496094 0)"/>
     <use xlink:href="#DejaVuSans-Bold-6c" transform="translate(200.976562 0)"/>
     <use xlink:href="#DejaVuSans-Bold-75" transform="translate(235.253906 0)"/>
     <use xlink:href="#DejaVuSans-Bold-61" transform="translate(306.445312 0)"/>
     <use xlink:href="#DejaVuSans-Bold-74" transform="translate(373.925781 0)"/>
     <use xlink:href="#DejaVuSans-Bold-6f" transform="translate(421.728516 0)"/>
     <use xlink:href="#DejaVuSans-Bold-72" transform="translate(490.429688 0)"/>
    </g>
   </g>
   <g id="text_6">
    <!-- XML -->
    <g transform="translate(664.848392 85.887499) scale(0.09 -0.09)">
     <defs>
      <path id="DejaVuSans-Bold-58" d="M 3188 2381 
L 4806 0 
L 3553 0 
L 2463 1594 
L 1381 0 
L 122 0 
L 1741 2381 
L 184 4666 
L 1441 4666 
L 2463 3163 
L 3481 4666 
L 4744 4666 
L 3188 2381 
z
" transform="scale(0.015625)"/>
     </defs>
     <use xlink:href="#DejaVuSans-Bold-58"/>
     <use xlink:href="#DejaVuSans-Bold-4d" transform="translate(77.099609 0)"/>
     <use xlink:href="#DejaVuSans-Bold-4c" transform="translate(176.611328 0)"/>
    </g>
    <!-- referencia -->
    <g transform="translate(649.660189 95.96553) scale(0.09 -0.09)">
     <defs>
      <path id="DejaVuSans-Bold-66" d="M 2841 4863 
L 2841 4128 
L 2222 4128 
Q 1984 4128 1890 4042 
Q 1797 3956 1797 3744 
L 1797 3500 
L 2753 3500 
L 2753 2700 
L 1797 2700 
L 1797 0 
L 678 0 
L 678 2700 
L 122 2700 
L 122 3500 
L 678 3500 
L 678 3744 
Q 678 4316 997 4589 
Q 1316 4863 1984 4863 
L 2841 4863 
z
" transform="scale(0.015625)"/>
     </defs>
     <use xlink:href="#DejaVuSans-Bold-72"/>
     <use xlink:href="#DejaVuSans-Bold-65" transform="translate(49.316406 0)"/>
     <use xlink:href="#DejaVuSans-Bold-66" transform="translate(117.138672 0)"/>
     <use xlink:href="#DejaVuSans-Bold-65" transform="translate(160.644531 0)"/>
     <use xlink:href="#DejaVuSans-Bold-72" transform="translate(228.466797 0)"/>
     <use xlink:href="#DejaVuSans-Bold-65" transform="translate(277.783203 0)"/>
     <use xlink:href="#DejaVuSans-Bold-6e" transform="translate(345.605469 0)"/>
     <use xlink:href="#DejaVuSans-Bold-63" transform="translate(416.796875 0)"/>
     <use xlink:href="#DejaVuSans-Bold-69" transform="translate(476.074219 0)"/>
     <use xlink:href="#DejaVuSans-Bold-61" transform="translate(510.351562 0)"/>
    </g>
   </g>
   <g id="text_7">
    <!-- XML -->
    <g transform="translate(804.11155 85.852343) scale(0.09 -0.09)">
     <use xlink:href="#DejaVuSans-Bold-58"/>
     <use xlink:href="#DejaVuSans-Bold-4d" transform="translate(77.099609 0)"/>
     <use xlink:href="#DejaVuSans-Bold-4c" transform="translate(176.611328 0)"/>
    </g>
    <!-- generado -->
    <g transform="translate(790.828816 95.930374) scale(0.09 -0.09)">
     <use xlink:href="#DejaVuSans-Bold-67"/>
     <use xlink:href="#DejaVuSans-Bold-65" transform="translate(71.582031 0)"/>
     <use xlink:href="#DejaVuSans-Bold-6e" transform="translate(139.404297 0)"/>
     <use xlink:href="#DejaVuSans-Bold-65" transform="translate(210.595703 0)"/>
     <use xlink:href="#DejaVuSans-Bold-72" transform="translate(278.417969 0)"/>
     <use xlink:href="#DejaVuSans-Bold-61" transform="translate(327.734375 0)"/>
     <use xlink:href="#DejaVuSans-Bold-64" transform="translate(395.214844 0)"/>
     <use xlink:href="#DejaVuSans-Bold-6f" transform="translate(466.796875 0)"/>
    </g>
   </g>
   <g id="text_8">
    <!-- jiwer -->
    <g transform="translate(941.675255 85.852343) scale(0.09 -0.09)">
     <defs>
      <path id="DejaVuSans-Bold-6a" d="M 538 3500 
L 1656 3500 
L 1656 63 
Q 1656 -641 1318 -1011 
Q 981 -1381 341 -1381 
L -213 -1381 
L -213 -647 
L -19 -647 
Q 300 -647 419 -503 
Q 538 -359 538 63 
L 538 3500 
z
M 538 4863 
L 1656 4863 
L 1656 3950 
L 538 3950 
L 538 4863 
z
" transform="scale(0.015625)"/>
      <path id="DejaVuSans-Bold-77" d="M 225 3500 
L 1313 3500 
L 1900 1088 
L 2491 3500 
L 3425 3500 
L 4013 1113 
L 4603 3500 
L 5691 3500 
L 4769 0 
L 3547 0 
L 2956 2406 
L 2369 0 
L 1147 0 
L 225 3500 
z
" transform="scale(0.015625)"/>
     </defs>
     <use xlink:href="#DejaVuSans-Bold-6a"/>
     <use xlink:href="#DejaVuSans-Bold-69" transform="translate(34.277344 0)"/>
     <use xlink:href="#DejaVuSans-Bold-77" transform="translate(68.554688 0)"/>
     <use xlink:href="#DejaVuSans-Bold-65" transform="translate(160.9375 0)"/>
     <use xlink:href="#DejaVuSans-Bold-72" transform="translate(228.759766 0)"/>
    </g>
    <!-- CER -->
    <g transform="translate(944.347833 96.000686) scale(0.09 -0.09)">
     <defs>
      <path id="DejaVuSans-Bold-43" d="M 4288 256 
Q 3956 84 3597 -3 
Q 3238 -91 2847 -91 
Q 1681 -91 1000 561 
Q 319 1213 319 2328 
Q 319 3447 1000 4098 
Q 1681 4750 2847 4750 
Q 3238 4750 3597 4662 
Q 3956 4575 4288 4403 
L 4288 3438 
Q 3953 3666 3628 3772 
Q 3303 3878 2944 3878 
Q 2300 3878 1931 3465 
Q 1563 3053 1563 2328 
Q 1563 1606 1931 1193 
Q 2300 781 2944 781 
Q 3303 781 3628 887 
Q 3953 994 4288 1222 
L 4288 256 
z
" transform="scale(0.015625)"/>
      <path id="DejaVuSans-Bold-52" d="M 2297 2597 
Q 2675 2597 2839 2737 
Q 3003 2878 3003 3200 
Q 3003 3519 2839 3656 
Q 2675 3794 2297 3794 
L 1791 3794 
L 1791 2597 
L 2297 2597 
z
M 1791 1766 
L 1791 0 
L 588 0 
L 588 4666 
L 2425 4666 
Q 3347 4666 3776 4356 
Q 4206 4047 4206 3378 
Q 4206 2916 3982 2619 
Q 3759 2322 3309 2181 
Q 3556 2125 3751 1926 
Q 3947 1728 4147 1325 
L 4800 0 
L 3519 0 
L 2950 1159 
Q 2778 1509 2601 1637 
Q 2425 1766 2131 1766 
L 1791 1766 
z
" transform="scale(0.015625)"/>
     </defs>
     <use xlink:href="#DejaVuSans-Bold-43"/>
     <use xlink:href="#DejaVuSans-Bold-45" transform="translate(73.388672 0)"/>
     <use xlink:href="#DejaVuSans-Bold-52" transform="translate(141.699219 0)"/>
    </g>
   </g>
   <g id="patch_14">
    <path d="M 126.613228 125.784615 
Q 188.243713 125.784615 248.364853 125.784615 
" style="fill: none; stroke: #1f2937; stroke-width: 1.35; stroke-linecap: round"/>
    <path d="M 244.364853 123.784615 
L 248.364853 125.784615 
L 244.364853 127.784615 
" style="fill: none; stroke: #1f2937; stroke-width: 1.35; stroke-linecap: round"/>
   </g>
   <g id="text_9">
    <!-- run_benchmarks() -->
    <g transform="translate(147.182418 117.6072) scale(0.09 -0.09)">
     <defs>
      <path id="DejaVuSans-72" d="M 2631 2963 
Q 2534 3019 2420 3045 
Q 2306 3072 2169 3072 
Q 1681 3072 1420 2755 
Q 1159 2438 1159 1844 
L 1159 0 
L 581 0 
L 581 3500 
L 1159 3500 
L 1159 2956 
Q 1341 3275 1631 3429 
Q 1922 3584 2338 3584 
Q 2397 3584 2469 3576 
Q 2541 3569 2628 3553 
L 2631 2963 
z
" transform="scale(0.015625)"/>
      <path id="DejaVuSans-75" d="M 544 1381 
L 544 3500 
L 1119 3500 
L 1119 1403 
Q 1119 906 1312 657 
Q 1506 409 1894 409 
Q 2359 409 2629 706 
Q 2900 1003 2900 1516 
L 2900 3500 
L 3475 3500 
L 3475 0 
L 2900 0 
L 2900 538 
Q 2691 219 2414 64 
Q 2138 -91 1772 -91 
Q 1169 -91 856 284 
Q 544 659 544 1381 
z
M 1991 3584 
L 1991 3584 
z
" transform="scale(0.015625)"/>
      <path id="DejaVuSans-6e" d="M 3513 2113 
L 3513 0 
L 2938 0 
L 2938 2094 
Q 2938 2591 2744 2837 
Q 2550 3084 2163 3084 
Q 1697 3084 1428 2787 
Q 1159 2491 1159 1978 
L 1159 0 
L 581 0 
L 581 3500 
L 1159 3500 
L 1159 2956 
Q 1366 3272 1645 3428 
Q 1925 3584 2291 3584 
Q 2894 3584 3203 3211 
Q 3513 2838 3513 2113 
z
" transform="scale(0.015625)"/>
      <path id="DejaVuSans-5f" d="M 3263 -1063 
L 3263 -1509 
L -63 -1509 
L -63 -1063 
L 3263 -1063 
z
" transform="scale(0.015625)"/>
      <path id="DejaVuSans-62" d="M 3116 1747 
Q 3116 2381 2855 2742 
Q 2594 3103 2138 3103 
Q 1681 3103 1420 2742 
Q 1159 2381 1159 1747 
Q 1159 1113 1420 752 
Q 1681 391 2138 391 
Q 2594 391 2855 752 
Q 3116 1113 3116 1747 
z
M 1159 2969 
Q 1341 3281 1617 3432 
Q 1894 3584 2278 3584 
Q 2916 3584 3314 3078 
Q 3713 2572 3713 1747 
Q 3713 922 3314 415 
Q 2916 -91 2278 -91 
Q 1894 -91 1617 61 
Q 1341 213 1159 525 
L 1159 0 
L 581 0 
L 581 4863 
L 1159 4863 
L 1159 2969 
z
" transform="scale(0.015625)"/>
      <path id="DejaVuSans-65" d="M 3597 1894 
L 3597 1613 
L 953 1613 
Q 991 1019 1311 708 
Q 1631 397 2203 397 
Q 2534 397 2845 478 
Q 3156 559 3463 722 
L 3463 178 
Q 3153 47 2828 -22 
Q 2503 -91 2169 -91 
Q 1331 -91 842 396 
Q 353 884 353 1716 
Q 353 2575 817 3079 
Q 1281 3584 2069 3584 
Q 2775 3584 3186 3129 
Q 3597 2675 3597 1894 
z
M 3022 2063 
Q 3016 2534 2758 2815 
Q 2500 3097 2075 3097 
Q 1594 3097 1305 2825 
Q 1016 2553 972 2059 
L 3022 2063 
z
" transform="scale(0.015625)"/>
      <path id="DejaVuSans-63" d="M 3122 3366 
L 3122 2828 
Q 2878 2963 2633 3030 
Q 2388 3097 2138 3097 
Q 1578 3097 1268 2742 
Q 959 2388 959 1747 
Q 959 1106 1268 751 
Q 1578 397 2138 397 
Q 2388 397 2633 464 
Q 2878 531 3122 666 
L 3122 134 
Q 2881 22 2623 -34 
Q 2366 -91 2075 -91 
Q 1284 -91 818 406 
Q 353 903 353 1747 
Q 353 2603 823 3093 
Q 1294 3584 2113 3584 
Q 2378 3584 2631 3529 
Q 2884 3475 3122 3366 
z
" transform="scale(0.015625)"/>
      <path id="DejaVuSans-68" d="M 3513 2113 
L 3513 0 
L 2938 0 
L 2938 2094 
Q 2938 2591 2744 2837 
Q 2550 3084 2163 3084 
Q 1697 3084 1428 2787 
Q 1159 2491 1159 1978 
L 1159 0 
L 581 0 
L 581 4863 
L 1159 4863 
L 1159 2956 
Q 1366 3272 1645 3428 
Q 1925 3584 2291 3584 
Q 2894 3584 3203 3211 
Q 3513 2838 3513 2113 
z
" transform="scale(0.015625)"/>
      <path id="DejaVuSans-6d" d="M 3328 2828 
Q 3544 3216 3844 3400 
Q 4144 3584 4550 3584 
Q 5097 3584 5394 3201 
Q 5691 2819 5691 2113 
L 5691 0 
L 5113 0 
L 5113 2094 
Q 5113 2597 4934 2840 
Q 4756 3084 4391 3084 
Q 3944 3084 3684 2787 
Q 3425 2491 3425 1978 
L 3425 0 
L 2847 0 
L 2847 2094 
Q 2847 2600 2669 2842 
Q 2491 3084 2119 3084 
Q 1678 3084 1418 2786 
Q 1159 2488 1159 1978 
L 1159 0 
L 581 0 
L 581 3500 
L 1159 3500 
L 1159 2956 
Q 1356 3278 1631 3431 
Q 1906 3584 2284 3584 
Q 2666 3584 2933 3390 
Q 3200 3197 3328 2828 
z
" transform="scale(0.015625)"/>
      <path id="DejaVuSans-61" d="M 2194 1759 
Q 1497 1759 1228 1600 
Q 959 1441 959 1056 
Q 959 750 1161 570 
Q 1363 391 1709 391 
Q 2188 391 2477 730 
Q 2766 1069 2766 1631 
L 2766 1759 
L 2194 1759 
z
M 3341 1997 
L 3341 0 
L 2766 0 
L 2766 531 
Q 2569 213 2275 61 
Q 1981 -91 1556 -91 
Q 1019 -91 701 211 
Q 384 513 384 1019 
Q 384 1609 779 1909 
Q 1175 2209 1959 2209 
L 2766 2209 
L 2766 2266 
Q 2766 2663 2505 2880 
Q 2244 3097 1772 3097 
Q 1472 3097 1187 3025 
Q 903 2953 641 2809 
L 641 3341 
Q 956 3463 1253 3523 
Q 1550 3584 1831 3584 
Q 2591 3584 2966 3190 
Q 3341 2797 3341 1997 
z
" transform="scale(0.015625)"/>
      <path id="DejaVuSans-6b" d="M 581 4863 
L 1159 4863 
L 1159 1991 
L 2875 3500 
L 3609 3500 
L 1753 1863 
L 3688 0 
L 2938 0 
L 1159 1709 
L 1159 0 
L 581 0 
L 581 4863 
z
" transform="scale(0.015625)"/>
      <path id="DejaVuSans-73" d="M 2834 3397 
L 2834 2853 
Q 2591 2978 2328 3040 
Q 2066 3103 1784 3103 
Q 1356 3103 1142 2972 
Q 928 2841 928 2578 
Q 928 2378 1081 2264 
Q 1234 2150 1697 2047 
L 1894 2003 
Q 2506 1872 2764 1633 
Q 3022 1394 3022 966 
Q 3022 478 2636 193 
Q 2250 -91 1575 -91 
Q 1294 -91 989 -36 
Q 684 19 347 128 
L 347 722 
Q 666 556 975 473 
Q 1284 391 1588 391 
Q 1994 391 2212 530 
Q 2431 669 2431 922 
Q 2431 1156 2273 1281 
Q 2116 1406 1581 1522 
L 1381 1569 
Q 847 1681 609 1914 
Q 372 2147 372 2553 
Q 372 3047 722 3315 
Q 1072 3584 1716 3584 
Q 2034 3584 2315 3537 
Q 2597 3491 2834 3397 
z
" transform="scale(0.015625)"/>
      <path id="DejaVuSans-28" d="M 1984 4856 
Q 1566 4138 1362 3434 
Q 1159 2731 1159 2009 
Q 1159 1288 1364 580 
Q 1569 -128 1984 -844 
L 1484 -844 
Q 1016 -109 783 600 
Q 550 1309 550 2009 
Q 550 2706 781 3412 
Q 1013 4119 1484 4856 
L 1984 4856 
z
" transform="scale(0.015625)"/>
      <path id="DejaVuSans-29" d="M 513 4856 
L 1013 4856 
Q 1481 4119 1714 3412 
Q 1947 2706 1947 2009 
Q 1947 1309 1714 600 
Q 1481 -109 1013 -844 
L 513 -844 
Q 928 -128 1133 580 
Q 1338 1288 1338 2009 
Q 1338 2731 1133 3434 
Q 928 4138 513 4856 
z
" transform="scale(0.015625)"/>
     </defs>
     <use xlink:href="#DejaVuSans-72"/>
     <use xlink:href="#DejaVuSans-75" transform="translate(41.113281 0)"/>
     <use xlink:href="#DejaVuSans-6e" transform="translate(104.492188 0)"/>
     <use xlink:href="#DejaVuSans-5f" transform="translate(167.871094 0)"/>
     <use xlink:href="#DejaVuSans-62" transform="translate(217.871094 0)"/>
     <use xlink:href="#DejaVuSans-65" transform="translate(281.347656 0)"/>
     <use xlink:href="#DejaVuSans-6e" transform="translate(342.871094 0)"/>
     <use xlink:href="#DejaVuSans-63" transform="translate(406.25 0)"/>
     <use xlink:href="#DejaVuSans-68" transform="translate(461.230469 0)"/>
     <use xlink:href="#DejaVuSans-6d" transform="translate(524.609375 0)"/>
     <use xlink:href="#DejaVuSans-61" transform="translate(622.021484 0)"/>
     <use xlink:href="#DejaVuSans-72" transform="translate(683.300781 0)"/>
     <use xlink:href="#DejaVuSans-6b" transform="translate(724.414062 0)"/>
     <use xlink:href="#DejaVuSans-73" transform="translate(782.324219 0)"/>
     <use xlink:href="#DejaVuSans-28" transform="translate(834.423828 0)"/>
     <use xlink:href="#DejaVuSans-29" transform="translate(873.4375 0)"/>
    </g>
   </g>
   <g id="text_10">
    <!-- loop experimentos -->
    <g transform="translate(204.953684 162.077284) scale(0.09 -0.09)">
     <use xlink:href="#DejaVuSans-Bold-6c"/>
     <use xlink:href="#DejaVuSans-Bold-6f" transform="translate(34.277344 0)"/>
     <use xlink:href="#DejaVuSans-Bold-6f" transform="translate(102.978516 0)"/>
     <use xlink:href="#DejaVuSans-Bold-70" transform="translate(171.679688 0)"/>
     <use xlink:href="#DejaVuSans-Bold-20" transform="translate(243.261719 0)"/>
     <use xlink:href="#DejaVuSans-Bold-65" transform="translate(278.076172 0)"/>
     <use xlink:href="#DejaVuSans-Bold-78" transform="translate(345.898438 0)"/>
     <use xlink:href="#DejaVuSans-Bold-70" transform="translate(410.400391 0)"/>
     <use xlink:href="#DejaVuSans-Bold-65" transform="translate(481.982422 0)"/>
     <use xlink:href="#DejaVuSans-Bold-72" transform="translate(549.804688 0)"/>
     <use xlink:href="#DejaVuSans-Bold-69" transform="translate(599.121094 0)"/>
     <use xlink:href="#DejaVuSans-Bold-6d" transform="translate(633.398438 0)"/>
     <use xlink:href="#DejaVuSans-Bold-65" transform="translate(737.597656 0)"/>
     <use xlink:href="#DejaVuSans-Bold-6e" transform="translate(805.419922 0)"/>
     <use xlink:href="#DejaVuSans-Bold-74" transform="translate(876.611328 0)"/>
     <use xlink:href="#DejaVuSans-Bold-6f" transform="translate(924.414062 0)"/>
     <use xlink:href="#DejaVuSans-Bold-73" transform="translate(993.115234 0)"/>
    </g>
   </g>
   <g id="patch_15">
    <path d="M 265.876386 191.384615 
Q 327.506871 191.384615 387.628011 191.384615 
" style="fill: none; stroke: #1f2937; stroke-width: 1.35; stroke-linecap: round"/>
    <path d="M 383.628011 189.384615 
L 387.628011 191.384615 
L 383.628011 193.384615 
" style="fill: none; stroke: #1f2937; stroke-width: 1.35; stroke-linecap: round"/>
   </g>
   <g id="text_11">
    <!-- process(pdf_path) -->
    <g transform="translate(286.925107 183.2072) scale(0.09 -0.09)">
     <defs>
      <path id="DejaVuSans-70" d="M 1159 525 
L 1159 -1331 
L 581 -1331 
L 581 3500 
L 1159 3500 
L 1159 2969 
Q 1341 3281 1617 3432 
Q 1894 3584 2278 3584 
Q 2916 3584 3314 3078 
Q 3713 2572 3713 1747 
Q 3713 922 3314 415 
Q 2916 -91 2278 -91 
Q 1894 -91 1617 61 
Q 1341 213 1159 525 
z
M 3116 1747 
Q 3116 2381 2855 2742 
Q 2594 3103 2138 3103 
Q 1681 3103 1420 2742 
Q 1159 2381 1159 1747 
Q 1159 1113 1420 752 
Q 1681 391 2138 391 
Q 2594 391 2855 752 
Q 3116 1113 3116 1747 
z
" transform="scale(0.015625)"/>
      <path id="DejaVuSans-6f" d="M 1959 3097 
Q 1497 3097 1228 2736 
Q 959 2375 959 1747 
Q 959 1119 1226 758 
Q 1494 397 1959 397 
Q 2419 397 2687 759 
Q 2956 1122 2956 1747 
Q 2956 2369 2687 2733 
Q 2419 3097 1959 3097 
z
M 1959 3584 
Q 2709 3584 3137 3096 
Q 3566 2609 3566 1747 
Q 3566 888 3137 398 
Q 2709 -91 1959 -91 
Q 1206 -91 779 398 
Q 353 888 353 1747 
Q 353 2609 779 3096 
Q 1206 3584 1959 3584 
z
" transform="scale(0.015625)"/>
      <path id="DejaVuSans-64" d="M 2906 2969 
L 2906 4863 
L 3481 4863 
L 3481 0 
L 2906 0 
L 2906 525 
Q 2725 213 2448 61 
Q 2172 -91 1784 -91 
Q 1150 -91 751 415 
Q 353 922 353 1747 
Q 353 2572 751 3078 
Q 1150 3584 1784 3584 
Q 2172 3584 2448 3432 
Q 2725 3281 2906 2969 
z
M 947 1747 
Q 947 1113 1208 752 
Q 1469 391 1925 391 
Q 2381 391 2643 752 
Q 2906 1113 2906 1747 
Q 2906 2381 2643 2742 
Q 2381 3103 1925 3103 
Q 1469 3103 1208 2742 
Q 947 2381 947 1747 
z
" transform="scale(0.015625)"/>
      <path id="DejaVuSans-66" d="M 2375 4863 
L 2375 4384 
L 1825 4384 
Q 1516 4384 1395 4259 
Q 1275 4134 1275 3809 
L 1275 3500 
L 2222 3500 
L 2222 3053 
L 1275 3053 
L 1275 0 
L 697 0 
L 697 3053 
L 147 3053 
L 147 3500 
L 697 3500 
L 697 3744 
Q 697 4328 969 4595 
Q 1241 4863 1831 4863 
L 2375 4863 
z
" transform="scale(0.015625)"/>
      <path id="DejaVuSans-74" d="M 1172 4494 
L 1172 3500 
L 2356 3500 
L 2356 3053 
L 1172 3053 
L 1172 1153 
Q 1172 725 1289 603 
Q 1406 481 1766 481 
L 2356 481 
L 2356 0 
L 1766 0 
Q 1100 0 847 248 
Q 594 497 594 1153 
L 594 3053 
L 172 3053 
L 172 3500 
L 594 3500 
L 594 4494 
L 1172 4494 
z
" transform="scale(0.015625)"/>
     </defs>
     <use xlink:href="#DejaVuSans-70"/>
     <use xlink:href="#DejaVuSans-72" transform="translate(63.476562 0)"/>
     <use xlink:href="#DejaVuSans-6f" transform="translate(102.339844 0)"/>
     <use xlink:href="#DejaVuSans-63" transform="translate(163.521484 0)"/>
     <use xlink:href="#DejaVuSans-65" transform="translate(218.501953 0)"/>
     <use xlink:href="#DejaVuSans-73" transform="translate(280.025391 0)"/>
     <use xlink:href="#DejaVuSans-73" transform="translate(332.125 0)"/>
     <use xlink:href="#DejaVuSans-28" transform="translate(384.224609 0)"/>
     <use xlink:href="#DejaVuSans-70" transform="translate(423.238281 0)"/>
     <use xlink:href="#DejaVuSans-64" transform="translate(486.714844 0)"/>
     <use xlink:href="#DejaVuSans-66" transform="translate(550.191406 0)"/>
     <use xlink:href="#DejaVuSans-5f" transform="translate(585.396484 0)"/>
     <use xlink:href="#DejaVuSans-70" transform="translate(635.396484 0)"/>
     <use xlink:href="#DejaVuSans-61" transform="translate(698.873047 0)"/>
     <use xlink:href="#DejaVuSans-74" transform="translate(760.152344 0)"/>
     <use xlink:href="#DejaVuSans-68" transform="translate(799.361328 0)"/>
     <use xlink:href="#DejaVuSans-29" transform="translate(862.740234 0)"/>
    </g>
   </g>
   <g id="patch_16">
    <path d="M 389.13414 211.569231 
Q 327.503655 211.569231 267.382515 211.569231 
" style="fill: none; stroke-dasharray: 5.4,4.05; stroke-dashoffset: 0; stroke: #1f2937; stroke-width: 1.35; stroke-linecap: round"/>
    <path d="M 271.382515 213.569231 
L 267.382515 211.569231 
L 271.382515 209.569231 
" style="fill: none; stroke-dasharray: 5.4,4.05; stroke-dashoffset: 0; stroke: #1f2937; stroke-width: 1.35; stroke-linecap: round"/>
   </g>
   <g id="text_12">
    <!-- xml_generado_path -->
    <g transform="translate(283.013623 203.391815) scale(0.09 -0.09)">
     <defs>
      <path id="DejaVuSans-78" d="M 3513 3500 
L 2247 1797 
L 3578 0 
L 2900 0 
L 1881 1375 
L 863 0 
L 184 0 
L 1544 1831 
L 300 3500 
L 978 3500 
L 1906 2253 
L 2834 3500 
L 3513 3500 
z
" transform="scale(0.015625)"/>
      <path id="DejaVuSans-6c" d="M 603 4863 
L 1178 4863 
L 1178 0 
L 603 0 
L 603 4863 
z
" transform="scale(0.015625)"/>
      <path id="DejaVuSans-67" d="M 2906 1791 
Q 2906 2416 2648 2759 
Q 2391 3103 1925 3103 
Q 1463 3103 1205 2759 
Q 947 2416 947 1791 
Q 947 1169 1205 825 
Q 1463 481 1925 481 
Q 2391 481 2648 825 
Q 2906 1169 2906 1791 
z
M 3481 434 
Q 3481 -459 3084 -895 
Q 2688 -1331 1869 -1331 
Q 1566 -1331 1297 -1286 
Q 1028 -1241 775 -1147 
L 775 -588 
Q 1028 -725 1275 -790 
Q 1522 -856 1778 -856 
Q 2344 -856 2625 -561 
Q 2906 -266 2906 331 
L 2906 616 
Q 2728 306 2450 153 
Q 2172 0 1784 0 
Q 1141 0 747 490 
Q 353 981 353 1791 
Q 353 2603 747 3093 
Q 1141 3584 1784 3584 
Q 2172 3584 2450 3431 
Q 2728 3278 2906 2969 
L 2906 3500 
L 3481 3500 
L 3481 434 
z
" transform="scale(0.015625)"/>
     </defs>
     <use xlink:href="#DejaVuSans-78"/>
     <use xlink:href="#DejaVuSans-6d" transform="translate(59.179688 0)"/>
     <use xlink:href="#DejaVuSans-6c" transform="translate(156.591797 0)"/>
     <use xlink:href="#DejaVuSans-5f" transform="translate(184.375 0)"/>
     <use xlink:href="#DejaVuSans-67" transform="translate(234.375 0)"/>
     <use xlink:href="#DejaVuSans-65" transform="translate(297.851562 0)"/>
     <use xlink:href="#DejaVuSans-6e" transform="translate(359.375 0)"/>
     <use xlink:href="#DejaVuSans-65" transform="translate(422.753906 0)"/>
     <use xlink:href="#DejaVuSans-72" transform="translate(484.277344 0)"/>
     <use xlink:href="#DejaVuSans-61" transform="translate(525.390625 0)"/>
     <use xlink:href="#DejaVuSans-64" transform="translate(586.669922 0)"/>
     <use xlink:href="#DejaVuSans-6f" transform="translate(650.146484 0)"/>
     <use xlink:href="#DejaVuSans-5f" transform="translate(711.328125 0)"/>
     <use xlink:href="#DejaVuSans-70" transform="translate(761.328125 0)"/>
     <use xlink:href="#DejaVuSans-61" transform="translate(824.804688 0)"/>
     <use xlink:href="#DejaVuSans-74" transform="translate(886.083984 0)"/>
     <use xlink:href="#DejaVuSans-68" transform="translate(925.292969 0)"/>
    </g>
   </g>
   <g id="patch_17">
    <path d="M 265.876386 241.846154 
Q 397.13623 241.846154 526.886728 241.846154 
" style="fill: none; stroke: #1f2937; stroke-width: 1.35; stroke-linecap: round"/>
    <path d="M 522.886728 239.846154 
L 526.886728 241.846154 
L 522.886728 243.846154 
" style="fill: none; stroke: #1f2937; stroke-width: 1.35; stroke-linecap: round"/>
   </g>
   <g id="text_13">
    <!-- calculate_character_error_rate(ref, hyp) -->
    <g transform="translate(307.610748 233.668738) scale(0.09 -0.09)">
     <defs>
      <path id="DejaVuSans-2c" d="M 750 794 
L 1409 794 
L 1409 256 
L 897 -744 
L 494 -744 
L 750 256 
L 750 794 
z
" transform="scale(0.015625)"/>
      <path id="DejaVuSans-20" transform="scale(0.015625)"/>
      <path id="DejaVuSans-79" d="M 2059 -325 
Q 1816 -950 1584 -1140 
Q 1353 -1331 966 -1331 
L 506 -1331 
L 506 -850 
L 844 -850 
Q 1081 -850 1212 -737 
Q 1344 -625 1503 -206 
L 1606 56 
L 191 3500 
L 800 3500 
L 1894 763 
L 2988 3500 
L 3597 3500 
L 2059 -325 
z
" transform="scale(0.015625)"/>
     </defs>
     <use xlink:href="#DejaVuSans-63"/>
     <use xlink:href="#DejaVuSans-61" transform="translate(54.980469 0)"/>
     <use xlink:href="#DejaVuSans-6c" transform="translate(116.259766 0)"/>
     <use xlink:href="#DejaVuSans-63" transform="translate(144.042969 0)"/>
     <use xlink:href="#DejaVuSans-75" transform="translate(199.023438 0)"/>
     <use xlink:href="#DejaVuSans-6c" transform="translate(262.402344 0)"/>
     <use xlink:href="#DejaVuSans-61" transform="translate(290.185547 0)"/>
     <use xlink:href="#DejaVuSans-74" transform="translate(351.464844 0)"/>
     <use xlink:href="#DejaVuSans-65" transform="translate(390.673828 0)"/>
     <use xlink:href="#DejaVuSans-5f" transform="translate(452.197266 0)"/>
     <use xlink:href="#DejaVuSans-63" transform="translate(502.197266 0)"/>
     <use xlink:href="#DejaVuSans-68" transform="translate(557.177734 0)"/>
     <use xlink:href="#DejaVuSans-61" transform="translate(620.556641 0)"/>
     <use xlink:href="#DejaVuSans-72" transform="translate(681.835938 0)"/>
     <use xlink:href="#DejaVuSans-61" transform="translate(722.949219 0)"/>
     <use xlink:href="#DejaVuSans-63" transform="translate(784.228516 0)"/>
     <use xlink:href="#DejaVuSans-74" transform="translate(839.208984 0)"/>
     <use xlink:href="#DejaVuSans-65" transform="translate(878.417969 0)"/>
     <use xlink:href="#DejaVuSans-72" transform="translate(939.941406 0)"/>
     <use xlink:href="#DejaVuSans-5f" transform="translate(981.054688 0)"/>
     <use xlink:href="#DejaVuSans-65" transform="translate(1031.054688 0)"/>
     <use xlink:href="#DejaVuSans-72" transform="translate(1092.578125 0)"/>
     <use xlink:href="#DejaVuSans-72" transform="translate(1131.941406 0)"/>
     <use xlink:href="#DejaVuSans-6f" transform="translate(1170.804688 0)"/>
     <use xlink:href="#DejaVuSans-72" transform="translate(1231.986328 0)"/>
     <use xlink:href="#DejaVuSans-5f" transform="translate(1273.099609 0)"/>
     <use xlink:href="#DejaVuSans-72" transform="translate(1323.099609 0)"/>
     <use xlink:href="#DejaVuSans-61" transform="translate(1364.212891 0)"/>
     <use xlink:href="#DejaVuSans-74" transform="translate(1425.492188 0)"/>
     <use xlink:href="#DejaVuSans-65" transform="translate(1464.701172 0)"/>
     <use xlink:href="#DejaVuSans-28" transform="translate(1526.224609 0)"/>
     <use xlink:href="#DejaVuSans-72" transform="translate(1565.238281 0)"/>
     <use xlink:href="#DejaVuSans-65" transform="translate(1604.101562 0)"/>
     <use xlink:href="#DejaVuSans-66" transform="translate(1665.625 0)"/>
     <use xlink:href="#DejaVuSans-2c" transform="translate(1700.830078 0)"/>
     <use xlink:href="#DejaVuSans-20" transform="translate(1732.617188 0)"/>
     <use xlink:href="#DejaVuSans-68" transform="translate(1764.404297 0)"/>
     <use xlink:href="#DejaVuSans-79" transform="translate(1827.783203 0)"/>
     <use xlink:href="#DejaVuSans-70" transform="translate(1886.962891 0)"/>
     <use xlink:href="#DejaVuSans-29" transform="translate(1950.439453 0)"/>
    </g>
   </g>
   <g id="patch_18">
    <path d="M 544.402702 277.169231 
Q 606.033187 277.169231 666.154327 277.169231 
" style="fill: none; stroke: #1f2937; stroke-width: 1.35; stroke-linecap: round"/>
    <path d="M 662.154327 275.169231 
L 666.154327 277.169231 
L 662.154327 279.169231 
" style="fill: none; stroke: #1f2937; stroke-width: 1.35; stroke-linecap: round"/>
   </g>
   <g id="text_14">
    <!-- extract_text_from_xml() -->
    <g transform="translate(552.158141 268.991815) scale(0.09 -0.09)">
     <use xlink:href="#DejaVuSans-65"/>
     <use xlink:href="#DejaVuSans-78" transform="translate(59.773438 0)"/>
     <use xlink:href="#DejaVuSans-74" transform="translate(118.953125 0)"/>
     <use xlink:href="#DejaVuSans-72" transform="translate(158.162109 0)"/>
     <use xlink:href="#DejaVuSans-61" transform="translate(199.275391 0)"/>
     <use xlink:href="#DejaVuSans-63" transform="translate(260.554688 0)"/>
     <use xlink:href="#DejaVuSans-74" transform="translate(315.535156 0)"/>
     <use xlink:href="#DejaVuSans-5f" transform="translate(354.744141 0)"/>
     <use xlink:href="#DejaVuSans-74" transform="translate(404.744141 0)"/>
     <use xlink:href="#DejaVuSans-65" transform="translate(443.953125 0)"/>
     <use xlink:href="#DejaVuSans-78" transform="translate(503.726562 0)"/>
     <use xlink:href="#DejaVuSans-74" transform="translate(562.90625 0)"/>
     <use xlink:href="#DejaVuSans-5f" transform="translate(602.115234 0)"/>
     <use xlink:href="#DejaVuSans-66" transform="translate(652.115234 0)"/>
     <use xlink:href="#DejaVuSans-72" transform="translate(687.320312 0)"/>
     <use xlink:href="#DejaVuSans-6f" transform="translate(726.183594 0)"/>
     <use xlink:href="#DejaVuSans-6d" transform="translate(787.365234 0)"/>
     <use xlink:href="#DejaVuSans-5f" transform="translate(884.777344 0)"/>
     <use xlink:href="#DejaVuSans-78" transform="translate(934.777344 0)"/>
     <use xlink:href="#DejaVuSans-6d" transform="translate(993.957031 0)"/>
     <use xlink:href="#DejaVuSans-6c" transform="translate(1091.369141 0)"/>
     <use xlink:href="#DejaVuSans-28" transform="translate(1119.152344 0)"/>
     <use xlink:href="#DejaVuSans-29" transform="translate(1158.166016 0)"/>
    </g>
   </g>
   <g id="patch_19">
    <path d="M 667.660456 297.353846 
Q 606.029971 297.353846 545.908831 297.353846 
" style="fill: none; stroke-dasharray: 5.4,4.05; stroke-dashoffset: 0; stroke: #1f2937; stroke-width: 1.35; stroke-linecap: round"/>
    <path d="M 549.908831 299.353846 
L 545.908831 297.353846 
L 549.908831 295.353846 
" style="fill: none; stroke-dasharray: 5.4,4.05; stroke-dashoffset: 0; stroke: #1f2937; stroke-width: 1.35; stroke-linecap: round"/>
   </g>
   <g id="text_15">
    <!-- texto_referencia -->
    <g transform="translate(569.424079 289.17643) scale(0.09 -0.09)">
     <defs>
      <path id="DejaVuSans-69" d="M 603 3500 
L 1178 3500 
L 1178 0 
L 603 0 
L 603 3500 
z
M 603 4863 
L 1178 4863 
L 1178 4134 
L 603 4134 
L 603 4863 
z
" transform="scale(0.015625)"/>
     </defs>
     <use xlink:href="#DejaVuSans-74"/>
     <use xlink:href="#DejaVuSans-65" transform="translate(39.208984 0)"/>
     <use xlink:href="#DejaVuSans-78" transform="translate(98.982422 0)"/>
     <use xlink:href="#DejaVuSans-74" transform="translate(158.162109 0)"/>
     <use xlink:href="#DejaVuSans-6f" transform="translate(197.371094 0)"/>
     <use xlink:href="#DejaVuSans-5f" transform="translate(258.552734 0)"/>
     <use xlink:href="#DejaVuSans-72" transform="translate(308.552734 0)"/>
     <use xlink:href="#DejaVuSans-65" transform="translate(347.416016 0)"/>
     <use xlink:href="#DejaVuSans-66" transform="translate(408.939453 0)"/>
     <use xlink:href="#DejaVuSans-65" transform="translate(444.144531 0)"/>
     <use xlink:href="#DejaVuSans-72" transform="translate(505.667969 0)"/>
     <use xlink:href="#DejaVuSans-65" transform="translate(544.53125 0)"/>
     <use xlink:href="#DejaVuSans-6e" transform="translate(606.054688 0)"/>
     <use xlink:href="#DejaVuSans-63" transform="translate(669.433594 0)"/>
     <use xlink:href="#DejaVuSans-69" transform="translate(724.414062 0)"/>
     <use xlink:href="#DejaVuSans-61" transform="translate(752.197266 0)"/>
    </g>
   </g>
   <g id="patch_20">
    <path d="M 544.402702 330.153846 
Q 675.662546 330.153846 805.413044 330.153846 
" style="fill: none; stroke: #1f2937; stroke-width: 1.35; stroke-linecap: round"/>
    <path d="M 801.413044 328.153846 
L 805.413044 330.153846 
L 801.413044 332.153846 
" style="fill: none; stroke: #1f2937; stroke-width: 1.35; stroke-linecap: round"/>
   </g>
   <g id="text_16">
    <!-- extract_text_from_xml() -->
    <g transform="translate(621.78972 321.97643) scale(0.09 -0.09)">
     <use xlink:href="#DejaVuSans-65"/>
     <use xlink:href="#DejaVuSans-78" transform="translate(59.773438 0)"/>
     <use xlink:href="#DejaVuSans-74" transform="translate(118.953125 0)"/>
     <use xlink:href="#DejaVuSans-72" transform="translate(158.162109 0)"/>
     <use xlink:href="#DejaVuSans-61" transform="translate(199.275391 0)"/>
     <use xlink:href="#DejaVuSans-63" transform="translate(260.554688 0)"/>
     <use xlink:href="#DejaVuSans-74" transform="translate(315.535156 0)"/>
     <use xlink:href="#DejaVuSans-5f" transform="translate(354.744141 0)"/>
     <use xlink:href="#DejaVuSans-74" transform="translate(404.744141 0)"/>
     <use xlink:href="#DejaVuSans-65" transform="translate(443.953125 0)"/>
     <use xlink:href="#DejaVuSans-78" transform="translate(503.726562 0)"/>
     <use xlink:href="#DejaVuSans-74" transform="translate(562.90625 0)"/>
     <use xlink:href="#DejaVuSans-5f" transform="translate(602.115234 0)"/>
     <use xlink:href="#DejaVuSans-66" transform="translate(652.115234 0)"/>
     <use xlink:href="#DejaVuSans-72" transform="translate(687.320312 0)"/>
     <use xlink:href="#DejaVuSans-6f" transform="translate(726.183594 0)"/>
     <use xlink:href="#DejaVuSans-6d" transform="translate(787.365234 0)"/>
     <use xlink:href="#DejaVuSans-5f" transform="translate(884.777344 0)"/>
     <use xlink:href="#DejaVuSans-78" transform="translate(934.777344 0)"/>
     <use xlink:href="#DejaVuSans-6d" transform="translate(993.957031 0)"/>
     <use xlink:href="#DejaVuSans-6c" transform="translate(1091.369141 0)"/>
     <use xlink:href="#DejaVuSans-28" transform="translate(1119.152344 0)"/>
     <use xlink:href="#DejaVuSans-29" transform="translate(1158.166016 0)"/>
    </g>
   </g>
   <g id="patch_21">
    <path d="M 806.923614 350.338462 
Q 675.66377 350.338462 545.913272 350.338462 
" style="fill: none; stroke-dasharray: 5.4,4.05; stroke-dashoffset: 0; stroke: #1f2937; stroke-width: 1.35; stroke-linecap: round"/>
    <path d="M 549.913272 352.338462 
L 545.913272 350.338462 
L 549.913272 348.338462 
" style="fill: none; stroke-dasharray: 5.4,4.05; stroke-dashoffset: 0; stroke: #1f2937; stroke-width: 1.35; stroke-linecap: round"/>
   </g>
   <g id="text_17">
    <!-- texto_generado -->
    <g transform="translate(640.313549 342.161046) scale(0.09 -0.09)">
     <use xlink:href="#DejaVuSans-74"/>
     <use xlink:href="#DejaVuSans-65" transform="translate(39.208984 0)"/>
     <use xlink:href="#DejaVuSans-78" transform="translate(98.982422 0)"/>
     <use xlink:href="#DejaVuSans-74" transform="translate(158.162109 0)"/>
     <use xlink:href="#DejaVuSans-6f" transform="translate(197.371094 0)"/>
     <use xlink:href="#DejaVuSans-5f" transform="translate(258.552734 0)"/>
     <use xlink:href="#DejaVuSans-67" transform="translate(308.552734 0)"/>
     <use xlink:href="#DejaVuSans-65" transform="translate(372.029297 0)"/>
     <use xlink:href="#DejaVuSans-6e" transform="translate(433.552734 0)"/>
     <use xlink:href="#DejaVuSans-65" transform="translate(496.931641 0)"/>
     <use xlink:href="#DejaVuSans-72" transform="translate(558.455078 0)"/>
     <use xlink:href="#DejaVuSans-61" transform="translate(599.568359 0)"/>
     <use xlink:href="#DejaVuSans-64" transform="translate(660.847656 0)"/>
     <use xlink:href="#DejaVuSans-6f" transform="translate(724.324219 0)"/>
    </g>
   </g>
   <g id="patch_22">
    <path d="M 544.397389 383.138462 
Q 745.293119 383.138462 944.679503 383.138462 
" style="fill: none; stroke: #1f2937; stroke-width: 1.35; stroke-linecap: round"/>
    <path d="M 940.679503 381.138462 
L 944.679503 383.138462 
L 940.679503 385.138462 
" style="fill: none; stroke: #1f2937; stroke-width: 1.35; stroke-linecap: round"/>
   </g>
   <g id="text_18">
    <!-- cer(texto_ref, texto_gen) -->
    <g transform="translate(689.479971 374.961046) scale(0.09 -0.09)">
     <use xlink:href="#DejaVuSans-63"/>
     <use xlink:href="#DejaVuSans-65" transform="translate(54.980469 0)"/>
     <use xlink:href="#DejaVuSans-72" transform="translate(116.503906 0)"/>
     <use xlink:href="#DejaVuSans-28" transform="translate(157.617188 0)"/>
     <use xlink:href="#DejaVuSans-74" transform="translate(196.630859 0)"/>
     <use xlink:href="#DejaVuSans-65" transform="translate(235.839844 0)"/>
     <use xlink:href="#DejaVuSans-78" transform="translate(295.613281 0)"/>
     <use xlink:href="#DejaVuSans-74" transform="translate(354.792969 0)"/>
     <use xlink:href="#DejaVuSans-6f" transform="translate(394.001953 0)"/>
     <use xlink:href="#DejaVuSans-5f" transform="translate(455.183594 0)"/>
     <use xlink:href="#DejaVuSans-72" transform="translate(505.183594 0)"/>
     <use xlink:href="#DejaVuSans-65" transform="translate(544.046875 0)"/>
     <use xlink:href="#DejaVuSans-66" transform="translate(605.570312 0)"/>
     <use xlink:href="#DejaVuSans-2c" transform="translate(640.775391 0)"/>
     <use xlink:href="#DejaVuSans-20" transform="translate(672.5625 0)"/>
     <use xlink:href="#DejaVuSans-74" transform="translate(704.349609 0)"/>
     <use xlink:href="#DejaVuSans-65" transform="translate(743.558594 0)"/>
     <use xlink:href="#DejaVuSans-78" transform="translate(803.332031 0)"/>
     <use xlink:href="#DejaVuSans-74" transform="translate(862.511719 0)"/>
     <use xlink:href="#DejaVuSans-6f" transform="translate(901.720703 0)"/>
     <use xlink:href="#DejaVuSans-5f" transform="translate(962.902344 0)"/>
     <use xlink:href="#DejaVuSans-67" transform="translate(1012.902344 0)"/>
     <use xlink:href="#DejaVuSans-65" transform="translate(1076.378906 0)"/>
     <use xlink:href="#DejaVuSans-6e" transform="translate(1137.902344 0)"/>
     <use xlink:href="#DejaVuSans-29" transform="translate(1201.28125 0)"/>
    </g>
   </g>
   <g id="patch_23">
    <path d="M 946.192085 403.323077 
Q 745.296355 403.323077 545.909971 403.323077 
" style="fill: none; stroke-dasharray: 5.4,4.05; stroke-dashoffset: 0; stroke: #1f2937; stroke-width: 1.35; stroke-linecap: round"/>
    <path d="M 549.909971 405.323077 
L 545.909971 403.323077 
L 549.909971 401.323077 
" style="fill: none; stroke-dasharray: 5.4,4.05; stroke-dashoffset: 0; stroke: #1f2937; stroke-width: 1.35; stroke-linecap: round"/>
   </g>
   <g id="text_19">
    <!-- tasa_error -->
    <g transform="translate(722.528956 395.145661) scale(0.09 -0.09)">
     <use xlink:href="#DejaVuSans-74"/>
     <use xlink:href="#DejaVuSans-61" transform="translate(39.208984 0)"/>
     <use xlink:href="#DejaVuSans-73" transform="translate(100.488281 0)"/>
     <use xlink:href="#DejaVuSans-61" transform="translate(152.587891 0)"/>
     <use xlink:href="#DejaVuSans-5f" transform="translate(213.867188 0)"/>
     <use xlink:href="#DejaVuSans-65" transform="translate(263.867188 0)"/>
     <use xlink:href="#DejaVuSans-72" transform="translate(325.390625 0)"/>
     <use xlink:href="#DejaVuSans-72" transform="translate(364.753906 0)"/>
     <use xlink:href="#DejaVuSans-6f" transform="translate(403.617188 0)"/>
     <use xlink:href="#DejaVuSans-72" transform="translate(464.798828 0)"/>
    </g>
   </g>
   <g id="patch_24">
    <path d="M 528.397298 438.646154 
Q 397.137454 438.646154 267.386956 438.646154 
" style="fill: none; stroke-dasharray: 5.4,4.05; stroke-dashoffset: 0; stroke: #1f2937; stroke-width: 1.35; stroke-linecap: round"/>
    <path d="M 271.386956 440.646154 
L 267.386956 438.646154 
L 271.386956 436.646154 
" style="fill: none; stroke-dasharray: 5.4,4.05; stroke-dashoffset: 0; stroke: #1f2937; stroke-width: 1.35; stroke-linecap: round"/>
   </g>
   <g id="text_20">
    <!-- CER / similitud -->
    <g transform="translate(364.447155 430.71905) scale(0.09 -0.09)">
     <defs>
      <path id="DejaVuSans-43" d="M 4122 4306 
L 4122 3641 
Q 3803 3938 3442 4084 
Q 3081 4231 2675 4231 
Q 1875 4231 1450 3742 
Q 1025 3253 1025 2328 
Q 1025 1406 1450 917 
Q 1875 428 2675 428 
Q 3081 428 3442 575 
Q 3803 722 4122 1019 
L 4122 359 
Q 3791 134 3420 21 
Q 3050 -91 2638 -91 
Q 1578 -91 968 557 
Q 359 1206 359 2328 
Q 359 3453 968 4101 
Q 1578 4750 2638 4750 
Q 3056 4750 3426 4639 
Q 3797 4528 4122 4306 
z
" transform="scale(0.015625)"/>
      <path id="DejaVuSans-45" d="M 628 4666 
L 3578 4666 
L 3578 4134 
L 1259 4134 
L 1259 2753 
L 3481 2753 
L 3481 2222 
L 1259 2222 
L 1259 531 
L 3634 531 
L 3634 0 
L 628 0 
L 628 4666 
z
" transform="scale(0.015625)"/>
      <path id="DejaVuSans-52" d="M 2841 2188 
Q 3044 2119 3236 1894 
Q 3428 1669 3622 1275 
L 4263 0 
L 3584 0 
L 2988 1197 
Q 2756 1666 2539 1819 
Q 2322 1972 1947 1972 
L 1259 1972 
L 1259 0 
L 628 0 
L 628 4666 
L 2053 4666 
Q 2853 4666 3247 4331 
Q 3641 3997 3641 3322 
Q 3641 2881 3436 2590 
Q 3231 2300 2841 2188 
z
M 1259 4147 
L 1259 2491 
L 2053 2491 
Q 2509 2491 2742 2702 
Q 2975 2913 2975 3322 
Q 2975 3731 2742 3939 
Q 2509 4147 2053 4147 
L 1259 4147 
z
" transform="scale(0.015625)"/>
      <path id="DejaVuSans-2f" d="M 1625 4666 
L 2156 4666 
L 531 -594 
L 0 -594 
L 1625 4666 
z
" transform="scale(0.015625)"/>
     </defs>
     <use xlink:href="#DejaVuSans-43"/>
     <use xlink:href="#DejaVuSans-45" transform="translate(69.824219 0)"/>
     <use xlink:href="#DejaVuSans-52" transform="translate(133.007812 0)"/>
     <use xlink:href="#DejaVuSans-20" transform="translate(202.490234 0)"/>
     <use xlink:href="#DejaVuSans-2f" transform="translate(234.277344 0)"/>
     <use xlink:href="#DejaVuSans-20" transform="translate(267.96875 0)"/>
     <use xlink:href="#DejaVuSans-73" transform="translate(299.755859 0)"/>
     <use xlink:href="#DejaVuSans-69" transform="translate(351.855469 0)"/>
     <use xlink:href="#DejaVuSans-6d" transform="translate(379.638672 0)"/>
     <use xlink:href="#DejaVuSans-69" transform="translate(477.050781 0)"/>
     <use xlink:href="#DejaVuSans-6c" transform="translate(504.833984 0)"/>
     <use xlink:href="#DejaVuSans-69" transform="translate(532.617188 0)"/>
     <use xlink:href="#DejaVuSans-74" transform="translate(560.400391 0)"/>
     <use xlink:href="#DejaVuSans-75" transform="translate(599.609375 0)"/>
     <use xlink:href="#DejaVuSans-64" transform="translate(662.988281 0)"/>
    </g>
   </g>
   <g id="patch_25">
    <path d="M 249.870983 542.092308 
Q 188.240497 542.092308 128.119357 542.092308 
" style="fill: none; stroke-dasharray: 5.4,4.05; stroke-dashoffset: 0; stroke: #1f2937; stroke-width: 1.35; stroke-linecap: round"/>
    <path d="M 132.119357 544.092308 
L 128.119357 542.092308 
L 132.119357 540.092308 
" style="fill: none; stroke-dasharray: 5.4,4.05; stroke-dashoffset: 0; stroke: #1f2937; stroke-width: 1.35; stroke-linecap: round"/>
   </g>
   <g id="text_21">
    <!-- resultados benchmark -->
    <g transform="translate(137.97148 534.165204) scale(0.09 -0.09)">
     <use xlink:href="#DejaVuSans-72"/>
     <use xlink:href="#DejaVuSans-65" transform="translate(38.863281 0)"/>
     <use xlink:href="#DejaVuSans-73" transform="translate(100.386719 0)"/>
     <use xlink:href="#DejaVuSans-75" transform="translate(152.486328 0)"/>
     <use xlink:href="#DejaVuSans-6c" transform="translate(215.865234 0)"/>
     <use xlink:href="#DejaVuSans-74" transform="translate(243.648438 0)"/>
     <use xlink:href="#DejaVuSans-61" transform="translate(282.857422 0)"/>
     <use xlink:href="#DejaVuSans-64" transform="translate(344.136719 0)"/>
     <use xlink:href="#DejaVuSans-6f" transform="translate(407.613281 0)"/>
     <use xlink:href="#DejaVuSans-73" transform="translate(468.794922 0)"/>
     <use xlink:href="#DejaVuSans-20" transform="translate(520.894531 0)"/>
     <use xlink:href="#DejaVuSans-62" transform="translate(552.681641 0)"/>
     <use xlink:href="#DejaVuSans-65" transform="translate(616.158203 0)"/>
     <use xlink:href="#DejaVuSans-6e" transform="translate(677.681641 0)"/>
     <use xlink:href="#DejaVuSans-63" transform="translate(741.060547 0)"/>
     <use xlink:href="#DejaVuSans-68" transform="translate(796.041016 0)"/>
     <use xlink:href="#DejaVuSans-6d" transform="translate(859.419922 0)"/>
     <use xlink:href="#DejaVuSans-61" transform="translate(956.832031 0)"/>
     <use xlink:href="#DejaVuSans-72" transform="translate(1018.111328 0)"/>
     <use xlink:href="#DejaVuSans-6b" transform="translate(1059.224609 0)"/>
    </g>
   </g>
  </g>
 </g>
 <defs>
  <clipPath id="p2eacd8a828">
   <rect x="7.2" y="7.2" width="1058.4" height="590.4"/>
  </clipPath>
 </defs>
</svg>
