<?xml version="1.0" encoding="utf-8" standalone="no"?>
<!DOCTYPE svg PUBLIC "-//W3C//DTD SVG 1.1//EN"
  "http://www.w3.org/Graphics/SVG/1.1/DTD/svg11.dtd">
<svg xmlns:xlink="http://www.w3.org/1999/xlink" width="1288.8pt" height="712.8pt" viewBox="0 0 1288.8 712.8" xmlns="http://www.w3.org/2000/svg" version="1.1">
 <metadata>
  <rdf:RDF xmlns:dc="http://purl.org/dc/elements/1.1/" xmlns:cc="http://creativecommons.org/ns#" xmlns:rdf="http://www.w3.org/1999/02/22-rdf-syntax-ns#">
   <cc:Work>
    <dc:type rdf:resource="http://purl.org/dc/dcmitype/StillImage"/>
    <dc:date>2026-06-15T13:48:39.367326</dc:date>
    <dc:format>image/svg+xml</dc:format>
    <dc:creator>
     <cc:Agent>
      <dc:title>Matplotlib v3.10.8, https://matplotlib.org/</dc:title>
     </cc:Agent>
    </dc:creator>
   </cc:Work>
  </rdf:RDF>
 </metadata>
 <defs>
  <style type="text/css">*{stroke-linejoin: round; stroke-linecap: butt}</style>
 </defs>
 <g id="figure_1">
  <g id="patch_1">
   <path d="M 0 712.8 
L 1288.8 712.8 
L 1288.8 0 
L 0 0 
z
" style="fill: #ffffff"/>
  </g>
  <g id="axes_1">
   <g id="patch_2">
    <path d="M 50.046207 75.965538 
L 140.133103 75.965538 
Q 144.527586 75.965538 144.527586 73.816615 
L 144.527586 43.731692 
Q 144.527586 41.582769 140.133103 41.582769 
L 50.046207 41.582769 
Q 45.651724 41.582769 45.651724 43.731692 
L 45.651724 73.816615 
Q 45.651724 75.965538 50.046207 75.965538 
z
" clip-path="url(#pa2fe6708b2)" style="fill: #f7f8fa; stroke: #2f3a4a; stroke-width: 1.3; stroke-linejoin: miter"/>
   </g>
   <g id="patch_3">
    <path d="M 159.908276 75.965538 
L 249.995172 75.965538 
Q 254.389655 75.965538 254.389655 73.816615 
L 254.389655 43.731692 
Q 254.389655 41.582769 249.995172 41.582769 
L 159.908276 41.582769 
Q 155.513793 41.582769 155.513793 43.731692 
L 155.513793 73.816615 
Q 155.513793 75.965538 159.908276 75.965538 
z
" clip-path="url(#pa2fe6708b2)" style="fill: #f7f8fa; stroke: #2f3a4a; stroke-width: 1.3; stroke-linejoin: miter"/>
   </g>
   <g id="patch_4">
    <path d="M 269.770345 75.965538 
L 359.857241 75.965538 
Q 364.251724 75.965538 364.251724 73.816615 
L 364.251724 43.731692 
Q 364.251724 41.582769 359.857241 41.582769 
L 269.770345 41.582769 
Q 265.375862 41.582769 265.375862 43.731692 
L 265.375862 73.816615 
Q 265.375862 75.965538 269.770345 75.965538 
z
" clip-path="url(#pa2fe6708b2)" style="fill: #f7f8fa; stroke: #2f3a4a; stroke-width: 1.3; stroke-linejoin: miter"/>
   </g>
   <g id="patch_5">
    <path d="M 379.632414 75.965538 
L 469.71931 75.965538 
Q 474.113793 75.965538 474.113793 73.816615 
L 474.113793 43.731692 
Q 474.113793 41.582769 469.71931 41.582769 
L 379.632414 41.582769 
Q 375.237931 41.582769 375.237931 43.731692 
L 375.237931 73.816615 
Q 375.237931 75.965538 379.632414 75.965538 
z
" clip-path="url(#pa2fe6708b2)" style="fill: #f7f8fa; stroke: #2f3a4a; stroke-width: 1.3; stroke-linejoin: miter"/>
   </g>
   <g id="patch_6">
    <path d="M 489.494483 75.965538 
L 579.581379 75.965538 
Q 583.975862 75.965538 583.975862 73.816615 
L 583.975862 43.731692 
Q 583.975862 41.582769 579.581379 41.582769 
L 489.494483 41.582769 
Q 485.1 41.582769 485.1 43.731692 
L 485.1 73.816615 
Q 485.1 75.965538 489.494483 75.965538 
z
" clip-path="url(#pa2fe6708b2)" style="fill: #f7f8fa; stroke: #2f3a4a; stroke-width: 1.3; stroke-linejoin: miter"/>
   </g>
   <g id="patch_7">
    <path d="M 599.356552 75.965538 
L 689.443448 75.965538 
Q 693.837931 75.965538 693.837931 73.816615 
L 693.837931 43.731692 
Q 693.837931 41.582769 689.443448 41.582769 
L 599.356552 41.582769 
Q 594.962069 41.582769 594.962069 43.731692 
L 594.962069 73.816615 
Q 594.962069 75.965538 599.356552 75.965538 
z
" clip-path="url(#pa2fe6708b2)" style="fill: #f7f8fa; stroke: #2f3a4a; stroke-width: 1.3; stroke-linejoin: miter"/>
   </g>
   <g id="patch_8">
    <path d="M 709.218621 75.965538 
L 799.305517 75.965538 
Q 803.7 75.965538 803.7 73.816615 
L 803.7 43.731692 
Q 803.7 41.582769 799.305517 41.582769 
L 709.218621 41.582769 
Q 704.824138 41.582769 704.824138 43.731692 
L 704.824138 73.816615 
Q 704.824138 75.965538 709.218621 75.965538 
z
" clip-path="url(#pa2fe6708b2)" style="fill: #f7f8fa; stroke: #2f3a4a; stroke-width: 1.3; stroke-linejoin: miter"/>
   </g>
   <g id="patch_9">
    <path d="M 819.08069 75.965538 
L 909.167586 75.965538 
Q 913.562069 75.965538 913.562069 73.816615 
L 913.562069 43.731692 
Q 913.562069 41.582769 909.167586 41.582769 
L 819.08069 41.582769 
Q 814.686207 41.582769 814.686207 43.731692 
L 814.686207 73.816615 
Q 814.686207 75.965538 819.08069 75.965538 
z
" clip-path="url(#pa2fe6708b2)" style="fill: #f7f8fa; stroke: #2f3a4a; stroke-width: 1.3; stroke-linejoin: miter"/>
   </g>
   <g id="patch_10">
    <path d="M 928.942759 75.965538 
L 1019.029655 75.965538 
Q 1023.424138 75.965538 1023.424138 73.816615 
L 1023.424138 43.731692 
Q 1023.424138 41.582769 1019.029655 41.582769 
L 928.942759 41.582769 
Q 924.548276 41.582769 924.548276 43.731692 
L 924.548276 73.816615 
Q 924.548276 75.965538 928.942759 75.965538 
z
" clip-path="url(#pa2fe6708b2)" style="fill: #f7f8fa; stroke: #2f3a4a; stroke-width: 1.3; stroke-linejoin: miter"/>
   </g>
   <g id="patch_11">
    <path d="M 1038.804828 75.965538 
L 1128.891724 75.965538 
Q 1133.286207 75.965538 1133.286207 73.816615 
L 1133.286207 43.731692 
Q 1133.286207 41.582769 1128.891724 41.582769 
L 1038.804828 41.582769 
Q 1034.410345 41.582769 1034.410345 43.731692 
L 1034.410345 73.816615 
Q 1034.410345 75.965538 1038.804828 75.965538 
z
" clip-path="url(#pa2fe6708b2)" style="fill: #f7f8fa; stroke: #2f3a4a; stroke-width: 1.3; stroke-linejoin: miter"/>
   </g>
   <g id="patch_12">
    <path d="M 1148.666897 75.965538 
L 1238.753793 75.965538 
Q 1243.148276 75.965538 1243.148276 73.816615 
L 1243.148276 43.731692 
Q 1243.148276 41.582769 1238.753793 41.582769 
L 1148.666897 41.582769 
Q 1144.272414 41.582769 1144.272414 43.731692 
L 1144.272414 73.816615 
Q 1144.272414 75.965538 1148.666897 75.965538 
z
" clip-path="url(#pa2fe6708b2)" style="fill: #f7f8fa; stroke: #2f3a4a; stroke-width: 1.3; stroke-linejoin: miter"/>
   </g>
   <g id="patch_13">
    <path d="M 200.007931 651.876923 
L 209.895517 651.876923 
L 209.895517 95.843077 
L 200.007931 95.843077 
z
" clip-path="url(#pa2fe6708b2)" style="fill: #dde3ea; stroke: #2f3a4a; stroke-width: 0.8; stroke-linejoin: miter"/>
   </g>
   <g id="patch_14">
    <path d="M 375.237931 447.729231 
L 913.562069 447.729231 
L 913.562069 208.661538 
L 375.237931 208.661538 
L 375.237931 447.729231 
z
" clip-path="url(#pa2fe6708b2)" style="fill: none; stroke: #5b677a; stroke-width: 1.1; stroke-linejoin: miter"/>
   </g>
   <g id="patch_15">
    <path d="M 375.237931 225.852923 
L 523.551724 225.852923 
L 523.551724 208.661538 
L 375.237931 208.661538 
z
" clip-path="url(#pa2fe6708b2)" style="fill: #eef2f7; stroke: #5b677a; stroke-width: 1.1; stroke-linejoin: miter"/>
   </g>
   <g id="patch_16">
    <path d="M 419.732069 436.984615 
L 429.619655 436.984615 
L 429.619655 240.895385 
L 419.732069 240.895385 
z
" clip-path="url(#pa2fe6708b2)" style="fill: #dde3ea; stroke: #2f3a4a; stroke-width: 0.8; stroke-linejoin: miter"/>
   </g>
   <g id="patch_17">
    <path d="M 375.237931 439.670769 
L 913.562069 439.670769 
L 913.562069 383.261538 
L 375.237931 383.261538 
L 375.237931 439.670769 
z
" clip-path="url(#pa2fe6708b2)" style="fill: none; stroke: #5b677a; stroke-width: 1.1; stroke-linejoin: miter"/>
   </g>
   <g id="patch_18">
    <path d="M 375.237931 400.452923 
L 523.551724 400.452923 
L 523.551724 383.261538 
L 375.237931 383.261538 
z
" clip-path="url(#pa2fe6708b2)" style="fill: #eef2f7; stroke: #5b677a; stroke-width: 1.1; stroke-linejoin: miter"/>
   </g>
   <g id="line2d_1">
    <path d="M 95.089655 75.965538 
L 95.089655 684.110769 
" clip-path="url(#pa2fe6708b2)" style="fill: none; stroke-dasharray: 4,4; stroke-dashoffset: 0; stroke: #7a869a"/>
   </g>
   <g id="line2d_2">
    <path d="M 204.951724 75.965538 
L 204.951724 684.110769 
" clip-path="url(#pa2fe6708b2)" style="fill: none; stroke-dasharray: 4,4; stroke-dashoffset: 0; stroke: #7a869a"/>
   </g>
   <g id="line2d_3">
    <path d="M 314.813793 75.965538 
L 314.813793 684.110769 
" clip-path="url(#pa2fe6708b2)" style="fill: none; stroke-dasharray: 4,4; stroke-dashoffset: 0; stroke: #7a869a"/>
   </g>
   <g id="line2d_4">
    <path d="M 424.675862 75.965538 
L 424.675862 684.110769 
" clip-path="url(#pa2fe6708b2)" style="fill: none; stroke-dasharray: 4,4; stroke-dashoffset: 0; stroke: #7a869a"/>
   </g>
   <g id="line2d_5">
    <path d="M 534.537931 75.965538 
L 534.537931 684.110769 
" clip-path="url(#pa2fe6708b2)" style="fill: none; stroke-dasharray: 4,4; stroke-dashoffset: 0; stroke: #7a869a"/>
   </g>
   <g id="line2d_6">
    <path d="M 644.4 75.965538 
L 644.4 684.110769 
" clip-path="url(#pa2fe6708b2)" style="fill: none; stroke-dasharray: 4,4; stroke-dashoffset: 0; stroke: #7a869a"/>
   </g>
   <g id="line2d_7">
    <path d="M 754.262069 75.965538 
L 754.262069 684.110769 
" clip-path="url(#pa2fe6708b2)" style="fill: none; stroke-dasharray: 4,4; stroke-dashoffset: 0; stroke: #7a869a"/>
   </g>
   <g id="line2d_8">
    <path d="M 864.124138 75.965538 
L 864.124138 684.110769 
" clip-path="url(#pa2fe6708b2)" style="fill: none; stroke-dasharray: 4,4; stroke-dashoffset: 0; stroke: #7a869a"/>
   </g>
   <g id="line2d_9">
    <path d="M 973.986207 75.965538 
L 973.986207 684.110769 
" clip-path="url(#pa2fe6708b2)" style="fill: none; stroke-dasharray: 4,4; stroke-dashoffset: 0; stroke: #7a869a"/>
   </g>
   <g id="line2d_10">
    <path d="M 1083.848276 75.965538 
L 1083.848276 684.110769 
" clip-path="url(#pa2fe6708b2)" style="fill: none; stroke-dasharray: 4,4; stroke-dashoffset: 0; stroke: #7a869a"/>
   </g>
   <g id="line2d_11">
    <path d="M 1193.710345 75.965538 
L 1193.710345 684.110769 
" clip-path="url(#pa2fe6708b2)" style="fill: none; stroke-dasharray: 4,4; stroke-dashoffset: 0; stroke: #7a869a"/>
   </g>
   <g id="text_1">
    <!-- Diagrama UML de secuencia — Pipeline principal -->
    <g transform="translate(370.073437 31.443702) scale(0.2 -0.2)">
     <defs>
      <path id="DejaVuSans-Bold-44" d="M 1791 3756 
L 1791 909 
L 2222 909 
Q 2959 909 3348 1275 
Q 3738 1641 3738 2338 
Q 3738 3031 3350 3393 
Q 2963 3756 2222 3756 
L 1791 3756 
z
M 588 4666 
L 1856 4666 
Q 2919 4666 3439 4514 
Q 3959 4363 4331 4000 
Q 4659 3684 4818 3271 
Q 4978 2859 4978 2338 
Q 4978 1809 4818 1395 
Q 4659 981 4331 666 
Q 3956 303 3431 151 
Q 2906 0 1856 0 
L 588 0 
L 588 4666 
z
" transform="scale(0.015625)"/>
      <path id="DejaVuSans-Bold-69" d="M 538 3500 
L 1656 3500 
L 1656 0 
L 538 0 
L 538 3500 
z
M 538 4863 
L 1656 4863 
L 1656 3950 
L 538 3950 
L 538 4863 
z
" transform="scale(0.015625)"/>
      <path id="DejaVuSans-Bold-61" d="M 2106 1575 
Q 1756 1575 1579 1456 
Q 1403 1338 1403 1106 
Q 1403 894 1545 773 
Q 1688 653 1941 653 
Q 2256 653 2472 879 
Q 2688 1106 2688 1447 
L 2688 1575 
L 2106 1575 
z
M 3816 1997 
L 3816 0 
L 2688 0 
L 2688 519 
Q 2463 200 2181 54 
Q 1900 -91 1497 -91 
Q 953 -91 614 226 
Q 275 544 275 1050 
Q 275 1666 698 1953 
Q 1122 2241 2028 2241 
L 2688 2241 
L 2688 2328 
Q 2688 2594 2478 2717 
Q 2269 2841 1825 2841 
Q 1466 2841 1156 2769 
Q 847 2697 581 2553 
L 581 3406 
Q 941 3494 1303 3539 
Q 1666 3584 2028 3584 
Q 2975 3584 3395 3211 
Q 3816 2838 3816 1997 
z
" transform="scale(0.015625)"/>
      <path id="DejaVuSans-Bold-67" d="M 2919 594 
Q 2688 288 2409 144 
Q 2131 0 1766 0 
Q 1125 0 706 504 
Q 288 1009 288 1791 
Q 288 2575 706 3076 
Q 1125 3578 1766 3578 
Q 2131 3578 2409 3434 
Q 2688 3291 2919 2981 
L 2919 3500 
L 4044 3500 
L 4044 353 
Q 4044 -491 3511 -936 
Q 2978 -1381 1966 -1381 
Q 1638 -1381 1331 -1331 
Q 1025 -1281 716 -1178 
L 716 -306 
Q 1009 -475 1290 -558 
Q 1572 -641 1856 -641 
Q 2406 -641 2662 -400 
Q 2919 -159 2919 353 
L 2919 594 
z
M 2181 2772 
Q 1834 2772 1640 2515 
Q 1447 2259 1447 1791 
Q 1447 1309 1634 1061 
Q 1822 813 2181 813 
Q 2531 813 2725 1069 
Q 2919 1325 2919 1791 
Q 2919 2259 2725 2515 
Q 2531 2772 2181 2772 
z
" transform="scale(0.015625)"/>
      <path id="DejaVuSans-Bold-72" d="M 3138 2547 
Q 2991 2616 2845 2648 
Q 2700 2681 2553 2681 
Q 2122 2681 1889 2404 
Q 1656 2128 1656 1613 
L 1656 0 
L 538 0 
L 538 3500 
L 1656 3500 
L 1656 2925 
Q 1872 3269 2151 3426 
Q 2431 3584 2822 3584 
Q 2878 3584 2943 3579 
Q 3009 3575 3134 3559 
L 3138 2547 
z
" transform="scale(0.015625)"/>
      <path id="DejaVuSans-Bold-6d" d="M 3781 2919 
Q 3994 3244 4286 3414 
Q 4578 3584 4928 3584 
Q 5531 3584 5847 3212 
Q 6163 2841 6163 2131 
L 6163 0 
L 5038 0 
L 5038 1825 
Q 5041 1866 5042 1909 
Q 5044 1953 5044 2034 
Q 5044 2406 4934 2573 
Q 4825 2741 4581 2741 
Q 4263 2741 4089 2478 
Q 3916 2216 3909 1719 
L 3909 0 
L 2784 0 
L 2784 1825 
Q 2784 2406 2684 2573 
Q 2584 2741 2328 2741 
Q 2006 2741 1831 2477 
Q 1656 2213 1656 1722 
L 1656 0 
L 531 0 
L 531 3500 
L 1656 3500 
L 1656 2988 
Q 1863 3284 2130 3434 
Q 2397 3584 2719 3584 
Q 3081 3584 3359 3409 
Q 3638 3234 3781 2919 
z
" transform="scale(0.015625)"/>
      <path id="DejaVuSans-Bold-20" transform="scale(0.015625)"/>
      <path id="DejaVuSans-Bold-55" d="M 588 4666 
L 1791 4666 
L 1791 1869 
Q 1791 1291 1980 1042 
Q 2169 794 2597 794 
Q 3028 794 3217 1042 
Q 3406 1291 3406 1869 
L 3406 4666 
L 4609 4666 
L 4609 1869 
Q 4609 878 4112 393 
Q 3616 -91 2597 -91 
Q 1581 -91 1084 393 
Q 588 878 588 1869 
L 588 4666 
z
" transform="scale(0.015625)"/>
      <path id="DejaVuSans-Bold-4d" d="M 588 4666 
L 2119 4666 
L 3181 2169 
L 4250 4666 
L 5778 4666 
L 5778 0 
L 4641 0 
L 4641 3413 
L 3566 897 
L 2803 897 
L 1728 3413 
L 1728 0 
L 588 0 
L 588 4666 
z
" transform="scale(0.015625)"/>
      <path id="DejaVuSans-Bold-4c" d="M 588 4666 
L 1791 4666 
L 1791 909 
L 3903 909 
L 3903 0 
L 588 0 
L 588 4666 
z
" transform="scale(0.015625)"/>
      <path id="DejaVuSans-Bold-64" d="M 2919 2988 
L 2919 4863 
L 4044 4863 
L 4044 0 
L 2919 0 
L 2919 506 
Q 2688 197 2409 53 
Q 2131 -91 1766 -91 
Q 1119 -91 703 423 
Q 288 938 288 1747 
Q 288 2556 703 3070 
Q 1119 3584 1766 3584 
Q 2128 3584 2408 3439 
Q 2688 3294 2919 2988 
z
M 2181 722 
Q 2541 722 2730 984 
Q 2919 1247 2919 1747 
Q 2919 2247 2730 2509 
Q 2541 2772 2181 2772 
Q 1825 2772 1636 2509 
Q 1447 2247 1447 1747 
Q 1447 1247 1636 984 
Q 1825 722 2181 722 
z
" transform="scale(0.015625)"/>
      <path id="DejaVuSans-Bold-65" d="M 4031 1759 
L 4031 1441 
L 1416 1441 
Q 1456 1047 1700 850 
Q 1944 653 2381 653 
Q 2734 653 3104 758 
Q 3475 863 3866 1075 
L 3866 213 
Q 3469 63 3072 -14 
Q 2675 -91 2278 -91 
Q 1328 -91 801 392 
Q 275 875 275 1747 
Q 275 2603 792 3093 
Q 1309 3584 2216 3584 
Q 3041 3584 3536 3087 
Q 4031 2591 4031 1759 
z
M 2881 2131 
Q 2881 2450 2695 2645 
Q 2509 2841 2209 2841 
Q 1884 2841 1681 2658 
Q 1478 2475 1428 2131 
L 2881 2131 
z
" transform="scale(0.015625)"/>
      <path id="DejaVuSans-Bold-73" d="M 3272 3391 
L 3272 2541 
Q 2913 2691 2578 2766 
Q 2244 2841 1947 2841 
Q 1628 2841 1473 2761 
Q 1319 2681 1319 2516 
Q 1319 2381 1436 2309 
Q 1553 2238 1856 2203 
L 2053 2175 
Q 2913 2066 3209 1816 
Q 3506 1566 3506 1031 
Q 3506 472 3093 190 
Q 2681 -91 1863 -91 
Q 1516 -91 1145 -36 
Q 775 19 384 128 
L 384 978 
Q 719 816 1070 734 
Q 1422 653 1784 653 
Q 2113 653 2278 743 
Q 2444 834 2444 1013 
Q 2444 1163 2330 1236 
Q 2216 1309 1875 1350 
L 1678 1375 
Q 931 1469 631 1722 
Q 331 1975 331 2491 
Q 331 3047 712 3315 
Q 1094 3584 1881 3584 
Q 2191 3584 2531 3537 
Q 2872 3491 3272 3391 
z
" transform="scale(0.015625)"/>
      <path id="DejaVuSans-Bold-63" d="M 3366 3391 
L 3366 2478 
Q 3138 2634 2908 2709 
Q 2678 2784 2431 2784 
Q 1963 2784 1702 2511 
Q 1441 2238 1441 1747 
Q 1441 1256 1702 982 
Q 1963 709 2431 709 
Q 2694 709 2930 787 
Q 3166 866 3366 1019 
L 3366 103 
Q 3103 6 2833 -42 
Q 2563 -91 2291 -91 
Q 1344 -91 809 395 
Q 275 881 275 1747 
Q 275 2613 809 3098 
Q 1344 3584 2291 3584 
Q 2566 3584 2833 3536 
Q 3100 3488 3366 3391 
z
" transform="scale(0.015625)"/>
      <path id="DejaVuSans-Bold-75" d="M 500 1363 
L 500 3500 
L 1625 3500 
L 1625 3150 
Q 1625 2866 1622 2436 
Q 1619 2006 1619 1863 
Q 1619 1441 1641 1255 
Q 1663 1069 1716 984 
Q 1784 875 1895 815 
Q 2006 756 2150 756 
Q 2500 756 2700 1025 
Q 2900 1294 2900 1772 
L 2900 3500 
L 4019 3500 
L 4019 0 
L 2900 0 
L 2900 506 
Q 2647 200 2364 54 
Q 2081 -91 1741 -91 
Q 1134 -91 817 281 
Q 500 653 500 1363 
z
" transform="scale(0.015625)"/>
      <path id="DejaVuSans-Bold-6e" d="M 4056 2131 
L 4056 0 
L 2931 0 
L 2931 347 
L 2931 1631 
Q 2931 2084 2911 2256 
Q 2891 2428 2841 2509 
Q 2775 2619 2662 2680 
Q 2550 2741 2406 2741 
Q 2056 2741 1856 2470 
Q 1656 2200 1656 1722 
L 1656 0 
L 538 0 
L 538 3500 
L 1656 3500 
L 1656 2988 
Q 1909 3294 2193 3439 
Q 2478 3584 2822 3584 
Q 3428 3584 3742 3212 
Q 4056 2841 4056 2131 
z
" transform="scale(0.015625)"/>
      <path id="DejaVuSans-Bold-2014" d="M 344 2156 
L 6056 2156 
L 6056 1350 
L 344 1350 
L 344 2156 
z
" transform="scale(0.015625)"/>
      <path id="DejaVuSans-Bold-50" d="M 588 4666 
L 2584 4666 
Q 3475 4666 3951 4270 
Q 4428 3875 4428 3144 
Q 4428 2409 3951 2014 
Q 3475 1619 2584 1619 
L 1791 1619 
L 1791 0 
L 588 0 
L 588 4666 
z
M 1791 3794 
L 1791 2491 
L 2456 2491 
Q 2806 2491 2997 2661 
Q 3188 2831 3188 3144 
Q 3188 3456 2997 3625 
Q 2806 3794 2456 3794 
L 1791 3794 
z
" transform="scale(0.015625)"/>
      <path id="DejaVuSans-Bold-70" d="M 1656 506 
L 1656 -1331 
L 538 -1331 
L 538 3500 
L 1656 3500 
L 1656 2988 
Q 1888 3294 2169 3439 
Q 2450 3584 2816 3584 
Q 3463 3584 3878 3070 
Q 4294 2556 4294 1747 
Q 4294 938 3878 423 
Q 3463 -91 2816 -91 
Q 2450 -91 2169 54 
Q 1888 200 1656 506 
z
M 2400 2772 
Q 2041 2772 1848 2508 
Q 1656 2244 1656 1747 
Q 1656 1250 1848 986 
Q 2041 722 2400 722 
Q 2759 722 2948 984 
Q 3138 1247 3138 1747 
Q 3138 2247 2948 2509 
Q 2759 2772 2400 2772 
z
" transform="scale(0.015625)"/>
      <path id="DejaVuSans-Bold-6c" d="M 538 4863 
L 1656 4863 
L 1656 0 
L 538 0 
L 538 4863 
z
" transform="scale(0.015625)"/>
     </defs>
     <use xlink:href="#DejaVuSans-Bold-44"/>
     <use xlink:href="#DejaVuSans-Bold-69" transform="translate(83.007812 0)"/>
     <use xlink:href="#DejaVuSans-Bold-61" transform="translate(117.285156 0)"/>
     <use xlink:href="#DejaVuSans-Bold-67" transform="translate(184.765625 0)"/>
     <use xlink:href="#DejaVuSans-Bold-72" transform="translate(256.347656 0)"/>
     <use xlink:href="#DejaVuSans-Bold-61" transform="translate(305.664062 0)"/>
     <use xlink:href="#DejaVuSans-Bold-6d" transform="translate(373.144531 0)"/>
     <use xlink:href="#DejaVuSans-Bold-61" transform="translate(477.34375 0)"/>
     <use xlink:href="#DejaVuSans-Bold-20" transform="translate(544.824219 0)"/>
     <use xlink:href="#DejaVuSans-Bold-55" transform="translate(579.638672 0)"/>
     <use xlink:href="#DejaVuSans-Bold-4d" transform="translate(660.839844 0)"/>
     <use xlink:href="#DejaVuSans-Bold-4c" transform="translate(760.351562 0)"/>
     <use xlink:href="#DejaVuSans-Bold-20" transform="translate(824.072266 0)"/>
     <use xlink:href="#DejaVuSans-Bold-64" transform="translate(858.886719 0)"/>
     <use xlink:href="#DejaVuSans-Bold-65" transform="translate(930.46875 0)"/>
     <use xlink:href="#DejaVuSans-Bold-20" transform="translate(998.291016 0)"/>
     <use xlink:href="#DejaVuSans-Bold-73" transform="translate(1033.105469 0)"/>
     <use xlink:href="#DejaVuSans-Bold-65" transform="translate(1092.626953 0)"/>
     <use xlink:href="#DejaVuSans-Bold-63" transform="translate(1160.449219 0)"/>
     <use xlink:href="#DejaVuSans-Bold-75" transform="translate(1219.726562 0)"/>
     <use xlink:href="#DejaVuSans-Bold-65" transform="translate(1290.917969 0)"/>
     <use xlink:href="#DejaVuSans-Bold-6e" transform="translate(1358.740234 0)"/>
     <use xlink:href="#DejaVuSans-Bold-63" transform="translate(1429.931641 0)"/>
     <use xlink:href="#DejaVuSans-Bold-69" transform="translate(1489.208984 0)"/>
     <use xlink:href="#DejaVuSans-Bold-61" transform="translate(1523.486328 0)"/>
     <use xlink:href="#DejaVuSans-Bold-20" transform="translate(1590.966797 0)"/>
     <use xlink:href="#DejaVuSans-Bold-2014" transform="translate(1625.78125 0)"/>
     <use xlink:href="#DejaVuSans-Bold-20" transform="translate(1725.78125 0)"/>
     <use xlink:href="#DejaVuSans-Bold-50" transform="translate(1760.595703 0)"/>
     <use xlink:href="#DejaVuSans-Bold-69" transform="translate(1833.886719 0)"/>
     <use xlink:href="#DejaVuSans-Bold-70" transform="translate(1868.164062 0)"/>
     <use xlink:href="#DejaVuSans-Bold-65" transform="translate(1939.746094 0)"/>
     <use xlink:href="#DejaVuSans-Bold-6c" transform="translate(2007.568359 0)"/>
     <use xlink:href="#DejaVuSans-Bold-69" transform="translate(2041.845703 0)"/>
     <use xlink:href="#DejaVuSans-Bold-6e" transform="translate(2076.123047 0)"/>
     <use xlink:href="#DejaVuSans-Bold-65" transform="translate(2147.314453 0)"/>
     <use xlink:href="#DejaVuSans-Bold-20" transform="translate(2215.136719 0)"/>
     <use xlink:href="#DejaVuSans-Bold-70" transform="translate(2249.951172 0)"/>
     <use xlink:href="#DejaVuSans-Bold-72" transform="translate(2321.533203 0)"/>
     <use xlink:href="#DejaVuSans-Bold-69" transform="translate(2370.849609 0)"/>
     <use xlink:href="#DejaVuSans-Bold-6e" transform="translate(2405.126953 0)"/>
     <use xlink:href="#DejaVuSans-Bold-63" transform="translate(2476.318359 0)"/>
     <use xlink:href="#DejaVuSans-Bold-69" transform="translate(2535.595703 0)"/>
     <use xlink:href="#DejaVuSans-Bold-70" transform="translate(2569.873047 0)"/>
     <use xlink:href="#DejaVuSans-Bold-61" transform="translate(2641.455078 0)"/>
     <use xlink:href="#DejaVuSans-Bold-6c" transform="translate(2708.935547 0)"/>
    </g>
   </g>
   <g id="text_2">
    <!-- Usuario -->
    <g transform="translate(75.663718 61.257591) scale(0.09 -0.09)">
     <defs>
      <path id="DejaVuSans-Bold-6f" d="M 2203 2784 
Q 1831 2784 1636 2517 
Q 1441 2250 1441 1747 
Q 1441 1244 1636 976 
Q 1831 709 2203 709 
Q 2569 709 2762 976 
Q 2956 1244 2956 1747 
Q 2956 2250 2762 2517 
Q 2569 2784 2203 2784 
z
M 2203 3584 
Q 3106 3584 3614 3096 
Q 4122 2609 4122 1747 
Q 4122 884 3614 396 
Q 3106 -91 2203 -91 
Q 1297 -91 786 396 
Q 275 884 275 1747 
Q 275 2609 786 3096 
Q 1297 3584 2203 3584 
z
" transform="scale(0.015625)"/>
     </defs>
     <use xlink:href="#DejaVuSans-Bold-55"/>
     <use xlink:href="#DejaVuSans-Bold-73" transform="translate(81.201172 0)"/>
     <use xlink:href="#DejaVuSans-Bold-75" transform="translate(140.722656 0)"/>
     <use xlink:href="#DejaVuSans-Bold-61" transform="translate(211.914062 0)"/>
     <use xlink:href="#DejaVuSans-Bold-72" transform="translate(279.394531 0)"/>
     <use xlink:href="#DejaVuSans-Bold-69" transform="translate(328.710938 0)"/>
     <use xlink:href="#DejaVuSans-Bold-6f" transform="translate(362.988281 0)"/>
    </g>
   </g>
   <g id="text_3">
    <!-- Document -->
    <g transform="translate(179.157584 56.218576) scale(0.09 -0.09)">
     <defs>
      <path id="DejaVuSans-Bold-74" d="M 1759 4494 
L 1759 3500 
L 2913 3500 
L 2913 2700 
L 1759 2700 
L 1759 1216 
Q 1759 972 1856 886 
Q 1953 800 2241 800 
L 2816 800 
L 2816 0 
L 1856 0 
Q 1194 0 917 276 
Q 641 553 641 1216 
L 641 2700 
L 84 2700 
L 84 3500 
L 641 3500 
L 641 4494 
L 1759 4494 
z
" transform="scale(0.015625)"/>
     </defs>
     <use xlink:href="#DejaVuSans-Bold-44"/>
     <use xlink:href="#DejaVuSans-Bold-6f" transform="translate(83.007812 0)"/>
     <use xlink:href="#DejaVuSans-Bold-63" transform="translate(151.708984 0)"/>
     <use xlink:href="#DejaVuSans-Bold-75" transform="translate(210.986328 0)"/>
     <use xlink:href="#DejaVuSans-Bold-6d" transform="translate(282.177734 0)"/>
     <use xlink:href="#DejaVuSans-Bold-65" transform="translate(386.376953 0)"/>
     <use xlink:href="#DejaVuSans-Bold-6e" transform="translate(454.199219 0)"/>
     <use xlink:href="#DejaVuSans-Bold-74" transform="translate(525.390625 0)"/>
    </g>
    <!-- Processor -->
    <g transform="translate(179.95563 66.296607) scale(0.09 -0.09)">
     <use xlink:href="#DejaVuSans-Bold-50"/>
     <use xlink:href="#DejaVuSans-Bold-72" transform="translate(73.291016 0)"/>
     <use xlink:href="#DejaVuSans-Bold-6f" transform="translate(122.607422 0)"/>
     <use xlink:href="#DejaVuSans-Bold-63" transform="translate(191.308594 0)"/>
     <use xlink:href="#DejaVuSans-Bold-65" transform="translate(250.585938 0)"/>
     <use xlink:href="#DejaVuSans-Bold-73" transform="translate(318.408203 0)"/>
     <use xlink:href="#DejaVuSans-Bold-73" transform="translate(377.929688 0)"/>
     <use xlink:href="#DejaVuSans-Bold-6f" transform="translate(437.451172 0)"/>
     <use xlink:href="#DejaVuSans-Bold-72" transform="translate(506.152344 0)"/>
    </g>
   </g>
   <g id="text_4">
    <!-- Prompt -->
    <g transform="translate(296.143715 56.218576) scale(0.09 -0.09)">
     <use xlink:href="#DejaVuSans-Bold-50"/>
     <use xlink:href="#DejaVuSans-Bold-72" transform="translate(73.291016 0)"/>
     <use xlink:href="#DejaVuSans-Bold-6f" transform="translate(122.607422 0)"/>
     <use xlink:href="#DejaVuSans-Bold-6d" transform="translate(191.308594 0)"/>
     <use xlink:href="#DejaVuSans-Bold-70" transform="translate(295.507812 0)"/>
     <use xlink:href="#DejaVuSans-Bold-74" transform="translate(367.089844 0)"/>
    </g>
    <!-- Reader -->
    <g transform="translate(296.767387 66.296607) scale(0.09 -0.09)">
     <defs>
      <path id="DejaVuSans-Bold-52" d="M 2297 2597 
Q 2675 2597 2839 2737 
Q 3003 2878 3003 3200 
Q 3003 3519 2839 3656 
Q 2675 3794 2297 3794 
L 1791 3794 
L 1791 2597 
L 2297 2597 
z
M 1791 1766 
L 1791 0 
L 588 0 
L 588 4666 
L 2425 4666 
Q 3347 4666 3776 4356 
Q 4206 4047 4206 3378 
Q 4206 2916 3982 2619 
Q 3759 2322 3309 2181 
Q 3556 2125 3751 1926 
Q 3947 1728 4147 1325 
L 4800 0 
L 3519 0 
L 2950 1159 
Q 2778 1509 2601 1637 
Q 2425 1766 2131 1766 
L 1791 1766 
z
" transform="scale(0.015625)"/>
     </defs>
     <use xlink:href="#DejaVuSans-Bold-52"/>
     <use xlink:href="#DejaVuSans-Bold-65" transform="translate(77.001953 0)"/>
     <use xlink:href="#DejaVuSans-Bold-61" transform="translate(144.824219 0)"/>
     <use xlink:href="#DejaVuSans-Bold-64" transform="translate(212.304688 0)"/>
     <use xlink:href="#DejaVuSans-Bold-65" transform="translate(283.886719 0)"/>
     <use xlink:href="#DejaVuSans-Bold-72" transform="translate(351.708984 0)"/>
    </g>
   </g>
   <g id="text_5">
    <!-- AI -->
    <g transform="translate(419.519143 56.218576) scale(0.09 -0.09)">
     <defs>
      <path id="DejaVuSans-Bold-41" d="M 3419 850 
L 1538 850 
L 1241 0 
L 31 0 
L 1759 4666 
L 3194 4666 
L 4922 0 
L 3713 0 
L 3419 850 
z
M 1838 1716 
L 3116 1716 
L 2478 3572 
L 1838 1716 
z
" transform="scale(0.015625)"/>
      <path id="DejaVuSans-Bold-49" d="M 588 4666 
L 1791 4666 
L 1791 0 
L 588 0 
L 588 4666 
z
" transform="scale(0.015625)"/>
     </defs>
     <use xlink:href="#DejaVuSans-Bold-41"/>
     <use xlink:href="#DejaVuSans-Bold-49" transform="translate(77.392578 0)"/>
    </g>
    <!-- Generator -->
    <g transform="translate(398.956956 66.296607) scale(0.09 -0.09)">
     <defs>
      <path id="DejaVuSans-Bold-47" d="M 4781 347 
Q 4331 128 3847 18 
Q 3363 -91 2847 -91 
Q 1681 -91 1000 561 
Q 319 1213 319 2328 
Q 319 3456 1012 4103 
Q 1706 4750 2913 4750 
Q 3378 4750 3804 4662 
Q 4231 4575 4609 4403 
L 4609 3438 
Q 4219 3659 3833 3768 
Q 3447 3878 3059 3878 
Q 2341 3878 1952 3476 
Q 1563 3075 1563 2328 
Q 1563 1588 1938 1184 
Q 2313 781 3003 781 
Q 3191 781 3352 804 
Q 3513 828 3641 878 
L 3641 1784 
L 2906 1784 
L 2906 2591 
L 4781 2591 
L 4781 347 
z
" transform="scale(0.015625)"/>
     </defs>
     <use xlink:href="#DejaVuSans-Bold-47"/>
     <use xlink:href="#DejaVuSans-Bold-65" transform="translate(82.080078 0)"/>
     <use xlink:href="#DejaVuSans-Bold-6e" transform="translate(149.902344 0)"/>
     <use xlink:href="#DejaVuSans-Bold-65" transform="translate(221.09375 0)"/>
     <use xlink:href="#DejaVuSans-Bold-72" transform="translate(288.916016 0)"/>
     <use xlink:href="#DejaVuSans-Bold-61" transform="translate(338.232422 0)"/>
     <use xlink:href="#DejaVuSans-Bold-74" transform="translate(405.712891 0)"/>
     <use xlink:href="#DejaVuSans-Bold-6f" transform="translate(453.515625 0)"/>
     <use xlink:href="#DejaVuSans-Bold-72" transform="translate(522.216797 0)"/>
    </g>
   </g>
   <g id="text_6">
    <!-- PDF -->
    <g transform="translate(524.429806 56.218576) scale(0.09 -0.09)">
     <defs>
      <path id="DejaVuSans-Bold-46" d="M 588 4666 
L 3834 4666 
L 3834 3756 
L 1791 3756 
L 1791 2888 
L 3713 2888 
L 3713 1978 
L 1791 1978 
L 1791 0 
L 588 0 
L 588 4666 
z
" transform="scale(0.015625)"/>
     </defs>
     <use xlink:href="#DejaVuSans-Bold-50"/>
     <use xlink:href="#DejaVuSans-Bold-44" transform="translate(73.291016 0)"/>
     <use xlink:href="#DejaVuSans-Bold-46" transform="translate(156.298828 0)"/>
    </g>
    <!-- Processor -->
    <g transform="translate(509.541837 66.296607) scale(0.09 -0.09)">
     <use xlink:href="#DejaVuSans-Bold-50"/>
     <use xlink:href="#DejaVuSans-Bold-72" transform="translate(73.291016 0)"/>
     <use xlink:href="#DejaVuSans-Bold-6f" transform="translate(122.607422 0)"/>
     <use xlink:href="#DejaVuSans-Bold-63" transform="translate(191.308594 0)"/>
     <use xlink:href="#DejaVuSans-Bold-65" transform="translate(250.585938 0)"/>
     <use xlink:href="#DejaVuSans-Bold-73" transform="translate(318.408203 0)"/>
     <use xlink:href="#DejaVuSans-Bold-73" transform="translate(377.929688 0)"/>
     <use xlink:href="#DejaVuSans-Bold-6f" transform="translate(437.451172 0)"/>
     <use xlink:href="#DejaVuSans-Bold-72" transform="translate(506.152344 0)"/>
    </g>
   </g>
   <g id="text_7">
    <!-- Gemini -->
    <g transform="translate(626.676328 56.218576) scale(0.09 -0.09)">
     <use xlink:href="#DejaVuSans-Bold-47"/>
     <use xlink:href="#DejaVuSans-Bold-65" transform="translate(82.080078 0)"/>
     <use xlink:href="#DejaVuSans-Bold-6d" transform="translate(149.902344 0)"/>
     <use xlink:href="#DejaVuSans-Bold-69" transform="translate(254.101562 0)"/>
     <use xlink:href="#DejaVuSans-Bold-6e" transform="translate(288.378906 0)"/>
     <use xlink:href="#DejaVuSans-Bold-69" transform="translate(359.570312 0)"/>
    </g>
    <!-- API -->
    <g transform="translate(635.944922 66.296607) scale(0.09 -0.09)">
     <use xlink:href="#DejaVuSans-Bold-41"/>
     <use xlink:href="#DejaVuSans-Bold-50" transform="translate(77.392578 0)"/>
     <use xlink:href="#DejaVuSans-Bold-49" transform="translate(150.683594 0)"/>
    </g>
   </g>
   <g id="text_8">
    <!-- XML -->
    <g transform="translate(743.447303 56.218576) scale(0.09 -0.09)">
     <defs>
      <path id="DejaVuSans-Bold-58" d="M 3188 2381 
L 4806 0 
L 3553 0 
L 2463 1594 
L 1381 0 
L 122 0 
L 1741 2381 
L 184 4666 
L 1441 4666 
L 2463 3163 
L 3481 4666 
L 4744 4666 
L 3188 2381 
z
" transform="scale(0.015625)"/>
     </defs>
     <use xlink:href="#DejaVuSans-Bold-58"/>
     <use xlink:href="#DejaVuSans-Bold-4d" transform="translate(77.099609 0)"/>
     <use xlink:href="#DejaVuSans-Bold-4c" transform="translate(176.611328 0)"/>
    </g>
    <!-- Validator -->
    <g transform="translate(731.185506 66.296607) scale(0.09 -0.09)">
     <defs>
      <path id="DejaVuSans-Bold-56" d="M 31 4666 
L 1241 4666 
L 2478 1222 
L 3713 4666 
L 4922 4666 
L 3194 0 
L 1759 0 
L 31 4666 
z
" transform="scale(0.015625)"/>
     </defs>
     <use xlink:href="#DejaVuSans-Bold-56"/>
     <use xlink:href="#DejaVuSans-Bold-61" transform="translate(71.892578 0)"/>
     <use xlink:href="#DejaVuSans-Bold-6c" transform="translate(139.373047 0)"/>
     <use xlink:href="#DejaVuSans-Bold-69" transform="translate(173.650391 0)"/>
     <use xlink:href="#DejaVuSans-Bold-64" transform="translate(207.927734 0)"/>
     <use xlink:href="#DejaVuSans-Bold-61" transform="translate(279.509766 0)"/>
     <use xlink:href="#DejaVuSans-Bold-74" transform="translate(346.990234 0)"/>
     <use xlink:href="#DejaVuSans-Bold-6f" transform="translate(394.792969 0)"/>
     <use xlink:href="#DejaVuSans-Bold-72" transform="translate(463.494141 0)"/>
    </g>
   </g>
   <g id="text_9">
    <!-- XML -->
    <g transform="translate(853.309372 56.218576) scale(0.09 -0.09)">
     <use xlink:href="#DejaVuSans-Bold-58"/>
     <use xlink:href="#DejaVuSans-Bold-4d" transform="translate(77.099609 0)"/>
     <use xlink:href="#DejaVuSans-Bold-4c" transform="translate(176.611328 0)"/>
    </g>
    <!-- Corrector -->
    <g transform="translate(840.11031 66.296607) scale(0.09 -0.09)">
     <defs>
      <path id="DejaVuSans-Bold-43" d="M 4288 256 
Q 3956 84 3597 -3 
Q 3238 -91 2847 -91 
Q 1681 -91 1000 561 
Q 319 1213 319 2328 
Q 319 3447 1000 4098 
Q 1681 4750 2847 4750 
Q 3238 4750 3597 4662 
Q 3956 4575 4288 4403 
L 4288 3438 
Q 3953 3666 3628 3772 
Q 3303 3878 2944 3878 
Q 2300 3878 1931 3465 
Q 1563 3053 1563 2328 
Q 1563 1606 1931 1193 
Q 2300 781 2944 781 
Q 3303 781 3628 887 
Q 3953 994 4288 1222 
L 4288 256 
z
" transform="scale(0.015625)"/>
     </defs>
     <use xlink:href="#DejaVuSans-Bold-43"/>
     <use xlink:href="#DejaVuSans-Bold-6f" transform="translate(73.388672 0)"/>
     <use xlink:href="#DejaVuSans-Bold-72" transform="translate(142.089844 0)"/>
     <use xlink:href="#DejaVuSans-Bold-72" transform="translate(191.40625 0)"/>
     <use xlink:href="#DejaVuSans-Bold-65" transform="translate(240.722656 0)"/>
     <use xlink:href="#DejaVuSans-Bold-63" transform="translate(308.544922 0)"/>
     <use xlink:href="#DejaVuSans-Bold-74" transform="translate(367.822266 0)"/>
     <use xlink:href="#DejaVuSans-Bold-6f" transform="translate(415.625 0)"/>
     <use xlink:href="#DejaVuSans-Bold-72" transform="translate(484.326172 0)"/>
    </g>
   </g>
   <g id="text_10">
    <!-- File -->
    <g transform="translate(964.774566 56.218576) scale(0.09 -0.09)">
     <use xlink:href="#DejaVuSans-Bold-46"/>
     <use xlink:href="#DejaVuSans-Bold-69" transform="translate(68.310547 0)"/>
     <use xlink:href="#DejaVuSans-Bold-6c" transform="translate(102.587891 0)"/>
     <use xlink:href="#DejaVuSans-Bold-65" transform="translate(136.865234 0)"/>
    </g>
    <!-- Writer -->
    <g transform="translate(957.917691 66.296607) scale(0.09 -0.09)">
     <defs>
      <path id="DejaVuSans-Bold-57" d="M 191 4666 
L 1344 4666 
L 2150 1275 
L 2950 4666 
L 4109 4666 
L 4909 1275 
L 5716 4666 
L 6859 4666 
L 5759 0 
L 4372 0 
L 3525 3547 
L 2688 0 
L 1300 0 
L 191 4666 
z
" transform="scale(0.015625)"/>
     </defs>
     <use xlink:href="#DejaVuSans-Bold-57"/>
     <use xlink:href="#DejaVuSans-Bold-72" transform="translate(108.552734 0)"/>
     <use xlink:href="#DejaVuSans-Bold-69" transform="translate(157.869141 0)"/>
     <use xlink:href="#DejaVuSans-Bold-74" transform="translate(192.146484 0)"/>
     <use xlink:href="#DejaVuSans-Bold-65" transform="translate(239.949219 0)"/>
     <use xlink:href="#DejaVuSans-Bold-72" transform="translate(307.771484 0)"/>
    </g>
   </g>
   <g id="text_11">
    <!-- XML → LaTeX -->
    <g transform="translate(1051.230307 56.218576) scale(0.09 -0.09)">
     <defs>
      <path id="DejaVuSans-Bold-2192" d="M 5050 2225 
L 5050 1788 
L 3822 559 
L 3369 1013 
L 3988 1631 
L 366 1631 
L 366 2381 
L 3988 2381 
L 3369 3000 
L 3822 3453 
L 5050 2225 
z
" transform="scale(0.015625)"/>
      <path id="DejaVuSans-Bold-54" d="M 31 4666 
L 4331 4666 
L 4331 3756 
L 2784 3756 
L 2784 0 
L 1581 0 
L 1581 3756 
L 31 3756 
L 31 4666 
z
" transform="scale(0.015625)"/>
     </defs>
     <use xlink:href="#DejaVuSans-Bold-58"/>
     <use xlink:href="#DejaVuSans-Bold-4d" transform="translate(77.099609 0)"/>
     <use xlink:href="#DejaVuSans-Bold-4c" transform="translate(176.611328 0)"/>
     <use xlink:href="#DejaVuSans-Bold-20" transform="translate(240.332031 0)"/>
     <use xlink:href="#DejaVuSans-Bold-2192" transform="translate(275.146484 0)"/>
     <use xlink:href="#DejaVuSans-Bold-20" transform="translate(358.935547 0)"/>
     <use xlink:href="#DejaVuSans-Bold-4c" transform="translate(393.75 0)"/>
     <use xlink:href="#DejaVuSans-Bold-61" transform="translate(457.470703 0)"/>
     <use xlink:href="#DejaVuSans-Bold-54" transform="translate(524.951172 0)"/>
     <use xlink:href="#DejaVuSans-Bold-65" transform="translate(579.914062 0)"/>
     <use xlink:href="#DejaVuSans-Bold-58" transform="translate(647.736328 0)"/>
    </g>
    <!-- Converter -->
    <g transform="translate(1058.623666 66.296607) scale(0.09 -0.09)">
     <defs>
      <path id="DejaVuSans-Bold-76" d="M 97 3500 
L 1216 3500 
L 2088 1081 
L 2956 3500 
L 4078 3500 
L 2700 0 
L 1472 0 
L 97 3500 
z
" transform="scale(0.015625)"/>
     </defs>
     <use xlink:href="#DejaVuSans-Bold-43"/>
     <use xlink:href="#DejaVuSans-Bold-6f" transform="translate(73.388672 0)"/>
     <use xlink:href="#DejaVuSans-Bold-6e" transform="translate(142.089844 0)"/>
     <use xlink:href="#DejaVuSans-Bold-76" transform="translate(213.28125 0)"/>
     <use xlink:href="#DejaVuSans-Bold-65" transform="translate(278.466797 0)"/>
     <use xlink:href="#DejaVuSans-Bold-72" transform="translate(346.289062 0)"/>
     <use xlink:href="#DejaVuSans-Bold-74" transform="translate(395.605469 0)"/>
     <use xlink:href="#DejaVuSans-Bold-65" transform="translate(443.408203 0)"/>
     <use xlink:href="#DejaVuSans-Bold-72" transform="translate(511.230469 0)"/>
    </g>
   </g>
   <g id="text_12">
    <!-- LaTeX -->
    <g transform="translate(1178.811126 56.218576) scale(0.09 -0.09)">
     <use xlink:href="#DejaVuSans-Bold-4c"/>
     <use xlink:href="#DejaVuSans-Bold-61" transform="translate(63.720703 0)"/>
     <use xlink:href="#DejaVuSans-Bold-54" transform="translate(131.201172 0)"/>
     <use xlink:href="#DejaVuSans-Bold-65" transform="translate(186.164062 0)"/>
     <use xlink:href="#DejaVuSans-Bold-58" transform="translate(253.986328 0)"/>
    </g>
    <!-- Compiler -->
    <g transform="translate(1171.049329 66.296607) scale(0.09 -0.09)">
     <use xlink:href="#DejaVuSans-Bold-43"/>
     <use xlink:href="#DejaVuSans-Bold-6f" transform="translate(73.388672 0)"/>
     <use xlink:href="#DejaVuSans-Bold-6d" transform="translate(142.089844 0)"/>
     <use xlink:href="#DejaVuSans-Bold-70" transform="translate(246.289062 0)"/>
     <use xlink:href="#DejaVuSans-Bold-69" transform="translate(317.871094 0)"/>
     <use xlink:href="#DejaVuSans-Bold-6c" transform="translate(352.148438 0)"/>
     <use xlink:href="#DejaVuSans-Bold-65" transform="translate(386.425781 0)"/>
     <use xlink:href="#DejaVuSans-Bold-72" transform="translate(454.248047 0)"/>
    </g>
   </g>
   <g id="patch_19">
    <path d="M 103.092608 95.843077 
Q 150.023089 95.843077 195.444224 95.843077 
" style="fill: none; stroke: #1f2937; stroke-width: 1.35; stroke-linecap: round"/>
    <path d="M 191.444224 93.843077 
L 195.444224 95.843077 
L 191.444224 97.843077 
" style="fill: none; stroke: #1f2937; stroke-width: 1.35; stroke-linecap: round"/>
   </g>
   <g id="text_13">
    <!-- process() -->
    <g transform="translate(129.218737 87.524589) scale(0.09 -0.09)">
     <defs>
      <path id="DejaVuSans-70" d="M 1159 525 
L 1159 -1331 
L 581 -1331 
L 581 3500 
L 1159 3500 
L 1159 2969 
Q 1341 3281 1617 3432 
Q 1894 3584 2278 3584 
Q 2916 3584 3314 3078 
Q 3713 2572 3713 1747 
Q 3713 922 3314 415 
Q 2916 -91 2278 -91 
Q 1894 -91 1617 61 
Q 1341 213 1159 525 
z
M 3116 1747 
Q 3116 2381 2855 2742 
Q 2594 3103 2138 3103 
Q 1681 3103 1420 2742 
Q 1159 2381 1159 1747 
Q 1159 1113 1420 752 
Q 1681 391 2138 391 
Q 2594 391 2855 752 
Q 3116 1113 3116 1747 
z
" transform="scale(0.015625)"/>
      <path id="DejaVuSans-72" d="M 2631 2963 
Q 2534 3019 2420 3045 
Q 2306 3072 2169 3072 
Q 1681 3072 1420 2755 
Q 1159 2438 1159 1844 
L 1159 0 
L 581 0 
L 581 3500 
L 1159 3500 
L 1159 2956 
Q 1341 3275 1631 3429 
Q 1922 3584 2338 3584 
Q 2397 3584 2469 3576 
Q 2541 3569 2628 3553 
L 2631 2963 
z
" transform="scale(0.015625)"/>
      <path id="DejaVuSans-6f" d="M 1959 3097 
Q 1497 3097 1228 2736 
Q 959 2375 959 1747 
Q 959 1119 1226 758 
Q 1494 397 1959 397 
Q 2419 397 2687 759 
Q 2956 1122 2956 1747 
Q 2956 2369 2687 2733 
Q 2419 3097 1959 3097 
z
M 1959 3584 
Q 2709 3584 3137 3096 
Q 3566 2609 3566 1747 
Q 3566 888 3137 398 
Q 2709 -91 1959 -91 
Q 1206 -91 779 398 
Q 353 888 353 1747 
Q 353 2609 779 3096 
Q 1206 3584 1959 3584 
z
" transform="scale(0.015625)"/>
      <path id="DejaVuSans-63" d="M 3122 3366 
L 3122 2828 
Q 2878 2963 2633 3030 
Q 2388 3097 2138 3097 
Q 1578 3097 1268 2742 
Q 959 2388 959 1747 
Q 959 1106 1268 751 
Q 1578 397 2138 397 
Q 2388 397 2633 464 
Q 2878 531 3122 666 
L 3122 134 
Q 2881 22 2623 -34 
Q 2366 -91 2075 -91 
Q 1284 -91 818 406 
Q 353 903 353 1747 
Q 353 2603 823 3093 
Q 1294 3584 2113 3584 
Q 2378 3584 2631 3529 
Q 2884 3475 3122 3366 
z
" transform="scale(0.015625)"/>
      <path id="DejaVuSans-65" d="M 3597 1894 
L 3597 1613 
L 953 1613 
Q 991 1019 1311 708 
Q 1631 397 2203 397 
Q 2534 397 2845 478 
Q 3156 559 3463 722 
L 3463 178 
Q 3153 47 2828 -22 
Q 2503 -91 2169 -91 
Q 1331 -91 842 396 
Q 353 884 353 1716 
Q 353 2575 817 3079 
Q 1281 3584 2069 3584 
Q 2775 3584 3186 3129 
Q 3597 2675 3597 1894 
z
M 3022 2063 
Q 3016 2534 2758 2815 
Q 2500 3097 2075 3097 
Q 1594 3097 1305 2825 
Q 1016 2553 972 2059 
L 3022 2063 
z
" transform="scale(0.015625)"/>
      <path id="DejaVuSans-73" d="M 2834 3397 
L 2834 2853 
Q 2591 2978 2328 3040 
Q 2066 3103 1784 3103 
Q 1356 3103 1142 2972 
Q 928 2841 928 2578 
Q 928 2378 1081 2264 
Q 1234 2150 1697 2047 
L 1894 2003 
Q 2506 1872 2764 1633 
Q 3022 1394 3022 966 
Q 3022 478 2636 193 
Q 2250 -91 1575 -91 
Q 1294 -91 989 -36 
Q 684 19 347 128 
L 347 722 
Q 666 556 975 473 
Q 1284 391 1588 391 
Q 1994 391 2212 530 
Q 2431 669 2431 922 
Q 2431 1156 2273 1281 
Q 2116 1406 1581 1522 
L 1381 1569 
Q 847 1681 609 1914 
Q 372 2147 372 2553 
Q 372 3047 722 3315 
Q 1072 3584 1716 3584 
Q 2034 3584 2315 3537 
Q 2597 3491 2834 3397 
z
" transform="scale(0.015625)"/>
      <path id="DejaVuSans-28" d="M 1984 4856 
Q 1566 4138 1362 3434 
Q 1159 2731 1159 2009 
Q 1159 1288 1364 580 
Q 1569 -128 1984 -844 
L 1484 -844 
Q 1016 -109 783 600 
Q 550 1309 550 2009 
Q 550 2706 781 3412 
Q 1013 4119 1484 4856 
L 1984 4856 
z
" transform="scale(0.015625)"/>
      <path id="DejaVuSans-29" d="M 513 4856 
L 1013 4856 
Q 1481 4119 1714 3412 
Q 1947 2706 1947 2009 
Q 1947 1309 1714 600 
Q 1481 -109 1013 -844 
L 513 -844 
Q 928 -128 1133 580 
Q 1338 1288 1338 2009 
Q 1338 2731 1133 3434 
Q 928 4138 513 4856 
z
" transform="scale(0.015625)"/>
     </defs>
     <use xlink:href="#DejaVuSans-70"/>
     <use xlink:href="#DejaVuSans-72" transform="translate(63.476562 0)"/>
     <use xlink:href="#DejaVuSans-6f" transform="translate(102.339844 0)"/>
     <use xlink:href="#DejaVuSans-63" transform="translate(163.521484 0)"/>
     <use xlink:href="#DejaVuSans-65" transform="translate(218.501953 0)"/>
     <use xlink:href="#DejaVuSans-73" transform="translate(280.025391 0)"/>
     <use xlink:href="#DejaVuSans-73" transform="translate(332.125 0)"/>
     <use xlink:href="#DejaVuSans-28" transform="translate(384.224609 0)"/>
     <use xlink:href="#DejaVuSans-29" transform="translate(423.238281 0)"/>
    </g>
   </g>
   <g id="patch_20">
    <path d="M 212.954677 130.763077 
Q 259.885158 130.763077 305.306293 130.763077 
" style="fill: none; stroke: #1f2937; stroke-width: 1.35; stroke-linecap: round"/>
    <path d="M 301.306293 128.763077 
L 305.306293 130.763077 
L 301.306293 132.763077 
" style="fill: none; stroke: #1f2937; stroke-width: 1.35; stroke-linecap: round"/>
   </g>
   <g id="text_14">
    <!-- read() -->
    <g transform="translate(246.239321 122.444589) scale(0.09 -0.09)">
     <defs>
      <path id="DejaVuSans-61" d="M 2194 1759 
Q 1497 1759 1228 1600 
Q 959 1441 959 1056 
Q 959 750 1161 570 
Q 1363 391 1709 391 
Q 2188 391 2477 730 
Q 2766 1069 2766 1631 
L 2766 1759 
L 2194 1759 
z
M 3341 1997 
L 3341 0 
L 2766 0 
L 2766 531 
Q 2569 213 2275 61 
Q 1981 -91 1556 -91 
Q 1019 -91 701 211 
Q 384 513 384 1019 
Q 384 1609 779 1909 
Q 1175 2209 1959 2209 
L 2766 2209 
L 2766 2266 
Q 2766 2663 2505 2880 
Q 2244 3097 1772 3097 
Q 1472 3097 1187 3025 
Q 903 2953 641 2809 
L 641 3341 
Q 956 3463 1253 3523 
Q 1550 3584 1831 3584 
Q 2591 3584 2966 3190 
Q 3341 2797 3341 1997 
z
" transform="scale(0.015625)"/>
      <path id="DejaVuSans-64" d="M 2906 2969 
L 2906 4863 
L 3481 4863 
L 3481 0 
L 2906 0 
L 2906 525 
Q 2725 213 2448 61 
Q 2172 -91 1784 -91 
Q 1150 -91 751 415 
Q 353 922 353 1747 
Q 353 2572 751 3078 
Q 1150 3584 1784 3584 
Q 2172 3584 2448 3432 
Q 2725 3281 2906 2969 
z
M 947 1747 
Q 947 1113 1208 752 
Q 1469 391 1925 391 
Q 2381 391 2643 752 
Q 2906 1113 2906 1747 
Q 2906 2381 2643 2742 
Q 2381 3103 1925 3103 
Q 1469 3103 1208 2742 
Q 947 2381 947 1747 
z
" transform="scale(0.015625)"/>
     </defs>
     <use xlink:href="#DejaVuSans-72"/>
     <use xlink:href="#DejaVuSans-65" transform="translate(38.863281 0)"/>
     <use xlink:href="#DejaVuSans-61" transform="translate(100.386719 0)"/>
     <use xlink:href="#DejaVuSans-64" transform="translate(161.666016 0)"/>
     <use xlink:href="#DejaVuSans-28" transform="translate(225.142578 0)"/>
     <use xlink:href="#DejaVuSans-29" transform="translate(264.15625 0)"/>
    </g>
   </g>
   <g id="patch_21">
    <path d="M 306.81084 149.566154 
Q 259.880359 149.566154 214.459224 149.566154 
" style="fill: none; stroke-dasharray: 5.4,4.05; stroke-dashoffset: 0; stroke: #1f2937; stroke-width: 1.35; stroke-linecap: round"/>
    <path d="M 218.459224 151.566154 
L 214.459224 149.566154 
L 218.459224 147.566154 
" style="fill: none; stroke-dasharray: 5.4,4.05; stroke-dashoffset: 0; stroke: #1f2937; stroke-width: 1.35; stroke-linecap: round"/>
   </g>
   <g id="text_15">
    <!-- prompt -->
    <g transform="translate(243.519634 141.247666) scale(0.09 -0.09)">
     <defs>
      <path id="DejaVuSans-6d" d="M 3328 2828 
Q 3544 3216 3844 3400 
Q 4144 3584 4550 3584 
Q 5097 3584 5394 3201 
Q 5691 2819 5691 2113 
L 5691 0 
L 5113 0 
L 5113 2094 
Q 5113 2597 4934 2840 
Q 4756 3084 4391 3084 
Q 3944 3084 3684 2787 
Q 3425 2491 3425 1978 
L 3425 0 
L 2847 0 
L 2847 2094 
Q 2847 2600 2669 2842 
Q 2491 3084 2119 3084 
Q 1678 3084 1418 2786 
Q 1159 2488 1159 1978 
L 1159 0 
L 581 0 
L 581 3500 
L 1159 3500 
L 1159 2956 
Q 1356 3278 1631 3431 
Q 1906 3584 2284 3584 
Q 2666 3584 2933 3390 
Q 3200 3197 3328 2828 
z
" transform="scale(0.015625)"/>
      <path id="DejaVuSans-74" d="M 1172 4494 
L 1172 3500 
L 2356 3500 
L 2356 3053 
L 1172 3053 
L 1172 1153 
Q 1172 725 1289 603 
Q 1406 481 1766 481 
L 2356 481 
L 2356 0 
L 1766 0 
Q 1100 0 847 248 
Q 594 497 594 1153 
L 594 3053 
L 172 3053 
L 172 3500 
L 594 3500 
L 594 4494 
L 1172 4494 
z
" transform="scale(0.015625)"/>
     </defs>
     <use xlink:href="#DejaVuSans-70"/>
     <use xlink:href="#DejaVuSans-72" transform="translate(63.476562 0)"/>
     <use xlink:href="#DejaVuSans-6f" transform="translate(102.339844 0)"/>
     <use xlink:href="#DejaVuSans-6d" transform="translate(163.521484 0)"/>
     <use xlink:href="#DejaVuSans-70" transform="translate(260.933594 0)"/>
     <use xlink:href="#DejaVuSans-74" transform="translate(324.410156 0)"/>
    </g>
   </g>
   <g id="patch_22">
    <path d="M 212.954677 179.113846 
Q 314.81416 179.113846 415.164298 179.113846 
" style="fill: none; stroke: #1f2937; stroke-width: 1.35; stroke-linecap: round"/>
    <path d="M 411.164298 177.113846 
L 415.164298 179.113846 
L 411.164298 181.113846 
" style="fill: none; stroke: #1f2937; stroke-width: 1.35; stroke-linecap: round"/>
   </g>
   <g id="text_16">
    <!-- generate_from_pdf(pdf, prompt) -->
    <g transform="translate(242.12684 170.545046) scale(0.09 -0.09)">
     <defs>
      <path id="DejaVuSans-67" d="M 2906 1791 
Q 2906 2416 2648 2759 
Q 2391 3103 1925 3103 
Q 1463 3103 1205 2759 
Q 947 2416 947 1791 
Q 947 1169 1205 825 
Q 1463 481 1925 481 
Q 2391 481 2648 825 
Q 2906 1169 2906 1791 
z
M 3481 434 
Q 3481 -459 3084 -895 
Q 2688 -1331 1869 -1331 
Q 1566 -1331 1297 -1286 
Q 1028 -1241 775 -1147 
L 775 -588 
Q 1028 -725 1275 -790 
Q 1522 -856 1778 -856 
Q 2344 -856 2625 -561 
Q 2906 -266 2906 331 
L 2906 616 
Q 2728 306 2450 153 
Q 2172 0 1784 0 
Q 1141 0 747 490 
Q 353 981 353 1791 
Q 353 2603 747 3093 
Q 1141 3584 1784 3584 
Q 2172 3584 2450 3431 
Q 2728 3278 2906 2969 
L 2906 3500 
L 3481 3500 
L 3481 434 
z
" transform="scale(0.015625)"/>
      <path id="DejaVuSans-6e" d="M 3513 2113 
L 3513 0 
L 2938 0 
L 2938 2094 
Q 2938 2591 2744 2837 
Q 2550 3084 2163 3084 
Q 1697 3084 1428 2787 
Q 1159 2491 1159 1978 
L 1159 0 
L 581 0 
L 581 3500 
L 1159 3500 
L 1159 2956 
Q 1366 3272 1645 3428 
Q 1925 3584 2291 3584 
Q 2894 3584 3203 3211 
Q 3513 2838 3513 2113 
z
" transform="scale(0.015625)"/>
      <path id="DejaVuSans-5f" d="M 3263 -1063 
L 3263 -1509 
L -63 -1509 
L -63 -1063 
L 3263 -1063 
z
" transform="scale(0.015625)"/>
      <path id="DejaVuSans-66" d="M 2375 4863 
L 2375 4384 
L 1825 4384 
Q 1516 4384 1395 4259 
Q 1275 4134 1275 3809 
L 1275 3500 
L 2222 3500 
L 2222 3053 
L 1275 3053 
L 1275 0 
L 697 0 
L 697 3053 
L 147 3053 
L 147 3500 
L 697 3500 
L 697 3744 
Q 697 4328 969 4595 
Q 1241 4863 1831 4863 
L 2375 4863 
z
" transform="scale(0.015625)"/>
      <path id="DejaVuSans-2c" d="M 750 794 
L 1409 794 
L 1409 256 
L 897 -744 
L 494 -744 
L 750 256 
L 750 794 
z
" transform="scale(0.015625)"/>
      <path id="DejaVuSans-20" transform="scale(0.015625)"/>
     </defs>
     <use xlink:href="#DejaVuSans-67"/>
     <use xlink:href="#DejaVuSans-65" transform="translate(63.476562 0)"/>
     <use xlink:href="#DejaVuSans-6e" transform="translate(125 0)"/>
     <use xlink:href="#DejaVuSans-65" transform="translate(188.378906 0)"/>
     <use xlink:href="#DejaVuSans-72" transform="translate(249.902344 0)"/>
     <use xlink:href="#DejaVuSans-61" transform="translate(291.015625 0)"/>
     <use xlink:href="#DejaVuSans-74" transform="translate(352.294922 0)"/>
     <use xlink:href="#DejaVuSans-65" transform="translate(391.503906 0)"/>
     <use xlink:href="#DejaVuSans-5f" transform="translate(453.027344 0)"/>
     <use xlink:href="#DejaVuSans-66" transform="translate(503.027344 0)"/>
     <use xlink:href="#DejaVuSans-72" transform="translate(538.232422 0)"/>
     <use xlink:href="#DejaVuSans-6f" transform="translate(577.095703 0)"/>
     <use xlink:href="#DejaVuSans-6d" transform="translate(638.277344 0)"/>
     <use xlink:href="#DejaVuSans-5f" transform="translate(735.689453 0)"/>
     <use xlink:href="#DejaVuSans-70" transform="translate(785.689453 0)"/>
     <use xlink:href="#DejaVuSans-64" transform="translate(849.166016 0)"/>
     <use xlink:href="#DejaVuSans-66" transform="translate(912.642578 0)"/>
     <use xlink:href="#DejaVuSans-28" transform="translate(947.847656 0)"/>
     <use xlink:href="#DejaVuSans-70" transform="translate(986.861328 0)"/>
     <use xlink:href="#DejaVuSans-64" transform="translate(1050.337891 0)"/>
     <use xlink:href="#DejaVuSans-66" transform="translate(1113.814453 0)"/>
     <use xlink:href="#DejaVuSans-2c" transform="translate(1149.019531 0)"/>
     <use xlink:href="#DejaVuSans-20" transform="translate(1180.806641 0)"/>
     <use xlink:href="#DejaVuSans-70" transform="translate(1212.59375 0)"/>
     <use xlink:href="#DejaVuSans-72" transform="translate(1276.070312 0)"/>
     <use xlink:href="#DejaVuSans-6f" transform="translate(1314.933594 0)"/>
     <use xlink:href="#DejaVuSans-6d" transform="translate(1376.115234 0)"/>
     <use xlink:href="#DejaVuSans-70" transform="translate(1473.527344 0)"/>
     <use xlink:href="#DejaVuSans-74" transform="translate(1537.003906 0)"/>
     <use xlink:href="#DejaVuSans-29" transform="translate(1576.212891 0)"/>
    </g>
   </g>
   <g id="text_17">
    <!-- loop páginas -->
    <g transform="translate(382.928276 219.885512) scale(0.09 -0.09)">
     <defs>
      <path id="DejaVuSans-Bold-e1" d="M 2106 1575 
Q 1756 1575 1579 1456 
Q 1403 1338 1403 1106 
Q 1403 894 1545 773 
Q 1688 653 1941 653 
Q 2256 653 2472 879 
Q 2688 1106 2688 1447 
L 2688 1575 
L 2106 1575 
z
M 3816 1997 
L 3816 0 
L 2688 0 
L 2688 519 
Q 2463 200 2181 54 
Q 1900 -91 1497 -91 
Q 953 -91 614 226 
Q 275 544 275 1050 
Q 275 1666 698 1953 
Q 1122 2241 2028 2241 
L 2688 2241 
L 2688 2328 
Q 2688 2594 2478 2717 
Q 2269 2841 1825 2841 
Q 1466 2841 1156 2769 
Q 847 2697 581 2553 
L 581 3406 
Q 941 3494 1303 3539 
Q 1666 3584 2028 3584 
Q 2975 3584 3395 3211 
Q 3816 2838 3816 1997 
z
M 2606 5119 
L 3490 5119 
L 2337 3944 
L 1725 3944 
L 2606 5119 
z
" transform="scale(0.015625)"/>
     </defs>
     <use xlink:href="#DejaVuSans-Bold-6c"/>
     <use xlink:href="#DejaVuSans-Bold-6f" transform="translate(34.277344 0)"/>
     <use xlink:href="#DejaVuSans-Bold-6f" transform="translate(102.978516 0)"/>
     <use xlink:href="#DejaVuSans-Bold-70" transform="translate(171.679688 0)"/>
     <use xlink:href="#DejaVuSans-Bold-20" transform="translate(243.261719 0)"/>
     <use xlink:href="#DejaVuSans-Bold-70" transform="translate(278.076172 0)"/>
     <use xlink:href="#DejaVuSans-Bold-e1" transform="translate(349.658203 0)"/>
     <use xlink:href="#DejaVuSans-Bold-67" transform="translate(417.138672 0)"/>
     <use xlink:href="#DejaVuSans-Bold-69" transform="translate(488.720703 0)"/>
     <use xlink:href="#DejaVuSans-Bold-6e" transform="translate(522.998047 0)"/>
     <use xlink:href="#DejaVuSans-Bold-61" transform="translate(594.189453 0)"/>
     <use xlink:href="#DejaVuSans-Bold-73" transform="translate(661.669922 0)"/>
    </g>
   </g>
   <g id="patch_23">
    <path d="M 432.678815 257.012308 
Q 479.609296 257.012308 525.030431 257.012308 
" style="fill: none; stroke: #1f2937; stroke-width: 1.35; stroke-linecap: round"/>
    <path d="M 521.030431 255.012308 
L 525.030431 257.012308 
L 521.030431 259.012308 
" style="fill: none; stroke: #1f2937; stroke-width: 1.35; stroke-linecap: round"/>
   </g>
   <g id="text_18">
    <!-- extract_pages() -->
    <g transform="translate(444.297365 248.443507) scale(0.09 -0.09)">
     <defs>
      <path id="DejaVuSans-78" d="M 3513 3500 
L 2247 1797 
L 3578 0 
L 2900 0 
L 1881 1375 
L 863 0 
L 184 0 
L 1544 1831 
L 300 3500 
L 978 3500 
L 1906 2253 
L 2834 3500 
L 3513 3500 
z
" transform="scale(0.015625)"/>
     </defs>
     <use xlink:href="#DejaVuSans-65"/>
     <use xlink:href="#DejaVuSans-78" transform="translate(59.773438 0)"/>
     <use xlink:href="#DejaVuSans-74" transform="translate(118.953125 0)"/>
     <use xlink:href="#DejaVuSans-72" transform="translate(158.162109 0)"/>
     <use xlink:href="#DejaVuSans-61" transform="translate(199.275391 0)"/>
     <use xlink:href="#DejaVuSans-63" transform="translate(260.554688 0)"/>
     <use xlink:href="#DejaVuSans-74" transform="translate(315.535156 0)"/>
     <use xlink:href="#DejaVuSans-5f" transform="translate(354.744141 0)"/>
     <use xlink:href="#DejaVuSans-70" transform="translate(404.744141 0)"/>
     <use xlink:href="#DejaVuSans-61" transform="translate(468.220703 0)"/>
     <use xlink:href="#DejaVuSans-67" transform="translate(529.5 0)"/>
     <use xlink:href="#DejaVuSans-65" transform="translate(592.976562 0)"/>
     <use xlink:href="#DejaVuSans-73" transform="translate(654.5 0)"/>
     <use xlink:href="#DejaVuSans-28" transform="translate(706.599609 0)"/>
     <use xlink:href="#DejaVuSans-29" transform="translate(745.613281 0)"/>
    </g>
   </g>
   <g id="patch_24">
    <path d="M 526.534978 274.740923 
Q 479.604497 274.740923 434.183362 274.740923 
" style="fill: none; stroke-dasharray: 5.4,4.05; stroke-dashoffset: 0; stroke: #1f2937; stroke-width: 1.35; stroke-linecap: round"/>
    <path d="M 438.183362 276.740923 
L 434.183362 274.740923 
L 438.183362 272.740923 
" style="fill: none; stroke-dasharray: 5.4,4.05; stroke-dashoffset: 0; stroke: #1f2937; stroke-width: 1.35; stroke-linecap: round"/>
   </g>
   <g id="text_19">
    <!-- pdf_bytes -->
    <g transform="translate(457.661662 266.172123) scale(0.09 -0.09)">
     <defs>
      <path id="DejaVuSans-62" d="M 3116 1747 
Q 3116 2381 2855 2742 
Q 2594 3103 2138 3103 
Q 1681 3103 1420 2742 
Q 1159 2381 1159 1747 
Q 1159 1113 1420 752 
Q 1681 391 2138 391 
Q 2594 391 2855 752 
Q 3116 1113 3116 1747 
z
M 1159 2969 
Q 1341 3281 1617 3432 
Q 1894 3584 2278 3584 
Q 2916 3584 3314 3078 
Q 3713 2572 3713 1747 
Q 3713 922 3314 415 
Q 2916 -91 2278 -91 
Q 1894 -91 1617 61 
Q 1341 213 1159 525 
L 1159 0 
L 581 0 
L 581 4863 
L 1159 4863 
L 1159 2969 
z
" transform="scale(0.015625)"/>
      <path id="DejaVuSans-79" d="M 2059 -325 
Q 1816 -950 1584 -1140 
Q 1353 -1331 966 -1331 
L 506 -1331 
L 506 -850 
L 844 -850 
Q 1081 -850 1212 -737 
Q 1344 -625 1503 -206 
L 1606 56 
L 191 3500 
L 800 3500 
L 1894 763 
L 2988 3500 
L 3597 3500 
L 2059 -325 
z
" transform="scale(0.015625)"/>
     </defs>
     <use xlink:href="#DejaVuSans-70"/>
     <use xlink:href="#DejaVuSans-64" transform="translate(63.476562 0)"/>
     <use xlink:href="#DejaVuSans-66" transform="translate(126.953125 0)"/>
     <use xlink:href="#DejaVuSans-5f" transform="translate(162.158203 0)"/>
     <use xlink:href="#DejaVuSans-62" transform="translate(212.158203 0)"/>
     <use xlink:href="#DejaVuSans-79" transform="translate(275.634766 0)"/>
     <use xlink:href="#DejaVuSans-74" transform="translate(334.814453 0)"/>
     <use xlink:href="#DejaVuSans-65" transform="translate(374.023438 0)"/>
     <use xlink:href="#DejaVuSans-73" transform="translate(435.546875 0)"/>
    </g>
   </g>
   <g id="patch_25">
    <path d="M 432.678815 299.990769 
Q 534.538298 299.990769 634.888436 299.990769 
" style="fill: none; stroke: #1f2937; stroke-width: 1.35; stroke-linecap: round"/>
    <path d="M 630.888436 297.990769 
L 634.888436 299.990769 
L 630.888436 301.990769 
" style="fill: none; stroke: #1f2937; stroke-width: 1.35; stroke-linecap: round"/>
   </g>
   <g id="text_20">
    <!-- generate_content() -->
    <g transform="translate(491.160744 291.421969) scale(0.09 -0.09)">
     <use xlink:href="#DejaVuSans-67"/>
     <use xlink:href="#DejaVuSans-65" transform="translate(63.476562 0)"/>
     <use xlink:href="#DejaVuSans-6e" transform="translate(125 0)"/>
     <use xlink:href="#DejaVuSans-65" transform="translate(188.378906 0)"/>
     <use xlink:href="#DejaVuSans-72" transform="translate(249.902344 0)"/>
     <use xlink:href="#DejaVuSans-61" transform="translate(291.015625 0)"/>
     <use xlink:href="#DejaVuSans-74" transform="translate(352.294922 0)"/>
     <use xlink:href="#DejaVuSans-65" transform="translate(391.503906 0)"/>
     <use xlink:href="#DejaVuSans-5f" transform="translate(453.027344 0)"/>
     <use xlink:href="#DejaVuSans-63" transform="translate(503.027344 0)"/>
     <use xlink:href="#DejaVuSans-6f" transform="translate(558.007812 0)"/>
     <use xlink:href="#DejaVuSans-6e" transform="translate(619.189453 0)"/>
     <use xlink:href="#DejaVuSans-74" transform="translate(682.568359 0)"/>
     <use xlink:href="#DejaVuSans-65" transform="translate(721.777344 0)"/>
     <use xlink:href="#DejaVuSans-6e" transform="translate(783.300781 0)"/>
     <use xlink:href="#DejaVuSans-74" transform="translate(846.679688 0)"/>
     <use xlink:href="#DejaVuSans-28" transform="translate(885.888672 0)"/>
     <use xlink:href="#DejaVuSans-29" transform="translate(924.902344 0)"/>
    </g>
   </g>
   <g id="patch_26">
    <path d="M 636.397047 317.719385 
Q 534.537564 317.719385 434.187426 317.719385 
" style="fill: none; stroke-dasharray: 5.4,4.05; stroke-dashoffset: 0; stroke: #1f2937; stroke-width: 1.35; stroke-linecap: round"/>
    <path d="M 438.187426 319.719385 
L 434.187426 317.719385 
L 438.187426 315.719385 
" style="fill: none; stroke-dasharray: 5.4,4.05; stroke-dashoffset: 0; stroke: #1f2937; stroke-width: 1.35; stroke-linecap: round"/>
   </g>
   <g id="text_21">
    <!-- xml_candidato -->
    <g transform="translate(501.668244 309.150584) scale(0.09 -0.09)">
     <defs>
      <path id="DejaVuSans-6c" d="M 603 4863 
L 1178 4863 
L 1178 0 
L 603 0 
L 603 4863 
z
" transform="scale(0.015625)"/>
      <path id="DejaVuSans-69" d="M 603 3500 
L 1178 3500 
L 1178 0 
L 603 0 
L 603 3500 
z
M 603 4863 
L 1178 4863 
L 1178 4134 
L 603 4134 
L 603 4863 
z
" transform="scale(0.015625)"/>
     </defs>
     <use xlink:href="#DejaVuSans-78"/>
     <use xlink:href="#DejaVuSans-6d" transform="translate(59.179688 0)"/>
     <use xlink:href="#DejaVuSans-6c" transform="translate(156.591797 0)"/>
     <use xlink:href="#DejaVuSans-5f" transform="translate(184.375 0)"/>
     <use xlink:href="#DejaVuSans-63" transform="translate(234.375 0)"/>
     <use xlink:href="#DejaVuSans-61" transform="translate(289.355469 0)"/>
     <use xlink:href="#DejaVuSans-6e" transform="translate(350.634766 0)"/>
     <use xlink:href="#DejaVuSans-64" transform="translate(414.013672 0)"/>
     <use xlink:href="#DejaVuSans-69" transform="translate(477.490234 0)"/>
     <use xlink:href="#DejaVuSans-64" transform="translate(505.273438 0)"/>
     <use xlink:href="#DejaVuSans-61" transform="translate(568.75 0)"/>
     <use xlink:href="#DejaVuSans-74" transform="translate(630.029297 0)"/>
     <use xlink:href="#DejaVuSans-6f" transform="translate(669.238281 0)"/>
    </g>
   </g>
   <g id="patch_27">
    <path d="M 432.674624 342.969231 
Q 589.466659 342.969231 744.749349 342.969231 
" style="fill: none; stroke: #1f2937; stroke-width: 1.35; stroke-linecap: round"/>
    <path d="M 740.749349 340.969231 
L 744.749349 342.969231 
L 740.749349 344.969231 
" style="fill: none; stroke: #1f2937; stroke-width: 1.35; stroke-linecap: round"/>
   </g>
   <g id="text_22">
    <!-- check_valid(xml, DTD) -->
    <g transform="translate(538.918497 334.40043) scale(0.09 -0.09)">
     <defs>
      <path id="DejaVuSans-68" d="M 3513 2113 
L 3513 0 
L 2938 0 
L 2938 2094 
Q 2938 2591 2744 2837 
Q 2550 3084 2163 3084 
Q 1697 3084 1428 2787 
Q 1159 2491 1159 1978 
L 1159 0 
L 581 0 
L 581 4863 
L 1159 4863 
L 1159 2956 
Q 1366 3272 1645 3428 
Q 1925 3584 2291 3584 
Q 2894 3584 3203 3211 
Q 3513 2838 3513 2113 
z
" transform="scale(0.015625)"/>
      <path id="DejaVuSans-6b" d="M 581 4863 
L 1159 4863 
L 1159 1991 
L 2875 3500 
L 3609 3500 
L 1753 1863 
L 3688 0 
L 2938 0 
L 1159 1709 
L 1159 0 
L 581 0 
L 581 4863 
z
" transform="scale(0.015625)"/>
      <path id="DejaVuSans-76" d="M 191 3500 
L 800 3500 
L 1894 563 
L 2988 3500 
L 3597 3500 
L 2284 0 
L 1503 0 
L 191 3500 
z
" transform="scale(0.015625)"/>
      <path id="DejaVuSans-44" d="M 1259 4147 
L 1259 519 
L 2022 519 
Q 2988 519 3436 956 
Q 3884 1394 3884 2338 
Q 3884 3275 3436 3711 
Q 2988 4147 2022 4147 
L 1259 4147 
z
M 628 4666 
L 1925 4666 
Q 3281 4666 3915 4102 
Q 4550 3538 4550 2338 
Q 4550 1131 3912 565 
Q 3275 0 1925 0 
L 628 0 
L 628 4666 
z
" transform="scale(0.015625)"/>
      <path id="DejaVuSans-54" d="M -19 4666 
L 3928 4666 
L 3928 4134 
L 2272 4134 
L 2272 0 
L 1638 0 
L 1638 4134 
L -19 4134 
L -19 4666 
z
" transform="scale(0.015625)"/>
     </defs>
     <use xlink:href="#DejaVuSans-63"/>
     <use xlink:href="#DejaVuSans-68" transform="translate(54.980469 0)"/>
     <use xlink:href="#DejaVuSans-65" transform="translate(118.359375 0)"/>
     <use xlink:href="#DejaVuSans-63" transform="translate(179.882812 0)"/>
     <use xlink:href="#DejaVuSans-6b" transform="translate(234.863281 0)"/>
     <use xlink:href="#DejaVuSans-5f" transform="translate(292.773438 0)"/>
     <use xlink:href="#DejaVuSans-76" transform="translate(342.773438 0)"/>
     <use xlink:href="#DejaVuSans-61" transform="translate(401.953125 0)"/>
     <use xlink:href="#DejaVuSans-6c" transform="translate(463.232422 0)"/>
     <use xlink:href="#DejaVuSans-69" transform="translate(491.015625 0)"/>
     <use xlink:href="#DejaVuSans-64" transform="translate(518.798828 0)"/>
     <use xlink:href="#DejaVuSans-28" transform="translate(582.275391 0)"/>
     <use xlink:href="#DejaVuSans-78" transform="translate(621.289062 0)"/>
     <use xlink:href="#DejaVuSans-6d" transform="translate(680.46875 0)"/>
     <use xlink:href="#DejaVuSans-6c" transform="translate(777.880859 0)"/>
     <use xlink:href="#DejaVuSans-2c" transform="translate(805.664062 0)"/>
     <use xlink:href="#DejaVuSans-20" transform="translate(837.451172 0)"/>
     <use xlink:href="#DejaVuSans-44" transform="translate(869.238281 0)"/>
     <use xlink:href="#DejaVuSans-54" transform="translate(946.240234 0)"/>
     <use xlink:href="#DejaVuSans-44" transform="translate(1007.324219 0)"/>
     <use xlink:href="#DejaVuSans-29" transform="translate(1084.326172 0)"/>
    </g>
   </g>
   <g id="patch_28">
    <path d="M 746.263307 360.697846 
Q 589.471272 360.697846 434.188582 360.697846 
" style="fill: none; stroke-dasharray: 5.4,4.05; stroke-dashoffset: 0; stroke: #1f2937; stroke-width: 1.35; stroke-linecap: round"/>
    <path d="M 438.188582 362.697846 
L 434.188582 360.697846 
L 438.188582 358.697846 
" style="fill: none; stroke-dasharray: 5.4,4.05; stroke-dashoffset: 0; stroke: #1f2937; stroke-width: 1.35; stroke-linecap: round"/>
   </g>
   <g id="text_23">
    <!-- resultado -->
    <g transform="translate(568.373106 352.379358) scale(0.09 -0.09)">
     <defs>
      <path id="DejaVuSans-75" d="M 544 1381 
L 544 3500 
L 1119 3500 
L 1119 1403 
Q 1119 906 1312 657 
Q 1506 409 1894 409 
Q 2359 409 2629 706 
Q 2900 1003 2900 1516 
L 2900 3500 
L 3475 3500 
L 3475 0 
L 2900 0 
L 2900 538 
Q 2691 219 2414 64 
Q 2138 -91 1772 -91 
Q 1169 -91 856 284 
Q 544 659 544 1381 
z
M 1991 3584 
L 1991 3584 
z
" transform="scale(0.015625)"/>
     </defs>
     <use xlink:href="#DejaVuSans-72"/>
     <use xlink:href="#DejaVuSans-65" transform="translate(38.863281 0)"/>
     <use xlink:href="#DejaVuSans-73" transform="translate(100.386719 0)"/>
     <use xlink:href="#DejaVuSans-75" transform="translate(152.486328 0)"/>
     <use xlink:href="#DejaVuSans-6c" transform="translate(215.865234 0)"/>
     <use xlink:href="#DejaVuSans-74" transform="translate(243.648438 0)"/>
     <use xlink:href="#DejaVuSans-61" transform="translate(282.857422 0)"/>
     <use xlink:href="#DejaVuSans-64" transform="translate(344.136719 0)"/>
     <use xlink:href="#DejaVuSans-6f" transform="translate(407.613281 0)"/>
    </g>
   </g>
   <g id="text_24">
    <!-- alt XML inválido -->
    <g transform="translate(382.928276 394.340668) scale(0.09 -0.09)">
     <use xlink:href="#DejaVuSans-Bold-61"/>
     <use xlink:href="#DejaVuSans-Bold-6c" transform="translate(67.480469 0)"/>
     <use xlink:href="#DejaVuSans-Bold-74" transform="translate(101.757812 0)"/>
     <use xlink:href="#DejaVuSans-Bold-20" transform="translate(149.560547 0)"/>
     <use xlink:href="#DejaVuSans-Bold-58" transform="translate(184.375 0)"/>
     <use xlink:href="#DejaVuSans-Bold-4d" transform="translate(261.474609 0)"/>
     <use xlink:href="#DejaVuSans-Bold-4c" transform="translate(360.986328 0)"/>
     <use xlink:href="#DejaVuSans-Bold-20" transform="translate(424.707031 0)"/>
     <use xlink:href="#DejaVuSans-Bold-69" transform="translate(459.521484 0)"/>
     <use xlink:href="#DejaVuSans-Bold-6e" transform="translate(493.798828 0)"/>
     <use xlink:href="#DejaVuSans-Bold-76" transform="translate(564.990234 0)"/>
     <use xlink:href="#DejaVuSans-Bold-e1" transform="translate(630.175781 0)"/>
     <use xlink:href="#DejaVuSans-Bold-6c" transform="translate(697.65625 0)"/>
     <use xlink:href="#DejaVuSans-Bold-69" transform="translate(731.933594 0)"/>
     <use xlink:href="#DejaVuSans-Bold-64" transform="translate(766.210938 0)"/>
     <use xlink:href="#DejaVuSans-Bold-6f" transform="translate(837.792969 0)"/>
    </g>
   </g>
   <g id="patch_29">
    <path d="M 432.678815 400.452923 
Q 644.400456 400.452923 854.612751 400.452923 
" style="fill: none; stroke: #1f2937; stroke-width: 1.35; stroke-linecap: round"/>
    <path d="M 850.612751 398.452923 
L 854.612751 400.452923 
L 850.612751 402.452923 
" style="fill: none; stroke: #1f2937; stroke-width: 1.35; stroke-linecap: round"/>
   </g>
   <g id="text_25">
    <!-- fix_xml(xml, error, DTD) -->
    <g transform="translate(590.255859 391.884123) scale(0.09 -0.09)">
     <use xlink:href="#DejaVuSans-66"/>
     <use xlink:href="#DejaVuSans-69" transform="translate(35.205078 0)"/>
     <use xlink:href="#DejaVuSans-78" transform="translate(62.988281 0)"/>
     <use xlink:href="#DejaVuSans-5f" transform="translate(122.167969 0)"/>
     <use xlink:href="#DejaVuSans-78" transform="translate(172.167969 0)"/>
     <use xlink:href="#DejaVuSans-6d" transform="translate(231.347656 0)"/>
     <use xlink:href="#DejaVuSans-6c" transform="translate(328.759766 0)"/>
     <use xlink:href="#DejaVuSans-28" transform="translate(356.542969 0)"/>
     <use xlink:href="#DejaVuSans-78" transform="translate(395.556641 0)"/>
     <use xlink:href="#DejaVuSans-6d" transform="translate(454.736328 0)"/>
     <use xlink:href="#DejaVuSans-6c" transform="translate(552.148438 0)"/>
     <use xlink:href="#DejaVuSans-2c" transform="translate(579.931641 0)"/>
     <use xlink:href="#DejaVuSans-20" transform="translate(611.71875 0)"/>
     <use xlink:href="#DejaVuSans-65" transform="translate(643.505859 0)"/>
     <use xlink:href="#DejaVuSans-72" transform="translate(705.029297 0)"/>
     <use xlink:href="#DejaVuSans-72" transform="translate(744.392578 0)"/>
     <use xlink:href="#DejaVuSans-6f" transform="translate(783.255859 0)"/>
     <use xlink:href="#DejaVuSans-72" transform="translate(844.4375 0)"/>
     <use xlink:href="#DejaVuSans-2c" transform="translate(885.550781 0)"/>
     <use xlink:href="#DejaVuSans-20" transform="translate(917.337891 0)"/>
     <use xlink:href="#DejaVuSans-44" transform="translate(949.125 0)"/>
     <use xlink:href="#DejaVuSans-54" transform="translate(1026.126953 0)"/>
     <use xlink:href="#DejaVuSans-44" transform="translate(1087.210938 0)"/>
     <use xlink:href="#DejaVuSans-29" transform="translate(1164.212891 0)"/>
    </g>
   </g>
   <g id="patch_30">
    <path d="M 856.121185 416.569846 
Q 754.261702 416.569846 653.911564 416.569846 
" style="fill: none; stroke: #1f2937; stroke-width: 1.35; stroke-linecap: round"/>
    <path d="M 657.911564 418.569846 
L 653.911564 416.569846 
L 657.911564 414.569846 
" style="fill: none; stroke: #1f2937; stroke-width: 1.35; stroke-linecap: round"/>
   </g>
   <g id="text_26">
    <!-- generate_content() -->
    <g transform="translate(710.884881 408.001046) scale(0.09 -0.09)">
     <use xlink:href="#DejaVuSans-67"/>
     <use xlink:href="#DejaVuSans-65" transform="translate(63.476562 0)"/>
     <use xlink:href="#DejaVuSans-6e" transform="translate(125 0)"/>
     <use xlink:href="#DejaVuSans-65" transform="translate(188.378906 0)"/>
     <use xlink:href="#DejaVuSans-72" transform="translate(249.902344 0)"/>
     <use xlink:href="#DejaVuSans-61" transform="translate(291.015625 0)"/>
     <use xlink:href="#DejaVuSans-74" transform="translate(352.294922 0)"/>
     <use xlink:href="#DejaVuSans-65" transform="translate(391.503906 0)"/>
     <use xlink:href="#DejaVuSans-5f" transform="translate(453.027344 0)"/>
     <use xlink:href="#DejaVuSans-63" transform="translate(503.027344 0)"/>
     <use xlink:href="#DejaVuSans-6f" transform="translate(558.007812 0)"/>
     <use xlink:href="#DejaVuSans-6e" transform="translate(619.189453 0)"/>
     <use xlink:href="#DejaVuSans-74" transform="translate(682.568359 0)"/>
     <use xlink:href="#DejaVuSans-65" transform="translate(721.777344 0)"/>
     <use xlink:href="#DejaVuSans-6e" transform="translate(783.300781 0)"/>
     <use xlink:href="#DejaVuSans-74" transform="translate(846.679688 0)"/>
     <use xlink:href="#DejaVuSans-28" transform="translate(885.888672 0)"/>
     <use xlink:href="#DejaVuSans-29" transform="translate(924.902344 0)"/>
    </g>
   </g>
   <g id="patch_31">
    <path d="M 652.402953 430.537846 
Q 754.262436 430.537846 854.612574 430.537846 
" style="fill: none; stroke-dasharray: 5.4,4.05; stroke-dashoffset: 0; stroke: #1f2937; stroke-width: 1.35; stroke-linecap: round"/>
    <path d="M 850.612574 428.537846 
L 854.612574 430.537846 
L 850.612574 432.537846 
" style="fill: none; stroke-dasharray: 5.4,4.05; stroke-dashoffset: 0; stroke: #1f2937; stroke-width: 1.35; stroke-linecap: round"/>
   </g>
   <g id="text_27">
    <!-- xml_corregido -->
    <g transform="translate(722.481522 421.969046) scale(0.09 -0.09)">
     <use xlink:href="#DejaVuSans-78"/>
     <use xlink:href="#DejaVuSans-6d" transform="translate(59.179688 0)"/>
     <use xlink:href="#DejaVuSans-6c" transform="translate(156.591797 0)"/>
     <use xlink:href="#DejaVuSans-5f" transform="translate(184.375 0)"/>
     <use xlink:href="#DejaVuSans-63" transform="translate(234.375 0)"/>
     <use xlink:href="#DejaVuSans-6f" transform="translate(289.355469 0)"/>
     <use xlink:href="#DejaVuSans-72" transform="translate(350.537109 0)"/>
     <use xlink:href="#DejaVuSans-72" transform="translate(389.900391 0)"/>
     <use xlink:href="#DejaVuSans-65" transform="translate(428.763672 0)"/>
     <use xlink:href="#DejaVuSans-67" transform="translate(490.287109 0)"/>
     <use xlink:href="#DejaVuSans-69" transform="translate(553.763672 0)"/>
     <use xlink:href="#DejaVuSans-64" transform="translate(581.546875 0)"/>
     <use xlink:href="#DejaVuSans-6f" transform="translate(645.023438 0)"/>
    </g>
   </g>
   <g id="patch_32">
    <path d="M 416.672909 466.532308 
Q 314.813426 466.532308 214.463288 466.532308 
" style="fill: none; stroke-dasharray: 5.4,4.05; stroke-dashoffset: 0; stroke: #1f2937; stroke-width: 1.35; stroke-linecap: round"/>
    <path d="M 218.463288 468.532308 
L 214.463288 466.532308 
L 218.463288 464.532308 
" style="fill: none; stroke-dasharray: 5.4,4.05; stroke-dashoffset: 0; stroke: #1f2937; stroke-width: 1.35; stroke-linecap: round"/>
   </g>
   <g id="text_28">
    <!-- XML generado -->
    <g transform="translate(282.44684 458.21382) scale(0.09 -0.09)">
     <defs>
      <path id="DejaVuSans-58" d="M 403 4666 
L 1081 4666 
L 2241 2931 
L 3406 4666 
L 4084 4666 
L 2584 2425 
L 4184 0 
L 3506 0 
L 2194 1984 
L 872 0 
L 191 0 
L 1856 2491 
L 403 4666 
z
" transform="scale(0.015625)"/>
      <path id="DejaVuSans-4d" d="M 628 4666 
L 1569 4666 
L 2759 1491 
L 3956 4666 
L 4897 4666 
L 4897 0 
L 4281 0 
L 4281 4097 
L 3078 897 
L 2444 897 
L 1241 4097 
L 1241 0 
L 628 0 
L 628 4666 
z
" transform="scale(0.015625)"/>
      <path id="DejaVuSans-4c" d="M 628 4666 
L 1259 4666 
L 1259 531 
L 3531 531 
L 3531 0 
L 628 0 
L 628 4666 
z
" transform="scale(0.015625)"/>
     </defs>
     <use xlink:href="#DejaVuSans-58"/>
     <use xlink:href="#DejaVuSans-4d" transform="translate(68.505859 0)"/>
     <use xlink:href="#DejaVuSans-4c" transform="translate(154.785156 0)"/>
     <use xlink:href="#DejaVuSans-20" transform="translate(210.498047 0)"/>
     <use xlink:href="#DejaVuSans-67" transform="translate(242.285156 0)"/>
     <use xlink:href="#DejaVuSans-65" transform="translate(305.761719 0)"/>
     <use xlink:href="#DejaVuSans-6e" transform="translate(367.285156 0)"/>
     <use xlink:href="#DejaVuSans-65" transform="translate(430.664062 0)"/>
     <use xlink:href="#DejaVuSans-72" transform="translate(492.1875 0)"/>
     <use xlink:href="#DejaVuSans-61" transform="translate(533.300781 0)"/>
     <use xlink:href="#DejaVuSans-64" transform="translate(594.580078 0)"/>
     <use xlink:href="#DejaVuSans-6f" transform="translate(658.056641 0)"/>
    </g>
   </g>
   <g id="patch_33">
    <path d="M 212.951743 496.08 
Q 589.469933 496.08 964.478776 496.08 
" style="fill: none; stroke: #1f2937; stroke-width: 1.35; stroke-linecap: round"/>
    <path d="M 960.478776 494.08 
L 964.478776 496.08 
L 960.478776 498.08 
" style="fill: none; stroke: #1f2937; stroke-width: 1.35; stroke-linecap: round"/>
   </g>
   <g id="text_29">
    <!-- save_with_counter(XML) -->
    <g transform="translate(534.590059 487.5112) scale(0.09 -0.09)">
     <defs>
      <path id="DejaVuSans-77" d="M 269 3500 
L 844 3500 
L 1563 769 
L 2278 3500 
L 2956 3500 
L 3675 769 
L 4391 3500 
L 4966 3500 
L 4050 0 
L 3372 0 
L 2619 2869 
L 1863 0 
L 1184 0 
L 269 3500 
z
" transform="scale(0.015625)"/>
     </defs>
     <use xlink:href="#DejaVuSans-73"/>
     <use xlink:href="#DejaVuSans-61" transform="translate(52.099609 0)"/>
     <use xlink:href="#DejaVuSans-76" transform="translate(113.378906 0)"/>
     <use xlink:href="#DejaVuSans-65" transform="translate(172.558594 0)"/>
     <use xlink:href="#DejaVuSans-5f" transform="translate(234.082031 0)"/>
     <use xlink:href="#DejaVuSans-77" transform="translate(284.082031 0)"/>
     <use xlink:href="#DejaVuSans-69" transform="translate(365.869141 0)"/>
     <use xlink:href="#DejaVuSans-74" transform="translate(393.652344 0)"/>
     <use xlink:href="#DejaVuSans-68" transform="translate(432.861328 0)"/>
     <use xlink:href="#DejaVuSans-5f" transform="translate(496.240234 0)"/>
     <use xlink:href="#DejaVuSans-63" transform="translate(546.240234 0)"/>
     <use xlink:href="#DejaVuSans-6f" transform="translate(601.220703 0)"/>
     <use xlink:href="#DejaVuSans-75" transform="translate(662.402344 0)"/>
     <use xlink:href="#DejaVuSans-6e" transform="translate(725.78125 0)"/>
     <use xlink:href="#DejaVuSans-74" transform="translate(789.160156 0)"/>
     <use xlink:href="#DejaVuSans-65" transform="translate(828.369141 0)"/>
     <use xlink:href="#DejaVuSans-72" transform="translate(889.892578 0)"/>
     <use xlink:href="#DejaVuSans-28" transform="translate(931.005859 0)"/>
     <use xlink:href="#DejaVuSans-58" transform="translate(970.019531 0)"/>
     <use xlink:href="#DejaVuSans-4d" transform="translate(1038.525391 0)"/>
     <use xlink:href="#DejaVuSans-4c" transform="translate(1124.804688 0)"/>
     <use xlink:href="#DejaVuSans-29" transform="translate(1180.517578 0)"/>
    </g>
   </g>
   <g id="patch_34">
    <path d="M 965.986188 513.808615 
Q 589.467998 513.808615 214.459155 513.808615 
" style="fill: none; stroke-dasharray: 5.4,4.05; stroke-dashoffset: 0; stroke: #1f2937; stroke-width: 1.35; stroke-linecap: round"/>
    <path d="M 218.459155 515.808615 
L 214.459155 513.808615 
L 218.459155 511.808615 
" style="fill: none; stroke-dasharray: 5.4,4.05; stroke-dashoffset: 0; stroke: #1f2937; stroke-width: 1.35; stroke-linecap: round"/>
   </g>
   <g id="text_30">
    <!-- ruta_xml -->
    <g transform="translate(569.698497 505.239815) scale(0.09 -0.09)">
     <use xlink:href="#DejaVuSans-72"/>
     <use xlink:href="#DejaVuSans-75" transform="translate(41.113281 0)"/>
     <use xlink:href="#DejaVuSans-74" transform="translate(104.492188 0)"/>
     <use xlink:href="#DejaVuSans-61" transform="translate(143.701172 0)"/>
     <use xlink:href="#DejaVuSans-5f" transform="translate(204.980469 0)"/>
     <use xlink:href="#DejaVuSans-78" transform="translate(254.980469 0)"/>
     <use xlink:href="#DejaVuSans-6d" transform="translate(314.160156 0)"/>
     <use xlink:href="#DejaVuSans-6c" transform="translate(411.572266 0)"/>
    </g>
   </g>
   <g id="patch_35">
    <path d="M 212.954677 544.430769 
Q 644.399892 544.430769 1074.335761 544.430769 
" style="fill: none; stroke: #1f2937; stroke-width: 1.35; stroke-linecap: round"/>
    <path d="M 1070.335761 542.430769 
L 1074.335761 544.430769 
L 1070.335761 546.430769 
" style="fill: none; stroke: #1f2937; stroke-width: 1.35; stroke-linecap: round"/>
   </g>
   <g id="text_31">
    <!-- parse_and_generate() -->
    <g transform="translate(594.957656 535.861969) scale(0.09 -0.09)">
     <use xlink:href="#DejaVuSans-70"/>
     <use xlink:href="#DejaVuSans-61" transform="translate(63.476562 0)"/>
     <use xlink:href="#DejaVuSans-72" transform="translate(124.755859 0)"/>
     <use xlink:href="#DejaVuSans-73" transform="translate(165.869141 0)"/>
     <use xlink:href="#DejaVuSans-65" transform="translate(217.96875 0)"/>
     <use xlink:href="#DejaVuSans-5f" transform="translate(279.492188 0)"/>
     <use xlink:href="#DejaVuSans-61" transform="translate(329.492188 0)"/>
     <use xlink:href="#DejaVuSans-6e" transform="translate(390.771484 0)"/>
     <use xlink:href="#DejaVuSans-64" transform="translate(454.150391 0)"/>
     <use xlink:href="#DejaVuSans-5f" transform="translate(517.626953 0)"/>
     <use xlink:href="#DejaVuSans-67" transform="translate(567.626953 0)"/>
     <use xlink:href="#DejaVuSans-65" transform="translate(631.103516 0)"/>
     <use xlink:href="#DejaVuSans-6e" transform="translate(692.626953 0)"/>
     <use xlink:href="#DejaVuSans-65" transform="translate(756.005859 0)"/>
     <use xlink:href="#DejaVuSans-72" transform="translate(817.529297 0)"/>
     <use xlink:href="#DejaVuSans-61" transform="translate(858.642578 0)"/>
     <use xlink:href="#DejaVuSans-74" transform="translate(919.921875 0)"/>
     <use xlink:href="#DejaVuSans-65" transform="translate(959.130859 0)"/>
     <use xlink:href="#DejaVuSans-28" transform="translate(1020.654297 0)"/>
     <use xlink:href="#DejaVuSans-29" transform="translate(1059.667969 0)"/>
    </g>
   </g>
   <g id="patch_36">
    <path d="M 212.954677 562.159385 
Q 644.399892 562.159385 1074.335761 562.159385 
" style="fill: none; stroke: #1f2937; stroke-width: 1.35; stroke-linecap: round"/>
    <path d="M 1070.335761 560.159385 
L 1074.335761 562.159385 
L 1070.335761 564.159385 
" style="fill: none; stroke: #1f2937; stroke-width: 1.35; stroke-linecap: round"/>
   </g>
   <g id="text_32">
    <!-- save_tex() -->
    <g transform="translate(620.986641 553.590584) scale(0.09 -0.09)">
     <use xlink:href="#DejaVuSans-73"/>
     <use xlink:href="#DejaVuSans-61" transform="translate(52.099609 0)"/>
     <use xlink:href="#DejaVuSans-76" transform="translate(113.378906 0)"/>
     <use xlink:href="#DejaVuSans-65" transform="translate(172.558594 0)"/>
     <use xlink:href="#DejaVuSans-5f" transform="translate(234.082031 0)"/>
     <use xlink:href="#DejaVuSans-74" transform="translate(284.082031 0)"/>
     <use xlink:href="#DejaVuSans-65" transform="translate(323.291016 0)"/>
     <use xlink:href="#DejaVuSans-78" transform="translate(383.064453 0)"/>
     <use xlink:href="#DejaVuSans-28" transform="translate(442.244141 0)"/>
     <use xlink:href="#DejaVuSans-29" transform="translate(481.257812 0)"/>
    </g>
   </g>
   <g id="patch_37">
    <path d="M 212.951743 598.153846 
Q 699.329727 598.153846 1184.198364 598.153846 
" style="fill: none; stroke: #1f2937; stroke-width: 1.35; stroke-linecap: round"/>
    <path d="M 1180.198364 596.153846 
L 1184.198364 598.153846 
L 1180.198364 600.153846 
" style="fill: none; stroke: #1f2937; stroke-width: 1.35; stroke-linecap: round"/>
   </g>
   <g id="text_33">
    <!-- compile_to_pdf(.tex) -->
    <g transform="translate(653.219394 589.585046) scale(0.09 -0.09)">
     <defs>
      <path id="DejaVuSans-2e" d="M 684 794 
L 1344 794 
L 1344 0 
L 684 0 
L 684 794 
z
" transform="scale(0.015625)"/>
     </defs>
     <use xlink:href="#DejaVuSans-63"/>
     <use xlink:href="#DejaVuSans-6f" transform="translate(54.980469 0)"/>
     <use xlink:href="#DejaVuSans-6d" transform="translate(116.162109 0)"/>
     <use xlink:href="#DejaVuSans-70" transform="translate(213.574219 0)"/>
     <use xlink:href="#DejaVuSans-69" transform="translate(277.050781 0)"/>
     <use xlink:href="#DejaVuSans-6c" transform="translate(304.833984 0)"/>
     <use xlink:href="#DejaVuSans-65" transform="translate(332.617188 0)"/>
     <use xlink:href="#DejaVuSans-5f" transform="translate(394.140625 0)"/>
     <use xlink:href="#DejaVuSans-74" transform="translate(444.140625 0)"/>
     <use xlink:href="#DejaVuSans-6f" transform="translate(483.349609 0)"/>
     <use xlink:href="#DejaVuSans-5f" transform="translate(544.53125 0)"/>
     <use xlink:href="#DejaVuSans-70" transform="translate(594.53125 0)"/>
     <use xlink:href="#DejaVuSans-64" transform="translate(658.007812 0)"/>
     <use xlink:href="#DejaVuSans-66" transform="translate(721.484375 0)"/>
     <use xlink:href="#DejaVuSans-28" transform="translate(756.689453 0)"/>
     <use xlink:href="#DejaVuSans-2e" transform="translate(795.703125 0)"/>
     <use xlink:href="#DejaVuSans-74" transform="translate(827.490234 0)"/>
     <use xlink:href="#DejaVuSans-65" transform="translate(866.699219 0)"/>
     <use xlink:href="#DejaVuSans-78" transform="translate(926.472656 0)"/>
     <use xlink:href="#DejaVuSans-29" transform="translate(985.652344 0)"/>
    </g>
   </g>
   <g id="patch_38">
    <path d="M 1185.710326 615.882462 
Q 699.332342 615.882462 214.463705 615.882462 
" style="fill: none; stroke-dasharray: 5.4,4.05; stroke-dashoffset: 0; stroke: #1f2937; stroke-width: 1.35; stroke-linecap: round"/>
    <path d="M 218.463705 617.882462 
L 214.463705 615.882462 
L 218.463705 613.882462 
" style="fill: none; stroke-dasharray: 5.4,4.05; stroke-dashoffset: 0; stroke: #1f2937; stroke-width: 1.35; stroke-linecap: round"/>
   </g>
   <g id="text_34">
    <!-- PDF generado / error -->
    <g transform="translate(652.401659 607.563974) scale(0.09 -0.09)">
     <defs>
      <path id="DejaVuSans-50" d="M 1259 4147 
L 1259 2394 
L 2053 2394 
Q 2494 2394 2734 2622 
Q 2975 2850 2975 3272 
Q 2975 3691 2734 3919 
Q 2494 4147 2053 4147 
L 1259 4147 
z
M 628 4666 
L 2053 4666 
Q 2838 4666 3239 4311 
Q 3641 3956 3641 3272 
Q 3641 2581 3239 2228 
Q 2838 1875 2053 1875 
L 1259 1875 
L 1259 0 
L 628 0 
L 628 4666 
z
" transform="scale(0.015625)"/>
      <path id="DejaVuSans-46" d="M 628 4666 
L 3309 4666 
L 3309 4134 
L 1259 4134 
L 1259 2759 
L 3109 2759 
L 3109 2228 
L 1259 2228 
L 1259 0 
L 628 0 
L 628 4666 
z
" transform="scale(0.015625)"/>
      <path id="DejaVuSans-2f" d="M 1625 4666 
L 2156 4666 
L 531 -594 
L 0 -594 
L 1625 4666 
z
" transform="scale(0.015625)"/>
     </defs>
     <use xlink:href="#DejaVuSans-50"/>
     <use xlink:href="#DejaVuSans-44" transform="translate(60.302734 0)"/>
     <use xlink:href="#DejaVuSans-46" transform="translate(137.304688 0)"/>
     <use xlink:href="#DejaVuSans-20" transform="translate(194.824219 0)"/>
     <use xlink:href="#DejaVuSans-67" transform="translate(226.611328 0)"/>
     <use xlink:href="#DejaVuSans-65" transform="translate(290.087891 0)"/>
     <use xlink:href="#DejaVuSans-6e" transform="translate(351.611328 0)"/>
     <use xlink:href="#DejaVuSans-65" transform="translate(414.990234 0)"/>
     <use xlink:href="#DejaVuSans-72" transform="translate(476.513672 0)"/>
     <use xlink:href="#DejaVuSans-61" transform="translate(517.626953 0)"/>
     <use xlink:href="#DejaVuSans-64" transform="translate(578.90625 0)"/>
     <use xlink:href="#DejaVuSans-6f" transform="translate(642.382812 0)"/>
     <use xlink:href="#DejaVuSans-20" transform="translate(703.564453 0)"/>
     <use xlink:href="#DejaVuSans-2f" transform="translate(735.351562 0)"/>
     <use xlink:href="#DejaVuSans-20" transform="translate(769.042969 0)"/>
     <use xlink:href="#DejaVuSans-65" transform="translate(800.830078 0)"/>
     <use xlink:href="#DejaVuSans-72" transform="translate(862.353516 0)"/>
     <use xlink:href="#DejaVuSans-72" transform="translate(901.716797 0)"/>
     <use xlink:href="#DejaVuSans-6f" transform="translate(940.580078 0)"/>
     <use xlink:href="#DejaVuSans-72" transform="translate(1001.761719 0)"/>
    </g>
   </g>
   <g id="patch_39">
    <path d="M 196.948771 649.190769 
Q 150.01829 649.190769 104.597155 649.190769 
" style="fill: none; stroke-dasharray: 5.4,4.05; stroke-dashoffset: 0; stroke: #1f2937; stroke-width: 1.35; stroke-linecap: round"/>
    <path d="M 108.597155 651.190769 
L 104.597155 649.190769 
L 108.597155 647.190769 
" style="fill: none; stroke-dasharray: 5.4,4.05; stroke-dashoffset: 0; stroke: #1f2937; stroke-width: 1.35; stroke-linecap: round"/>
   </g>
   <g id="text_35">
    <!-- ruta_xml -->
    <g transform="translate(130.250221 640.621969) scale(0.09 -0.09)">
     <use xlink:href="#DejaVuSans-72"/>
     <use xlink:href="#DejaVuSans-75" transform="translate(41.113281 0)"/>
     <use xlink:href="#DejaVuSans-74" transform="translate(104.492188 0)"/>
     <use xlink:href="#DejaVuSans-61" transform="translate(143.701172 0)"/>
     <use xlink:href="#DejaVuSans-5f" transform="translate(204.980469 0)"/>
     <use xlink:href="#DejaVuSans-78" transform="translate(254.980469 0)"/>
     <use xlink:href="#DejaVuSans-6d" transform="translate(314.160156 0)"/>
     <use xlink:href="#DejaVuSans-6c" transform="translate(411.572266 0)"/>
    </g>
   </g>
  </g>
 </g>
 <defs>
  <clipPath id="pa2fe6708b2">
   <rect x="7.2" y="7.2" width="1274.4" height="698.4"/>
  </clipPath>
 </defs>
</svg>
