<?xml version="1.0" encoding="utf-8" standalone="no"?>
<!DOCTYPE svg PUBLIC "-//W3C//DTD SVG 1.1//EN"
  "http://www.w3.org/Graphics/SVG/1.1/DTD/svg11.dtd">
<svg xmlns:xlink="http://www.w3.org/1999/xlink" width="1072.8pt" height="676.8pt" viewBox="0 0 1072.8 676.8" xmlns="http://www.w3.org/2000/svg" version="1.1">
 <metadata>
  <rdf:RDF xmlns:dc="http://purl.org/dc/elements/1.1/" xmlns:cc="http://creativecommons.org/ns#" xmlns:rdf="http://www.w3.org/1999/02/22-rdf-syntax-ns#">
   <cc:Work>
    <dc:type rdf:resource="http://purl.org/dc/dcmitype/StillImage"/>
    <dc:date>2026-06-15T14:17:53.528261</dc:date>
    <dc:format>image/svg+xml</dc:format>
    <dc:creator>
     <cc:Agent>
      <dc:title>Matplotlib v3.10.8, https://matplotlib.org/</dc:title>
     </cc:Agent>
    </dc:creator>
   </cc:Work>
  </rdf:RDF>
 </metadata>
 <defs>
  <style type="text/css">*{stroke-linejoin: round; stroke-linecap: butt}</style>
 </defs>
 <g id="figure_1">
  <g id="patch_1">
   <path d="M 0 676.8 
L 1072.8 676.8 
L 1072.8 0 
L 0 0 
z
" style="fill: #ffffff"/>
  </g>
  <g id="axes_1">
   <g id="patch_2">
    <path d="M 464.076 126.432 
L 608.724 126.432 
Q 612.9576 126.432 612.9576 122.248421 
L 612.9576 87.385263 
Q 612.9576 83.201684 608.724 83.201684 
L 464.076 83.201684 
Q 459.8424 83.201684 459.8424 87.385263 
L 459.8424 122.248421 
Q 459.8424 126.432 464.076 126.432 
z
" clip-path="url(#p444529d240)" style="fill: #f3f6fa; stroke: #2f3a4a; stroke-width: 1.25; stroke-linejoin: miter"/>
   </g>
   <g id="patch_3">
    <path d="M 474.66 189.185684 
L 598.14 189.185684 
Q 602.3736 189.185684 602.3736 185.002105 
L 602.3736 150.138947 
Q 602.3736 145.955368 598.14 145.955368 
L 474.66 145.955368 
Q 470.4264 145.955368 470.4264 150.138947 
L 470.4264 185.002105 
Q 470.4264 189.185684 474.66 189.185684 
z
" clip-path="url(#p444529d240)" style="fill: #f7f8fa; stroke: #2f3a4a; stroke-width: 1.25; stroke-linejoin: miter"/>
   </g>
   <g id="patch_4">
    <path d="M 88.344 262.398316 
L 208.296 262.398316 
Q 212.5296 262.398316 212.5296 258.214737 
L 212.5296 223.351579 
Q 212.5296 219.168 208.296 219.168 
L 88.344 219.168 
Q 84.1104 219.168 84.1104 223.351579 
L 84.1104 258.214737 
Q 84.1104 262.398316 88.344 262.398316 
z
" clip-path="url(#p444529d240)" style="fill: #f7f8fa; stroke: #2f3a4a; stroke-width: 1.25; stroke-linejoin: miter"/>
   </g>
   <g id="patch_5">
    <path d="M 271.8 262.398316 
L 377.64 262.398316 
Q 381.8736 262.398316 381.8736 258.214737 
L 381.8736 223.351579 
Q 381.8736 219.168 377.64 219.168 
L 271.8 219.168 
Q 267.5664 219.168 267.5664 223.351579 
L 267.5664 258.214737 
Q 267.5664 262.398316 271.8 262.398316 
z
" clip-path="url(#p444529d240)" style="fill: #f7f8fa; stroke: #2f3a4a; stroke-width: 1.25; stroke-linejoin: miter"/>
   </g>
   <g id="patch_6">
    <path d="M 451.728 262.398316 
L 550.512 262.398316 
Q 554.7456 262.398316 554.7456 258.214737 
L 554.7456 223.351579 
Q 554.7456 219.168 550.512 219.168 
L 451.728 219.168 
Q 447.4944 219.168 447.4944 223.351579 
L 447.4944 258.214737 
Q 447.4944 262.398316 451.728 262.398316 
z
" clip-path="url(#p444529d240)" style="fill: #f7f8fa; stroke: #2f3a4a; stroke-width: 1.25; stroke-linejoin: miter"/>
   </g>
   <g id="patch_7">
    <path d="M 666.936 262.398316 
L 843.336 262.398316 
Q 847.5696 262.398316 847.5696 258.214737 
L 847.5696 223.351579 
Q 847.5696 219.168 843.336 219.168 
L 666.936 219.168 
Q 662.7024 219.168 662.7024 223.351579 
L 662.7024 258.214737 
Q 662.7024 262.398316 666.936 262.398316 
z
" clip-path="url(#p444529d240)" style="fill: #f3f6fa; stroke: #2f3a4a; stroke-width: 1.25; stroke-linejoin: miter"/>
   </g>
   <g id="patch_8">
    <path d="M 338.832 353.042526 
L 494.064 353.042526 
Q 498.2976 353.042526 498.2976 348.858947 
L 498.2976 313.995789 
Q 498.2976 309.812211 494.064 309.812211 
L 338.832 309.812211 
Q 334.5984 309.812211 334.5984 313.995789 
L 334.5984 348.858947 
Q 334.5984 353.042526 338.832 353.042526 
z
" clip-path="url(#p444529d240)" style="fill: #f7f8fa; stroke: #2f3a4a; stroke-width: 1.25; stroke-linejoin: miter"/>
   </g>
   <g id="patch_9">
    <path d="M 628.128 353.042526 
L 797.472 353.042526 
Q 801.7056 353.042526 801.7056 348.858947 
L 801.7056 313.995789 
Q 801.7056 309.812211 797.472 309.812211 
L 628.128 309.812211 
Q 623.8944 309.812211 623.8944 313.995789 
L 623.8944 348.858947 
Q 623.8944 353.042526 628.128 353.042526 
z
" clip-path="url(#p444529d240)" style="fill: #f7f8fa; stroke: #2f3a4a; stroke-width: 1.25; stroke-linejoin: miter"/>
   </g>
   <g id="patch_10">
    <path d="M 839.808 353.042526 
L 1009.152 353.042526 
Q 1013.3856 353.042526 1013.3856 348.858947 
L 1013.3856 313.995789 
Q 1013.3856 309.812211 1009.152 309.812211 
L 839.808 309.812211 
Q 835.5744 309.812211 835.5744 313.995789 
L 835.5744 348.858947 
Q 835.5744 353.042526 839.808 353.042526 
z
" clip-path="url(#p444529d240)" style="fill: #f7f8fa; stroke: #2f3a4a; stroke-width: 1.25; stroke-linejoin: miter"/>
   </g>
   <g id="patch_11">
    <path d="M 268.272 443.686737 
L 388.224 443.686737 
Q 392.4576 443.686737 392.4576 439.503158 
L 392.4576 404.64 
Q 392.4576 400.456421 388.224 400.456421 
L 268.272 400.456421 
Q 264.0384 400.456421 264.0384 404.64 
L 264.0384 439.503158 
Q 264.0384 443.686737 268.272 443.686737 
z
" clip-path="url(#p444529d240)" style="fill: #f7f8fa; stroke: #2f3a4a; stroke-width: 1.25; stroke-linejoin: miter"/>
   </g>
   <g id="patch_12">
    <path d="M 444.672 443.686737 
L 564.624 443.686737 
Q 568.8576 443.686737 568.8576 439.503158 
L 568.8576 404.64 
Q 568.8576 400.456421 564.624 400.456421 
L 444.672 400.456421 
Q 440.4384 400.456421 440.4384 404.64 
L 440.4384 439.503158 
Q 440.4384 443.686737 444.672 443.686737 
z
" clip-path="url(#p444529d240)" style="fill: #f7f8fa; stroke: #2f3a4a; stroke-width: 1.25; stroke-linejoin: miter"/>
   </g>
   <g id="patch_13">
    <path d="M 633.42 443.686737 
L 735.732 443.686737 
Q 739.9656 443.686737 739.9656 439.503158 
L 739.9656 404.64 
Q 739.9656 400.456421 735.732 400.456421 
L 633.42 400.456421 
Q 629.1864 400.456421 629.1864 404.64 
L 629.1864 439.503158 
Q 629.1864 443.686737 633.42 443.686737 
z
" clip-path="url(#p444529d240)" style="fill: #f7f8fa; stroke: #2f3a4a; stroke-width: 1.25; stroke-linejoin: miter"/>
   </g>
   <g id="patch_14">
    <path d="M 546.984 530.844632 
L 645.768 530.844632 
Q 650.0016 530.844632 650.0016 526.661053 
L 650.0016 491.797895 
Q 650.0016 487.614316 645.768 487.614316 
L 546.984 487.614316 
Q 542.7504 487.614316 542.7504 491.797895 
L 542.7504 526.661053 
Q 542.7504 530.844632 546.984 530.844632 
z
" clip-path="url(#p444529d240)" style="fill: #f7f8fa; stroke: #2f3a4a; stroke-width: 1.25; stroke-linejoin: miter"/>
   </g>
   <g id="patch_15">
    <path d="M 723.384 530.844632 
L 822.168 530.844632 
Q 826.4016 530.844632 826.4016 526.661053 
L 826.4016 491.797895 
Q 826.4016 487.614316 822.168 487.614316 
L 723.384 487.614316 
Q 719.1504 487.614316 719.1504 491.797895 
L 719.1504 526.661053 
Q 719.1504 530.844632 723.384 530.844632 
z
" clip-path="url(#p444529d240)" style="fill: #f7f8fa; stroke: #2f3a4a; stroke-width: 1.25; stroke-linejoin: miter"/>
   </g>
   <g id="patch_16">
    <path d="M 887.436 443.686737 
L 989.748 443.686737 
Q 993.9816 443.686737 993.9816 439.503158 
L 993.9816 404.64 
Q 993.9816 400.456421 989.748 400.456421 
L 887.436 400.456421 
Q 883.2024 400.456421 883.2024 404.64 
L 883.2024 439.503158 
Q 883.2024 443.686737 887.436 443.686737 
z
" clip-path="url(#p444529d240)" style="fill: #f7f8fa; stroke: #2f3a4a; stroke-width: 1.25; stroke-linejoin: miter"/>
   </g>
   <g id="patch_17">
    <path d="M 836.28 597.084632 
L 935.064 597.084632 
Q 939.2976 597.084632 939.2976 592.901053 
L 939.2976 558.037895 
Q 939.2976 553.854316 935.064 553.854316 
L 836.28 553.854316 
Q 832.0464 553.854316 832.0464 558.037895 
L 832.0464 592.901053 
Q 832.0464 597.084632 836.28 597.084632 
z
" clip-path="url(#p444529d240)" style="fill: #f7f8fa; stroke: #2f3a4a; stroke-width: 1.25; stroke-linejoin: miter"/>
   </g>
   <g id="patch_18">
    <path d="M 956.232 597.084632 
L 1055.016 597.084632 
Q 1059.2496 597.084632 1059.2496 592.901053 
L 1059.2496 558.037895 
Q 1059.2496 553.854316 1055.016 553.854316 
L 956.232 553.854316 
Q 951.9984 553.854316 951.9984 558.037895 
L 951.9984 592.901053 
Q 951.9984 597.084632 956.232 597.084632 
z
" clip-path="url(#p444529d240)" style="fill: #f7f8fa; stroke: #2f3a4a; stroke-width: 1.25; stroke-linejoin: miter"/>
   </g>
   <g id="line2d_1">
    <path d="M 536.4 124.340211 
L 536.4 148.047158 
" clip-path="url(#p444529d240)" style="fill: none; stroke: #5b677a; stroke-width: 1.25; stroke-linecap: square"/>
   </g>
   <g id="line2d_2">
    <path d="M 536.4 187.093895 
L 148.32 221.259789 
" clip-path="url(#p444529d240)" style="fill: none; stroke: #5b677a; stroke-width: 1.25; stroke-linecap: square"/>
   </g>
   <g id="line2d_3">
    <path d="M 536.4 187.093895 
L 324.72 221.259789 
" clip-path="url(#p444529d240)" style="fill: none; stroke: #5b677a; stroke-width: 1.25; stroke-linecap: square"/>
   </g>
   <g id="line2d_4">
    <path d="M 536.4 187.093895 
L 501.12 221.259789 
" clip-path="url(#p444529d240)" style="fill: none; stroke: #5b677a; stroke-width: 1.25; stroke-linecap: square"/>
   </g>
   <g id="line2d_5">
    <path d="M 536.4 187.093895 
L 755.136 221.259789 
" clip-path="url(#p444529d240)" style="fill: none; stroke: #5b677a; stroke-width: 1.25; stroke-linecap: square"/>
   </g>
   <g id="line2d_6">
    <path d="M 755.136 260.306526 
L 416.448 311.904 
" clip-path="url(#p444529d240)" style="fill: none; stroke: #5b677a; stroke-width: 1.25; stroke-linecap: square"/>
   </g>
   <g id="line2d_7">
    <path d="M 755.136 260.306526 
L 712.8 311.904 
" clip-path="url(#p444529d240)" style="fill: none; stroke: #5b677a; stroke-width: 1.25; stroke-linecap: square"/>
   </g>
   <g id="line2d_8">
    <path d="M 755.136 260.306526 
L 924.48 311.904 
" clip-path="url(#p444529d240)" style="fill: none; stroke: #5b677a; stroke-width: 1.25; stroke-linecap: square"/>
   </g>
   <g id="line2d_9">
    <path d="M 416.448 350.950737 
L 328.248 402.548211 
" clip-path="url(#p444529d240)" style="fill: none; stroke: #5b677a; stroke-width: 1.25; stroke-linecap: square"/>
   </g>
   <g id="line2d_10">
    <path d="M 416.448 350.950737 
L 504.648 402.548211 
" clip-path="url(#p444529d240)" style="fill: none; stroke: #5b677a; stroke-width: 1.25; stroke-linecap: square"/>
   </g>
   <g id="line2d_11">
    <path d="M 712.8 350.950737 
L 684.576 402.548211 
" clip-path="url(#p444529d240)" style="fill: none; stroke: #5b677a; stroke-width: 1.25; stroke-linecap: square"/>
   </g>
   <g id="line2d_12">
    <path d="M 684.576 441.594947 
L 596.376 489.706105 
" clip-path="url(#p444529d240)" style="fill: none; stroke: #5b677a; stroke-width: 1.25; stroke-linecap: square"/>
   </g>
   <g id="line2d_13">
    <path d="M 684.576 441.594947 
L 772.776 489.706105 
" clip-path="url(#p444529d240)" style="fill: none; stroke: #5b677a; stroke-width: 1.25; stroke-linecap: square"/>
   </g>
   <g id="line2d_14">
    <path d="M 924.48 350.950737 
L 938.592 402.548211 
" clip-path="url(#p444529d240)" style="fill: none; stroke: #5b677a; stroke-width: 1.25; stroke-linecap: square"/>
   </g>
   <g id="line2d_15">
    <path d="M 938.592 441.594947 
L 885.672 555.946105 
" clip-path="url(#p444529d240)" style="fill: none; stroke: #5b677a; stroke-width: 1.25; stroke-linecap: square"/>
   </g>
   <g id="line2d_16">
    <path d="M 938.592 441.594947 
L 1005.624 555.946105 
" clip-path="url(#p444529d240)" style="fill: none; stroke: #5b677a; stroke-width: 1.25; stroke-linecap: square"/>
   </g>
   <g id="text_1">
    <!-- Esquema XML semántico -->
    <g transform="translate(382.362188 48.573783) scale(0.22 -0.22)">
     <defs>
      <path id="DejaVuSans-Bold-45" d="M 588 4666 
L 3834 4666 
L 3834 3756 
L 1791 3756 
L 1791 2888 
L 3713 2888 
L 3713 1978 
L 1791 1978 
L 1791 909 
L 3903 909 
L 3903 0 
L 588 0 
L 588 4666 
z
" transform="scale(0.015625)"/>
      <path id="DejaVuSans-Bold-73" d="M 3272 3391 
L 3272 2541 
Q 2913 2691 2578 2766 
Q 2244 2841 1947 2841 
Q 1628 2841 1473 2761 
Q 1319 2681 1319 2516 
Q 1319 2381 1436 2309 
Q 1553 2238 1856 2203 
L 2053 2175 
Q 2913 2066 3209 1816 
Q 3506 1566 3506 1031 
Q 3506 472 3093 190 
Q 2681 -91 1863 -91 
Q 1516 -91 1145 -36 
Q 775 19 384 128 
L 384 978 
Q 719 816 1070 734 
Q 1422 653 1784 653 
Q 2113 653 2278 743 
Q 2444 834 2444 1013 
Q 2444 1163 2330 1236 
Q 2216 1309 1875 1350 
L 1678 1375 
Q 931 1469 631 1722 
Q 331 1975 331 2491 
Q 331 3047 712 3315 
Q 1094 3584 1881 3584 
Q 2191 3584 2531 3537 
Q 2872 3491 3272 3391 
z
" transform="scale(0.015625)"/>
      <path id="DejaVuSans-Bold-71" d="M 2181 2772 
Q 1825 2772 1636 2509 
Q 1447 2247 1447 1747 
Q 1447 1247 1636 984 
Q 1825 722 2181 722 
Q 2541 722 2730 984 
Q 2919 1247 2919 1747 
Q 2919 2247 2730 2509 
Q 2541 2772 2181 2772 
z
M 2919 506 
Q 2688 197 2409 53 
Q 2131 -91 1766 -91 
Q 1119 -91 703 423 
Q 288 938 288 1747 
Q 288 2556 703 3067 
Q 1119 3578 1766 3578 
Q 2131 3578 2409 3434 
Q 2688 3291 2919 2981 
L 2919 3500 
L 4044 3500 
L 4044 -1331 
L 2919 -1331 
L 2919 506 
z
" transform="scale(0.015625)"/>
      <path id="DejaVuSans-Bold-75" d="M 500 1363 
L 500 3500 
L 1625 3500 
L 1625 3150 
Q 1625 2866 1622 2436 
Q 1619 2006 1619 1863 
Q 1619 1441 1641 1255 
Q 1663 1069 1716 984 
Q 1784 875 1895 815 
Q 2006 756 2150 756 
Q 2500 756 2700 1025 
Q 2900 1294 2900 1772 
L 2900 3500 
L 4019 3500 
L 4019 0 
L 2900 0 
L 2900 506 
Q 2647 200 2364 54 
Q 2081 -91 1741 -91 
Q 1134 -91 817 281 
Q 500 653 500 1363 
z
" transform="scale(0.015625)"/>
      <path id="DejaVuSans-Bold-65" d="M 4031 1759 
L 4031 1441 
L 1416 1441 
Q 1456 1047 1700 850 
Q 1944 653 2381 653 
Q 2734 653 3104 758 
Q 3475 863 3866 1075 
L 3866 213 
Q 3469 63 3072 -14 
Q 2675 -91 2278 -91 
Q 1328 -91 801 392 
Q 275 875 275 1747 
Q 275 2603 792 3093 
Q 1309 3584 2216 3584 
Q 3041 3584 3536 3087 
Q 4031 2591 4031 1759 
z
M 2881 2131 
Q 2881 2450 2695 2645 
Q 2509 2841 2209 2841 
Q 1884 2841 1681 2658 
Q 1478 2475 1428 2131 
L 2881 2131 
z
" transform="scale(0.015625)"/>
      <path id="DejaVuSans-Bold-6d" d="M 3781 2919 
Q 3994 3244 4286 3414 
Q 4578 3584 4928 3584 
Q 5531 3584 5847 3212 
Q 6163 2841 6163 2131 
L 6163 0 
L 5038 0 
L 5038 1825 
Q 5041 1866 5042 1909 
Q 5044 1953 5044 2034 
Q 5044 2406 4934 2573 
Q 4825 2741 4581 2741 
Q 4263 2741 4089 2478 
Q 3916 2216 3909 1719 
L 3909 0 
L 2784 0 
L 2784 1825 
Q 2784 2406 2684 2573 
Q 2584 2741 2328 2741 
Q 2006 2741 1831 2477 
Q 1656 2213 1656 1722 
L 1656 0 
L 531 0 
L 531 3500 
L 1656 3500 
L 1656 2988 
Q 1863 3284 2130 3434 
Q 2397 3584 2719 3584 
Q 3081 3584 3359 3409 
Q 3638 3234 3781 2919 
z
" transform="scale(0.015625)"/>
      <path id="DejaVuSans-Bold-61" d="M 2106 1575 
Q 1756 1575 1579 1456 
Q 1403 1338 1403 1106 
Q 1403 894 1545 773 
Q 1688 653 1941 653 
Q 2256 653 2472 879 
Q 2688 1106 2688 1447 
L 2688 1575 
L 2106 1575 
z
M 3816 1997 
L 3816 0 
L 2688 0 
L 2688 519 
Q 2463 200 2181 54 
Q 1900 -91 1497 -91 
Q 953 -91 614 226 
Q 275 544 275 1050 
Q 275 1666 698 1953 
Q 1122 2241 2028 2241 
L 2688 2241 
L 2688 2328 
Q 2688 2594 2478 2717 
Q 2269 2841 1825 2841 
Q 1466 2841 1156 2769 
Q 847 2697 581 2553 
L 581 3406 
Q 941 3494 1303 3539 
Q 1666 3584 2028 3584 
Q 2975 3584 3395 3211 
Q 3816 2838 3816 1997 
z
" transform="scale(0.015625)"/>
      <path id="DejaVuSans-Bold-20" transform="scale(0.015625)"/>
      <path id="DejaVuSans-Bold-58" d="M 3188 2381 
L 4806 0 
L 3553 0 
L 2463 1594 
L 1381 0 
L 122 0 
L 1741 2381 
L 184 4666 
L 1441 4666 
L 2463 3163 
L 3481 4666 
L 4744 4666 
L 3188 2381 
z
" transform="scale(0.015625)"/>
      <path id="DejaVuSans-Bold-4d" d="M 588 4666 
L 2119 4666 
L 3181 2169 
L 4250 4666 
L 5778 4666 
L 5778 0 
L 4641 0 
L 4641 3413 
L 3566 897 
L 2803 897 
L 1728 3413 
L 1728 0 
L 588 0 
L 588 4666 
z
" transform="scale(0.015625)"/>
      <path id="DejaVuSans-Bold-4c" d="M 588 4666 
L 1791 4666 
L 1791 909 
L 3903 909 
L 3903 0 
L 588 0 
L 588 4666 
z
" transform="scale(0.015625)"/>
      <path id="DejaVuSans-Bold-e1" d="M 2106 1575 
Q 1756 1575 1579 1456 
Q 1403 1338 1403 1106 
Q 1403 894 1545 773 
Q 1688 653 1941 653 
Q 2256 653 2472 879 
Q 2688 1106 2688 1447 
L 2688 1575 
L 2106 1575 
z
M 3816 1997 
L 3816 0 
L 2688 0 
L 2688 519 
Q 2463 200 2181 54 
Q 1900 -91 1497 -91 
Q 953 -91 614 226 
Q 275 544 275 1050 
Q 275 1666 698 1953 
Q 1122 2241 2028 2241 
L 2688 2241 
L 2688 2328 
Q 2688 2594 2478 2717 
Q 2269 2841 1825 2841 
Q 1466 2841 1156 2769 
Q 847 2697 581 2553 
L 581 3406 
Q 941 3494 1303 3539 
Q 1666 3584 2028 3584 
Q 2975 3584 3395 3211 
Q 3816 2838 3816 1997 
z
M 2606 5119 
L 3490 5119 
L 2337 3944 
L 1725 3944 
L 2606 5119 
z
" transform="scale(0.015625)"/>
      <path id="DejaVuSans-Bold-6e" d="M 4056 2131 
L 4056 0 
L 2931 0 
L 2931 347 
L 2931 1631 
Q 2931 2084 2911 2256 
Q 2891 2428 2841 2509 
Q 2775 2619 2662 2680 
Q 2550 2741 2406 2741 
Q 2056 2741 1856 2470 
Q 1656 2200 1656 1722 
L 1656 0 
L 538 0 
L 538 3500 
L 1656 3500 
L 1656 2988 
Q 1909 3294 2193 3439 
Q 2478 3584 2822 3584 
Q 3428 3584 3742 3212 
Q 4056 2841 4056 2131 
z
" transform="scale(0.015625)"/>
      <path id="DejaVuSans-Bold-74" d="M 1759 4494 
L 1759 3500 
L 2913 3500 
L 2913 2700 
L 1759 2700 
L 1759 1216 
Q 1759 972 1856 886 
Q 1953 800 2241 800 
L 2816 800 
L 2816 0 
L 1856 0 
Q 1194 0 917 276 
Q 641 553 641 1216 
L 641 2700 
L 84 2700 
L 84 3500 
L 641 3500 
L 641 4494 
L 1759 4494 
z
" transform="scale(0.015625)"/>
      <path id="DejaVuSans-Bold-69" d="M 538 3500 
L 1656 3500 
L 1656 0 
L 538 0 
L 538 3500 
z
M 538 4863 
L 1656 4863 
L 1656 3950 
L 538 3950 
L 538 4863 
z
" transform="scale(0.015625)"/>
      <path id="DejaVuSans-Bold-63" d="M 3366 3391 
L 3366 2478 
Q 3138 2634 2908 2709 
Q 2678 2784 2431 2784 
Q 1963 2784 1702 2511 
Q 1441 2238 1441 1747 
Q 1441 1256 1702 982 
Q 1963 709 2431 709 
Q 2694 709 2930 787 
Q 3166 866 3366 1019 
L 3366 103 
Q 3103 6 2833 -42 
Q 2563 -91 2291 -91 
Q 1344 -91 809 395 
Q 275 881 275 1747 
Q 275 2613 809 3098 
Q 1344 3584 2291 3584 
Q 2566 3584 2833 3536 
Q 3100 3488 3366 3391 
z
" transform="scale(0.015625)"/>
      <path id="DejaVuSans-Bold-6f" d="M 2203 2784 
Q 1831 2784 1636 2517 
Q 1441 2250 1441 1747 
Q 1441 1244 1636 976 
Q 1831 709 2203 709 
Q 2569 709 2762 976 
Q 2956 1244 2956 1747 
Q 2956 2250 2762 2517 
Q 2569 2784 2203 2784 
z
M 2203 3584 
Q 3106 3584 3614 3096 
Q 4122 2609 4122 1747 
Q 4122 884 3614 396 
Q 3106 -91 2203 -91 
Q 1297 -91 786 396 
Q 275 884 275 1747 
Q 275 2609 786 3096 
Q 1297 3584 2203 3584 
z
" transform="scale(0.015625)"/>
     </defs>
     <use xlink:href="#DejaVuSans-Bold-45"/>
     <use xlink:href="#DejaVuSans-Bold-73" transform="translate(68.310547 0)"/>
     <use xlink:href="#DejaVuSans-Bold-71" transform="translate(127.832031 0)"/>
     <use xlink:href="#DejaVuSans-Bold-75" transform="translate(199.414062 0)"/>
     <use xlink:href="#DejaVuSans-Bold-65" transform="translate(270.605469 0)"/>
     <use xlink:href="#DejaVuSans-Bold-6d" transform="translate(338.427734 0)"/>
     <use xlink:href="#DejaVuSans-Bold-61" transform="translate(442.626953 0)"/>
     <use xlink:href="#DejaVuSans-Bold-20" transform="translate(510.107422 0)"/>
     <use xlink:href="#DejaVuSans-Bold-58" transform="translate(544.921875 0)"/>
     <use xlink:href="#DejaVuSans-Bold-4d" transform="translate(622.021484 0)"/>
     <use xlink:href="#DejaVuSans-Bold-4c" transform="translate(721.533203 0)"/>
     <use xlink:href="#DejaVuSans-Bold-20" transform="translate(785.253906 0)"/>
     <use xlink:href="#DejaVuSans-Bold-73" transform="translate(820.068359 0)"/>
     <use xlink:href="#DejaVuSans-Bold-65" transform="translate(879.589844 0)"/>
     <use xlink:href="#DejaVuSans-Bold-6d" transform="translate(947.412109 0)"/>
     <use xlink:href="#DejaVuSans-Bold-e1" transform="translate(1051.611328 0)"/>
     <use xlink:href="#DejaVuSans-Bold-6e" transform="translate(1119.091797 0)"/>
     <use xlink:href="#DejaVuSans-Bold-74" transform="translate(1190.283203 0)"/>
     <use xlink:href="#DejaVuSans-Bold-69" transform="translate(1238.085938 0)"/>
     <use xlink:href="#DejaVuSans-Bold-63" transform="translate(1272.363281 0)"/>
     <use xlink:href="#DejaVuSans-Bold-6f" transform="translate(1331.640625 0)"/>
    </g>
   </g>
   <g id="text_2">
    <!-- document -->
    <g transform="translate(505.502891 107.852155) scale(0.11 -0.11)">
     <defs>
      <path id="DejaVuSans-Bold-64" d="M 2919 2988 
L 2919 4863 
L 4044 4863 
L 4044 0 
L 2919 0 
L 2919 506 
Q 2688 197 2409 53 
Q 2131 -91 1766 -91 
Q 1119 -91 703 423 
Q 288 938 288 1747 
Q 288 2556 703 3070 
Q 1119 3584 1766 3584 
Q 2128 3584 2408 3439 
Q 2688 3294 2919 2988 
z
M 2181 722 
Q 2541 722 2730 984 
Q 2919 1247 2919 1747 
Q 2919 2247 2730 2509 
Q 2541 2772 2181 2772 
Q 1825 2772 1636 2509 
Q 1447 2247 1447 1747 
Q 1447 1247 1636 984 
Q 1825 722 2181 722 
z
" transform="scale(0.015625)"/>
     </defs>
     <use xlink:href="#DejaVuSans-Bold-64"/>
     <use xlink:href="#DejaVuSans-Bold-6f" transform="translate(71.582031 0)"/>
     <use xlink:href="#DejaVuSans-Bold-63" transform="translate(140.283203 0)"/>
     <use xlink:href="#DejaVuSans-Bold-75" transform="translate(199.560547 0)"/>
     <use xlink:href="#DejaVuSans-Bold-6d" transform="translate(270.751953 0)"/>
     <use xlink:href="#DejaVuSans-Bold-65" transform="translate(374.951172 0)"/>
     <use xlink:href="#DejaVuSans-Bold-6e" transform="translate(442.773438 0)"/>
     <use xlink:href="#DejaVuSans-Bold-74" transform="translate(513.964844 0)"/>
    </g>
   </g>
   <g id="text_3">
    <!-- page -->
    <g transform="translate(521.084219 170.519901) scale(0.11 -0.11)">
     <defs>
      <path id="DejaVuSans-Bold-70" d="M 1656 506 
L 1656 -1331 
L 538 -1331 
L 538 3500 
L 1656 3500 
L 1656 2988 
Q 1888 3294 2169 3439 
Q 2450 3584 2816 3584 
Q 3463 3584 3878 3070 
Q 4294 2556 4294 1747 
Q 4294 938 3878 423 
Q 3463 -91 2816 -91 
Q 2450 -91 2169 54 
Q 1888 200 1656 506 
z
M 2400 2772 
Q 2041 2772 1848 2508 
Q 1656 2244 1656 1747 
Q 1656 1250 1848 986 
Q 2041 722 2400 722 
Q 2759 722 2948 984 
Q 3138 1247 3138 1747 
Q 3138 2247 2948 2509 
Q 2759 2772 2400 2772 
z
" transform="scale(0.015625)"/>
      <path id="DejaVuSans-Bold-67" d="M 2919 594 
Q 2688 288 2409 144 
Q 2131 0 1766 0 
Q 1125 0 706 504 
Q 288 1009 288 1791 
Q 288 2575 706 3076 
Q 1125 3578 1766 3578 
Q 2131 3578 2409 3434 
Q 2688 3291 2919 2981 
L 2919 3500 
L 4044 3500 
L 4044 353 
Q 4044 -491 3511 -936 
Q 2978 -1381 1966 -1381 
Q 1638 -1381 1331 -1331 
Q 1025 -1281 716 -1178 
L 716 -306 
Q 1009 -475 1290 -558 
Q 1572 -641 1856 -641 
Q 2406 -641 2662 -400 
Q 2919 -159 2919 353 
L 2919 594 
z
M 2181 2772 
Q 1834 2772 1640 2515 
Q 1447 2259 1447 1791 
Q 1447 1309 1634 1061 
Q 1822 813 2181 813 
Q 2531 813 2725 1069 
Q 2919 1325 2919 1791 
Q 2919 2259 2725 2515 
Q 2531 2772 2181 2772 
z
" transform="scale(0.015625)"/>
     </defs>
     <use xlink:href="#DejaVuSans-Bold-70"/>
     <use xlink:href="#DejaVuSans-Bold-61" transform="translate(71.582031 0)"/>
     <use xlink:href="#DejaVuSans-Bold-67" transform="translate(139.0625 0)"/>
     <use xlink:href="#DejaVuSans-Bold-65" transform="translate(210.644531 0)"/>
    </g>
   </g>
   <g id="text_4">
    <!-- heading -->
    <g transform="translate(123.288125 243.775502) scale(0.11 -0.11)">
     <defs>
      <path id="DejaVuSans-Bold-68" d="M 4056 2131 
L 4056 0 
L 2931 0 
L 2931 347 
L 2931 1625 
Q 2931 2084 2911 2256 
Q 2891 2428 2841 2509 
Q 2775 2619 2662 2680 
Q 2550 2741 2406 2741 
Q 2056 2741 1856 2470 
Q 1656 2200 1656 1722 
L 1656 0 
L 538 0 
L 538 4863 
L 1656 4863 
L 1656 2988 
Q 1909 3294 2193 3439 
Q 2478 3584 2822 3584 
Q 3428 3584 3742 3212 
Q 4056 2841 4056 2131 
z
" transform="scale(0.015625)"/>
     </defs>
     <use xlink:href="#DejaVuSans-Bold-68"/>
     <use xlink:href="#DejaVuSans-Bold-65" transform="translate(71.191406 0)"/>
     <use xlink:href="#DejaVuSans-Bold-61" transform="translate(139.013672 0)"/>
     <use xlink:href="#DejaVuSans-Bold-64" transform="translate(206.494141 0)"/>
     <use xlink:href="#DejaVuSans-Bold-69" transform="translate(278.076172 0)"/>
     <use xlink:href="#DejaVuSans-Bold-6e" transform="translate(312.353516 0)"/>
     <use xlink:href="#DejaVuSans-Bold-67" transform="translate(383.544922 0)"/>
    </g>
   </g>
   <g id="text_5">
    <!-- title -->
    <g transform="translate(311.960859 243.81847) scale(0.11 -0.11)">
     <defs>
      <path id="DejaVuSans-Bold-6c" d="M 538 4863 
L 1656 4863 
L 1656 0 
L 538 0 
L 538 4863 
z
" transform="scale(0.015625)"/>
     </defs>
     <use xlink:href="#DejaVuSans-Bold-74"/>
     <use xlink:href="#DejaVuSans-Bold-69" transform="translate(47.802734 0)"/>
     <use xlink:href="#DejaVuSans-Bold-74" transform="translate(82.080078 0)"/>
     <use xlink:href="#DejaVuSans-Bold-6c" transform="translate(129.882812 0)"/>
     <use xlink:href="#DejaVuSans-Bold-65" transform="translate(164.160156 0)"/>
    </g>
   </g>
   <g id="text_6">
    <!-- line -->
    <g transform="translate(489.703203 243.81847) scale(0.11 -0.11)">
     <use xlink:href="#DejaVuSans-Bold-6c"/>
     <use xlink:href="#DejaVuSans-Bold-69" transform="translate(34.277344 0)"/>
     <use xlink:href="#DejaVuSans-Bold-6e" transform="translate(68.554688 0)"/>
     <use xlink:href="#DejaVuSans-Bold-65" transform="translate(139.746094 0)"/>
    </g>
   </g>
   <g id="text_7">
    <!-- interlinear_gloss -->
    <g transform="translate(703.525375 243.665502) scale(0.11 -0.11)">
     <defs>
      <path id="DejaVuSans-Bold-72" d="M 3138 2547 
Q 2991 2616 2845 2648 
Q 2700 2681 2553 2681 
Q 2122 2681 1889 2404 
Q 1656 2128 1656 1613 
L 1656 0 
L 538 0 
L 538 3500 
L 1656 3500 
L 1656 2925 
Q 1872 3269 2151 3426 
Q 2431 3584 2822 3584 
Q 2878 3584 2943 3579 
Q 3009 3575 3134 3559 
L 3138 2547 
z
" transform="scale(0.015625)"/>
      <path id="DejaVuSans-Bold-5f" d="M 3200 -916 
L 3200 -1509 
L 0 -1509 
L 0 -916 
L 3200 -916 
z
" transform="scale(0.015625)"/>
     </defs>
     <use xlink:href="#DejaVuSans-Bold-69"/>
     <use xlink:href="#DejaVuSans-Bold-6e" transform="translate(34.277344 0)"/>
     <use xlink:href="#DejaVuSans-Bold-74" transform="translate(105.46875 0)"/>
     <use xlink:href="#DejaVuSans-Bold-65" transform="translate(153.271484 0)"/>
     <use xlink:href="#DejaVuSans-Bold-72" transform="translate(221.09375 0)"/>
     <use xlink:href="#DejaVuSans-Bold-6c" transform="translate(270.410156 0)"/>
     <use xlink:href="#DejaVuSans-Bold-69" transform="translate(304.6875 0)"/>
     <use xlink:href="#DejaVuSans-Bold-6e" transform="translate(338.964844 0)"/>
     <use xlink:href="#DejaVuSans-Bold-65" transform="translate(410.15625 0)"/>
     <use xlink:href="#DejaVuSans-Bold-61" transform="translate(477.978516 0)"/>
     <use xlink:href="#DejaVuSans-Bold-72" transform="translate(545.458984 0)"/>
     <use xlink:href="#DejaVuSans-Bold-5f" transform="translate(594.775391 0)"/>
     <use xlink:href="#DejaVuSans-Bold-67" transform="translate(644.775391 0)"/>
     <use xlink:href="#DejaVuSans-Bold-6c" transform="translate(716.357422 0)"/>
     <use xlink:href="#DejaVuSans-Bold-6f" transform="translate(750.634766 0)"/>
     <use xlink:href="#DejaVuSans-Bold-73" transform="translate(819.335938 0)"/>
     <use xlink:href="#DejaVuSans-Bold-73" transform="translate(878.857422 0)"/>
    </g>
   </g>
   <g id="text_8">
    <!-- parallel_phrase -->
    <g transform="translate(368.958937 334.309712) scale(0.11 -0.11)">
     <use xlink:href="#DejaVuSans-Bold-70"/>
     <use xlink:href="#DejaVuSans-Bold-61" transform="translate(71.582031 0)"/>
     <use xlink:href="#DejaVuSans-Bold-72" transform="translate(139.0625 0)"/>
     <use xlink:href="#DejaVuSans-Bold-61" transform="translate(188.378906 0)"/>
     <use xlink:href="#DejaVuSans-Bold-6c" transform="translate(255.859375 0)"/>
     <use xlink:href="#DejaVuSans-Bold-6c" transform="translate(290.136719 0)"/>
     <use xlink:href="#DejaVuSans-Bold-65" transform="translate(324.414062 0)"/>
     <use xlink:href="#DejaVuSans-Bold-6c" transform="translate(392.236328 0)"/>
     <use xlink:href="#DejaVuSans-Bold-5f" transform="translate(426.513672 0)"/>
     <use xlink:href="#DejaVuSans-Bold-70" transform="translate(476.513672 0)"/>
     <use xlink:href="#DejaVuSans-Bold-68" transform="translate(548.095703 0)"/>
     <use xlink:href="#DejaVuSans-Bold-72" transform="translate(619.287109 0)"/>
     <use xlink:href="#DejaVuSans-Bold-61" transform="translate(668.603516 0)"/>
     <use xlink:href="#DejaVuSans-Bold-73" transform="translate(736.083984 0)"/>
     <use xlink:href="#DejaVuSans-Bold-65" transform="translate(795.605469 0)"/>
    </g>
   </g>
   <g id="text_9">
    <!-- morpheme_analysis -->
    <g transform="translate(651.542031 334.309712) scale(0.11 -0.11)">
     <defs>
      <path id="DejaVuSans-Bold-79" d="M 78 3500 
L 1197 3500 
L 2138 1125 
L 2938 3500 
L 4056 3500 
L 2584 -331 
Q 2363 -916 2067 -1148 
Q 1772 -1381 1288 -1381 
L 641 -1381 
L 641 -647 
L 991 -647 
Q 1275 -647 1404 -556 
Q 1534 -466 1606 -231 
L 1638 -134 
L 78 3500 
z
" transform="scale(0.015625)"/>
     </defs>
     <use xlink:href="#DejaVuSans-Bold-6d"/>
     <use xlink:href="#DejaVuSans-Bold-6f" transform="translate(104.199219 0)"/>
     <use xlink:href="#DejaVuSans-Bold-72" transform="translate(172.900391 0)"/>
     <use xlink:href="#DejaVuSans-Bold-70" transform="translate(222.216797 0)"/>
     <use xlink:href="#DejaVuSans-Bold-68" transform="translate(293.798828 0)"/>
     <use xlink:href="#DejaVuSans-Bold-65" transform="translate(364.990234 0)"/>
     <use xlink:href="#DejaVuSans-Bold-6d" transform="translate(432.8125 0)"/>
     <use xlink:href="#DejaVuSans-Bold-65" transform="translate(537.011719 0)"/>
     <use xlink:href="#DejaVuSans-Bold-5f" transform="translate(604.833984 0)"/>
     <use xlink:href="#DejaVuSans-Bold-61" transform="translate(654.833984 0)"/>
     <use xlink:href="#DejaVuSans-Bold-6e" transform="translate(722.314453 0)"/>
     <use xlink:href="#DejaVuSans-Bold-61" transform="translate(793.505859 0)"/>
     <use xlink:href="#DejaVuSans-Bold-6c" transform="translate(860.986328 0)"/>
     <use xlink:href="#DejaVuSans-Bold-79" transform="translate(895.263672 0)"/>
     <use xlink:href="#DejaVuSans-Bold-73" transform="translate(960.449219 0)"/>
     <use xlink:href="#DejaVuSans-Bold-69" transform="translate(1019.970703 0)"/>
     <use xlink:href="#DejaVuSans-Bold-73" transform="translate(1054.248047 0)"/>
    </g>
   </g>
   <g id="text_10">
    <!-- syntactic_analysis -->
    <g transform="translate(868.33875 334.309712) scale(0.11 -0.11)">
     <use xlink:href="#DejaVuSans-Bold-73"/>
     <use xlink:href="#DejaVuSans-Bold-79" transform="translate(59.521484 0)"/>
     <use xlink:href="#DejaVuSans-Bold-6e" transform="translate(124.707031 0)"/>
     <use xlink:href="#DejaVuSans-Bold-74" transform="translate(195.898438 0)"/>
     <use xlink:href="#DejaVuSans-Bold-61" transform="translate(243.701172 0)"/>
     <use xlink:href="#DejaVuSans-Bold-63" transform="translate(311.181641 0)"/>
     <use xlink:href="#DejaVuSans-Bold-74" transform="translate(370.458984 0)"/>
     <use xlink:href="#DejaVuSans-Bold-69" transform="translate(418.261719 0)"/>
     <use xlink:href="#DejaVuSans-Bold-63" transform="translate(452.539062 0)"/>
     <use xlink:href="#DejaVuSans-Bold-5f" transform="translate(511.816406 0)"/>
     <use xlink:href="#DejaVuSans-Bold-61" transform="translate(561.816406 0)"/>
     <use xlink:href="#DejaVuSans-Bold-6e" transform="translate(629.296875 0)"/>
     <use xlink:href="#DejaVuSans-Bold-61" transform="translate(700.488281 0)"/>
     <use xlink:href="#DejaVuSans-Bold-6c" transform="translate(767.96875 0)"/>
     <use xlink:href="#DejaVuSans-Bold-79" transform="translate(802.246094 0)"/>
     <use xlink:href="#DejaVuSans-Bold-73" transform="translate(867.431641 0)"/>
     <use xlink:href="#DejaVuSans-Bold-69" transform="translate(926.953125 0)"/>
     <use xlink:href="#DejaVuSans-Bold-73" transform="translate(961.230469 0)"/>
    </g>
   </g>
   <g id="text_11">
    <!-- original -->
    <g transform="translate(304.536984 425.063923) scale(0.11 -0.11)">
     <use xlink:href="#DejaVuSans-Bold-6f"/>
     <use xlink:href="#DejaVuSans-Bold-72" transform="translate(68.701172 0)"/>
     <use xlink:href="#DejaVuSans-Bold-69" transform="translate(118.017578 0)"/>
     <use xlink:href="#DejaVuSans-Bold-67" transform="translate(152.294922 0)"/>
     <use xlink:href="#DejaVuSans-Bold-69" transform="translate(223.876953 0)"/>
     <use xlink:href="#DejaVuSans-Bold-6e" transform="translate(258.154297 0)"/>
     <use xlink:href="#DejaVuSans-Bold-61" transform="translate(329.345703 0)"/>
     <use xlink:href="#DejaVuSans-Bold-6c" transform="translate(396.826172 0)"/>
    </g>
   </g>
   <g id="text_12">
    <!-- translation -->
    <g transform="translate(470.601281 425.106891) scale(0.11 -0.11)">
     <use xlink:href="#DejaVuSans-Bold-74"/>
     <use xlink:href="#DejaVuSans-Bold-72" transform="translate(47.802734 0)"/>
     <use xlink:href="#DejaVuSans-Bold-61" transform="translate(97.119141 0)"/>
     <use xlink:href="#DejaVuSans-Bold-6e" transform="translate(164.599609 0)"/>
     <use xlink:href="#DejaVuSans-Bold-73" transform="translate(235.791016 0)"/>
     <use xlink:href="#DejaVuSans-Bold-6c" transform="translate(295.3125 0)"/>
     <use xlink:href="#DejaVuSans-Bold-61" transform="translate(329.589844 0)"/>
     <use xlink:href="#DejaVuSans-Bold-74" transform="translate(397.070312 0)"/>
     <use xlink:href="#DejaVuSans-Bold-69" transform="translate(444.873047 0)"/>
     <use xlink:href="#DejaVuSans-Bold-6f" transform="translate(479.150391 0)"/>
     <use xlink:href="#DejaVuSans-Bold-6e" transform="translate(547.851562 0)"/>
    </g>
   </g>
   <g id="text_13">
    <!-- unit -->
    <g transform="translate(672.231078 425.106891) scale(0.11 -0.11)">
     <use xlink:href="#DejaVuSans-Bold-75"/>
     <use xlink:href="#DejaVuSans-Bold-6e" transform="translate(71.191406 0)"/>
     <use xlink:href="#DejaVuSans-Bold-69" transform="translate(142.382812 0)"/>
     <use xlink:href="#DejaVuSans-Bold-74" transform="translate(176.660156 0)"/>
    </g>
   </g>
   <g id="text_14">
    <!-- form -->
    <g transform="translate(581.761469 512.264786) scale(0.11 -0.11)">
     <defs>
      <path id="DejaVuSans-Bold-66" d="M 2841 4863 
L 2841 4128 
L 2222 4128 
Q 1984 4128 1890 4042 
Q 1797 3956 1797 3744 
L 1797 3500 
L 2753 3500 
L 2753 2700 
L 1797 2700 
L 1797 0 
L 678 0 
L 678 2700 
L 122 2700 
L 122 3500 
L 678 3500 
L 678 3744 
Q 678 4316 997 4589 
Q 1316 4863 1984 4863 
L 2841 4863 
z
" transform="scale(0.015625)"/>
     </defs>
     <use xlink:href="#DejaVuSans-Bold-66"/>
     <use xlink:href="#DejaVuSans-Bold-6f" transform="translate(43.505859 0)"/>
     <use xlink:href="#DejaVuSans-Bold-72" transform="translate(112.207031 0)"/>
     <use xlink:href="#DejaVuSans-Bold-6d" transform="translate(161.523438 0)"/>
    </g>
   </g>
   <g id="text_15">
    <!-- gloss -->
    <g transform="translate(756.628344 512.221817) scale(0.11 -0.11)">
     <use xlink:href="#DejaVuSans-Bold-67"/>
     <use xlink:href="#DejaVuSans-Bold-6c" transform="translate(71.582031 0)"/>
     <use xlink:href="#DejaVuSans-Bold-6f" transform="translate(105.859375 0)"/>
     <use xlink:href="#DejaVuSans-Bold-73" transform="translate(174.560547 0)"/>
     <use xlink:href="#DejaVuSans-Bold-73" transform="translate(234.082031 0)"/>
    </g>
   </g>
   <g id="text_16">
    <!-- unit -->
    <g transform="translate(926.247078 425.106891) scale(0.11 -0.11)">
     <use xlink:href="#DejaVuSans-Bold-75"/>
     <use xlink:href="#DejaVuSans-Bold-6e" transform="translate(71.191406 0)"/>
     <use xlink:href="#DejaVuSans-Bold-69" transform="translate(142.382812 0)"/>
     <use xlink:href="#DejaVuSans-Bold-74" transform="translate(176.660156 0)"/>
    </g>
   </g>
   <g id="text_17">
    <!-- form -->
    <g transform="translate(871.057469 578.504786) scale(0.11 -0.11)">
     <use xlink:href="#DejaVuSans-Bold-66"/>
     <use xlink:href="#DejaVuSans-Bold-6f" transform="translate(43.505859 0)"/>
     <use xlink:href="#DejaVuSans-Bold-72" transform="translate(112.207031 0)"/>
     <use xlink:href="#DejaVuSans-Bold-6d" transform="translate(161.523438 0)"/>
    </g>
   </g>
   <g id="text_18">
    <!-- gloss -->
    <g transform="translate(989.476344 578.461817) scale(0.11 -0.11)">
     <use xlink:href="#DejaVuSans-Bold-67"/>
     <use xlink:href="#DejaVuSans-Bold-6c" transform="translate(71.582031 0)"/>
     <use xlink:href="#DejaVuSans-Bold-6f" transform="translate(105.859375 0)"/>
     <use xlink:href="#DejaVuSans-Bold-73" transform="translate(174.560547 0)"/>
     <use xlink:href="#DejaVuSans-Bold-73" transform="translate(234.082031 0)"/>
    </g>
   </g>
  </g>
 </g>
 <defs>
  <clipPath id="p444529d240">
   <rect x="7.2" y="7.2" width="1058.4" height="662.4"/>
  </clipPath>
 </defs>
</svg>
