<?xml version="1.0" encoding="utf-8" standalone="no"?>
<!DOCTYPE svg PUBLIC "-//W3C//DTD SVG 1.1//EN"
  "http://www.w3.org/Graphics/SVG/1.1/DTD/svg11.dtd">
<svg xmlns:xlink="http://www.w3.org/1999/xlink" width="1288.8pt" height="712.8pt" viewBox="0 0 1288.8 712.8" xmlns="http://www.w3.org/2000/svg" version="1.1">
 <metadata>
  <rdf:RDF xmlns:dc="http://purl.org/dc/elements/1.1/" xmlns:cc="http://creativecommons.org/ns#" xmlns:rdf="http://www.w3.org/1999/02/22-rdf-syntax-ns#">
   <cc:Work>
    <dc:type rdf:resource="http://purl.org/dc/dcmitype/StillImage"/>
    <dc:date>2026-06-15T14:03:14.383885</dc:date>
    <dc:format>image/svg+xml</dc:format>
    <dc:creator>
     <cc:Agent>
      <dc:title>Matplotlib v3.10.8, https://matplotlib.org/</dc:title>
     </cc:Agent>
    </dc:creator>
   </cc:Work>
  </rdf:RDF>
 </metadata>
 <defs>
  <style type="text/css">*{stroke-linejoin: round; stroke-linecap: butt}</style>
 </defs>
 <g id="figure_1">
  <g id="patch_1">
   <path d="M 0 712.8 
L 1288.8 712.8 
L 1288.8 0 
L 0 0 
z
" style="fill: #ffffff"/>
  </g>
  <g id="axes_1">
   <g id="patch_2">
    <path d="M 56.052 233.4816 
L 206.148 233.4816 
Q 211.812 233.4816 211.812 227.8944 
L 211.812 153.1656 
Q 211.812 147.5784 206.148 147.5784 
L 56.052 147.5784 
Q 50.388 147.5784 50.388 153.1656 
L 50.388 227.8944 
Q 50.388 233.4816 56.052 233.4816 
z
" clip-path="url(#p4f1e79c84d)" style="fill: #f7f8fa; stroke: #2f3a4a; stroke-width: 1.35; stroke-linejoin: miter"/>
   </g>
   <g id="patch_3">
    <path d="M 268.452 233.4816 
L 429.168 233.4816 
Q 434.832 233.4816 434.832 227.8944 
L 434.832 153.1656 
Q 434.832 147.5784 429.168 147.5784 
L 268.452 147.5784 
Q 262.788 147.5784 262.788 153.1656 
L 262.788 227.8944 
Q 262.788 233.4816 268.452 233.4816 
z
" clip-path="url(#p4f1e79c84d)" style="fill: #f7f8fa; stroke: #2f3a4a; stroke-width: 1.35; stroke-linejoin: miter"/>
   </g>
   <g id="patch_4">
    <path d="M 495.012 250.9416 
L 687.588 250.9416 
Q 693.252 250.9416 693.252 245.3544 
L 693.252 135.7056 
Q 693.252 130.1184 687.588 130.1184 
L 495.012 130.1184 
Q 489.348 130.1184 489.348 135.7056 
L 489.348 245.3544 
Q 489.348 250.9416 495.012 250.9416 
z
" clip-path="url(#p4f1e79c84d)" style="fill: #f3f6fa; stroke: #2f3a4a; stroke-width: 1.35; stroke-linejoin: miter"/>
   </g>
   <g id="patch_5">
    <path d="M 749.892 233.4816 
L 917.688 233.4816 
Q 923.352 233.4816 923.352 227.8944 
L 923.352 153.1656 
Q 923.352 147.5784 917.688 147.5784 
L 749.892 147.5784 
Q 744.228 147.5784 744.228 153.1656 
L 744.228 227.8944 
Q 744.228 233.4816 749.892 233.4816 
z
" clip-path="url(#p4f1e79c84d)" style="fill: #f7f8fa; stroke: #2f3a4a; stroke-width: 1.35; stroke-linejoin: miter"/>
   </g>
   <g id="patch_6">
    <path d="M 1001.94 146.5308 
L 1072.74 190.1808 
L 1001.94 233.8308 
L 931.14 190.1808 
z
" clip-path="url(#p4f1e79c84d)" style="fill: #f7f8fa; stroke: #2f3a4a; stroke-width: 1.35; stroke-linejoin: miter"/>
   </g>
   <g id="patch_7">
    <path d="M 1089.732 362.6856 
L 1236.288 362.6856 
Q 1241.952 362.6856 1241.952 357.0984 
L 1241.952 292.8456 
Q 1241.952 287.2584 1236.288 287.2584 
L 1089.732 287.2584 
Q 1084.068 287.2584 1084.068 292.8456 
L 1084.068 357.0984 
Q 1084.068 362.6856 1089.732 362.6856 
z
" clip-path="url(#p4f1e79c84d)" style="fill: #fff8e6; stroke: #c28a00; stroke-width: 1.35; stroke-linejoin: miter"/>
   </g>
   <g id="patch_8">
    <path d="M 749.892 481.4136 
L 917.688 481.4136 
Q 923.352 481.4136 923.352 475.8264 
L 923.352 401.0976 
Q 923.352 395.5104 917.688 395.5104 
L 749.892 395.5104 
Q 744.228 395.5104 744.228 401.0976 
L 744.228 475.8264 
Q 744.228 481.4136 749.892 481.4136 
z
" clip-path="url(#p4f1e79c84d)" style="fill: #f7f8fa; stroke: #2f3a4a; stroke-width: 1.35; stroke-linejoin: miter"/>
   </g>
   <g id="patch_9">
    <path d="M 505.632 481.4136 
L 673.428 481.4136 
Q 679.092 481.4136 679.092 475.8264 
L 679.092 401.0976 
Q 679.092 395.5104 673.428 395.5104 
L 505.632 395.5104 
Q 499.968 395.5104 499.968 401.0976 
L 499.968 475.8264 
Q 499.968 481.4136 505.632 481.4136 
z
" clip-path="url(#p4f1e79c84d)" style="fill: #f7f8fa; stroke: #2f3a4a; stroke-width: 1.35; stroke-linejoin: miter"/>
   </g>
   <g id="patch_10">
    <path d="M 268.452 481.4136 
L 429.168 481.4136 
Q 434.832 481.4136 434.832 475.8264 
L 434.832 401.0976 
Q 434.832 395.5104 429.168 395.5104 
L 268.452 395.5104 
Q 262.788 395.5104 262.788 401.0976 
L 262.788 475.8264 
Q 262.788 481.4136 268.452 481.4136 
z
" clip-path="url(#p4f1e79c84d)" style="fill: #f7f8fa; stroke: #2f3a4a; stroke-width: 1.35; stroke-linejoin: miter"/>
   </g>
   <g id="patch_11">
    <path d="M 56.052 481.4136 
L 206.148 481.4136 
Q 211.812 481.4136 211.812 475.8264 
L 211.812 401.0976 
Q 211.812 395.5104 206.148 395.5104 
L 56.052 395.5104 
Q 50.388 395.5104 50.388 401.0976 
L 50.388 475.8264 
Q 50.388 481.4136 56.052 481.4136 
z
" clip-path="url(#p4f1e79c84d)" style="fill: #f3f6fa; stroke: #2f3a4a; stroke-width: 1.35; stroke-linejoin: miter"/>
   </g>
   <g id="patch_12">
    <path d="M 502.092 118.2456 
L 584.928 118.2456 
Q 590.592 118.2456 590.592 112.6584 
L 590.592 72.8496 
Q 590.592 67.2624 584.928 67.2624 
L 502.092 67.2624 
Q 496.428 67.2624 496.428 72.8496 
L 496.428 112.6584 
Q 496.428 118.2456 502.092 118.2456 
z
" clip-path="url(#p4f1e79c84d)" style="fill: #ffffff; stroke: #2f3a4a; stroke-width: 1.35; stroke-linejoin: miter"/>
   </g>
   <g id="patch_13">
    <path d="M 604.752 118.2456 
L 687.588 118.2456 
Q 693.252 118.2456 693.252 112.6584 
L 693.252 72.8496 
Q 693.252 67.2624 687.588 67.2624 
L 604.752 67.2624 
Q 599.088 67.2624 599.088 72.8496 
L 599.088 112.6584 
Q 599.088 118.2456 604.752 118.2456 
z
" clip-path="url(#p4f1e79c84d)" style="fill: #ffffff; stroke: #2f3a4a; stroke-width: 1.35; stroke-linejoin: miter"/>
   </g>
   <g id="patch_14">
    <path d="M 1068.492 118.2456 
L 1151.328 118.2456 
Q 1156.992 118.2456 1156.992 112.6584 
L 1156.992 72.8496 
Q 1156.992 67.2624 1151.328 67.2624 
L 1068.492 67.2624 
Q 1062.828 67.2624 1062.828 72.8496 
L 1062.828 112.6584 
Q 1062.828 118.2456 1068.492 118.2456 
z
" clip-path="url(#p4f1e79c84d)" style="fill: #ffffff; stroke: #2f3a4a; stroke-width: 1.35; stroke-linejoin: miter"/>
   </g>
   <g id="patch_15">
    <path d="M 742.812 125.2296 
L 924.768 125.2296 
Q 930.432 125.2296 930.432 119.6424 
L 930.432 65.8656 
Q 930.432 60.2784 924.768 60.2784 
L 742.812 60.2784 
Q 737.148 60.2784 737.148 65.8656 
L 737.148 119.6424 
Q 737.148 125.2296 742.812 125.2296 
z
" clip-path="url(#p4f1e79c84d)" style="fill: #ffffff; stroke: #2f3a4a; stroke-width: 1.35; stroke-linejoin: miter"/>
   </g>
   <g id="patch_16">
    <path d="M 78 278.1792 
L 184.908 278.1792 
Q 188.448 278.1792 188.448 274.6872 
L 188.448 250.9416 
Q 188.448 247.4496 184.908 247.4496 
L 78 247.4496 
Q 74.46 247.4496 74.46 250.9416 
L 74.46 274.6872 
Q 74.46 278.1792 78 278.1792 
z
" clip-path="url(#p4f1e79c84d)" style="fill: #eef2f7; stroke: #5b677a; stroke-linejoin: miter"/>
   </g>
   <g id="patch_17">
    <path d="M 295.356 278.1792 
L 402.264 278.1792 
Q 405.804 278.1792 405.804 274.6872 
L 405.804 250.9416 
Q 405.804 247.4496 402.264 247.4496 
L 295.356 247.4496 
Q 291.816 247.4496 291.816 250.9416 
L 291.816 274.6872 
Q 291.816 278.1792 295.356 278.1792 
z
" clip-path="url(#p4f1e79c84d)" style="fill: #eef2f7; stroke: #5b677a; stroke-linejoin: miter"/>
   </g>
   <g id="patch_18">
    <path d="M 536.076 287.2584 
L 642.984 287.2584 
Q 646.524 287.2584 646.524 283.7664 
L 646.524 260.0208 
Q 646.524 256.5288 642.984 256.5288 
L 536.076 256.5288 
Q 532.536 256.5288 532.536 260.0208 
L 532.536 283.7664 
Q 532.536 287.2584 536.076 287.2584 
z
" clip-path="url(#p4f1e79c84d)" style="fill: #eef2f7; stroke: #5b677a; stroke-linejoin: miter"/>
   </g>
   <g id="patch_19">
    <path d="M 780.336 278.1792 
L 887.244 278.1792 
Q 890.784 278.1792 890.784 274.6872 
L 890.784 250.9416 
Q 890.784 247.4496 887.244 247.4496 
L 780.336 247.4496 
Q 776.796 247.4496 776.796 250.9416 
L 776.796 274.6872 
Q 776.796 278.1792 780.336 278.1792 
z
" clip-path="url(#p4f1e79c84d)" style="fill: #eef2f7; stroke: #5b677a; stroke-linejoin: miter"/>
   </g>
   <g id="patch_20">
    <path d="M 534.66 526.1112 
L 641.568 526.1112 
Q 645.108 526.1112 645.108 522.6192 
L 645.108 498.8736 
Q 645.108 495.3816 641.568 495.3816 
L 534.66 495.3816 
Q 531.12 495.3816 531.12 498.8736 
L 531.12 522.6192 
Q 531.12 526.1112 534.66 526.1112 
z
" clip-path="url(#p4f1e79c84d)" style="fill: #eef2f7; stroke: #5b677a; stroke-linejoin: miter"/>
   </g>
   <g id="patch_21">
    <path d="M 291.816 526.1112 
L 398.724 526.1112 
Q 402.264 526.1112 402.264 522.6192 
L 402.264 498.8736 
Q 402.264 495.3816 398.724 495.3816 
L 291.816 495.3816 
Q 288.276 495.3816 288.276 498.8736 
L 288.276 522.6192 
Q 288.276 526.1112 291.816 526.1112 
z
" clip-path="url(#p4f1e79c84d)" style="fill: #eef2f7; stroke: #5b677a; stroke-linejoin: miter"/>
   </g>
   <g id="patch_22">
    <path d="M 78 526.1112 
L 184.908 526.1112 
Q 188.448 526.1112 188.448 522.6192 
L 188.448 498.8736 
Q 188.448 495.3816 184.908 495.3816 
L 78 495.3816 
Q 74.46 495.3816 74.46 498.8736 
L 74.46 522.6192 
Q 74.46 526.1112 78 526.1112 
z
" clip-path="url(#p4f1e79c84d)" style="fill: #eef2f7; stroke: #5b677a; stroke-linejoin: miter"/>
   </g>
   <g id="text_1">
    <!-- Pipeline de transformación documental -->
    <g transform="translate(399.772031 45.138625) scale(0.22 -0.22)">
     <defs>
      <path id="DejaVuSans-Bold-50" d="M 588 4666 
L 2584 4666 
Q 3475 4666 3951 4270 
Q 4428 3875 4428 3144 
Q 4428 2409 3951 2014 
Q 3475 1619 2584 1619 
L 1791 1619 
L 1791 0 
L 588 0 
L 588 4666 
z
M 1791 3794 
L 1791 2491 
L 2456 2491 
Q 2806 2491 2997 2661 
Q 3188 2831 3188 3144 
Q 3188 3456 2997 3625 
Q 2806 3794 2456 3794 
L 1791 3794 
z
" transform="scale(0.015625)"/>
      <path id="DejaVuSans-Bold-69" d="M 538 3500 
L 1656 3500 
L 1656 0 
L 538 0 
L 538 3500 
z
M 538 4863 
L 1656 4863 
L 1656 3950 
L 538 3950 
L 538 4863 
z
" transform="scale(0.015625)"/>
      <path id="DejaVuSans-Bold-70" d="M 1656 506 
L 1656 -1331 
L 538 -1331 
L 538 3500 
L 1656 3500 
L 1656 2988 
Q 1888 3294 2169 3439 
Q 2450 3584 2816 3584 
Q 3463 3584 3878 3070 
Q 4294 2556 4294 1747 
Q 4294 938 3878 423 
Q 3463 -91 2816 -91 
Q 2450 -91 2169 54 
Q 1888 200 1656 506 
z
M 2400 2772 
Q 2041 2772 1848 2508 
Q 1656 2244 1656 1747 
Q 1656 1250 1848 986 
Q 2041 722 2400 722 
Q 2759 722 2948 984 
Q 3138 1247 3138 1747 
Q 3138 2247 2948 2509 
Q 2759 2772 2400 2772 
z
" transform="scale(0.015625)"/>
      <path id="DejaVuSans-Bold-65" d="M 4031 1759 
L 4031 1441 
L 1416 1441 
Q 1456 1047 1700 850 
Q 1944 653 2381 653 
Q 2734 653 3104 758 
Q 3475 863 3866 1075 
L 3866 213 
Q 3469 63 3072 -14 
Q 2675 -91 2278 -91 
Q 1328 -91 801 392 
Q 275 875 275 1747 
Q 275 2603 792 3093 
Q 1309 3584 2216 3584 
Q 3041 3584 3536 3087 
Q 4031 2591 4031 1759 
z
M 2881 2131 
Q 2881 2450 2695 2645 
Q 2509 2841 2209 2841 
Q 1884 2841 1681 2658 
Q 1478 2475 1428 2131 
L 2881 2131 
z
" transform="scale(0.015625)"/>
      <path id="DejaVuSans-Bold-6c" d="M 538 4863 
L 1656 4863 
L 1656 0 
L 538 0 
L 538 4863 
z
" transform="scale(0.015625)"/>
      <path id="DejaVuSans-Bold-6e" d="M 4056 2131 
L 4056 0 
L 2931 0 
L 2931 347 
L 2931 1631 
Q 2931 2084 2911 2256 
Q 2891 2428 2841 2509 
Q 2775 2619 2662 2680 
Q 2550 2741 2406 2741 
Q 2056 2741 1856 2470 
Q 1656 2200 1656 1722 
L 1656 0 
L 538 0 
L 538 3500 
L 1656 3500 
L 1656 2988 
Q 1909 3294 2193 3439 
Q 2478 3584 2822 3584 
Q 3428 3584 3742 3212 
Q 4056 2841 4056 2131 
z
" transform="scale(0.015625)"/>
      <path id="DejaVuSans-Bold-20" transform="scale(0.015625)"/>
      <path id="DejaVuSans-Bold-64" d="M 2919 2988 
L 2919 4863 
L 4044 4863 
L 4044 0 
L 2919 0 
L 2919 506 
Q 2688 197 2409 53 
Q 2131 -91 1766 -91 
Q 1119 -91 703 423 
Q 288 938 288 1747 
Q 288 2556 703 3070 
Q 1119 3584 1766 3584 
Q 2128 3584 2408 3439 
Q 2688 3294 2919 2988 
z
M 2181 722 
Q 2541 722 2730 984 
Q 2919 1247 2919 1747 
Q 2919 2247 2730 2509 
Q 2541 2772 2181 2772 
Q 1825 2772 1636 2509 
Q 1447 2247 1447 1747 
Q 1447 1247 1636 984 
Q 1825 722 2181 722 
z
" transform="scale(0.015625)"/>
      <path id="DejaVuSans-Bold-74" d="M 1759 4494 
L 1759 3500 
L 2913 3500 
L 2913 2700 
L 1759 2700 
L 1759 1216 
Q 1759 972 1856 886 
Q 1953 800 2241 800 
L 2816 800 
L 2816 0 
L 1856 0 
Q 1194 0 917 276 
Q 641 553 641 1216 
L 641 2700 
L 84 2700 
L 84 3500 
L 641 3500 
L 641 4494 
L 1759 4494 
z
" transform="scale(0.015625)"/>
      <path id="DejaVuSans-Bold-72" d="M 3138 2547 
Q 2991 2616 2845 2648 
Q 2700 2681 2553 2681 
Q 2122 2681 1889 2404 
Q 1656 2128 1656 1613 
L 1656 0 
L 538 0 
L 538 3500 
L 1656 3500 
L 1656 2925 
Q 1872 3269 2151 3426 
Q 2431 3584 2822 3584 
Q 2878 3584 2943 3579 
Q 3009 3575 3134 3559 
L 3138 2547 
z
" transform="scale(0.015625)"/>
      <path id="DejaVuSans-Bold-61" d="M 2106 1575 
Q 1756 1575 1579 1456 
Q 1403 1338 1403 1106 
Q 1403 894 1545 773 
Q 1688 653 1941 653 
Q 2256 653 2472 879 
Q 2688 1106 2688 1447 
L 2688 1575 
L 2106 1575 
z
M 3816 1997 
L 3816 0 
L 2688 0 
L 2688 519 
Q 2463 200 2181 54 
Q 1900 -91 1497 -91 
Q 953 -91 614 226 
Q 275 544 275 1050 
Q 275 1666 698 1953 
Q 1122 2241 2028 2241 
L 2688 2241 
L 2688 2328 
Q 2688 2594 2478 2717 
Q 2269 2841 1825 2841 
Q 1466 2841 1156 2769 
Q 847 2697 581 2553 
L 581 3406 
Q 941 3494 1303 3539 
Q 1666 3584 2028 3584 
Q 2975 3584 3395 3211 
Q 3816 2838 3816 1997 
z
" transform="scale(0.015625)"/>
      <path id="DejaVuSans-Bold-73" d="M 3272 3391 
L 3272 2541 
Q 2913 2691 2578 2766 
Q 2244 2841 1947 2841 
Q 1628 2841 1473 2761 
Q 1319 2681 1319 2516 
Q 1319 2381 1436 2309 
Q 1553 2238 1856 2203 
L 2053 2175 
Q 2913 2066 3209 1816 
Q 3506 1566 3506 1031 
Q 3506 472 3093 190 
Q 2681 -91 1863 -91 
Q 1516 -91 1145 -36 
Q 775 19 384 128 
L 384 978 
Q 719 816 1070 734 
Q 1422 653 1784 653 
Q 2113 653 2278 743 
Q 2444 834 2444 1013 
Q 2444 1163 2330 1236 
Q 2216 1309 1875 1350 
L 1678 1375 
Q 931 1469 631 1722 
Q 331 1975 331 2491 
Q 331 3047 712 3315 
Q 1094 3584 1881 3584 
Q 2191 3584 2531 3537 
Q 2872 3491 3272 3391 
z
" transform="scale(0.015625)"/>
      <path id="DejaVuSans-Bold-66" d="M 2841 4863 
L 2841 4128 
L 2222 4128 
Q 1984 4128 1890 4042 
Q 1797 3956 1797 3744 
L 1797 3500 
L 2753 3500 
L 2753 2700 
L 1797 2700 
L 1797 0 
L 678 0 
L 678 2700 
L 122 2700 
L 122 3500 
L 678 3500 
L 678 3744 
Q 678 4316 997 4589 
Q 1316 4863 1984 4863 
L 2841 4863 
z
" transform="scale(0.015625)"/>
      <path id="DejaVuSans-Bold-6f" d="M 2203 2784 
Q 1831 2784 1636 2517 
Q 1441 2250 1441 1747 
Q 1441 1244 1636 976 
Q 1831 709 2203 709 
Q 2569 709 2762 976 
Q 2956 1244 2956 1747 
Q 2956 2250 2762 2517 
Q 2569 2784 2203 2784 
z
M 2203 3584 
Q 3106 3584 3614 3096 
Q 4122 2609 4122 1747 
Q 4122 884 3614 396 
Q 3106 -91 2203 -91 
Q 1297 -91 786 396 
Q 275 884 275 1747 
Q 275 2609 786 3096 
Q 1297 3584 2203 3584 
z
" transform="scale(0.015625)"/>
      <path id="DejaVuSans-Bold-6d" d="M 3781 2919 
Q 3994 3244 4286 3414 
Q 4578 3584 4928 3584 
Q 5531 3584 5847 3212 
Q 6163 2841 6163 2131 
L 6163 0 
L 5038 0 
L 5038 1825 
Q 5041 1866 5042 1909 
Q 5044 1953 5044 2034 
Q 5044 2406 4934 2573 
Q 4825 2741 4581 2741 
Q 4263 2741 4089 2478 
Q 3916 2216 3909 1719 
L 3909 0 
L 2784 0 
L 2784 1825 
Q 2784 2406 2684 2573 
Q 2584 2741 2328 2741 
Q 2006 2741 1831 2477 
Q 1656 2213 1656 1722 
L 1656 0 
L 531 0 
L 531 3500 
L 1656 3500 
L 1656 2988 
Q 1863 3284 2130 3434 
Q 2397 3584 2719 3584 
Q 3081 3584 3359 3409 
Q 3638 3234 3781 2919 
z
" transform="scale(0.015625)"/>
      <path id="DejaVuSans-Bold-63" d="M 3366 3391 
L 3366 2478 
Q 3138 2634 2908 2709 
Q 2678 2784 2431 2784 
Q 1963 2784 1702 2511 
Q 1441 2238 1441 1747 
Q 1441 1256 1702 982 
Q 1963 709 2431 709 
Q 2694 709 2930 787 
Q 3166 866 3366 1019 
L 3366 103 
Q 3103 6 2833 -42 
Q 2563 -91 2291 -91 
Q 1344 -91 809 395 
Q 275 881 275 1747 
Q 275 2613 809 3098 
Q 1344 3584 2291 3584 
Q 2566 3584 2833 3536 
Q 3100 3488 3366 3391 
z
" transform="scale(0.015625)"/>
      <path id="DejaVuSans-Bold-f3" d="M 2203 2784 
Q 1831 2784 1636 2517 
Q 1441 2250 1441 1747 
Q 1441 1244 1636 976 
Q 1831 709 2203 709 
Q 2569 709 2762 976 
Q 2956 1244 2956 1747 
Q 2956 2250 2762 2517 
Q 2569 2784 2203 2784 
z
M 2203 3584 
Q 3106 3584 3614 3096 
Q 4122 2609 4122 1747 
Q 4122 884 3614 396 
Q 3106 -91 2203 -91 
Q 1297 -91 786 396 
Q 275 884 275 1747 
Q 275 2609 786 3096 
Q 1297 3584 2203 3584 
z
M 2694 5119 
L 3578 5119 
L 2425 3944 
L 1813 3944 
L 2694 5119 
z
" transform="scale(0.015625)"/>
      <path id="DejaVuSans-Bold-75" d="M 500 1363 
L 500 3500 
L 1625 3500 
L 1625 3150 
Q 1625 2866 1622 2436 
Q 1619 2006 1619 1863 
Q 1619 1441 1641 1255 
Q 1663 1069 1716 984 
Q 1784 875 1895 815 
Q 2006 756 2150 756 
Q 2500 756 2700 1025 
Q 2900 1294 2900 1772 
L 2900 3500 
L 4019 3500 
L 4019 0 
L 2900 0 
L 2900 506 
Q 2647 200 2364 54 
Q 2081 -91 1741 -91 
Q 1134 -91 817 281 
Q 500 653 500 1363 
z
" transform="scale(0.015625)"/>
     </defs>
     <use xlink:href="#DejaVuSans-Bold-50"/>
     <use xlink:href="#DejaVuSans-Bold-69" transform="translate(73.291016 0)"/>
     <use xlink:href="#DejaVuSans-Bold-70" transform="translate(107.568359 0)"/>
     <use xlink:href="#DejaVuSans-Bold-65" transform="translate(179.150391 0)"/>
     <use xlink:href="#DejaVuSans-Bold-6c" transform="translate(246.972656 0)"/>
     <use xlink:href="#DejaVuSans-Bold-69" transform="translate(281.25 0)"/>
     <use xlink:href="#DejaVuSans-Bold-6e" transform="translate(315.527344 0)"/>
     <use xlink:href="#DejaVuSans-Bold-65" transform="translate(386.71875 0)"/>
     <use xlink:href="#DejaVuSans-Bold-20" transform="translate(454.541016 0)"/>
     <use xlink:href="#DejaVuSans-Bold-64" transform="translate(489.355469 0)"/>
     <use xlink:href="#DejaVuSans-Bold-65" transform="translate(560.9375 0)"/>
     <use xlink:href="#DejaVuSans-Bold-20" transform="translate(628.759766 0)"/>
     <use xlink:href="#DejaVuSans-Bold-74" transform="translate(663.574219 0)"/>
     <use xlink:href="#DejaVuSans-Bold-72" transform="translate(711.376953 0)"/>
     <use xlink:href="#DejaVuSans-Bold-61" transform="translate(760.693359 0)"/>
     <use xlink:href="#DejaVuSans-Bold-6e" transform="translate(828.173828 0)"/>
     <use xlink:href="#DejaVuSans-Bold-73" transform="translate(899.365234 0)"/>
     <use xlink:href="#DejaVuSans-Bold-66" transform="translate(958.886719 0)"/>
     <use xlink:href="#DejaVuSans-Bold-6f" transform="translate(1002.392578 0)"/>
     <use xlink:href="#DejaVuSans-Bold-72" transform="translate(1071.09375 0)"/>
     <use xlink:href="#DejaVuSans-Bold-6d" transform="translate(1120.410156 0)"/>
     <use xlink:href="#DejaVuSans-Bold-61" transform="translate(1224.609375 0)"/>
     <use xlink:href="#DejaVuSans-Bold-63" transform="translate(1292.089844 0)"/>
     <use xlink:href="#DejaVuSans-Bold-69" transform="translate(1351.367188 0)"/>
     <use xlink:href="#DejaVuSans-Bold-f3" transform="translate(1385.644531 0)"/>
     <use xlink:href="#DejaVuSans-Bold-6e" transform="translate(1454.345703 0)"/>
     <use xlink:href="#DejaVuSans-Bold-20" transform="translate(1525.537109 0)"/>
     <use xlink:href="#DejaVuSans-Bold-64" transform="translate(1560.351562 0)"/>
     <use xlink:href="#DejaVuSans-Bold-6f" transform="translate(1631.933594 0)"/>
     <use xlink:href="#DejaVuSans-Bold-63" transform="translate(1700.634766 0)"/>
     <use xlink:href="#DejaVuSans-Bold-75" transform="translate(1759.912109 0)"/>
     <use xlink:href="#DejaVuSans-Bold-6d" transform="translate(1831.103516 0)"/>
     <use xlink:href="#DejaVuSans-Bold-65" transform="translate(1935.302734 0)"/>
     <use xlink:href="#DejaVuSans-Bold-6e" transform="translate(2003.125 0)"/>
     <use xlink:href="#DejaVuSans-Bold-74" transform="translate(2074.316406 0)"/>
     <use xlink:href="#DejaVuSans-Bold-61" transform="translate(2122.119141 0)"/>
     <use xlink:href="#DejaVuSans-Bold-6c" transform="translate(2189.599609 0)"/>
    </g>
   </g>
   <g id="text_2">
    <!-- PDF original -->
    <g transform="translate(89.667187 184.156455) scale(0.12 -0.12)">
     <defs>
      <path id="DejaVuSans-Bold-44" d="M 1791 3756 
L 1791 909 
L 2222 909 
Q 2959 909 3348 1275 
Q 3738 1641 3738 2338 
Q 3738 3031 3350 3393 
Q 2963 3756 2222 3756 
L 1791 3756 
z
M 588 4666 
L 1856 4666 
Q 2919 4666 3439 4514 
Q 3959 4363 4331 4000 
Q 4659 3684 4818 3271 
Q 4978 2859 4978 2338 
Q 4978 1809 4818 1395 
Q 4659 981 4331 666 
Q 3956 303 3431 151 
Q 2906 0 1856 0 
L 588 0 
L 588 4666 
z
" transform="scale(0.015625)"/>
      <path id="DejaVuSans-Bold-46" d="M 588 4666 
L 3834 4666 
L 3834 3756 
L 1791 3756 
L 1791 2888 
L 3713 2888 
L 3713 1978 
L 1791 1978 
L 1791 0 
L 588 0 
L 588 4666 
z
" transform="scale(0.015625)"/>
      <path id="DejaVuSans-Bold-67" d="M 2919 594 
Q 2688 288 2409 144 
Q 2131 0 1766 0 
Q 1125 0 706 504 
Q 288 1009 288 1791 
Q 288 2575 706 3076 
Q 1125 3578 1766 3578 
Q 2131 3578 2409 3434 
Q 2688 3291 2919 2981 
L 2919 3500 
L 4044 3500 
L 4044 353 
Q 4044 -491 3511 -936 
Q 2978 -1381 1966 -1381 
Q 1638 -1381 1331 -1331 
Q 1025 -1281 716 -1178 
L 716 -306 
Q 1009 -475 1290 -558 
Q 1572 -641 1856 -641 
Q 2406 -641 2662 -400 
Q 2919 -159 2919 353 
L 2919 594 
z
M 2181 2772 
Q 1834 2772 1640 2515 
Q 1447 2259 1447 1791 
Q 1447 1309 1634 1061 
Q 1822 813 2181 813 
Q 2531 813 2725 1069 
Q 2919 1325 2919 1791 
Q 2919 2259 2725 2515 
Q 2531 2772 2181 2772 
z
" transform="scale(0.015625)"/>
     </defs>
     <use xlink:href="#DejaVuSans-Bold-50"/>
     <use xlink:href="#DejaVuSans-Bold-44" transform="translate(73.291016 0)"/>
     <use xlink:href="#DejaVuSans-Bold-46" transform="translate(156.298828 0)"/>
     <use xlink:href="#DejaVuSans-Bold-20" transform="translate(224.609375 0)"/>
     <use xlink:href="#DejaVuSans-Bold-6f" transform="translate(259.423828 0)"/>
     <use xlink:href="#DejaVuSans-Bold-72" transform="translate(328.125 0)"/>
     <use xlink:href="#DejaVuSans-Bold-69" transform="translate(377.441406 0)"/>
     <use xlink:href="#DejaVuSans-Bold-67" transform="translate(411.71875 0)"/>
     <use xlink:href="#DejaVuSans-Bold-69" transform="translate(483.300781 0)"/>
     <use xlink:href="#DejaVuSans-Bold-6e" transform="translate(517.578125 0)"/>
     <use xlink:href="#DejaVuSans-Bold-61" transform="translate(588.769531 0)"/>
     <use xlink:href="#DejaVuSans-Bold-6c" transform="translate(656.25 0)"/>
    </g>
   </g>
   <g id="text_3">
    <!-- Gramática maya -->
    <g transform="translate(91.544375 202.479325) scale(0.095 -0.095)">
     <defs>
      <path id="DejaVuSans-47" d="M 3809 666 
L 3809 1919 
L 2778 1919 
L 2778 2438 
L 4434 2438 
L 4434 434 
Q 4069 175 3628 42 
Q 3188 -91 2688 -91 
Q 1594 -91 976 548 
Q 359 1188 359 2328 
Q 359 3472 976 4111 
Q 1594 4750 2688 4750 
Q 3144 4750 3555 4637 
Q 3966 4525 4313 4306 
L 4313 3634 
Q 3963 3931 3569 4081 
Q 3175 4231 2741 4231 
Q 1884 4231 1454 3753 
Q 1025 3275 1025 2328 
Q 1025 1384 1454 906 
Q 1884 428 2741 428 
Q 3075 428 3337 486 
Q 3600 544 3809 666 
z
" transform="scale(0.015625)"/>
      <path id="DejaVuSans-72" d="M 2631 2963 
Q 2534 3019 2420 3045 
Q 2306 3072 2169 3072 
Q 1681 3072 1420 2755 
Q 1159 2438 1159 1844 
L 1159 0 
L 581 0 
L 581 3500 
L 1159 3500 
L 1159 2956 
Q 1341 3275 1631 3429 
Q 1922 3584 2338 3584 
Q 2397 3584 2469 3576 
Q 2541 3569 2628 3553 
L 2631 2963 
z
" transform="scale(0.015625)"/>
      <path id="DejaVuSans-61" d="M 2194 1759 
Q 1497 1759 1228 1600 
Q 959 1441 959 1056 
Q 959 750 1161 570 
Q 1363 391 1709 391 
Q 2188 391 2477 730 
Q 2766 1069 2766 1631 
L 2766 1759 
L 2194 1759 
z
M 3341 1997 
L 3341 0 
L 2766 0 
L 2766 531 
Q 2569 213 2275 61 
Q 1981 -91 1556 -91 
Q 1019 -91 701 211 
Q 384 513 384 1019 
Q 384 1609 779 1909 
Q 1175 2209 1959 2209 
L 2766 2209 
L 2766 2266 
Q 2766 2663 2505 2880 
Q 2244 3097 1772 3097 
Q 1472 3097 1187 3025 
Q 903 2953 641 2809 
L 641 3341 
Q 956 3463 1253 3523 
Q 1550 3584 1831 3584 
Q 2591 3584 2966 3190 
Q 3341 2797 3341 1997 
z
" transform="scale(0.015625)"/>
      <path id="DejaVuSans-6d" d="M 3328 2828 
Q 3544 3216 3844 3400 
Q 4144 3584 4550 3584 
Q 5097 3584 5394 3201 
Q 5691 2819 5691 2113 
L 5691 0 
L 5113 0 
L 5113 2094 
Q 5113 2597 4934 2840 
Q 4756 3084 4391 3084 
Q 3944 3084 3684 2787 
Q 3425 2491 3425 1978 
L 3425 0 
L 2847 0 
L 2847 2094 
Q 2847 2600 2669 2842 
Q 2491 3084 2119 3084 
Q 1678 3084 1418 2786 
Q 1159 2488 1159 1978 
L 1159 0 
L 581 0 
L 581 3500 
L 1159 3500 
L 1159 2956 
Q 1356 3278 1631 3431 
Q 1906 3584 2284 3584 
Q 2666 3584 2933 3390 
Q 3200 3197 3328 2828 
z
" transform="scale(0.015625)"/>
      <path id="DejaVuSans-e1" d="M 2194 1759 
Q 1497 1759 1228 1600 
Q 959 1441 959 1056 
Q 959 750 1161 570 
Q 1363 391 1709 391 
Q 2188 391 2477 730 
Q 2766 1069 2766 1631 
L 2766 1759 
L 2194 1759 
z
M 3341 1997 
L 3341 0 
L 2766 0 
L 2766 531 
Q 2569 213 2275 61 
Q 1981 -91 1556 -91 
Q 1019 -91 701 211 
Q 384 513 384 1019 
Q 384 1609 779 1909 
Q 1175 2209 1959 2209 
L 2766 2209 
L 2766 2266 
Q 2766 2663 2505 2880 
Q 2244 3097 1772 3097 
Q 1472 3097 1187 3025 
Q 903 2953 641 2809 
L 641 3341 
Q 956 3463 1253 3523 
Q 1550 3584 1831 3584 
Q 2591 3584 2966 3190 
Q 3341 2797 3341 1997 
z
M 2290 5119 
L 2912 5119 
L 1894 3944 
L 1415 3944 
L 2290 5119 
z
" transform="scale(0.015625)"/>
      <path id="DejaVuSans-74" d="M 1172 4494 
L 1172 3500 
L 2356 3500 
L 2356 3053 
L 1172 3053 
L 1172 1153 
Q 1172 725 1289 603 
Q 1406 481 1766 481 
L 2356 481 
L 2356 0 
L 1766 0 
Q 1100 0 847 248 
Q 594 497 594 1153 
L 594 3053 
L 172 3053 
L 172 3500 
L 594 3500 
L 594 4494 
L 1172 4494 
z
" transform="scale(0.015625)"/>
      <path id="DejaVuSans-69" d="M 603 3500 
L 1178 3500 
L 1178 0 
L 603 0 
L 603 3500 
z
M 603 4863 
L 1178 4863 
L 1178 4134 
L 603 4134 
L 603 4863 
z
" transform="scale(0.015625)"/>
      <path id="DejaVuSans-63" d="M 3122 3366 
L 3122 2828 
Q 2878 2963 2633 3030 
Q 2388 3097 2138 3097 
Q 1578 3097 1268 2742 
Q 959 2388 959 1747 
Q 959 1106 1268 751 
Q 1578 397 2138 397 
Q 2388 397 2633 464 
Q 2878 531 3122 666 
L 3122 134 
Q 2881 22 2623 -34 
Q 2366 -91 2075 -91 
Q 1284 -91 818 406 
Q 353 903 353 1747 
Q 353 2603 823 3093 
Q 1294 3584 2113 3584 
Q 2378 3584 2631 3529 
Q 2884 3475 3122 3366 
z
" transform="scale(0.015625)"/>
      <path id="DejaVuSans-20" transform="scale(0.015625)"/>
      <path id="DejaVuSans-79" d="M 2059 -325 
Q 1816 -950 1584 -1140 
Q 1353 -1331 966 -1331 
L 506 -1331 
L 506 -850 
L 844 -850 
Q 1081 -850 1212 -737 
Q 1344 -625 1503 -206 
L 1606 56 
L 191 3500 
L 800 3500 
L 1894 763 
L 2988 3500 
L 3597 3500 
L 2059 -325 
z
" transform="scale(0.015625)"/>
     </defs>
     <use xlink:href="#DejaVuSans-47"/>
     <use xlink:href="#DejaVuSans-72" transform="translate(77.490234 0)"/>
     <use xlink:href="#DejaVuSans-61" transform="translate(118.603516 0)"/>
     <use xlink:href="#DejaVuSans-6d" transform="translate(179.882812 0)"/>
     <use xlink:href="#DejaVuSans-e1" transform="translate(277.294922 0)"/>
     <use xlink:href="#DejaVuSans-74" transform="translate(338.574219 0)"/>
     <use xlink:href="#DejaVuSans-69" transform="translate(377.783203 0)"/>
     <use xlink:href="#DejaVuSans-63" transform="translate(405.566406 0)"/>
     <use xlink:href="#DejaVuSans-61" transform="translate(460.546875 0)"/>
     <use xlink:href="#DejaVuSans-20" transform="translate(521.826172 0)"/>
     <use xlink:href="#DejaVuSans-6d" transform="translate(553.613281 0)"/>
     <use xlink:href="#DejaVuSans-61" transform="translate(651.025391 0)"/>
     <use xlink:href="#DejaVuSans-79" transform="translate(712.304688 0)"/>
     <use xlink:href="#DejaVuSans-61" transform="translate(771.484375 0)"/>
    </g>
    <!-- no estructurada -->
    <g transform="translate(93.177188 213.117247) scale(0.095 -0.095)">
     <defs>
      <path id="DejaVuSans-6e" d="M 3513 2113 
L 3513 0 
L 2938 0 
L 2938 2094 
Q 2938 2591 2744 2837 
Q 2550 3084 2163 3084 
Q 1697 3084 1428 2787 
Q 1159 2491 1159 1978 
L 1159 0 
L 581 0 
L 581 3500 
L 1159 3500 
L 1159 2956 
Q 1366 3272 1645 3428 
Q 1925 3584 2291 3584 
Q 2894 3584 3203 3211 
Q 3513 2838 3513 2113 
z
" transform="scale(0.015625)"/>
      <path id="DejaVuSans-6f" d="M 1959 3097 
Q 1497 3097 1228 2736 
Q 959 2375 959 1747 
Q 959 1119 1226 758 
Q 1494 397 1959 397 
Q 2419 397 2687 759 
Q 2956 1122 2956 1747 
Q 2956 2369 2687 2733 
Q 2419 3097 1959 3097 
z
M 1959 3584 
Q 2709 3584 3137 3096 
Q 3566 2609 3566 1747 
Q 3566 888 3137 398 
Q 2709 -91 1959 -91 
Q 1206 -91 779 398 
Q 353 888 353 1747 
Q 353 2609 779 3096 
Q 1206 3584 1959 3584 
z
" transform="scale(0.015625)"/>
      <path id="DejaVuSans-65" d="M 3597 1894 
L 3597 1613 
L 953 1613 
Q 991 1019 1311 708 
Q 1631 397 2203 397 
Q 2534 397 2845 478 
Q 3156 559 3463 722 
L 3463 178 
Q 3153 47 2828 -22 
Q 2503 -91 2169 -91 
Q 1331 -91 842 396 
Q 353 884 353 1716 
Q 353 2575 817 3079 
Q 1281 3584 2069 3584 
Q 2775 3584 3186 3129 
Q 3597 2675 3597 1894 
z
M 3022 2063 
Q 3016 2534 2758 2815 
Q 2500 3097 2075 3097 
Q 1594 3097 1305 2825 
Q 1016 2553 972 2059 
L 3022 2063 
z
" transform="scale(0.015625)"/>
      <path id="DejaVuSans-73" d="M 2834 3397 
L 2834 2853 
Q 2591 2978 2328 3040 
Q 2066 3103 1784 3103 
Q 1356 3103 1142 2972 
Q 928 2841 928 2578 
Q 928 2378 1081 2264 
Q 1234 2150 1697 2047 
L 1894 2003 
Q 2506 1872 2764 1633 
Q 3022 1394 3022 966 
Q 3022 478 2636 193 
Q 2250 -91 1575 -91 
Q 1294 -91 989 -36 
Q 684 19 347 128 
L 347 722 
Q 666 556 975 473 
Q 1284 391 1588 391 
Q 1994 391 2212 530 
Q 2431 669 2431 922 
Q 2431 1156 2273 1281 
Q 2116 1406 1581 1522 
L 1381 1569 
Q 847 1681 609 1914 
Q 372 2147 372 2553 
Q 372 3047 722 3315 
Q 1072 3584 1716 3584 
Q 2034 3584 2315 3537 
Q 2597 3491 2834 3397 
z
" transform="scale(0.015625)"/>
      <path id="DejaVuSans-75" d="M 544 1381 
L 544 3500 
L 1119 3500 
L 1119 1403 
Q 1119 906 1312 657 
Q 1506 409 1894 409 
Q 2359 409 2629 706 
Q 2900 1003 2900 1516 
L 2900 3500 
L 3475 3500 
L 3475 0 
L 2900 0 
L 2900 538 
Q 2691 219 2414 64 
Q 2138 -91 1772 -91 
Q 1169 -91 856 284 
Q 544 659 544 1381 
z
M 1991 3584 
L 1991 3584 
z
" transform="scale(0.015625)"/>
      <path id="DejaVuSans-64" d="M 2906 2969 
L 2906 4863 
L 3481 4863 
L 3481 0 
L 2906 0 
L 2906 525 
Q 2725 213 2448 61 
Q 2172 -91 1784 -91 
Q 1150 -91 751 415 
Q 353 922 353 1747 
Q 353 2572 751 3078 
Q 1150 3584 1784 3584 
Q 2172 3584 2448 3432 
Q 2725 3281 2906 2969 
z
M 947 1747 
Q 947 1113 1208 752 
Q 1469 391 1925 391 
Q 2381 391 2643 752 
Q 2906 1113 2906 1747 
Q 2906 2381 2643 2742 
Q 2381 3103 1925 3103 
Q 1469 3103 1208 2742 
Q 947 2381 947 1747 
z
" transform="scale(0.015625)"/>
     </defs>
     <use xlink:href="#DejaVuSans-6e"/>
     <use xlink:href="#DejaVuSans-6f" transform="translate(63.378906 0)"/>
     <use xlink:href="#DejaVuSans-20" transform="translate(124.560547 0)"/>
     <use xlink:href="#DejaVuSans-65" transform="translate(156.347656 0)"/>
     <use xlink:href="#DejaVuSans-73" transform="translate(217.871094 0)"/>
     <use xlink:href="#DejaVuSans-74" transform="translate(269.970703 0)"/>
     <use xlink:href="#DejaVuSans-72" transform="translate(309.179688 0)"/>
     <use xlink:href="#DejaVuSans-75" transform="translate(350.292969 0)"/>
     <use xlink:href="#DejaVuSans-63" transform="translate(413.671875 0)"/>
     <use xlink:href="#DejaVuSans-74" transform="translate(468.652344 0)"/>
     <use xlink:href="#DejaVuSans-75" transform="translate(507.861328 0)"/>
     <use xlink:href="#DejaVuSans-72" transform="translate(571.240234 0)"/>
     <use xlink:href="#DejaVuSans-61" transform="translate(612.353516 0)"/>
     <use xlink:href="#DejaVuSans-64" transform="translate(673.632812 0)"/>
     <use xlink:href="#DejaVuSans-61" transform="translate(737.109375 0)"/>
    </g>
   </g>
   <g id="text_4">
    <!-- Bloques PDF -->
    <g transform="translate(306.285 184.20333) scale(0.12 -0.12)">
     <defs>
      <path id="DejaVuSans-Bold-42" d="M 2456 2859 
Q 2741 2859 2887 2984 
Q 3034 3109 3034 3353 
Q 3034 3594 2887 3720 
Q 2741 3847 2456 3847 
L 1791 3847 
L 1791 2859 
L 2456 2859 
z
M 2497 819 
Q 2859 819 3042 972 
Q 3225 1125 3225 1434 
Q 3225 1738 3044 1889 
Q 2863 2041 2497 2041 
L 1791 2041 
L 1791 819 
L 2497 819 
z
M 3616 2497 
Q 4003 2384 4215 2081 
Q 4428 1778 4428 1338 
Q 4428 663 3972 331 
Q 3516 0 2584 0 
L 588 0 
L 588 4666 
L 2394 4666 
Q 3366 4666 3802 4372 
Q 4238 4078 4238 3431 
Q 4238 3091 4078 2852 
Q 3919 2613 3616 2497 
z
" transform="scale(0.015625)"/>
      <path id="DejaVuSans-Bold-71" d="M 2181 2772 
Q 1825 2772 1636 2509 
Q 1447 2247 1447 1747 
Q 1447 1247 1636 984 
Q 1825 722 2181 722 
Q 2541 722 2730 984 
Q 2919 1247 2919 1747 
Q 2919 2247 2730 2509 
Q 2541 2772 2181 2772 
z
M 2919 506 
Q 2688 197 2409 53 
Q 2131 -91 1766 -91 
Q 1119 -91 703 423 
Q 288 938 288 1747 
Q 288 2556 703 3067 
Q 1119 3578 1766 3578 
Q 2131 3578 2409 3434 
Q 2688 3291 2919 2981 
L 2919 3500 
L 4044 3500 
L 4044 -1331 
L 2919 -1331 
L 2919 506 
z
" transform="scale(0.015625)"/>
     </defs>
     <use xlink:href="#DejaVuSans-Bold-42"/>
     <use xlink:href="#DejaVuSans-Bold-6c" transform="translate(76.220703 0)"/>
     <use xlink:href="#DejaVuSans-Bold-6f" transform="translate(110.498047 0)"/>
     <use xlink:href="#DejaVuSans-Bold-71" transform="translate(179.199219 0)"/>
     <use xlink:href="#DejaVuSans-Bold-75" transform="translate(250.78125 0)"/>
     <use xlink:href="#DejaVuSans-Bold-65" transform="translate(321.972656 0)"/>
     <use xlink:href="#DejaVuSans-Bold-73" transform="translate(389.794922 0)"/>
     <use xlink:href="#DejaVuSans-Bold-20" transform="translate(449.316406 0)"/>
     <use xlink:href="#DejaVuSans-Bold-50" transform="translate(484.130859 0)"/>
     <use xlink:href="#DejaVuSans-Bold-44" transform="translate(557.421875 0)"/>
     <use xlink:href="#DejaVuSans-Bold-46" transform="translate(640.429688 0)"/>
    </g>
   </g>
   <g id="text_5">
    <!-- División por rango -->
    <g transform="translate(305.301484 202.251325) scale(0.095 -0.095)">
     <defs>
      <path id="DejaVuSans-44" d="M 1259 4147 
L 1259 519 
L 2022 519 
Q 2988 519 3436 956 
Q 3884 1394 3884 2338 
Q 3884 3275 3436 3711 
Q 2988 4147 2022 4147 
L 1259 4147 
z
M 628 4666 
L 1925 4666 
Q 3281 4666 3915 4102 
Q 4550 3538 4550 2338 
Q 4550 1131 3912 565 
Q 3275 0 1925 0 
L 628 0 
L 628 4666 
z
" transform="scale(0.015625)"/>
      <path id="DejaVuSans-76" d="M 191 3500 
L 800 3500 
L 1894 563 
L 2988 3500 
L 3597 3500 
L 2284 0 
L 1503 0 
L 191 3500 
z
" transform="scale(0.015625)"/>
      <path id="DejaVuSans-f3" d="M 1959 3097 
Q 1497 3097 1228 2736 
Q 959 2375 959 1747 
Q 959 1119 1226 758 
Q 1494 397 1959 397 
Q 2419 397 2687 759 
Q 2956 1122 2956 1747 
Q 2956 2369 2687 2733 
Q 2419 3097 1959 3097 
z
M 1959 3584 
Q 2709 3584 3137 3096 
Q 3566 2609 3566 1747 
Q 3566 888 3137 398 
Q 2709 -91 1959 -91 
Q 1206 -91 779 398 
Q 353 888 353 1747 
Q 353 2609 779 3096 
Q 1206 3584 1959 3584 
z
M 2394 5119 
L 3016 5119 
L 1998 3944 
L 1519 3944 
L 2394 5119 
z
" transform="scale(0.015625)"/>
      <path id="DejaVuSans-70" d="M 1159 525 
L 1159 -1331 
L 581 -1331 
L 581 3500 
L 1159 3500 
L 1159 2969 
Q 1341 3281 1617 3432 
Q 1894 3584 2278 3584 
Q 2916 3584 3314 3078 
Q 3713 2572 3713 1747 
Q 3713 922 3314 415 
Q 2916 -91 2278 -91 
Q 1894 -91 1617 61 
Q 1341 213 1159 525 
z
M 3116 1747 
Q 3116 2381 2855 2742 
Q 2594 3103 2138 3103 
Q 1681 3103 1420 2742 
Q 1159 2381 1159 1747 
Q 1159 1113 1420 752 
Q 1681 391 2138 391 
Q 2594 391 2855 752 
Q 3116 1113 3116 1747 
z
" transform="scale(0.015625)"/>
      <path id="DejaVuSans-67" d="M 2906 1791 
Q 2906 2416 2648 2759 
Q 2391 3103 1925 3103 
Q 1463 3103 1205 2759 
Q 947 2416 947 1791 
Q 947 1169 1205 825 
Q 1463 481 1925 481 
Q 2391 481 2648 825 
Q 2906 1169 2906 1791 
z
M 3481 434 
Q 3481 -459 3084 -895 
Q 2688 -1331 1869 -1331 
Q 1566 -1331 1297 -1286 
Q 1028 -1241 775 -1147 
L 775 -588 
Q 1028 -725 1275 -790 
Q 1522 -856 1778 -856 
Q 2344 -856 2625 -561 
Q 2906 -266 2906 331 
L 2906 616 
Q 2728 306 2450 153 
Q 2172 0 1784 0 
Q 1141 0 747 490 
Q 353 981 353 1791 
Q 353 2603 747 3093 
Q 1141 3584 1784 3584 
Q 2172 3584 2450 3431 
Q 2728 3278 2906 2969 
L 2906 3500 
L 3481 3500 
L 3481 434 
z
" transform="scale(0.015625)"/>
     </defs>
     <use xlink:href="#DejaVuSans-44"/>
     <use xlink:href="#DejaVuSans-69" transform="translate(77.001953 0)"/>
     <use xlink:href="#DejaVuSans-76" transform="translate(104.785156 0)"/>
     <use xlink:href="#DejaVuSans-69" transform="translate(163.964844 0)"/>
     <use xlink:href="#DejaVuSans-73" transform="translate(191.748047 0)"/>
     <use xlink:href="#DejaVuSans-69" transform="translate(243.847656 0)"/>
     <use xlink:href="#DejaVuSans-f3" transform="translate(271.630859 0)"/>
     <use xlink:href="#DejaVuSans-6e" transform="translate(332.8125 0)"/>
     <use xlink:href="#DejaVuSans-20" transform="translate(396.191406 0)"/>
     <use xlink:href="#DejaVuSans-70" transform="translate(427.978516 0)"/>
     <use xlink:href="#DejaVuSans-6f" transform="translate(491.455078 0)"/>
     <use xlink:href="#DejaVuSans-72" transform="translate(552.636719 0)"/>
     <use xlink:href="#DejaVuSans-20" transform="translate(593.75 0)"/>
     <use xlink:href="#DejaVuSans-72" transform="translate(625.537109 0)"/>
     <use xlink:href="#DejaVuSans-61" transform="translate(666.650391 0)"/>
     <use xlink:href="#DejaVuSans-6e" transform="translate(727.929688 0)"/>
     <use xlink:href="#DejaVuSans-67" transform="translate(791.308594 0)"/>
     <use xlink:href="#DejaVuSans-6f" transform="translate(854.785156 0)"/>
    </g>
    <!-- de páginas -->
    <g transform="translate(322.705039 213.345247) scale(0.095 -0.095)">
     <use xlink:href="#DejaVuSans-64"/>
     <use xlink:href="#DejaVuSans-65" transform="translate(63.476562 0)"/>
     <use xlink:href="#DejaVuSans-20" transform="translate(125 0)"/>
     <use xlink:href="#DejaVuSans-70" transform="translate(156.787109 0)"/>
     <use xlink:href="#DejaVuSans-e1" transform="translate(220.263672 0)"/>
     <use xlink:href="#DejaVuSans-67" transform="translate(281.542969 0)"/>
     <use xlink:href="#DejaVuSans-69" transform="translate(345.019531 0)"/>
     <use xlink:href="#DejaVuSans-6e" transform="translate(372.802734 0)"/>
     <use xlink:href="#DejaVuSans-61" transform="translate(436.181641 0)"/>
     <use xlink:href="#DejaVuSans-73" transform="translate(497.460938 0)"/>
    </g>
   </g>
   <g id="text_6">
    <!-- Gemini API -->
    <g transform="translate(554.30625 180.01293) scale(0.12 -0.12)">
     <defs>
      <path id="DejaVuSans-Bold-47" d="M 4781 347 
Q 4331 128 3847 18 
Q 3363 -91 2847 -91 
Q 1681 -91 1000 561 
Q 319 1213 319 2328 
Q 319 3456 1012 4103 
Q 1706 4750 2913 4750 
Q 3378 4750 3804 4662 
Q 4231 4575 4609 4403 
L 4609 3438 
Q 4219 3659 3833 3768 
Q 3447 3878 3059 3878 
Q 2341 3878 1952 3476 
Q 1563 3075 1563 2328 
Q 1563 1588 1938 1184 
Q 2313 781 3003 781 
Q 3191 781 3352 804 
Q 3513 828 3641 878 
L 3641 1784 
L 2906 1784 
L 2906 2591 
L 4781 2591 
L 4781 347 
z
" transform="scale(0.015625)"/>
      <path id="DejaVuSans-Bold-41" d="M 3419 850 
L 1538 850 
L 1241 0 
L 31 0 
L 1759 4666 
L 3194 4666 
L 4922 0 
L 3713 0 
L 3419 850 
z
M 1838 1716 
L 3116 1716 
L 2478 3572 
L 1838 1716 
z
" transform="scale(0.015625)"/>
      <path id="DejaVuSans-Bold-49" d="M 588 4666 
L 1791 4666 
L 1791 0 
L 588 0 
L 588 4666 
z
" transform="scale(0.015625)"/>
     </defs>
     <use xlink:href="#DejaVuSans-Bold-47"/>
     <use xlink:href="#DejaVuSans-Bold-65" transform="translate(82.080078 0)"/>
     <use xlink:href="#DejaVuSans-Bold-6d" transform="translate(149.902344 0)"/>
     <use xlink:href="#DejaVuSans-Bold-69" transform="translate(254.101562 0)"/>
     <use xlink:href="#DejaVuSans-Bold-6e" transform="translate(288.378906 0)"/>
     <use xlink:href="#DejaVuSans-Bold-69" transform="translate(359.570312 0)"/>
     <use xlink:href="#DejaVuSans-Bold-20" transform="translate(393.847656 0)"/>
     <use xlink:href="#DejaVuSans-Bold-41" transform="translate(428.662109 0)"/>
     <use xlink:href="#DejaVuSans-Bold-50" transform="translate(506.054688 0)"/>
     <use xlink:href="#DejaVuSans-Bold-49" transform="translate(579.345703 0)"/>
    </g>
   </g>
   <g id="text_7">
    <!-- Prompt especializado -->
    <g transform="translate(540.610078 208.574925) scale(0.095 -0.095)">
     <defs>
      <path id="DejaVuSans-50" d="M 1259 4147 
L 1259 2394 
L 2053 2394 
Q 2494 2394 2734 2622 
Q 2975 2850 2975 3272 
Q 2975 3691 2734 3919 
Q 2494 4147 2053 4147 
L 1259 4147 
z
M 628 4666 
L 2053 4666 
Q 2838 4666 3239 4311 
Q 3641 3956 3641 3272 
Q 3641 2581 3239 2228 
Q 2838 1875 2053 1875 
L 1259 1875 
L 1259 0 
L 628 0 
L 628 4666 
z
" transform="scale(0.015625)"/>
      <path id="DejaVuSans-6c" d="M 603 4863 
L 1178 4863 
L 1178 0 
L 603 0 
L 603 4863 
z
" transform="scale(0.015625)"/>
      <path id="DejaVuSans-7a" d="M 353 3500 
L 3084 3500 
L 3084 2975 
L 922 459 
L 3084 459 
L 3084 0 
L 275 0 
L 275 525 
L 2438 3041 
L 353 3041 
L 353 3500 
z
" transform="scale(0.015625)"/>
     </defs>
     <use xlink:href="#DejaVuSans-50"/>
     <use xlink:href="#DejaVuSans-72" transform="translate(58.552734 0)"/>
     <use xlink:href="#DejaVuSans-6f" transform="translate(97.416016 0)"/>
     <use xlink:href="#DejaVuSans-6d" transform="translate(158.597656 0)"/>
     <use xlink:href="#DejaVuSans-70" transform="translate(256.009766 0)"/>
     <use xlink:href="#DejaVuSans-74" transform="translate(319.486328 0)"/>
     <use xlink:href="#DejaVuSans-20" transform="translate(358.695312 0)"/>
     <use xlink:href="#DejaVuSans-65" transform="translate(390.482422 0)"/>
     <use xlink:href="#DejaVuSans-73" transform="translate(452.005859 0)"/>
     <use xlink:href="#DejaVuSans-70" transform="translate(504.105469 0)"/>
     <use xlink:href="#DejaVuSans-65" transform="translate(567.582031 0)"/>
     <use xlink:href="#DejaVuSans-63" transform="translate(629.105469 0)"/>
     <use xlink:href="#DejaVuSans-69" transform="translate(684.085938 0)"/>
     <use xlink:href="#DejaVuSans-61" transform="translate(711.869141 0)"/>
     <use xlink:href="#DejaVuSans-6c" transform="translate(773.148438 0)"/>
     <use xlink:href="#DejaVuSans-69" transform="translate(800.931641 0)"/>
     <use xlink:href="#DejaVuSans-7a" transform="translate(828.714844 0)"/>
     <use xlink:href="#DejaVuSans-61" transform="translate(881.205078 0)"/>
     <use xlink:href="#DejaVuSans-64" transform="translate(942.484375 0)"/>
     <use xlink:href="#DejaVuSans-6f" transform="translate(1005.960938 0)"/>
    </g>
    <!-- + ejemplos few-shot -->
    <g transform="translate(542.346055 219.212847) scale(0.095 -0.095)">
     <defs>
      <path id="DejaVuSans-2b" d="M 2944 4013 
L 2944 2272 
L 4684 2272 
L 4684 1741 
L 2944 1741 
L 2944 0 
L 2419 0 
L 2419 1741 
L 678 1741 
L 678 2272 
L 2419 2272 
L 2419 4013 
L 2944 4013 
z
" transform="scale(0.015625)"/>
      <path id="DejaVuSans-6a" d="M 603 3500 
L 1178 3500 
L 1178 -63 
Q 1178 -731 923 -1031 
Q 669 -1331 103 -1331 
L -116 -1331 
L -116 -844 
L 38 -844 
Q 366 -844 484 -692 
Q 603 -541 603 -63 
L 603 3500 
z
M 603 4863 
L 1178 4863 
L 1178 4134 
L 603 4134 
L 603 4863 
z
" transform="scale(0.015625)"/>
      <path id="DejaVuSans-66" d="M 2375 4863 
L 2375 4384 
L 1825 4384 
Q 1516 4384 1395 4259 
Q 1275 4134 1275 3809 
L 1275 3500 
L 2222 3500 
L 2222 3053 
L 1275 3053 
L 1275 0 
L 697 0 
L 697 3053 
L 147 3053 
L 147 3500 
L 697 3500 
L 697 3744 
Q 697 4328 969 4595 
Q 1241 4863 1831 4863 
L 2375 4863 
z
" transform="scale(0.015625)"/>
      <path id="DejaVuSans-77" d="M 269 3500 
L 844 3500 
L 1563 769 
L 2278 3500 
L 2956 3500 
L 3675 769 
L 4391 3500 
L 4966 3500 
L 4050 0 
L 3372 0 
L 2619 2869 
L 1863 0 
L 1184 0 
L 269 3500 
z
" transform="scale(0.015625)"/>
      <path id="DejaVuSans-2d" d="M 313 2009 
L 1997 2009 
L 1997 1497 
L 313 1497 
L 313 2009 
z
" transform="scale(0.015625)"/>
      <path id="DejaVuSans-68" d="M 3513 2113 
L 3513 0 
L 2938 0 
L 2938 2094 
Q 2938 2591 2744 2837 
Q 2550 3084 2163 3084 
Q 1697 3084 1428 2787 
Q 1159 2491 1159 1978 
L 1159 0 
L 581 0 
L 581 4863 
L 1159 4863 
L 1159 2956 
Q 1366 3272 1645 3428 
Q 1925 3584 2291 3584 
Q 2894 3584 3203 3211 
Q 3513 2838 3513 2113 
z
" transform="scale(0.015625)"/>
     </defs>
     <use xlink:href="#DejaVuSans-2b"/>
     <use xlink:href="#DejaVuSans-20" transform="translate(83.789062 0)"/>
     <use xlink:href="#DejaVuSans-65" transform="translate(115.576172 0)"/>
     <use xlink:href="#DejaVuSans-6a" transform="translate(177.099609 0)"/>
     <use xlink:href="#DejaVuSans-65" transform="translate(204.882812 0)"/>
     <use xlink:href="#DejaVuSans-6d" transform="translate(266.40625 0)"/>
     <use xlink:href="#DejaVuSans-70" transform="translate(363.818359 0)"/>
     <use xlink:href="#DejaVuSans-6c" transform="translate(427.294922 0)"/>
     <use xlink:href="#DejaVuSans-6f" transform="translate(455.078125 0)"/>
     <use xlink:href="#DejaVuSans-73" transform="translate(516.259766 0)"/>
     <use xlink:href="#DejaVuSans-20" transform="translate(568.359375 0)"/>
     <use xlink:href="#DejaVuSans-66" transform="translate(600.146484 0)"/>
     <use xlink:href="#DejaVuSans-65" transform="translate(635.351562 0)"/>
     <use xlink:href="#DejaVuSans-77" transform="translate(696.875 0)"/>
     <use xlink:href="#DejaVuSans-2d" transform="translate(778.662109 0)"/>
     <use xlink:href="#DejaVuSans-73" transform="translate(814.746094 0)"/>
     <use xlink:href="#DejaVuSans-68" transform="translate(866.845703 0)"/>
     <use xlink:href="#DejaVuSans-6f" transform="translate(930.224609 0)"/>
     <use xlink:href="#DejaVuSans-74" transform="translate(991.40625 0)"/>
    </g>
   </g>
   <g id="text_8">
    <!-- XML semántico -->
    <g transform="translate(782.464687 184.20333) scale(0.12 -0.12)">
     <defs>
      <path id="DejaVuSans-Bold-58" d="M 3188 2381 
L 4806 0 
L 3553 0 
L 2463 1594 
L 1381 0 
L 122 0 
L 1741 2381 
L 184 4666 
L 1441 4666 
L 2463 3163 
L 3481 4666 
L 4744 4666 
L 3188 2381 
z
" transform="scale(0.015625)"/>
      <path id="DejaVuSans-Bold-4d" d="M 588 4666 
L 2119 4666 
L 3181 2169 
L 4250 4666 
L 5778 4666 
L 5778 0 
L 4641 0 
L 4641 3413 
L 3566 897 
L 2803 897 
L 1728 3413 
L 1728 0 
L 588 0 
L 588 4666 
z
" transform="scale(0.015625)"/>
      <path id="DejaVuSans-Bold-4c" d="M 588 4666 
L 1791 4666 
L 1791 909 
L 3903 909 
L 3903 0 
L 588 0 
L 588 4666 
z
" transform="scale(0.015625)"/>
      <path id="DejaVuSans-Bold-e1" d="M 2106 1575 
Q 1756 1575 1579 1456 
Q 1403 1338 1403 1106 
Q 1403 894 1545 773 
Q 1688 653 1941 653 
Q 2256 653 2472 879 
Q 2688 1106 2688 1447 
L 2688 1575 
L 2106 1575 
z
M 3816 1997 
L 3816 0 
L 2688 0 
L 2688 519 
Q 2463 200 2181 54 
Q 1900 -91 1497 -91 
Q 953 -91 614 226 
Q 275 544 275 1050 
Q 275 1666 698 1953 
Q 1122 2241 2028 2241 
L 2688 2241 
L 2688 2328 
Q 2688 2594 2478 2717 
Q 2269 2841 1825 2841 
Q 1466 2841 1156 2769 
Q 847 2697 581 2553 
L 581 3406 
Q 941 3494 1303 3539 
Q 1666 3584 2028 3584 
Q 2975 3584 3395 3211 
Q 3816 2838 3816 1997 
z
M 2606 5119 
L 3490 5119 
L 2337 3944 
L 1725 3944 
L 2606 5119 
z
" transform="scale(0.015625)"/>
     </defs>
     <use xlink:href="#DejaVuSans-Bold-58"/>
     <use xlink:href="#DejaVuSans-Bold-4d" transform="translate(77.099609 0)"/>
     <use xlink:href="#DejaVuSans-Bold-4c" transform="translate(176.611328 0)"/>
     <use xlink:href="#DejaVuSans-Bold-20" transform="translate(240.332031 0)"/>
     <use xlink:href="#DejaVuSans-Bold-73" transform="translate(275.146484 0)"/>
     <use xlink:href="#DejaVuSans-Bold-65" transform="translate(334.667969 0)"/>
     <use xlink:href="#DejaVuSans-Bold-6d" transform="translate(402.490234 0)"/>
     <use xlink:href="#DejaVuSans-Bold-e1" transform="translate(506.689453 0)"/>
     <use xlink:href="#DejaVuSans-Bold-6e" transform="translate(574.169922 0)"/>
     <use xlink:href="#DejaVuSans-Bold-74" transform="translate(645.361328 0)"/>
     <use xlink:href="#DejaVuSans-Bold-69" transform="translate(693.164062 0)"/>
     <use xlink:href="#DejaVuSans-Bold-63" transform="translate(727.441406 0)"/>
     <use xlink:href="#DejaVuSans-Bold-6f" transform="translate(786.71875 0)"/>
    </g>
   </g>
   <g id="text_9">
    <!-- page, heading, -->
    <g transform="translate(798.191719 202.157216) scale(0.095 -0.095)">
     <defs>
      <path id="DejaVuSans-2c" d="M 750 794 
L 1409 794 
L 1409 256 
L 897 -744 
L 494 -744 
L 750 256 
L 750 794 
z
" transform="scale(0.015625)"/>
     </defs>
     <use xlink:href="#DejaVuSans-70"/>
     <use xlink:href="#DejaVuSans-61" transform="translate(63.476562 0)"/>
     <use xlink:href="#DejaVuSans-67" transform="translate(124.755859 0)"/>
     <use xlink:href="#DejaVuSans-65" transform="translate(188.232422 0)"/>
     <use xlink:href="#DejaVuSans-2c" transform="translate(249.755859 0)"/>
     <use xlink:href="#DejaVuSans-20" transform="translate(281.542969 0)"/>
     <use xlink:href="#DejaVuSans-68" transform="translate(313.330078 0)"/>
     <use xlink:href="#DejaVuSans-65" transform="translate(376.708984 0)"/>
     <use xlink:href="#DejaVuSans-61" transform="translate(438.232422 0)"/>
     <use xlink:href="#DejaVuSans-64" transform="translate(499.511719 0)"/>
     <use xlink:href="#DejaVuSans-69" transform="translate(562.988281 0)"/>
     <use xlink:href="#DejaVuSans-6e" transform="translate(590.771484 0)"/>
     <use xlink:href="#DejaVuSans-67" transform="translate(654.150391 0)"/>
     <use xlink:href="#DejaVuSans-2c" transform="translate(717.626953 0)"/>
    </g>
    <!-- interlinear_gloss -->
    <g transform="translate(794.72125 212.795138) scale(0.095 -0.095)">
     <defs>
      <path id="DejaVuSans-5f" d="M 3263 -1063 
L 3263 -1509 
L -63 -1509 
L -63 -1063 
L 3263 -1063 
z
" transform="scale(0.015625)"/>
     </defs>
     <use xlink:href="#DejaVuSans-69"/>
     <use xlink:href="#DejaVuSans-6e" transform="translate(27.783203 0)"/>
     <use xlink:href="#DejaVuSans-74" transform="translate(91.162109 0)"/>
     <use xlink:href="#DejaVuSans-65" transform="translate(130.371094 0)"/>
     <use xlink:href="#DejaVuSans-72" transform="translate(191.894531 0)"/>
     <use xlink:href="#DejaVuSans-6c" transform="translate(233.007812 0)"/>
     <use xlink:href="#DejaVuSans-69" transform="translate(260.791016 0)"/>
     <use xlink:href="#DejaVuSans-6e" transform="translate(288.574219 0)"/>
     <use xlink:href="#DejaVuSans-65" transform="translate(351.953125 0)"/>
     <use xlink:href="#DejaVuSans-61" transform="translate(413.476562 0)"/>
     <use xlink:href="#DejaVuSans-72" transform="translate(474.755859 0)"/>
     <use xlink:href="#DejaVuSans-5f" transform="translate(515.869141 0)"/>
     <use xlink:href="#DejaVuSans-67" transform="translate(565.869141 0)"/>
     <use xlink:href="#DejaVuSans-6c" transform="translate(629.345703 0)"/>
     <use xlink:href="#DejaVuSans-6f" transform="translate(657.128906 0)"/>
     <use xlink:href="#DejaVuSans-73" transform="translate(718.310547 0)"/>
     <use xlink:href="#DejaVuSans-73" transform="translate(770.410156 0)"/>
    </g>
   </g>
   <g id="text_10">
    <!-- Validación -->
    <g transform="translate(971.466211 186.094144) scale(0.105 -0.105)">
     <defs>
      <path id="DejaVuSans-Bold-56" d="M 31 4666 
L 1241 4666 
L 2478 1222 
L 3713 4666 
L 4922 4666 
L 3194 0 
L 1759 0 
L 31 4666 
z
" transform="scale(0.015625)"/>
     </defs>
     <use xlink:href="#DejaVuSans-Bold-56"/>
     <use xlink:href="#DejaVuSans-Bold-61" transform="translate(71.892578 0)"/>
     <use xlink:href="#DejaVuSans-Bold-6c" transform="translate(139.373047 0)"/>
     <use xlink:href="#DejaVuSans-Bold-69" transform="translate(173.650391 0)"/>
     <use xlink:href="#DejaVuSans-Bold-64" transform="translate(207.927734 0)"/>
     <use xlink:href="#DejaVuSans-Bold-61" transform="translate(279.509766 0)"/>
     <use xlink:href="#DejaVuSans-Bold-63" transform="translate(346.990234 0)"/>
     <use xlink:href="#DejaVuSans-Bold-69" transform="translate(406.267578 0)"/>
     <use xlink:href="#DejaVuSans-Bold-f3" transform="translate(440.544922 0)"/>
     <use xlink:href="#DejaVuSans-Bold-6e" transform="translate(509.246094 0)"/>
    </g>
   </g>
   <g id="text_11">
    <!-- DTD -->
    <g transform="translate(992.476562 208.67225) scale(0.088 -0.088)">
     <defs>
      <path id="DejaVuSans-54" d="M -19 4666 
L 3928 4666 
L 3928 4134 
L 2272 4134 
L 2272 0 
L 1638 0 
L 1638 4134 
L -19 4134 
L -19 4666 
z
" transform="scale(0.015625)"/>
     </defs>
     <use xlink:href="#DejaVuSans-44"/>
     <use xlink:href="#DejaVuSans-54" transform="translate(77.001953 0)"/>
     <use xlink:href="#DejaVuSans-44" transform="translate(138.085938 0)"/>
    </g>
   </g>
   <g id="text_12">
    <!-- XML Corrector -->
    <g transform="translate(1118.527031 319.626512) scale(0.11 -0.11)">
     <defs>
      <path id="DejaVuSans-Bold-43" d="M 4288 256 
Q 3956 84 3597 -3 
Q 3238 -91 2847 -91 
Q 1681 -91 1000 561 
Q 319 1213 319 2328 
Q 319 3447 1000 4098 
Q 1681 4750 2847 4750 
Q 3238 4750 3597 4662 
Q 3956 4575 4288 4403 
L 4288 3438 
Q 3953 3666 3628 3772 
Q 3303 3878 2944 3878 
Q 2300 3878 1931 3465 
Q 1563 3053 1563 2328 
Q 1563 1606 1931 1193 
Q 2300 781 2944 781 
Q 3303 781 3628 887 
Q 3953 994 4288 1222 
L 4288 256 
z
" transform="scale(0.015625)"/>
     </defs>
     <use xlink:href="#DejaVuSans-Bold-58"/>
     <use xlink:href="#DejaVuSans-Bold-4d" transform="translate(77.099609 0)"/>
     <use xlink:href="#DejaVuSans-Bold-4c" transform="translate(176.611328 0)"/>
     <use xlink:href="#DejaVuSans-Bold-20" transform="translate(240.332031 0)"/>
     <use xlink:href="#DejaVuSans-Bold-43" transform="translate(275.146484 0)"/>
     <use xlink:href="#DejaVuSans-Bold-6f" transform="translate(348.535156 0)"/>
     <use xlink:href="#DejaVuSans-Bold-72" transform="translate(417.236328 0)"/>
     <use xlink:href="#DejaVuSans-Bold-72" transform="translate(466.552734 0)"/>
     <use xlink:href="#DejaVuSans-Bold-65" transform="translate(515.869141 0)"/>
     <use xlink:href="#DejaVuSans-Bold-63" transform="translate(583.691406 0)"/>
     <use xlink:href="#DejaVuSans-Bold-74" transform="translate(642.96875 0)"/>
     <use xlink:href="#DejaVuSans-Bold-6f" transform="translate(690.771484 0)"/>
     <use xlink:href="#DejaVuSans-Bold-72" transform="translate(759.472656 0)"/>
    </g>
   </g>
   <g id="text_13">
    <!-- Reparación estructural -->
    <g transform="translate(1108.963164 335.035645) scale(0.095 -0.095)">
     <defs>
      <path id="DejaVuSans-52" d="M 2841 2188 
Q 3044 2119 3236 1894 
Q 3428 1669 3622 1275 
L 4263 0 
L 3584 0 
L 2988 1197 
Q 2756 1666 2539 1819 
Q 2322 1972 1947 1972 
L 1259 1972 
L 1259 0 
L 628 0 
L 628 4666 
L 2053 4666 
Q 2853 4666 3247 4331 
Q 3641 3997 3641 3322 
Q 3641 2881 3436 2590 
Q 3231 2300 2841 2188 
z
M 1259 4147 
L 1259 2491 
L 2053 2491 
Q 2509 2491 2742 2702 
Q 2975 2913 2975 3322 
Q 2975 3731 2742 3939 
Q 2509 4147 2053 4147 
L 1259 4147 
z
" transform="scale(0.015625)"/>
     </defs>
     <use xlink:href="#DejaVuSans-52"/>
     <use xlink:href="#DejaVuSans-65" transform="translate(64.982422 0)"/>
     <use xlink:href="#DejaVuSans-70" transform="translate(126.505859 0)"/>
     <use xlink:href="#DejaVuSans-61" transform="translate(189.982422 0)"/>
     <use xlink:href="#DejaVuSans-72" transform="translate(251.261719 0)"/>
     <use xlink:href="#DejaVuSans-61" transform="translate(292.375 0)"/>
     <use xlink:href="#DejaVuSans-63" transform="translate(353.654297 0)"/>
     <use xlink:href="#DejaVuSans-69" transform="translate(408.634766 0)"/>
     <use xlink:href="#DejaVuSans-f3" transform="translate(436.417969 0)"/>
     <use xlink:href="#DejaVuSans-6e" transform="translate(497.599609 0)"/>
     <use xlink:href="#DejaVuSans-20" transform="translate(560.978516 0)"/>
     <use xlink:href="#DejaVuSans-65" transform="translate(592.765625 0)"/>
     <use xlink:href="#DejaVuSans-73" transform="translate(654.289062 0)"/>
     <use xlink:href="#DejaVuSans-74" transform="translate(706.388672 0)"/>
     <use xlink:href="#DejaVuSans-72" transform="translate(745.597656 0)"/>
     <use xlink:href="#DejaVuSans-75" transform="translate(786.710938 0)"/>
     <use xlink:href="#DejaVuSans-63" transform="translate(850.089844 0)"/>
     <use xlink:href="#DejaVuSans-74" transform="translate(905.070312 0)"/>
     <use xlink:href="#DejaVuSans-75" transform="translate(944.279297 0)"/>
     <use xlink:href="#DejaVuSans-72" transform="translate(1007.658203 0)"/>
     <use xlink:href="#DejaVuSans-61" transform="translate(1048.771484 0)"/>
     <use xlink:href="#DejaVuSans-6c" transform="translate(1110.050781 0)"/>
    </g>
    <!-- con LLM -->
    <g transform="translate(1143.580273 345.673567) scale(0.095 -0.095)">
     <defs>
      <path id="DejaVuSans-4c" d="M 628 4666 
L 1259 4666 
L 1259 531 
L 3531 531 
L 3531 0 
L 628 0 
L 628 4666 
z
" transform="scale(0.015625)"/>
      <path id="DejaVuSans-4d" d="M 628 4666 
L 1569 4666 
L 2759 1491 
L 3956 4666 
L 4897 4666 
L 4897 0 
L 4281 0 
L 4281 4097 
L 3078 897 
L 2444 897 
L 1241 4097 
L 1241 0 
L 628 0 
L 628 4666 
z
" transform="scale(0.015625)"/>
     </defs>
     <use xlink:href="#DejaVuSans-63"/>
     <use xlink:href="#DejaVuSans-6f" transform="translate(54.980469 0)"/>
     <use xlink:href="#DejaVuSans-6e" transform="translate(116.162109 0)"/>
     <use xlink:href="#DejaVuSans-20" transform="translate(179.541016 0)"/>
     <use xlink:href="#DejaVuSans-4c" transform="translate(211.328125 0)"/>
     <use xlink:href="#DejaVuSans-4c" transform="translate(267.041016 0)"/>
     <use xlink:href="#DejaVuSans-4d" transform="translate(322.753906 0)"/>
    </g>
   </g>
   <g id="text_14">
    <!-- XML válido -->
    <g transform="translate(796.790625 432.13533) scale(0.12 -0.12)">
     <defs>
      <path id="DejaVuSans-Bold-76" d="M 97 3500 
L 1216 3500 
L 2088 1081 
L 2956 3500 
L 4078 3500 
L 2700 0 
L 1472 0 
L 97 3500 
z
" transform="scale(0.015625)"/>
     </defs>
     <use xlink:href="#DejaVuSans-Bold-58"/>
     <use xlink:href="#DejaVuSans-Bold-4d" transform="translate(77.099609 0)"/>
     <use xlink:href="#DejaVuSans-Bold-4c" transform="translate(176.611328 0)"/>
     <use xlink:href="#DejaVuSans-Bold-20" transform="translate(240.332031 0)"/>
     <use xlink:href="#DejaVuSans-Bold-76" transform="translate(275.146484 0)"/>
     <use xlink:href="#DejaVuSans-Bold-e1" transform="translate(340.332031 0)"/>
     <use xlink:href="#DejaVuSans-Bold-6c" transform="translate(407.8125 0)"/>
     <use xlink:href="#DejaVuSans-Bold-69" transform="translate(442.089844 0)"/>
     <use xlink:href="#DejaVuSans-Bold-64" transform="translate(476.367188 0)"/>
     <use xlink:href="#DejaVuSans-Bold-6f" transform="translate(547.949219 0)"/>
    </g>
   </g>
   <g id="text_15">
    <!-- Jerarquía semántica -->
    <g transform="translate(786.317461 450.411325) scale(0.095 -0.095)">
     <defs>
      <path id="DejaVuSans-4a" d="M 628 4666 
L 1259 4666 
L 1259 325 
Q 1259 -519 939 -900 
Q 619 -1281 -91 -1281 
L -331 -1281 
L -331 -750 
L -134 -750 
Q 284 -750 456 -515 
Q 628 -281 628 325 
L 628 4666 
z
" transform="scale(0.015625)"/>
      <path id="DejaVuSans-71" d="M 947 1747 
Q 947 1113 1208 752 
Q 1469 391 1925 391 
Q 2381 391 2643 752 
Q 2906 1113 2906 1747 
Q 2906 2381 2643 2742 
Q 2381 3103 1925 3103 
Q 1469 3103 1208 2742 
Q 947 2381 947 1747 
z
M 2906 525 
Q 2725 213 2448 61 
Q 2172 -91 1784 -91 
Q 1150 -91 751 415 
Q 353 922 353 1747 
Q 353 2572 751 3078 
Q 1150 3584 1784 3584 
Q 2172 3584 2448 3432 
Q 2725 3281 2906 2969 
L 2906 3500 
L 3481 3500 
L 3481 -1331 
L 2906 -1331 
L 2906 525 
z
" transform="scale(0.015625)"/>
      <path id="DejaVuSans-ed" d="M 1322 5119 
L 1944 5119 
L 926 3944 
L 447 3944 
L 1322 5119 
z
M 603 3500 
L 1178 3500 
L 1178 0 
L 603 0 
L 603 3500 
z
M 891 3584 
L 891 3584 
z
" transform="scale(0.015625)"/>
     </defs>
     <use xlink:href="#DejaVuSans-4a"/>
     <use xlink:href="#DejaVuSans-65" transform="translate(29.492188 0)"/>
     <use xlink:href="#DejaVuSans-72" transform="translate(91.015625 0)"/>
     <use xlink:href="#DejaVuSans-61" transform="translate(132.128906 0)"/>
     <use xlink:href="#DejaVuSans-72" transform="translate(193.408203 0)"/>
     <use xlink:href="#DejaVuSans-71" transform="translate(232.771484 0)"/>
     <use xlink:href="#DejaVuSans-75" transform="translate(296.248047 0)"/>
     <use xlink:href="#DejaVuSans-ed" transform="translate(359.626953 0)"/>
     <use xlink:href="#DejaVuSans-61" transform="translate(387.410156 0)"/>
     <use xlink:href="#DejaVuSans-20" transform="translate(448.689453 0)"/>
     <use xlink:href="#DejaVuSans-73" transform="translate(480.476562 0)"/>
     <use xlink:href="#DejaVuSans-65" transform="translate(532.576172 0)"/>
     <use xlink:href="#DejaVuSans-6d" transform="translate(594.099609 0)"/>
     <use xlink:href="#DejaVuSans-e1" transform="translate(691.511719 0)"/>
     <use xlink:href="#DejaVuSans-6e" transform="translate(752.791016 0)"/>
     <use xlink:href="#DejaVuSans-74" transform="translate(816.169922 0)"/>
     <use xlink:href="#DejaVuSans-69" transform="translate(855.378906 0)"/>
     <use xlink:href="#DejaVuSans-63" transform="translate(883.162109 0)"/>
     <use xlink:href="#DejaVuSans-61" transform="translate(938.142578 0)"/>
    </g>
    <!-- garantizada -->
    <g transform="translate(805.477773 461.049247) scale(0.095 -0.095)">
     <use xlink:href="#DejaVuSans-67"/>
     <use xlink:href="#DejaVuSans-61" transform="translate(63.476562 0)"/>
     <use xlink:href="#DejaVuSans-72" transform="translate(124.755859 0)"/>
     <use xlink:href="#DejaVuSans-61" transform="translate(165.869141 0)"/>
     <use xlink:href="#DejaVuSans-6e" transform="translate(227.148438 0)"/>
     <use xlink:href="#DejaVuSans-74" transform="translate(290.527344 0)"/>
     <use xlink:href="#DejaVuSans-69" transform="translate(329.736328 0)"/>
     <use xlink:href="#DejaVuSans-7a" transform="translate(357.519531 0)"/>
     <use xlink:href="#DejaVuSans-61" transform="translate(410.009766 0)"/>
     <use xlink:href="#DejaVuSans-64" transform="translate(471.289062 0)"/>
     <use xlink:href="#DejaVuSans-61" transform="translate(534.765625 0)"/>
    </g>
   </g>
   <g id="text_16">
    <!-- LaTeX -->
    <g transform="translate(569.664375 432.13533) scale(0.12 -0.12)">
     <defs>
      <path id="DejaVuSans-Bold-54" d="M 31 4666 
L 4331 4666 
L 4331 3756 
L 2784 3756 
L 2784 0 
L 1581 0 
L 1581 3756 
L 31 3756 
L 31 4666 
z
" transform="scale(0.015625)"/>
     </defs>
     <use xlink:href="#DejaVuSans-Bold-4c"/>
     <use xlink:href="#DejaVuSans-Bold-61" transform="translate(63.720703 0)"/>
     <use xlink:href="#DejaVuSans-Bold-54" transform="translate(131.201172 0)"/>
     <use xlink:href="#DejaVuSans-Bold-65" transform="translate(186.164062 0)"/>
     <use xlink:href="#DejaVuSans-Bold-58" transform="translate(253.986328 0)"/>
    </g>
   </g>
   <g id="text_17">
    <!-- Reconstrucción -->
    <g transform="translate(553.232578 450.221325) scale(0.095 -0.095)">
     <use xlink:href="#DejaVuSans-52"/>
     <use xlink:href="#DejaVuSans-65" transform="translate(64.982422 0)"/>
     <use xlink:href="#DejaVuSans-63" transform="translate(126.505859 0)"/>
     <use xlink:href="#DejaVuSans-6f" transform="translate(181.486328 0)"/>
     <use xlink:href="#DejaVuSans-6e" transform="translate(242.667969 0)"/>
     <use xlink:href="#DejaVuSans-73" transform="translate(306.046875 0)"/>
     <use xlink:href="#DejaVuSans-74" transform="translate(358.146484 0)"/>
     <use xlink:href="#DejaVuSans-72" transform="translate(397.355469 0)"/>
     <use xlink:href="#DejaVuSans-75" transform="translate(438.46875 0)"/>
     <use xlink:href="#DejaVuSans-63" transform="translate(501.847656 0)"/>
     <use xlink:href="#DejaVuSans-63" transform="translate(556.828125 0)"/>
     <use xlink:href="#DejaVuSans-69" transform="translate(611.808594 0)"/>
     <use xlink:href="#DejaVuSans-f3" transform="translate(639.591797 0)"/>
     <use xlink:href="#DejaVuSans-6e" transform="translate(700.773438 0)"/>
    </g>
    <!-- editorial -->
    <g transform="translate(570.00082 460.859247) scale(0.095 -0.095)">
     <use xlink:href="#DejaVuSans-65"/>
     <use xlink:href="#DejaVuSans-64" transform="translate(61.523438 0)"/>
     <use xlink:href="#DejaVuSans-69" transform="translate(125 0)"/>
     <use xlink:href="#DejaVuSans-74" transform="translate(152.783203 0)"/>
     <use xlink:href="#DejaVuSans-6f" transform="translate(191.992188 0)"/>
     <use xlink:href="#DejaVuSans-72" transform="translate(253.173828 0)"/>
     <use xlink:href="#DejaVuSans-69" transform="translate(294.287109 0)"/>
     <use xlink:href="#DejaVuSans-61" transform="translate(322.070312 0)"/>
     <use xlink:href="#DejaVuSans-6c" transform="translate(383.349609 0)"/>
    </g>
   </g>
   <g id="text_18">
    <!-- PDF final -->
    <g transform="translate(318.199687 432.13533) scale(0.12 -0.12)">
     <use xlink:href="#DejaVuSans-Bold-50"/>
     <use xlink:href="#DejaVuSans-Bold-44" transform="translate(73.291016 0)"/>
     <use xlink:href="#DejaVuSans-Bold-46" transform="translate(156.298828 0)"/>
     <use xlink:href="#DejaVuSans-Bold-20" transform="translate(224.609375 0)"/>
     <use xlink:href="#DejaVuSans-Bold-66" transform="translate(259.423828 0)"/>
     <use xlink:href="#DejaVuSans-Bold-69" transform="translate(302.929688 0)"/>
     <use xlink:href="#DejaVuSans-Bold-6e" transform="translate(337.207031 0)"/>
     <use xlink:href="#DejaVuSans-Bold-61" transform="translate(408.398438 0)"/>
     <use xlink:href="#DejaVuSans-Bold-6c" transform="translate(475.878906 0)"/>
    </g>
   </g>
   <g id="text_19">
    <!-- Documento recompilado -->
    <g transform="translate(290.385 450.221325) scale(0.095 -0.095)">
     <use xlink:href="#DejaVuSans-44"/>
     <use xlink:href="#DejaVuSans-6f" transform="translate(77.001953 0)"/>
     <use xlink:href="#DejaVuSans-63" transform="translate(138.183594 0)"/>
     <use xlink:href="#DejaVuSans-75" transform="translate(193.164062 0)"/>
     <use xlink:href="#DejaVuSans-6d" transform="translate(256.542969 0)"/>
     <use xlink:href="#DejaVuSans-65" transform="translate(353.955078 0)"/>
     <use xlink:href="#DejaVuSans-6e" transform="translate(415.478516 0)"/>
     <use xlink:href="#DejaVuSans-74" transform="translate(478.857422 0)"/>
     <use xlink:href="#DejaVuSans-6f" transform="translate(518.066406 0)"/>
     <use xlink:href="#DejaVuSans-20" transform="translate(579.248047 0)"/>
     <use xlink:href="#DejaVuSans-72" transform="translate(611.035156 0)"/>
     <use xlink:href="#DejaVuSans-65" transform="translate(649.898438 0)"/>
     <use xlink:href="#DejaVuSans-63" transform="translate(711.421875 0)"/>
     <use xlink:href="#DejaVuSans-6f" transform="translate(766.402344 0)"/>
     <use xlink:href="#DejaVuSans-6d" transform="translate(827.583984 0)"/>
     <use xlink:href="#DejaVuSans-70" transform="translate(924.996094 0)"/>
     <use xlink:href="#DejaVuSans-69" transform="translate(988.472656 0)"/>
     <use xlink:href="#DejaVuSans-6c" transform="translate(1016.255859 0)"/>
     <use xlink:href="#DejaVuSans-61" transform="translate(1044.039062 0)"/>
     <use xlink:href="#DejaVuSans-64" transform="translate(1105.318359 0)"/>
     <use xlink:href="#DejaVuSans-6f" transform="translate(1168.794922 0)"/>
    </g>
    <!-- profesional -->
    <g transform="translate(322.506133 460.859247) scale(0.095 -0.095)">
     <use xlink:href="#DejaVuSans-70"/>
     <use xlink:href="#DejaVuSans-72" transform="translate(63.476562 0)"/>
     <use xlink:href="#DejaVuSans-6f" transform="translate(102.339844 0)"/>
     <use xlink:href="#DejaVuSans-66" transform="translate(163.521484 0)"/>
     <use xlink:href="#DejaVuSans-65" transform="translate(198.726562 0)"/>
     <use xlink:href="#DejaVuSans-73" transform="translate(260.25 0)"/>
     <use xlink:href="#DejaVuSans-69" transform="translate(312.349609 0)"/>
     <use xlink:href="#DejaVuSans-6f" transform="translate(340.132812 0)"/>
     <use xlink:href="#DejaVuSans-6e" transform="translate(401.314453 0)"/>
     <use xlink:href="#DejaVuSans-61" transform="translate(464.693359 0)"/>
     <use xlink:href="#DejaVuSans-6c" transform="translate(525.972656 0)"/>
    </g>
   </g>
   <g id="text_20">
    <!-- Gold Standard -->
    <g transform="translate(82.506563 432.13533) scale(0.12 -0.12)">
     <defs>
      <path id="DejaVuSans-Bold-53" d="M 3834 4519 
L 3834 3531 
Q 3450 3703 3084 3790 
Q 2719 3878 2394 3878 
Q 1963 3878 1756 3759 
Q 1550 3641 1550 3391 
Q 1550 3203 1689 3098 
Q 1828 2994 2194 2919 
L 2706 2816 
Q 3484 2659 3812 2340 
Q 4141 2022 4141 1434 
Q 4141 663 3683 286 
Q 3225 -91 2284 -91 
Q 1841 -91 1394 -6 
Q 947 78 500 244 
L 500 1259 
Q 947 1022 1364 901 
Q 1781 781 2169 781 
Q 2563 781 2772 912 
Q 2981 1044 2981 1288 
Q 2981 1506 2839 1625 
Q 2697 1744 2272 1838 
L 1806 1941 
Q 1106 2091 782 2419 
Q 459 2747 459 3303 
Q 459 4000 909 4375 
Q 1359 4750 2203 4750 
Q 2588 4750 2994 4692 
Q 3400 4634 3834 4519 
z
" transform="scale(0.015625)"/>
     </defs>
     <use xlink:href="#DejaVuSans-Bold-47"/>
     <use xlink:href="#DejaVuSans-Bold-6f" transform="translate(82.080078 0)"/>
     <use xlink:href="#DejaVuSans-Bold-6c" transform="translate(150.78125 0)"/>
     <use xlink:href="#DejaVuSans-Bold-64" transform="translate(185.058594 0)"/>
     <use xlink:href="#DejaVuSans-Bold-20" transform="translate(256.640625 0)"/>
     <use xlink:href="#DejaVuSans-Bold-53" transform="translate(291.455078 0)"/>
     <use xlink:href="#DejaVuSans-Bold-74" transform="translate(363.476562 0)"/>
     <use xlink:href="#DejaVuSans-Bold-61" transform="translate(411.279297 0)"/>
     <use xlink:href="#DejaVuSans-Bold-6e" transform="translate(478.759766 0)"/>
     <use xlink:href="#DejaVuSans-Bold-64" transform="translate(549.951172 0)"/>
     <use xlink:href="#DejaVuSans-Bold-61" transform="translate(621.533203 0)"/>
     <use xlink:href="#DejaVuSans-Bold-72" transform="translate(689.013672 0)"/>
     <use xlink:href="#DejaVuSans-Bold-64" transform="translate(738.330078 0)"/>
    </g>
   </g>
   <g id="text_21">
    <!-- Dataset estructurado -->
    <g transform="translate(80.497656 450.221325) scale(0.095 -0.095)">
     <use xlink:href="#DejaVuSans-44"/>
     <use xlink:href="#DejaVuSans-61" transform="translate(77.001953 0)"/>
     <use xlink:href="#DejaVuSans-74" transform="translate(138.28125 0)"/>
     <use xlink:href="#DejaVuSans-61" transform="translate(177.490234 0)"/>
     <use xlink:href="#DejaVuSans-73" transform="translate(238.769531 0)"/>
     <use xlink:href="#DejaVuSans-65" transform="translate(290.869141 0)"/>
     <use xlink:href="#DejaVuSans-74" transform="translate(352.392578 0)"/>
     <use xlink:href="#DejaVuSans-20" transform="translate(391.601562 0)"/>
     <use xlink:href="#DejaVuSans-65" transform="translate(423.388672 0)"/>
     <use xlink:href="#DejaVuSans-73" transform="translate(484.912109 0)"/>
     <use xlink:href="#DejaVuSans-74" transform="translate(537.011719 0)"/>
     <use xlink:href="#DejaVuSans-72" transform="translate(576.220703 0)"/>
     <use xlink:href="#DejaVuSans-75" transform="translate(617.333984 0)"/>
     <use xlink:href="#DejaVuSans-63" transform="translate(680.712891 0)"/>
     <use xlink:href="#DejaVuSans-74" transform="translate(735.693359 0)"/>
     <use xlink:href="#DejaVuSans-75" transform="translate(774.902344 0)"/>
     <use xlink:href="#DejaVuSans-72" transform="translate(838.28125 0)"/>
     <use xlink:href="#DejaVuSans-61" transform="translate(879.394531 0)"/>
     <use xlink:href="#DejaVuSans-64" transform="translate(940.673828 0)"/>
     <use xlink:href="#DejaVuSans-6f" transform="translate(1004.150391 0)"/>
    </g>
    <!-- para entrenamiento IA -->
    <g transform="translate(77.507383 460.859247) scale(0.095 -0.095)">
     <defs>
      <path id="DejaVuSans-49" d="M 628 4666 
L 1259 4666 
L 1259 0 
L 628 0 
L 628 4666 
z
" transform="scale(0.015625)"/>
      <path id="DejaVuSans-41" d="M 2188 4044 
L 1331 1722 
L 3047 1722 
L 2188 4044 
z
M 1831 4666 
L 2547 4666 
L 4325 0 
L 3669 0 
L 3244 1197 
L 1141 1197 
L 716 0 
L 50 0 
L 1831 4666 
z
" transform="scale(0.015625)"/>
     </defs>
     <use xlink:href="#DejaVuSans-70"/>
     <use xlink:href="#DejaVuSans-61" transform="translate(63.476562 0)"/>
     <use xlink:href="#DejaVuSans-72" transform="translate(124.755859 0)"/>
     <use xlink:href="#DejaVuSans-61" transform="translate(165.869141 0)"/>
     <use xlink:href="#DejaVuSans-20" transform="translate(227.148438 0)"/>
     <use xlink:href="#DejaVuSans-65" transform="translate(258.935547 0)"/>
     <use xlink:href="#DejaVuSans-6e" transform="translate(320.458984 0)"/>
     <use xlink:href="#DejaVuSans-74" transform="translate(383.837891 0)"/>
     <use xlink:href="#DejaVuSans-72" transform="translate(423.046875 0)"/>
     <use xlink:href="#DejaVuSans-65" transform="translate(461.910156 0)"/>
     <use xlink:href="#DejaVuSans-6e" transform="translate(523.433594 0)"/>
     <use xlink:href="#DejaVuSans-61" transform="translate(586.8125 0)"/>
     <use xlink:href="#DejaVuSans-6d" transform="translate(648.091797 0)"/>
     <use xlink:href="#DejaVuSans-69" transform="translate(745.503906 0)"/>
     <use xlink:href="#DejaVuSans-65" transform="translate(773.287109 0)"/>
     <use xlink:href="#DejaVuSans-6e" transform="translate(834.810547 0)"/>
     <use xlink:href="#DejaVuSans-74" transform="translate(898.189453 0)"/>
     <use xlink:href="#DejaVuSans-6f" transform="translate(937.398438 0)"/>
     <use xlink:href="#DejaVuSans-20" transform="translate(998.580078 0)"/>
     <use xlink:href="#DejaVuSans-49" transform="translate(1030.367188 0)"/>
     <use xlink:href="#DejaVuSans-41" transform="translate(1059.859375 0)"/>
    </g>
   </g>
   <g id="text_22">
    <!-- Prompt -->
    <g transform="translate(522.765469 90.065855) scale(0.1 -0.1)">
     <use xlink:href="#DejaVuSans-Bold-50"/>
     <use xlink:href="#DejaVuSans-Bold-72" transform="translate(73.291016 0)"/>
     <use xlink:href="#DejaVuSans-Bold-6f" transform="translate(122.607422 0)"/>
     <use xlink:href="#DejaVuSans-Bold-6d" transform="translate(191.308594 0)"/>
     <use xlink:href="#DejaVuSans-Bold-70" transform="translate(295.507812 0)"/>
     <use xlink:href="#DejaVuSans-Bold-74" transform="translate(367.089844 0)"/>
    </g>
   </g>
   <g id="text_23">
    <!-- Few-shot -->
    <g transform="translate(620.508281 90.065855) scale(0.1 -0.1)">
     <defs>
      <path id="DejaVuSans-Bold-77" d="M 225 3500 
L 1313 3500 
L 1900 1088 
L 2491 3500 
L 3425 3500 
L 4013 1113 
L 4603 3500 
L 5691 3500 
L 4769 0 
L 3547 0 
L 2956 2406 
L 2369 0 
L 1147 0 
L 225 3500 
z
" transform="scale(0.015625)"/>
      <path id="DejaVuSans-Bold-2d" d="M 347 2297 
L 2309 2297 
L 2309 1388 
L 347 1388 
L 347 2297 
z
" transform="scale(0.015625)"/>
      <path id="DejaVuSans-Bold-68" d="M 4056 2131 
L 4056 0 
L 2931 0 
L 2931 347 
L 2931 1625 
Q 2931 2084 2911 2256 
Q 2891 2428 2841 2509 
Q 2775 2619 2662 2680 
Q 2550 2741 2406 2741 
Q 2056 2741 1856 2470 
Q 1656 2200 1656 1722 
L 1656 0 
L 538 0 
L 538 4863 
L 1656 4863 
L 1656 2988 
Q 1909 3294 2193 3439 
Q 2478 3584 2822 3584 
Q 3428 3584 3742 3212 
Q 4056 2841 4056 2131 
z
" transform="scale(0.015625)"/>
     </defs>
     <use xlink:href="#DejaVuSans-Bold-46"/>
     <use xlink:href="#DejaVuSans-Bold-65" transform="translate(64.310547 0)"/>
     <use xlink:href="#DejaVuSans-Bold-77" transform="translate(132.132812 0)"/>
     <use xlink:href="#DejaVuSans-Bold-2d" transform="translate(224.515625 0)"/>
     <use xlink:href="#DejaVuSans-Bold-73" transform="translate(266.019531 0)"/>
     <use xlink:href="#DejaVuSans-Bold-68" transform="translate(325.541016 0)"/>
     <use xlink:href="#DejaVuSans-Bold-6f" transform="translate(396.732422 0)"/>
     <use xlink:href="#DejaVuSans-Bold-74" transform="translate(465.433594 0)"/>
    </g>
   </g>
   <g id="text_24">
    <!-- DTD -->
    <g transform="translate(1098.1975 90.065855) scale(0.1 -0.1)">
     <use xlink:href="#DejaVuSans-Bold-44"/>
     <use xlink:href="#DejaVuSans-Bold-54" transform="translate(83.007812 0)"/>
     <use xlink:href="#DejaVuSans-Bold-44" transform="translate(151.220703 0)"/>
    </g>
   </g>
   <g id="text_25">
    <!-- Etiquetas clave -->
    <g transform="translate(790.557187 88.389695) scale(0.1 -0.1)">
     <defs>
      <path id="DejaVuSans-Bold-45" d="M 588 4666 
L 3834 4666 
L 3834 3756 
L 1791 3756 
L 1791 2888 
L 3713 2888 
L 3713 1978 
L 1791 1978 
L 1791 909 
L 3903 909 
L 3903 0 
L 588 0 
L 588 4666 
z
" transform="scale(0.015625)"/>
     </defs>
     <use xlink:href="#DejaVuSans-Bold-45"/>
     <use xlink:href="#DejaVuSans-Bold-74" transform="translate(68.310547 0)"/>
     <use xlink:href="#DejaVuSans-Bold-69" transform="translate(116.113281 0)"/>
     <use xlink:href="#DejaVuSans-Bold-71" transform="translate(150.390625 0)"/>
     <use xlink:href="#DejaVuSans-Bold-75" transform="translate(221.972656 0)"/>
     <use xlink:href="#DejaVuSans-Bold-65" transform="translate(293.164062 0)"/>
     <use xlink:href="#DejaVuSans-Bold-74" transform="translate(360.986328 0)"/>
     <use xlink:href="#DejaVuSans-Bold-61" transform="translate(408.789062 0)"/>
     <use xlink:href="#DejaVuSans-Bold-73" transform="translate(476.269531 0)"/>
     <use xlink:href="#DejaVuSans-Bold-20" transform="translate(535.791016 0)"/>
     <use xlink:href="#DejaVuSans-Bold-63" transform="translate(570.605469 0)"/>
     <use xlink:href="#DejaVuSans-Bold-6c" transform="translate(629.882812 0)"/>
     <use xlink:href="#DejaVuSans-Bold-61" transform="translate(664.160156 0)"/>
     <use xlink:href="#DejaVuSans-Bold-76" transform="translate(731.640625 0)"/>
     <use xlink:href="#DejaVuSans-Bold-65" transform="translate(796.826172 0)"/>
    </g>
   </g>
   <g id="text_26">
    <!-- morpheme_analysis · syntactic_analysis -->
    <g transform="translate(738.589609 105.928817) scale(0.095 -0.095)">
     <defs>
      <path id="DejaVuSans-b7" d="M 684 2619 
L 1344 2619 
L 1344 1825 
L 684 1825 
L 684 2619 
z
" transform="scale(0.015625)"/>
     </defs>
     <use xlink:href="#DejaVuSans-6d"/>
     <use xlink:href="#DejaVuSans-6f" transform="translate(97.412109 0)"/>
     <use xlink:href="#DejaVuSans-72" transform="translate(158.59375 0)"/>
     <use xlink:href="#DejaVuSans-70" transform="translate(199.707031 0)"/>
     <use xlink:href="#DejaVuSans-68" transform="translate(263.183594 0)"/>
     <use xlink:href="#DejaVuSans-65" transform="translate(326.5625 0)"/>
     <use xlink:href="#DejaVuSans-6d" transform="translate(388.085938 0)"/>
     <use xlink:href="#DejaVuSans-65" transform="translate(485.498047 0)"/>
     <use xlink:href="#DejaVuSans-5f" transform="translate(547.021484 0)"/>
     <use xlink:href="#DejaVuSans-61" transform="translate(597.021484 0)"/>
     <use xlink:href="#DejaVuSans-6e" transform="translate(658.300781 0)"/>
     <use xlink:href="#DejaVuSans-61" transform="translate(721.679688 0)"/>
     <use xlink:href="#DejaVuSans-6c" transform="translate(782.958984 0)"/>
     <use xlink:href="#DejaVuSans-79" transform="translate(810.742188 0)"/>
     <use xlink:href="#DejaVuSans-73" transform="translate(869.921875 0)"/>
     <use xlink:href="#DejaVuSans-69" transform="translate(922.021484 0)"/>
     <use xlink:href="#DejaVuSans-73" transform="translate(949.804688 0)"/>
     <use xlink:href="#DejaVuSans-20" transform="translate(1001.904297 0)"/>
     <use xlink:href="#DejaVuSans-b7" transform="translate(1033.691406 0)"/>
     <use xlink:href="#DejaVuSans-20" transform="translate(1065.478516 0)"/>
     <use xlink:href="#DejaVuSans-73" transform="translate(1097.265625 0)"/>
     <use xlink:href="#DejaVuSans-79" transform="translate(1149.365234 0)"/>
     <use xlink:href="#DejaVuSans-6e" transform="translate(1208.544922 0)"/>
     <use xlink:href="#DejaVuSans-74" transform="translate(1271.923828 0)"/>
     <use xlink:href="#DejaVuSans-61" transform="translate(1311.132812 0)"/>
     <use xlink:href="#DejaVuSans-63" transform="translate(1372.412109 0)"/>
     <use xlink:href="#DejaVuSans-74" transform="translate(1427.392578 0)"/>
     <use xlink:href="#DejaVuSans-69" transform="translate(1466.601562 0)"/>
     <use xlink:href="#DejaVuSans-63" transform="translate(1494.384766 0)"/>
     <use xlink:href="#DejaVuSans-5f" transform="translate(1549.365234 0)"/>
     <use xlink:href="#DejaVuSans-61" transform="translate(1599.365234 0)"/>
     <use xlink:href="#DejaVuSans-6e" transform="translate(1660.644531 0)"/>
     <use xlink:href="#DejaVuSans-61" transform="translate(1724.023438 0)"/>
     <use xlink:href="#DejaVuSans-6c" transform="translate(1785.302734 0)"/>
     <use xlink:href="#DejaVuSans-79" transform="translate(1813.085938 0)"/>
     <use xlink:href="#DejaVuSans-73" transform="translate(1872.265625 0)"/>
     <use xlink:href="#DejaVuSans-69" transform="translate(1924.365234 0)"/>
     <use xlink:href="#DejaVuSans-73" transform="translate(1952.148438 0)"/>
    </g>
   </g>
   <g id="patch_23">
    <path d="M 212.979785 190.1808 
Q 237.29986 190.1808 259.998786 190.1808 
" style="fill: none; stroke: #1f2937; stroke-width: 1.45; stroke-linecap: round"/>
    <path d="M 255.998786 188.1808 
L 259.998786 190.1808 
L 255.998786 192.1808 
" style="fill: none; stroke: #1f2937; stroke-width: 1.45; stroke-linecap: round"/>
   </g>
   <g id="patch_24">
    <path d="M 436.000001 190.1808 
Q 462.089205 190.1808 486.55726 190.1808 
" style="fill: none; stroke: #1f2937; stroke-width: 1.45; stroke-linecap: round"/>
    <path d="M 482.55726 188.1808 
L 486.55726 190.1808 
L 482.55726 192.1808 
" style="fill: none; stroke: #1f2937; stroke-width: 1.45; stroke-linecap: round"/>
   </g>
   <g id="patch_25">
    <path d="M 694.419785 190.1808 
Q 718.73986 190.1808 741.438786 190.1808 
" style="fill: none; stroke: #1f2937; stroke-width: 1.45; stroke-linecap: round"/>
    <path d="M 737.438786 188.1808 
L 741.438786 190.1808 
L 737.438786 192.1808 
" style="fill: none; stroke: #1f2937; stroke-width: 1.45; stroke-linecap: round"/>
   </g>
   <g id="patch_26">
    <path d="M 924.520649 190.1808 
Q 925.831268 190.1808 925.520737 190.1808 
" style="fill: none; stroke: #1f2937; stroke-width: 1.45; stroke-linecap: round"/>
    <path d="M 921.520737 188.1808 
L 925.520737 190.1808 
L 921.520737 192.1808 
" style="fill: none; stroke: #1f2937; stroke-width: 1.45; stroke-linecap: round"/>
   </g>
   <g id="patch_27">
    <path d="M 544.729468 118.106039 
Q 552.358734 124.879276 558.775681 130.576219 
" style="fill: none; stroke-dasharray: 5.8,4.35; stroke-dashoffset: 0; stroke: #1f2937; stroke-width: 1.45; stroke-linecap: round"/>
    <path d="M 557.112236 126.42496 
L 558.775681 130.576219 
L 554.456607 129.416219 
" style="fill: none; stroke-dasharray: 5.8,4.35; stroke-dashoffset: 0; stroke: #1f2937; stroke-width: 1.45; stroke-linecap: round"/>
   </g>
   <g id="patch_28">
    <path d="M 642.966801 118.262566 
Q 636.258136 124.880266 630.703594 130.359492 
" style="fill: none; stroke-dasharray: 5.8,4.35; stroke-dashoffset: 0; stroke: #1f2937; stroke-width: 1.45; stroke-linecap: round"/>
    <path d="M 634.955789 128.974271 
L 630.703594 130.359492 
L 632.146734 126.126604 
" style="fill: none; stroke-dasharray: 5.8,4.35; stroke-dashoffset: 0; stroke: #1f2937; stroke-width: 1.45; stroke-linecap: round"/>
   </g>
   <g id="patch_29">
    <path d="M 1104.856901 117.740598 
Q 1081.588844 133.960405 1059.650704 149.253148 
" style="fill: none; stroke-dasharray: 5.8,4.35; stroke-dashoffset: 0; stroke: #1f2937; stroke-width: 1.45; stroke-linecap: round"/>
    <path d="M 1064.075832 148.606431 
L 1059.650704 149.253148 
L 1061.788408 145.325016 
" style="fill: none; stroke-dasharray: 5.8,4.35; stroke-dashoffset: 0; stroke: #1f2937; stroke-width: 1.45; stroke-linecap: round"/>
   </g>
   <g id="patch_30">
    <path d="M 832.02 126.438927 
Q 832.02 135.357213 832.02 142.654351 
" style="fill: none; stroke-dasharray: 5.8,4.35; stroke-dashoffset: 0; stroke: #1f2937; stroke-width: 1.45; stroke-linecap: round"/>
    <path d="M 834.02 138.654351 
L 832.02 142.654351 
L 830.02 138.654351 
" style="fill: none; stroke-dasharray: 5.8,4.35; stroke-dashoffset: 0; stroke: #1f2937; stroke-width: 1.45; stroke-linecap: round"/>
   </g>
   <g id="patch_31">
    <path d="M 1001.94 238.181392 
Q 1001.94 297.036539 1001.94 355.891685 
" style="fill: none; stroke: #1f2937; stroke-width: 1.45; stroke-linecap: round"/>
   </g>
   <g id="patch_32">
    <path d="M 999.055215 362.663434 
Q 961.229226 399.003144 924.572299 434.219726 
" style="fill: none; stroke: #1f2937; stroke-width: 1.45; stroke-linecap: round"/>
    <path d="M 928.842423 432.890802 
L 924.572299 434.219726 
L 926.071234 430.006272 
" style="fill: none; stroke: #1f2937; stroke-width: 1.45; stroke-linecap: round"/>
   </g>
   <g id="text_27">
    <!-- válido -->
    <g transform="translate(968.885063 291.713875) scale(0.088 -0.088)">
     <use xlink:href="#DejaVuSans-76"/>
     <use xlink:href="#DejaVuSans-e1" transform="translate(59.179688 0)"/>
     <use xlink:href="#DejaVuSans-6c" transform="translate(120.458984 0)"/>
     <use xlink:href="#DejaVuSans-69" transform="translate(148.242188 0)"/>
     <use xlink:href="#DejaVuSans-64" transform="translate(176.025391 0)"/>
     <use xlink:href="#DejaVuSans-6f" transform="translate(239.501953 0)"/>
    </g>
   </g>
   <g id="patch_33">
    <path d="M 1076.742594 190.1808 
Q 1118.761057 190.1808 1160.779521 190.1808 
" style="fill: none; stroke: #1f2937; stroke-width: 1.45; stroke-linecap: round"/>
   </g>
   <g id="patch_34">
    <path d="M 1164.78 194.182597 
Q 1164.78 240.117581 1164.78 284.431416 
" style="fill: none; stroke: #1f2937; stroke-width: 1.45; stroke-linecap: round"/>
    <path d="M 1166.78 280.431416 
L 1164.78 284.431416 
L 1162.78 280.431416 
" style="fill: none; stroke: #1f2937; stroke-width: 1.45; stroke-linecap: round"/>
   </g>
   <g id="text_28">
    <!-- inválido -->
    <g transform="translate(1101.518188 177.176275) scale(0.088 -0.088)">
     <use xlink:href="#DejaVuSans-69"/>
     <use xlink:href="#DejaVuSans-6e" transform="translate(27.783203 0)"/>
     <use xlink:href="#DejaVuSans-76" transform="translate(91.162109 0)"/>
     <use xlink:href="#DejaVuSans-e1" transform="translate(150.341797 0)"/>
     <use xlink:href="#DejaVuSans-6c" transform="translate(211.621094 0)"/>
     <use xlink:href="#DejaVuSans-69" transform="translate(239.404297 0)"/>
     <use xlink:href="#DejaVuSans-64" transform="translate(267.1875 0)"/>
     <use xlink:href="#DejaVuSans-6f" transform="translate(330.664062 0)"/>
    </g>
   </g>
   <g id="patch_35">
    <path d="M 1082.898054 324.972 
Q 1074.508966 324.972 1066.119877 324.972 
" style="fill: none; stroke-dasharray: 5.8,4.35; stroke-dashoffset: 0; stroke: #1f2937; stroke-width: 1.45; stroke-linecap: round"/>
   </g>
   <g id="patch_36">
    <path d="M 1062.12 320.970608 
Q 1062.12 276.082253 1062.12 232.815047 
" style="fill: none; stroke-dasharray: 5.8,4.35; stroke-dashoffset: 0; stroke: #1f2937; stroke-width: 1.45; stroke-linecap: round"/>
    <path d="M 1060.12 236.815047 
L 1062.12 232.815047 
L 1064.12 236.815047 
" style="fill: none; stroke-dasharray: 5.8,4.35; stroke-dashoffset: 0; stroke: #1f2937; stroke-width: 1.45; stroke-linecap: round"/>
   </g>
   <g id="text_29">
    <!-- XML corregido -->
    <g transform="translate(1040.619023 314.125066) scale(0.085 -0.085)">
     <defs>
      <path id="DejaVuSans-58" d="M 403 4666 
L 1081 4666 
L 2241 2931 
L 3406 4666 
L 4084 4666 
L 2584 2425 
L 4184 0 
L 3506 0 
L 2194 1984 
L 872 0 
L 191 0 
L 1856 2491 
L 403 4666 
z
" transform="scale(0.015625)"/>
     </defs>
     <use xlink:href="#DejaVuSans-58"/>
     <use xlink:href="#DejaVuSans-4d" transform="translate(68.505859 0)"/>
     <use xlink:href="#DejaVuSans-4c" transform="translate(154.785156 0)"/>
     <use xlink:href="#DejaVuSans-20" transform="translate(210.498047 0)"/>
     <use xlink:href="#DejaVuSans-63" transform="translate(242.285156 0)"/>
     <use xlink:href="#DejaVuSans-6f" transform="translate(297.265625 0)"/>
     <use xlink:href="#DejaVuSans-72" transform="translate(358.447266 0)"/>
     <use xlink:href="#DejaVuSans-72" transform="translate(397.810547 0)"/>
     <use xlink:href="#DejaVuSans-65" transform="translate(436.673828 0)"/>
     <use xlink:href="#DejaVuSans-67" transform="translate(498.197266 0)"/>
     <use xlink:href="#DejaVuSans-69" transform="translate(561.673828 0)"/>
     <use xlink:href="#DejaVuSans-64" transform="translate(589.457031 0)"/>
     <use xlink:href="#DejaVuSans-6f" transform="translate(652.933594 0)"/>
    </g>
   </g>
   <g id="patch_37">
    <path d="M 743.062808 438.1128 
Q 711.661329 438.1128 681.881 438.1128 
" style="fill: none; stroke: #1f2937; stroke-width: 1.45; stroke-linecap: round"/>
    <path d="M 685.881 440.1128 
L 681.881 438.1128 
L 685.881 436.1128 
" style="fill: none; stroke: #1f2937; stroke-width: 1.45; stroke-linecap: round"/>
   </g>
   <g id="patch_38">
    <path d="M 498.802808 438.1128 
Q 467.401329 438.1128 437.621 438.1128 
" style="fill: none; stroke: #1f2937; stroke-width: 1.45; stroke-linecap: round"/>
    <path d="M 441.621 440.1128 
L 437.621 438.1128 
L 441.621 436.1128 
" style="fill: none; stroke: #1f2937; stroke-width: 1.45; stroke-linecap: round"/>
   </g>
   <g id="patch_39">
    <path d="M 261.620215 438.1128 
Q 237.30014 438.1128 214.601214 438.1128 
" style="fill: none; stroke: #1f2937; stroke-width: 1.45; stroke-linecap: round"/>
    <path d="M 218.601214 440.1128 
L 214.601214 438.1128 
L 218.601214 436.1128 
" style="fill: none; stroke: #1f2937; stroke-width: 1.45; stroke-linecap: round"/>
   </g>
   <g id="text_30">
    <!-- entrada -->
    <g transform="translate(112.640445 265.159869) scale(0.085 -0.085)">
     <use xlink:href="#DejaVuSans-Bold-65"/>
     <use xlink:href="#DejaVuSans-Bold-6e" transform="translate(67.822266 0)"/>
     <use xlink:href="#DejaVuSans-Bold-74" transform="translate(139.013672 0)"/>
     <use xlink:href="#DejaVuSans-Bold-72" transform="translate(186.816406 0)"/>
     <use xlink:href="#DejaVuSans-Bold-61" transform="translate(236.132812 0)"/>
     <use xlink:href="#DejaVuSans-Bold-64" transform="translate(303.613281 0)"/>
     <use xlink:href="#DejaVuSans-Bold-61" transform="translate(375.195312 0)"/>
    </g>
   </g>
   <g id="text_31">
    <!-- PDFProcessor -->
    <g transform="translate(315.656016 265.159869) scale(0.085 -0.085)">
     <use xlink:href="#DejaVuSans-Bold-50"/>
     <use xlink:href="#DejaVuSans-Bold-44" transform="translate(73.291016 0)"/>
     <use xlink:href="#DejaVuSans-Bold-46" transform="translate(156.298828 0)"/>
     <use xlink:href="#DejaVuSans-Bold-50" transform="translate(224.609375 0)"/>
     <use xlink:href="#DejaVuSans-Bold-72" transform="translate(297.900391 0)"/>
     <use xlink:href="#DejaVuSans-Bold-6f" transform="translate(347.216797 0)"/>
     <use xlink:href="#DejaVuSans-Bold-63" transform="translate(415.917969 0)"/>
     <use xlink:href="#DejaVuSans-Bold-65" transform="translate(475.195312 0)"/>
     <use xlink:href="#DejaVuSans-Bold-73" transform="translate(543.017578 0)"/>
     <use xlink:href="#DejaVuSans-Bold-73" transform="translate(602.539062 0)"/>
     <use xlink:href="#DejaVuSans-Bold-6f" transform="translate(662.060547 0)"/>
     <use xlink:href="#DejaVuSans-Bold-72" transform="translate(730.761719 0)"/>
    </g>
   </g>
   <g id="text_32">
    <!-- AIGenerator -->
    <g transform="translate(560.369687 274.239069) scale(0.085 -0.085)">
     <use xlink:href="#DejaVuSans-Bold-41"/>
     <use xlink:href="#DejaVuSans-Bold-49" transform="translate(77.392578 0)"/>
     <use xlink:href="#DejaVuSans-Bold-47" transform="translate(114.599609 0)"/>
     <use xlink:href="#DejaVuSans-Bold-65" transform="translate(196.679688 0)"/>
     <use xlink:href="#DejaVuSans-Bold-6e" transform="translate(264.501953 0)"/>
     <use xlink:href="#DejaVuSans-Bold-65" transform="translate(335.693359 0)"/>
     <use xlink:href="#DejaVuSans-Bold-72" transform="translate(403.515625 0)"/>
     <use xlink:href="#DejaVuSans-Bold-61" transform="translate(452.832031 0)"/>
     <use xlink:href="#DejaVuSans-Bold-74" transform="translate(520.3125 0)"/>
     <use xlink:href="#DejaVuSans-Bold-6f" transform="translate(568.115234 0)"/>
     <use xlink:href="#DejaVuSans-Bold-72" transform="translate(636.816406 0)"/>
    </g>
   </g>
   <g id="text_33">
    <!-- XML -->
    <g transform="translate(823.576055 265.159869) scale(0.085 -0.085)">
     <use xlink:href="#DejaVuSans-Bold-58"/>
     <use xlink:href="#DejaVuSans-Bold-4d" transform="translate(77.099609 0)"/>
     <use xlink:href="#DejaVuSans-Bold-4c" transform="translate(176.611328 0)"/>
    </g>
   </g>
   <g id="text_34">
    <!-- Converter -->
    <g transform="translate(564.290758 513.091869) scale(0.085 -0.085)">
     <use xlink:href="#DejaVuSans-Bold-43"/>
     <use xlink:href="#DejaVuSans-Bold-6f" transform="translate(73.388672 0)"/>
     <use xlink:href="#DejaVuSans-Bold-6e" transform="translate(142.089844 0)"/>
     <use xlink:href="#DejaVuSans-Bold-76" transform="translate(213.28125 0)"/>
     <use xlink:href="#DejaVuSans-Bold-65" transform="translate(278.466797 0)"/>
     <use xlink:href="#DejaVuSans-Bold-72" transform="translate(346.289062 0)"/>
     <use xlink:href="#DejaVuSans-Bold-74" transform="translate(395.605469 0)"/>
     <use xlink:href="#DejaVuSans-Bold-65" transform="translate(443.408203 0)"/>
     <use xlink:href="#DejaVuSans-Bold-72" transform="translate(511.230469 0)"/>
    </g>
   </g>
   <g id="text_35">
    <!-- Compiler -->
    <g transform="translate(323.86793 513.091869) scale(0.085 -0.085)">
     <use xlink:href="#DejaVuSans-Bold-43"/>
     <use xlink:href="#DejaVuSans-Bold-6f" transform="translate(73.388672 0)"/>
     <use xlink:href="#DejaVuSans-Bold-6d" transform="translate(142.089844 0)"/>
     <use xlink:href="#DejaVuSans-Bold-70" transform="translate(246.289062 0)"/>
     <use xlink:href="#DejaVuSans-Bold-69" transform="translate(317.871094 0)"/>
     <use xlink:href="#DejaVuSans-Bold-6c" transform="translate(352.148438 0)"/>
     <use xlink:href="#DejaVuSans-Bold-65" transform="translate(386.425781 0)"/>
     <use xlink:href="#DejaVuSans-Bold-72" transform="translate(454.248047 0)"/>
    </g>
   </g>
   <g id="text_36">
    <!-- salida -->
    <g transform="translate(117.232437 513.091869) scale(0.085 -0.085)">
     <use xlink:href="#DejaVuSans-Bold-73"/>
     <use xlink:href="#DejaVuSans-Bold-61" transform="translate(59.521484 0)"/>
     <use xlink:href="#DejaVuSans-Bold-6c" transform="translate(127.001953 0)"/>
     <use xlink:href="#DejaVuSans-Bold-69" transform="translate(161.279297 0)"/>
     <use xlink:href="#DejaVuSans-Bold-64" transform="translate(195.556641 0)"/>
     <use xlink:href="#DejaVuSans-Bold-61" transform="translate(267.138672 0)"/>
    </g>
   </g>
  </g>
 </g>
 <defs>
  <clipPath id="p4f1e79c84d">
   <rect x="7.2" y="7.2" width="1274.4" height="698.4"/>
  </clipPath>
 </defs>
</svg>
